%TF.GenerationSoftware,KiCad,Pcbnew,8.0.3*%
%TF.CreationDate,2026-01-09T14:43:18+01:00*%
%TF.ProjectId,VintageRadio,56696e74-6167-4655-9261-64696f2e6b69,rev?*%
%TF.SameCoordinates,Original*%
%TF.FileFunction,Legend,Top*%
%TF.FilePolarity,Positive*%
%FSLAX46Y46*%
G04 Gerber Fmt 4.6, Leading zero omitted, Abs format (unit mm)*
G04 Created by KiCad (PCBNEW 8.0.3) date 2026-01-09 14:43:18*
%MOMM*%
%LPD*%
G01*
G04 APERTURE LIST*
%ADD10C,0.100000*%
%ADD11C,0.300000*%
%ADD12C,0.150000*%
%ADD13C,0.120000*%
G04 APERTURE END LIST*
D10*
X191985000Y-74365000D02*
X211035000Y-74365000D01*
X211035000Y-98495000D01*
X191985000Y-98495000D01*
X191985000Y-74365000D01*
D11*
X211822631Y-57986752D02*
X212298821Y-59320086D01*
X212298821Y-59320086D02*
X212775012Y-57986752D01*
X213917869Y-57320086D02*
X214108346Y-57320086D01*
X214108346Y-57320086D02*
X214298822Y-57415324D01*
X214298822Y-57415324D02*
X214394060Y-57510562D01*
X214394060Y-57510562D02*
X214489298Y-57701038D01*
X214489298Y-57701038D02*
X214584536Y-58081990D01*
X214584536Y-58081990D02*
X214584536Y-58558181D01*
X214584536Y-58558181D02*
X214489298Y-58939133D01*
X214489298Y-58939133D02*
X214394060Y-59129609D01*
X214394060Y-59129609D02*
X214298822Y-59224848D01*
X214298822Y-59224848D02*
X214108346Y-59320086D01*
X214108346Y-59320086D02*
X213917869Y-59320086D01*
X213917869Y-59320086D02*
X213727393Y-59224848D01*
X213727393Y-59224848D02*
X213632155Y-59129609D01*
X213632155Y-59129609D02*
X213536917Y-58939133D01*
X213536917Y-58939133D02*
X213441679Y-58558181D01*
X213441679Y-58558181D02*
X213441679Y-58081990D01*
X213441679Y-58081990D02*
X213536917Y-57701038D01*
X213536917Y-57701038D02*
X213632155Y-57510562D01*
X213632155Y-57510562D02*
X213727393Y-57415324D01*
X213727393Y-57415324D02*
X213917869Y-57320086D01*
X215441679Y-59129609D02*
X215536917Y-59224848D01*
X215536917Y-59224848D02*
X215441679Y-59320086D01*
X215441679Y-59320086D02*
X215346441Y-59224848D01*
X215346441Y-59224848D02*
X215441679Y-59129609D01*
X215441679Y-59129609D02*
X215441679Y-59320086D01*
X216298822Y-57510562D02*
X216394060Y-57415324D01*
X216394060Y-57415324D02*
X216584536Y-57320086D01*
X216584536Y-57320086D02*
X217060727Y-57320086D01*
X217060727Y-57320086D02*
X217251203Y-57415324D01*
X217251203Y-57415324D02*
X217346441Y-57510562D01*
X217346441Y-57510562D02*
X217441679Y-57701038D01*
X217441679Y-57701038D02*
X217441679Y-57891514D01*
X217441679Y-57891514D02*
X217346441Y-58177228D01*
X217346441Y-58177228D02*
X216203584Y-59320086D01*
X216203584Y-59320086D02*
X217441679Y-59320086D01*
X201441678Y-62444736D02*
X201727392Y-62539974D01*
X201727392Y-62539974D02*
X202203583Y-62539974D01*
X202203583Y-62539974D02*
X202394059Y-62444736D01*
X202394059Y-62444736D02*
X202489297Y-62349497D01*
X202489297Y-62349497D02*
X202584535Y-62159021D01*
X202584535Y-62159021D02*
X202584535Y-61968545D01*
X202584535Y-61968545D02*
X202489297Y-61778069D01*
X202489297Y-61778069D02*
X202394059Y-61682831D01*
X202394059Y-61682831D02*
X202203583Y-61587593D01*
X202203583Y-61587593D02*
X201822630Y-61492355D01*
X201822630Y-61492355D02*
X201632154Y-61397116D01*
X201632154Y-61397116D02*
X201536916Y-61301878D01*
X201536916Y-61301878D02*
X201441678Y-61111402D01*
X201441678Y-61111402D02*
X201441678Y-60920926D01*
X201441678Y-60920926D02*
X201536916Y-60730450D01*
X201536916Y-60730450D02*
X201632154Y-60635212D01*
X201632154Y-60635212D02*
X201822630Y-60539974D01*
X201822630Y-60539974D02*
X202298821Y-60539974D01*
X202298821Y-60539974D02*
X202584535Y-60635212D01*
X203441678Y-62539974D02*
X203441678Y-61206640D01*
X203441678Y-60539974D02*
X203346440Y-60635212D01*
X203346440Y-60635212D02*
X203441678Y-60730450D01*
X203441678Y-60730450D02*
X203536916Y-60635212D01*
X203536916Y-60635212D02*
X203441678Y-60539974D01*
X203441678Y-60539974D02*
X203441678Y-60730450D01*
X204394059Y-61206640D02*
X204394059Y-62539974D01*
X204394059Y-61397116D02*
X204489297Y-61301878D01*
X204489297Y-61301878D02*
X204679773Y-61206640D01*
X204679773Y-61206640D02*
X204965488Y-61206640D01*
X204965488Y-61206640D02*
X205155964Y-61301878D01*
X205155964Y-61301878D02*
X205251202Y-61492355D01*
X205251202Y-61492355D02*
X205251202Y-62539974D01*
X207060726Y-61206640D02*
X207060726Y-62825688D01*
X207060726Y-62825688D02*
X206965488Y-63016164D01*
X206965488Y-63016164D02*
X206870250Y-63111402D01*
X206870250Y-63111402D02*
X206679773Y-63206640D01*
X206679773Y-63206640D02*
X206394059Y-63206640D01*
X206394059Y-63206640D02*
X206203583Y-63111402D01*
X207060726Y-62444736D02*
X206870250Y-62539974D01*
X206870250Y-62539974D02*
X206489297Y-62539974D01*
X206489297Y-62539974D02*
X206298821Y-62444736D01*
X206298821Y-62444736D02*
X206203583Y-62349497D01*
X206203583Y-62349497D02*
X206108345Y-62159021D01*
X206108345Y-62159021D02*
X206108345Y-61587593D01*
X206108345Y-61587593D02*
X206203583Y-61397116D01*
X206203583Y-61397116D02*
X206298821Y-61301878D01*
X206298821Y-61301878D02*
X206489297Y-61206640D01*
X206489297Y-61206640D02*
X206870250Y-61206640D01*
X206870250Y-61206640D02*
X207060726Y-61301878D01*
X208298821Y-62539974D02*
X208108345Y-62444736D01*
X208108345Y-62444736D02*
X208013107Y-62254259D01*
X208013107Y-62254259D02*
X208013107Y-60539974D01*
X209822631Y-62444736D02*
X209632155Y-62539974D01*
X209632155Y-62539974D02*
X209251202Y-62539974D01*
X209251202Y-62539974D02*
X209060726Y-62444736D01*
X209060726Y-62444736D02*
X208965488Y-62254259D01*
X208965488Y-62254259D02*
X208965488Y-61492355D01*
X208965488Y-61492355D02*
X209060726Y-61301878D01*
X209060726Y-61301878D02*
X209251202Y-61206640D01*
X209251202Y-61206640D02*
X209632155Y-61206640D01*
X209632155Y-61206640D02*
X209822631Y-61301878D01*
X209822631Y-61301878D02*
X209917869Y-61492355D01*
X209917869Y-61492355D02*
X209917869Y-61682831D01*
X209917869Y-61682831D02*
X208965488Y-61873307D01*
X212298822Y-62539974D02*
X212298822Y-60539974D01*
X212298822Y-60539974D02*
X213060727Y-60539974D01*
X213060727Y-60539974D02*
X213251203Y-60635212D01*
X213251203Y-60635212D02*
X213346441Y-60730450D01*
X213346441Y-60730450D02*
X213441679Y-60920926D01*
X213441679Y-60920926D02*
X213441679Y-61206640D01*
X213441679Y-61206640D02*
X213346441Y-61397116D01*
X213346441Y-61397116D02*
X213251203Y-61492355D01*
X213251203Y-61492355D02*
X213060727Y-61587593D01*
X213060727Y-61587593D02*
X212298822Y-61587593D01*
X215441679Y-62349497D02*
X215346441Y-62444736D01*
X215346441Y-62444736D02*
X215060727Y-62539974D01*
X215060727Y-62539974D02*
X214870251Y-62539974D01*
X214870251Y-62539974D02*
X214584536Y-62444736D01*
X214584536Y-62444736D02*
X214394060Y-62254259D01*
X214394060Y-62254259D02*
X214298822Y-62063783D01*
X214298822Y-62063783D02*
X214203584Y-61682831D01*
X214203584Y-61682831D02*
X214203584Y-61397116D01*
X214203584Y-61397116D02*
X214298822Y-61016164D01*
X214298822Y-61016164D02*
X214394060Y-60825688D01*
X214394060Y-60825688D02*
X214584536Y-60635212D01*
X214584536Y-60635212D02*
X214870251Y-60539974D01*
X214870251Y-60539974D02*
X215060727Y-60539974D01*
X215060727Y-60539974D02*
X215346441Y-60635212D01*
X215346441Y-60635212D02*
X215441679Y-60730450D01*
X216965489Y-61492355D02*
X217251203Y-61587593D01*
X217251203Y-61587593D02*
X217346441Y-61682831D01*
X217346441Y-61682831D02*
X217441679Y-61873307D01*
X217441679Y-61873307D02*
X217441679Y-62159021D01*
X217441679Y-62159021D02*
X217346441Y-62349497D01*
X217346441Y-62349497D02*
X217251203Y-62444736D01*
X217251203Y-62444736D02*
X217060727Y-62539974D01*
X217060727Y-62539974D02*
X216298822Y-62539974D01*
X216298822Y-62539974D02*
X216298822Y-60539974D01*
X216298822Y-60539974D02*
X216965489Y-60539974D01*
X216965489Y-60539974D02*
X217155965Y-60635212D01*
X217155965Y-60635212D02*
X217251203Y-60730450D01*
X217251203Y-60730450D02*
X217346441Y-60920926D01*
X217346441Y-60920926D02*
X217346441Y-61111402D01*
X217346441Y-61111402D02*
X217251203Y-61301878D01*
X217251203Y-61301878D02*
X217155965Y-61397116D01*
X217155965Y-61397116D02*
X216965489Y-61492355D01*
X216965489Y-61492355D02*
X216298822Y-61492355D01*
X197155963Y-70199638D02*
X197822629Y-72199638D01*
X197822629Y-72199638D02*
X198489296Y-70199638D01*
X199155963Y-72199638D02*
X199155963Y-70866304D01*
X199155963Y-70199638D02*
X199060725Y-70294876D01*
X199060725Y-70294876D02*
X199155963Y-70390114D01*
X199155963Y-70390114D02*
X199251201Y-70294876D01*
X199251201Y-70294876D02*
X199155963Y-70199638D01*
X199155963Y-70199638D02*
X199155963Y-70390114D01*
X200108344Y-70866304D02*
X200108344Y-72199638D01*
X200108344Y-71056780D02*
X200203582Y-70961542D01*
X200203582Y-70961542D02*
X200394058Y-70866304D01*
X200394058Y-70866304D02*
X200679773Y-70866304D01*
X200679773Y-70866304D02*
X200870249Y-70961542D01*
X200870249Y-70961542D02*
X200965487Y-71152019D01*
X200965487Y-71152019D02*
X200965487Y-72199638D01*
X201632154Y-70866304D02*
X202394058Y-70866304D01*
X201917868Y-70199638D02*
X201917868Y-71913923D01*
X201917868Y-71913923D02*
X202013106Y-72104400D01*
X202013106Y-72104400D02*
X202203582Y-72199638D01*
X202203582Y-72199638D02*
X202394058Y-72199638D01*
X203917868Y-72199638D02*
X203917868Y-71152019D01*
X203917868Y-71152019D02*
X203822630Y-70961542D01*
X203822630Y-70961542D02*
X203632154Y-70866304D01*
X203632154Y-70866304D02*
X203251201Y-70866304D01*
X203251201Y-70866304D02*
X203060725Y-70961542D01*
X203917868Y-72104400D02*
X203727392Y-72199638D01*
X203727392Y-72199638D02*
X203251201Y-72199638D01*
X203251201Y-72199638D02*
X203060725Y-72104400D01*
X203060725Y-72104400D02*
X202965487Y-71913923D01*
X202965487Y-71913923D02*
X202965487Y-71723447D01*
X202965487Y-71723447D02*
X203060725Y-71532971D01*
X203060725Y-71532971D02*
X203251201Y-71437733D01*
X203251201Y-71437733D02*
X203727392Y-71437733D01*
X203727392Y-71437733D02*
X203917868Y-71342495D01*
X205727392Y-70866304D02*
X205727392Y-72485352D01*
X205727392Y-72485352D02*
X205632154Y-72675828D01*
X205632154Y-72675828D02*
X205536916Y-72771066D01*
X205536916Y-72771066D02*
X205346439Y-72866304D01*
X205346439Y-72866304D02*
X205060725Y-72866304D01*
X205060725Y-72866304D02*
X204870249Y-72771066D01*
X205727392Y-72104400D02*
X205536916Y-72199638D01*
X205536916Y-72199638D02*
X205155963Y-72199638D01*
X205155963Y-72199638D02*
X204965487Y-72104400D01*
X204965487Y-72104400D02*
X204870249Y-72009161D01*
X204870249Y-72009161D02*
X204775011Y-71818685D01*
X204775011Y-71818685D02*
X204775011Y-71247257D01*
X204775011Y-71247257D02*
X204870249Y-71056780D01*
X204870249Y-71056780D02*
X204965487Y-70961542D01*
X204965487Y-70961542D02*
X205155963Y-70866304D01*
X205155963Y-70866304D02*
X205536916Y-70866304D01*
X205536916Y-70866304D02*
X205727392Y-70961542D01*
X207441678Y-72104400D02*
X207251202Y-72199638D01*
X207251202Y-72199638D02*
X206870249Y-72199638D01*
X206870249Y-72199638D02*
X206679773Y-72104400D01*
X206679773Y-72104400D02*
X206584535Y-71913923D01*
X206584535Y-71913923D02*
X206584535Y-71152019D01*
X206584535Y-71152019D02*
X206679773Y-70961542D01*
X206679773Y-70961542D02*
X206870249Y-70866304D01*
X206870249Y-70866304D02*
X207251202Y-70866304D01*
X207251202Y-70866304D02*
X207441678Y-70961542D01*
X207441678Y-70961542D02*
X207536916Y-71152019D01*
X207536916Y-71152019D02*
X207536916Y-71342495D01*
X207536916Y-71342495D02*
X206584535Y-71532971D01*
X211060726Y-72199638D02*
X210394059Y-71247257D01*
X209917869Y-72199638D02*
X209917869Y-70199638D01*
X209917869Y-70199638D02*
X210679774Y-70199638D01*
X210679774Y-70199638D02*
X210870250Y-70294876D01*
X210870250Y-70294876D02*
X210965488Y-70390114D01*
X210965488Y-70390114D02*
X211060726Y-70580590D01*
X211060726Y-70580590D02*
X211060726Y-70866304D01*
X211060726Y-70866304D02*
X210965488Y-71056780D01*
X210965488Y-71056780D02*
X210870250Y-71152019D01*
X210870250Y-71152019D02*
X210679774Y-71247257D01*
X210679774Y-71247257D02*
X209917869Y-71247257D01*
X212775012Y-72199638D02*
X212775012Y-71152019D01*
X212775012Y-71152019D02*
X212679774Y-70961542D01*
X212679774Y-70961542D02*
X212489298Y-70866304D01*
X212489298Y-70866304D02*
X212108345Y-70866304D01*
X212108345Y-70866304D02*
X211917869Y-70961542D01*
X212775012Y-72104400D02*
X212584536Y-72199638D01*
X212584536Y-72199638D02*
X212108345Y-72199638D01*
X212108345Y-72199638D02*
X211917869Y-72104400D01*
X211917869Y-72104400D02*
X211822631Y-71913923D01*
X211822631Y-71913923D02*
X211822631Y-71723447D01*
X211822631Y-71723447D02*
X211917869Y-71532971D01*
X211917869Y-71532971D02*
X212108345Y-71437733D01*
X212108345Y-71437733D02*
X212584536Y-71437733D01*
X212584536Y-71437733D02*
X212775012Y-71342495D01*
X214584536Y-72199638D02*
X214584536Y-70199638D01*
X214584536Y-72104400D02*
X214394060Y-72199638D01*
X214394060Y-72199638D02*
X214013107Y-72199638D01*
X214013107Y-72199638D02*
X213822631Y-72104400D01*
X213822631Y-72104400D02*
X213727393Y-72009161D01*
X213727393Y-72009161D02*
X213632155Y-71818685D01*
X213632155Y-71818685D02*
X213632155Y-71247257D01*
X213632155Y-71247257D02*
X213727393Y-71056780D01*
X213727393Y-71056780D02*
X213822631Y-70961542D01*
X213822631Y-70961542D02*
X214013107Y-70866304D01*
X214013107Y-70866304D02*
X214394060Y-70866304D01*
X214394060Y-70866304D02*
X214584536Y-70961542D01*
X215536917Y-72199638D02*
X215536917Y-70866304D01*
X215536917Y-70199638D02*
X215441679Y-70294876D01*
X215441679Y-70294876D02*
X215536917Y-70390114D01*
X215536917Y-70390114D02*
X215632155Y-70294876D01*
X215632155Y-70294876D02*
X215536917Y-70199638D01*
X215536917Y-70199638D02*
X215536917Y-70390114D01*
X216775012Y-72199638D02*
X216584536Y-72104400D01*
X216584536Y-72104400D02*
X216489298Y-72009161D01*
X216489298Y-72009161D02*
X216394060Y-71818685D01*
X216394060Y-71818685D02*
X216394060Y-71247257D01*
X216394060Y-71247257D02*
X216489298Y-71056780D01*
X216489298Y-71056780D02*
X216584536Y-70961542D01*
X216584536Y-70961542D02*
X216775012Y-70866304D01*
X216775012Y-70866304D02*
X217060727Y-70866304D01*
X217060727Y-70866304D02*
X217251203Y-70961542D01*
X217251203Y-70961542D02*
X217346441Y-71056780D01*
X217346441Y-71056780D02*
X217441679Y-71247257D01*
X217441679Y-71247257D02*
X217441679Y-71818685D01*
X217441679Y-71818685D02*
X217346441Y-72009161D01*
X217346441Y-72009161D02*
X217251203Y-72104400D01*
X217251203Y-72104400D02*
X217060727Y-72199638D01*
X217060727Y-72199638D02*
X216775012Y-72199638D01*
D12*
X193528207Y-73599819D02*
X193194874Y-73123628D01*
X192956779Y-73599819D02*
X192956779Y-72599819D01*
X192956779Y-72599819D02*
X193337731Y-72599819D01*
X193337731Y-72599819D02*
X193432969Y-72647438D01*
X193432969Y-72647438D02*
X193480588Y-72695057D01*
X193480588Y-72695057D02*
X193528207Y-72790295D01*
X193528207Y-72790295D02*
X193528207Y-72933152D01*
X193528207Y-72933152D02*
X193480588Y-73028390D01*
X193480588Y-73028390D02*
X193432969Y-73076009D01*
X193432969Y-73076009D02*
X193337731Y-73123628D01*
X193337731Y-73123628D02*
X192956779Y-73123628D01*
X193956779Y-73599819D02*
X193956779Y-72599819D01*
X193956779Y-72599819D02*
X194337731Y-72599819D01*
X194337731Y-72599819D02*
X194432969Y-72647438D01*
X194432969Y-72647438D02*
X194480588Y-72695057D01*
X194480588Y-72695057D02*
X194528207Y-72790295D01*
X194528207Y-72790295D02*
X194528207Y-72933152D01*
X194528207Y-72933152D02*
X194480588Y-73028390D01*
X194480588Y-73028390D02*
X194432969Y-73076009D01*
X194432969Y-73076009D02*
X194337731Y-73123628D01*
X194337731Y-73123628D02*
X193956779Y-73123628D01*
X194909160Y-72695057D02*
X194956779Y-72647438D01*
X194956779Y-72647438D02*
X195052017Y-72599819D01*
X195052017Y-72599819D02*
X195290112Y-72599819D01*
X195290112Y-72599819D02*
X195385350Y-72647438D01*
X195385350Y-72647438D02*
X195432969Y-72695057D01*
X195432969Y-72695057D02*
X195480588Y-72790295D01*
X195480588Y-72790295D02*
X195480588Y-72885533D01*
X195480588Y-72885533D02*
X195432969Y-73028390D01*
X195432969Y-73028390D02*
X194861541Y-73599819D01*
X194861541Y-73599819D02*
X195480588Y-73599819D01*
X196099636Y-72599819D02*
X196194874Y-72599819D01*
X196194874Y-72599819D02*
X196290112Y-72647438D01*
X196290112Y-72647438D02*
X196337731Y-72695057D01*
X196337731Y-72695057D02*
X196385350Y-72790295D01*
X196385350Y-72790295D02*
X196432969Y-72980771D01*
X196432969Y-72980771D02*
X196432969Y-73218866D01*
X196432969Y-73218866D02*
X196385350Y-73409342D01*
X196385350Y-73409342D02*
X196337731Y-73504580D01*
X196337731Y-73504580D02*
X196290112Y-73552200D01*
X196290112Y-73552200D02*
X196194874Y-73599819D01*
X196194874Y-73599819D02*
X196099636Y-73599819D01*
X196099636Y-73599819D02*
X196004398Y-73552200D01*
X196004398Y-73552200D02*
X195956779Y-73504580D01*
X195956779Y-73504580D02*
X195909160Y-73409342D01*
X195909160Y-73409342D02*
X195861541Y-73218866D01*
X195861541Y-73218866D02*
X195861541Y-72980771D01*
X195861541Y-72980771D02*
X195909160Y-72790295D01*
X195909160Y-72790295D02*
X195956779Y-72695057D01*
X195956779Y-72695057D02*
X196004398Y-72647438D01*
X196004398Y-72647438D02*
X196099636Y-72599819D01*
X197290112Y-72933152D02*
X197290112Y-73599819D01*
X197052017Y-72552200D02*
X196813922Y-73266485D01*
X196813922Y-73266485D02*
X197432969Y-73266485D01*
X198004398Y-72599819D02*
X198099636Y-72599819D01*
X198099636Y-72599819D02*
X198194874Y-72647438D01*
X198194874Y-72647438D02*
X198242493Y-72695057D01*
X198242493Y-72695057D02*
X198290112Y-72790295D01*
X198290112Y-72790295D02*
X198337731Y-72980771D01*
X198337731Y-72980771D02*
X198337731Y-73218866D01*
X198337731Y-73218866D02*
X198290112Y-73409342D01*
X198290112Y-73409342D02*
X198242493Y-73504580D01*
X198242493Y-73504580D02*
X198194874Y-73552200D01*
X198194874Y-73552200D02*
X198099636Y-73599819D01*
X198099636Y-73599819D02*
X198004398Y-73599819D01*
X198004398Y-73599819D02*
X197909160Y-73552200D01*
X197909160Y-73552200D02*
X197861541Y-73504580D01*
X197861541Y-73504580D02*
X197813922Y-73409342D01*
X197813922Y-73409342D02*
X197766303Y-73218866D01*
X197766303Y-73218866D02*
X197766303Y-72980771D01*
X197766303Y-72980771D02*
X197813922Y-72790295D01*
X197813922Y-72790295D02*
X197861541Y-72695057D01*
X197861541Y-72695057D02*
X197909160Y-72647438D01*
X197909160Y-72647438D02*
X198004398Y-72599819D01*
X198766303Y-73218866D02*
X199528208Y-73218866D01*
X199909160Y-72599819D02*
X200575826Y-72599819D01*
X200575826Y-72599819D02*
X199909160Y-73599819D01*
X199909160Y-73599819D02*
X200575826Y-73599819D01*
X201337731Y-73552200D02*
X201242493Y-73599819D01*
X201242493Y-73599819D02*
X201052017Y-73599819D01*
X201052017Y-73599819D02*
X200956779Y-73552200D01*
X200956779Y-73552200D02*
X200909160Y-73456961D01*
X200909160Y-73456961D02*
X200909160Y-73076009D01*
X200909160Y-73076009D02*
X200956779Y-72980771D01*
X200956779Y-72980771D02*
X201052017Y-72933152D01*
X201052017Y-72933152D02*
X201242493Y-72933152D01*
X201242493Y-72933152D02*
X201337731Y-72980771D01*
X201337731Y-72980771D02*
X201385350Y-73076009D01*
X201385350Y-73076009D02*
X201385350Y-73171247D01*
X201385350Y-73171247D02*
X200909160Y-73266485D01*
X201813922Y-73599819D02*
X201813922Y-72933152D01*
X201813922Y-73123628D02*
X201861541Y-73028390D01*
X201861541Y-73028390D02*
X201909160Y-72980771D01*
X201909160Y-72980771D02*
X202004398Y-72933152D01*
X202004398Y-72933152D02*
X202099636Y-72933152D01*
X202575827Y-73599819D02*
X202480589Y-73552200D01*
X202480589Y-73552200D02*
X202432970Y-73504580D01*
X202432970Y-73504580D02*
X202385351Y-73409342D01*
X202385351Y-73409342D02*
X202385351Y-73123628D01*
X202385351Y-73123628D02*
X202432970Y-73028390D01*
X202432970Y-73028390D02*
X202480589Y-72980771D01*
X202480589Y-72980771D02*
X202575827Y-72933152D01*
X202575827Y-72933152D02*
X202718684Y-72933152D01*
X202718684Y-72933152D02*
X202813922Y-72980771D01*
X202813922Y-72980771D02*
X202861541Y-73028390D01*
X202861541Y-73028390D02*
X202909160Y-73123628D01*
X202909160Y-73123628D02*
X202909160Y-73409342D01*
X202909160Y-73409342D02*
X202861541Y-73504580D01*
X202861541Y-73504580D02*
X202813922Y-73552200D01*
X202813922Y-73552200D02*
X202718684Y-73599819D01*
X202718684Y-73599819D02*
X202575827Y-73599819D01*
X165016779Y-72329819D02*
X165016779Y-71329819D01*
X165016779Y-71329819D02*
X165397731Y-71329819D01*
X165397731Y-71329819D02*
X165492969Y-71377438D01*
X165492969Y-71377438D02*
X165540588Y-71425057D01*
X165540588Y-71425057D02*
X165588207Y-71520295D01*
X165588207Y-71520295D02*
X165588207Y-71663152D01*
X165588207Y-71663152D02*
X165540588Y-71758390D01*
X165540588Y-71758390D02*
X165492969Y-71806009D01*
X165492969Y-71806009D02*
X165397731Y-71853628D01*
X165397731Y-71853628D02*
X165016779Y-71853628D01*
X165969160Y-72044104D02*
X166445350Y-72044104D01*
X165873922Y-72329819D02*
X166207255Y-71329819D01*
X166207255Y-71329819D02*
X166540588Y-72329819D01*
X166873922Y-72329819D02*
X166873922Y-71329819D01*
X166873922Y-71329819D02*
X167207255Y-72044104D01*
X167207255Y-72044104D02*
X167540588Y-71329819D01*
X167540588Y-71329819D02*
X167540588Y-72329819D01*
X168159636Y-71758390D02*
X168064398Y-71710771D01*
X168064398Y-71710771D02*
X168016779Y-71663152D01*
X168016779Y-71663152D02*
X167969160Y-71567914D01*
X167969160Y-71567914D02*
X167969160Y-71520295D01*
X167969160Y-71520295D02*
X168016779Y-71425057D01*
X168016779Y-71425057D02*
X168064398Y-71377438D01*
X168064398Y-71377438D02*
X168159636Y-71329819D01*
X168159636Y-71329819D02*
X168350112Y-71329819D01*
X168350112Y-71329819D02*
X168445350Y-71377438D01*
X168445350Y-71377438D02*
X168492969Y-71425057D01*
X168492969Y-71425057D02*
X168540588Y-71520295D01*
X168540588Y-71520295D02*
X168540588Y-71567914D01*
X168540588Y-71567914D02*
X168492969Y-71663152D01*
X168492969Y-71663152D02*
X168445350Y-71710771D01*
X168445350Y-71710771D02*
X168350112Y-71758390D01*
X168350112Y-71758390D02*
X168159636Y-71758390D01*
X168159636Y-71758390D02*
X168064398Y-71806009D01*
X168064398Y-71806009D02*
X168016779Y-71853628D01*
X168016779Y-71853628D02*
X167969160Y-71948866D01*
X167969160Y-71948866D02*
X167969160Y-72139342D01*
X167969160Y-72139342D02*
X168016779Y-72234580D01*
X168016779Y-72234580D02*
X168064398Y-72282200D01*
X168064398Y-72282200D02*
X168159636Y-72329819D01*
X168159636Y-72329819D02*
X168350112Y-72329819D01*
X168350112Y-72329819D02*
X168445350Y-72282200D01*
X168445350Y-72282200D02*
X168492969Y-72234580D01*
X168492969Y-72234580D02*
X168540588Y-72139342D01*
X168540588Y-72139342D02*
X168540588Y-71948866D01*
X168540588Y-71948866D02*
X168492969Y-71853628D01*
X168492969Y-71853628D02*
X168445350Y-71806009D01*
X168445350Y-71806009D02*
X168350112Y-71758390D01*
X169397731Y-71663152D02*
X169397731Y-72329819D01*
X169159636Y-71282200D02*
X168921541Y-71996485D01*
X168921541Y-71996485D02*
X169540588Y-71996485D01*
X170112017Y-71329819D02*
X170207255Y-71329819D01*
X170207255Y-71329819D02*
X170302493Y-71377438D01*
X170302493Y-71377438D02*
X170350112Y-71425057D01*
X170350112Y-71425057D02*
X170397731Y-71520295D01*
X170397731Y-71520295D02*
X170445350Y-71710771D01*
X170445350Y-71710771D02*
X170445350Y-71948866D01*
X170445350Y-71948866D02*
X170397731Y-72139342D01*
X170397731Y-72139342D02*
X170350112Y-72234580D01*
X170350112Y-72234580D02*
X170302493Y-72282200D01*
X170302493Y-72282200D02*
X170207255Y-72329819D01*
X170207255Y-72329819D02*
X170112017Y-72329819D01*
X170112017Y-72329819D02*
X170016779Y-72282200D01*
X170016779Y-72282200D02*
X169969160Y-72234580D01*
X169969160Y-72234580D02*
X169921541Y-72139342D01*
X169921541Y-72139342D02*
X169873922Y-71948866D01*
X169873922Y-71948866D02*
X169873922Y-71710771D01*
X169873922Y-71710771D02*
X169921541Y-71520295D01*
X169921541Y-71520295D02*
X169969160Y-71425057D01*
X169969160Y-71425057D02*
X170016779Y-71377438D01*
X170016779Y-71377438D02*
X170112017Y-71329819D01*
X170778684Y-71329819D02*
X171397731Y-71329819D01*
X171397731Y-71329819D02*
X171064398Y-71710771D01*
X171064398Y-71710771D02*
X171207255Y-71710771D01*
X171207255Y-71710771D02*
X171302493Y-71758390D01*
X171302493Y-71758390D02*
X171350112Y-71806009D01*
X171350112Y-71806009D02*
X171397731Y-71901247D01*
X171397731Y-71901247D02*
X171397731Y-72139342D01*
X171397731Y-72139342D02*
X171350112Y-72234580D01*
X171350112Y-72234580D02*
X171302493Y-72282200D01*
X171302493Y-72282200D02*
X171207255Y-72329819D01*
X171207255Y-72329819D02*
X170921541Y-72329819D01*
X170921541Y-72329819D02*
X170826303Y-72282200D01*
X170826303Y-72282200D02*
X170778684Y-72234580D01*
X172540589Y-72044104D02*
X173016779Y-72044104D01*
X172445351Y-72329819D02*
X172778684Y-71329819D01*
X172778684Y-71329819D02*
X173112017Y-72329819D01*
X173445351Y-72329819D02*
X173445351Y-71663152D01*
X173445351Y-71758390D02*
X173492970Y-71710771D01*
X173492970Y-71710771D02*
X173588208Y-71663152D01*
X173588208Y-71663152D02*
X173731065Y-71663152D01*
X173731065Y-71663152D02*
X173826303Y-71710771D01*
X173826303Y-71710771D02*
X173873922Y-71806009D01*
X173873922Y-71806009D02*
X173873922Y-72329819D01*
X173873922Y-71806009D02*
X173921541Y-71710771D01*
X173921541Y-71710771D02*
X174016779Y-71663152D01*
X174016779Y-71663152D02*
X174159636Y-71663152D01*
X174159636Y-71663152D02*
X174254875Y-71710771D01*
X174254875Y-71710771D02*
X174302494Y-71806009D01*
X174302494Y-71806009D02*
X174302494Y-72329819D01*
X174778684Y-71663152D02*
X174778684Y-72663152D01*
X174778684Y-71710771D02*
X174873922Y-71663152D01*
X174873922Y-71663152D02*
X175064398Y-71663152D01*
X175064398Y-71663152D02*
X175159636Y-71710771D01*
X175159636Y-71710771D02*
X175207255Y-71758390D01*
X175207255Y-71758390D02*
X175254874Y-71853628D01*
X175254874Y-71853628D02*
X175254874Y-72139342D01*
X175254874Y-72139342D02*
X175207255Y-72234580D01*
X175207255Y-72234580D02*
X175159636Y-72282200D01*
X175159636Y-72282200D02*
X175064398Y-72329819D01*
X175064398Y-72329819D02*
X174873922Y-72329819D01*
X174873922Y-72329819D02*
X174778684Y-72282200D01*
X175826303Y-72329819D02*
X175731065Y-72282200D01*
X175731065Y-72282200D02*
X175683446Y-72186961D01*
X175683446Y-72186961D02*
X175683446Y-71329819D01*
X176207256Y-72329819D02*
X176207256Y-71663152D01*
X176207256Y-71329819D02*
X176159637Y-71377438D01*
X176159637Y-71377438D02*
X176207256Y-71425057D01*
X176207256Y-71425057D02*
X176254875Y-71377438D01*
X176254875Y-71377438D02*
X176207256Y-71329819D01*
X176207256Y-71329819D02*
X176207256Y-71425057D01*
X176540589Y-71663152D02*
X176921541Y-71663152D01*
X176683446Y-72329819D02*
X176683446Y-71472676D01*
X176683446Y-71472676D02*
X176731065Y-71377438D01*
X176731065Y-71377438D02*
X176826303Y-71329819D01*
X176826303Y-71329819D02*
X176921541Y-71329819D01*
X177254875Y-72329819D02*
X177254875Y-71663152D01*
X177254875Y-71329819D02*
X177207256Y-71377438D01*
X177207256Y-71377438D02*
X177254875Y-71425057D01*
X177254875Y-71425057D02*
X177302494Y-71377438D01*
X177302494Y-71377438D02*
X177254875Y-71329819D01*
X177254875Y-71329819D02*
X177254875Y-71425057D01*
X178112017Y-72282200D02*
X178016779Y-72329819D01*
X178016779Y-72329819D02*
X177826303Y-72329819D01*
X177826303Y-72329819D02*
X177731065Y-72282200D01*
X177731065Y-72282200D02*
X177683446Y-72186961D01*
X177683446Y-72186961D02*
X177683446Y-71806009D01*
X177683446Y-71806009D02*
X177731065Y-71710771D01*
X177731065Y-71710771D02*
X177826303Y-71663152D01*
X177826303Y-71663152D02*
X178016779Y-71663152D01*
X178016779Y-71663152D02*
X178112017Y-71710771D01*
X178112017Y-71710771D02*
X178159636Y-71806009D01*
X178159636Y-71806009D02*
X178159636Y-71901247D01*
X178159636Y-71901247D02*
X177683446Y-71996485D01*
X178588208Y-72329819D02*
X178588208Y-71663152D01*
X178588208Y-71853628D02*
X178635827Y-71758390D01*
X178635827Y-71758390D02*
X178683446Y-71710771D01*
X178683446Y-71710771D02*
X178778684Y-71663152D01*
X178778684Y-71663152D02*
X178873922Y-71663152D01*
D10*
X164045000Y-70575000D02*
X188175000Y-70575000D01*
X188175000Y-51525000D01*
X164045000Y-51525000D01*
X164045000Y-70575000D01*
X173570000Y-76905000D02*
G75*
G02*
X171030000Y-76905000I-1270000J0D01*
G01*
X161505000Y-98495000D02*
X183095000Y-98495000D01*
X183095000Y-76905000D01*
X161505000Y-76905000D01*
X161505000Y-98495000D01*
D12*
X162476779Y-76139819D02*
X162476779Y-75139819D01*
X162476779Y-75139819D02*
X162714874Y-75139819D01*
X162714874Y-75139819D02*
X162857731Y-75187438D01*
X162857731Y-75187438D02*
X162952969Y-75282676D01*
X162952969Y-75282676D02*
X163000588Y-75377914D01*
X163000588Y-75377914D02*
X163048207Y-75568390D01*
X163048207Y-75568390D02*
X163048207Y-75711247D01*
X163048207Y-75711247D02*
X163000588Y-75901723D01*
X163000588Y-75901723D02*
X162952969Y-75996961D01*
X162952969Y-75996961D02*
X162857731Y-76092200D01*
X162857731Y-76092200D02*
X162714874Y-76139819D01*
X162714874Y-76139819D02*
X162476779Y-76139819D01*
X163810112Y-75616009D02*
X163476779Y-75616009D01*
X163476779Y-76139819D02*
X163476779Y-75139819D01*
X163476779Y-75139819D02*
X163952969Y-75139819D01*
X164333922Y-76139819D02*
X164333922Y-75139819D01*
X164333922Y-75139819D02*
X164714874Y-75139819D01*
X164714874Y-75139819D02*
X164810112Y-75187438D01*
X164810112Y-75187438D02*
X164857731Y-75235057D01*
X164857731Y-75235057D02*
X164905350Y-75330295D01*
X164905350Y-75330295D02*
X164905350Y-75473152D01*
X164905350Y-75473152D02*
X164857731Y-75568390D01*
X164857731Y-75568390D02*
X164810112Y-75616009D01*
X164810112Y-75616009D02*
X164714874Y-75663628D01*
X164714874Y-75663628D02*
X164333922Y-75663628D01*
X165476779Y-76139819D02*
X165381541Y-76092200D01*
X165381541Y-76092200D02*
X165333922Y-75996961D01*
X165333922Y-75996961D02*
X165333922Y-75139819D01*
X166286303Y-76139819D02*
X166286303Y-75616009D01*
X166286303Y-75616009D02*
X166238684Y-75520771D01*
X166238684Y-75520771D02*
X166143446Y-75473152D01*
X166143446Y-75473152D02*
X165952970Y-75473152D01*
X165952970Y-75473152D02*
X165857732Y-75520771D01*
X166286303Y-76092200D02*
X166191065Y-76139819D01*
X166191065Y-76139819D02*
X165952970Y-76139819D01*
X165952970Y-76139819D02*
X165857732Y-76092200D01*
X165857732Y-76092200D02*
X165810113Y-75996961D01*
X165810113Y-75996961D02*
X165810113Y-75901723D01*
X165810113Y-75901723D02*
X165857732Y-75806485D01*
X165857732Y-75806485D02*
X165952970Y-75758866D01*
X165952970Y-75758866D02*
X166191065Y-75758866D01*
X166191065Y-75758866D02*
X166286303Y-75711247D01*
X166667256Y-75473152D02*
X166905351Y-76139819D01*
X167143446Y-75473152D02*
X166905351Y-76139819D01*
X166905351Y-76139819D02*
X166810113Y-76377914D01*
X166810113Y-76377914D02*
X166762494Y-76425533D01*
X166762494Y-76425533D02*
X166667256Y-76473152D01*
X167905351Y-76092200D02*
X167810113Y-76139819D01*
X167810113Y-76139819D02*
X167619637Y-76139819D01*
X167619637Y-76139819D02*
X167524399Y-76092200D01*
X167524399Y-76092200D02*
X167476780Y-75996961D01*
X167476780Y-75996961D02*
X167476780Y-75616009D01*
X167476780Y-75616009D02*
X167524399Y-75520771D01*
X167524399Y-75520771D02*
X167619637Y-75473152D01*
X167619637Y-75473152D02*
X167810113Y-75473152D01*
X167810113Y-75473152D02*
X167905351Y-75520771D01*
X167905351Y-75520771D02*
X167952970Y-75616009D01*
X167952970Y-75616009D02*
X167952970Y-75711247D01*
X167952970Y-75711247D02*
X167476780Y-75806485D01*
X168381542Y-76139819D02*
X168381542Y-75473152D01*
X168381542Y-75663628D02*
X168429161Y-75568390D01*
X168429161Y-75568390D02*
X168476780Y-75520771D01*
X168476780Y-75520771D02*
X168572018Y-75473152D01*
X168572018Y-75473152D02*
X168667256Y-75473152D01*
X169762495Y-76139819D02*
X169762495Y-75139819D01*
X169762495Y-75139819D02*
X170095828Y-75854104D01*
X170095828Y-75854104D02*
X170429161Y-75139819D01*
X170429161Y-75139819D02*
X170429161Y-76139819D01*
X170905352Y-76139819D02*
X170905352Y-75473152D01*
X170905352Y-75139819D02*
X170857733Y-75187438D01*
X170857733Y-75187438D02*
X170905352Y-75235057D01*
X170905352Y-75235057D02*
X170952971Y-75187438D01*
X170952971Y-75187438D02*
X170905352Y-75139819D01*
X170905352Y-75139819D02*
X170905352Y-75235057D01*
X171381542Y-75473152D02*
X171381542Y-76139819D01*
X171381542Y-75568390D02*
X171429161Y-75520771D01*
X171429161Y-75520771D02*
X171524399Y-75473152D01*
X171524399Y-75473152D02*
X171667256Y-75473152D01*
X171667256Y-75473152D02*
X171762494Y-75520771D01*
X171762494Y-75520771D02*
X171810113Y-75616009D01*
X171810113Y-75616009D02*
X171810113Y-76139819D01*
X172286304Y-76139819D02*
X172286304Y-75473152D01*
X172286304Y-75139819D02*
X172238685Y-75187438D01*
X172238685Y-75187438D02*
X172286304Y-75235057D01*
X172286304Y-75235057D02*
X172333923Y-75187438D01*
X172333923Y-75187438D02*
X172286304Y-75139819D01*
X172286304Y-75139819D02*
X172286304Y-75235057D01*
X186317856Y-88901009D02*
X186460713Y-88948628D01*
X186460713Y-88948628D02*
X186508332Y-88996247D01*
X186508332Y-88996247D02*
X186555951Y-89091485D01*
X186555951Y-89091485D02*
X186555951Y-89234342D01*
X186555951Y-89234342D02*
X186508332Y-89329580D01*
X186508332Y-89329580D02*
X186460713Y-89377200D01*
X186460713Y-89377200D02*
X186365475Y-89424819D01*
X186365475Y-89424819D02*
X185984523Y-89424819D01*
X185984523Y-89424819D02*
X185984523Y-88424819D01*
X185984523Y-88424819D02*
X186317856Y-88424819D01*
X186317856Y-88424819D02*
X186413094Y-88472438D01*
X186413094Y-88472438D02*
X186460713Y-88520057D01*
X186460713Y-88520057D02*
X186508332Y-88615295D01*
X186508332Y-88615295D02*
X186508332Y-88710533D01*
X186508332Y-88710533D02*
X186460713Y-88805771D01*
X186460713Y-88805771D02*
X186413094Y-88853390D01*
X186413094Y-88853390D02*
X186317856Y-88901009D01*
X186317856Y-88901009D02*
X185984523Y-88901009D01*
X187413094Y-88758152D02*
X187413094Y-89424819D01*
X186984523Y-88758152D02*
X186984523Y-89281961D01*
X186984523Y-89281961D02*
X187032142Y-89377200D01*
X187032142Y-89377200D02*
X187127380Y-89424819D01*
X187127380Y-89424819D02*
X187270237Y-89424819D01*
X187270237Y-89424819D02*
X187365475Y-89377200D01*
X187365475Y-89377200D02*
X187413094Y-89329580D01*
X187746428Y-88758152D02*
X188127380Y-88758152D01*
X187889285Y-88424819D02*
X187889285Y-89281961D01*
X187889285Y-89281961D02*
X187936904Y-89377200D01*
X187936904Y-89377200D02*
X188032142Y-89424819D01*
X188032142Y-89424819D02*
X188127380Y-89424819D01*
X188317857Y-88758152D02*
X188698809Y-88758152D01*
X188460714Y-88424819D02*
X188460714Y-89281961D01*
X188460714Y-89281961D02*
X188508333Y-89377200D01*
X188508333Y-89377200D02*
X188603571Y-89424819D01*
X188603571Y-89424819D02*
X188698809Y-89424819D01*
X189175000Y-89424819D02*
X189079762Y-89377200D01*
X189079762Y-89377200D02*
X189032143Y-89329580D01*
X189032143Y-89329580D02*
X188984524Y-89234342D01*
X188984524Y-89234342D02*
X188984524Y-88948628D01*
X188984524Y-88948628D02*
X189032143Y-88853390D01*
X189032143Y-88853390D02*
X189079762Y-88805771D01*
X189079762Y-88805771D02*
X189175000Y-88758152D01*
X189175000Y-88758152D02*
X189317857Y-88758152D01*
X189317857Y-88758152D02*
X189413095Y-88805771D01*
X189413095Y-88805771D02*
X189460714Y-88853390D01*
X189460714Y-88853390D02*
X189508333Y-88948628D01*
X189508333Y-88948628D02*
X189508333Y-89234342D01*
X189508333Y-89234342D02*
X189460714Y-89329580D01*
X189460714Y-89329580D02*
X189413095Y-89377200D01*
X189413095Y-89377200D02*
X189317857Y-89424819D01*
X189317857Y-89424819D02*
X189175000Y-89424819D01*
X189936905Y-88758152D02*
X189936905Y-89424819D01*
X189936905Y-88853390D02*
X189984524Y-88805771D01*
X189984524Y-88805771D02*
X190079762Y-88758152D01*
X190079762Y-88758152D02*
X190222619Y-88758152D01*
X190222619Y-88758152D02*
X190317857Y-88805771D01*
X190317857Y-88805771D02*
X190365476Y-88901009D01*
X190365476Y-88901009D02*
X190365476Y-89424819D01*
X207217142Y-51324819D02*
X206740952Y-51324819D01*
X206740952Y-51324819D02*
X206740952Y-50324819D01*
X207550476Y-50801009D02*
X207883809Y-50801009D01*
X208026666Y-51324819D02*
X207550476Y-51324819D01*
X207550476Y-51324819D02*
X207550476Y-50324819D01*
X207550476Y-50324819D02*
X208026666Y-50324819D01*
X208455238Y-51324819D02*
X208455238Y-50324819D01*
X208455238Y-50324819D02*
X208693333Y-50324819D01*
X208693333Y-50324819D02*
X208836190Y-50372438D01*
X208836190Y-50372438D02*
X208931428Y-50467676D01*
X208931428Y-50467676D02*
X208979047Y-50562914D01*
X208979047Y-50562914D02*
X209026666Y-50753390D01*
X209026666Y-50753390D02*
X209026666Y-50896247D01*
X209026666Y-50896247D02*
X208979047Y-51086723D01*
X208979047Y-51086723D02*
X208931428Y-51181961D01*
X208931428Y-51181961D02*
X208836190Y-51277200D01*
X208836190Y-51277200D02*
X208693333Y-51324819D01*
X208693333Y-51324819D02*
X208455238Y-51324819D01*
X204169523Y-56119104D02*
X204645713Y-56119104D01*
X204074285Y-56404819D02*
X204407618Y-55404819D01*
X204407618Y-55404819D02*
X204740951Y-56404819D01*
X205359999Y-56785771D02*
X205312380Y-56738152D01*
X205312380Y-56738152D02*
X205217142Y-56595295D01*
X205217142Y-56595295D02*
X205169523Y-56500057D01*
X205169523Y-56500057D02*
X205121904Y-56357200D01*
X205121904Y-56357200D02*
X205074285Y-56119104D01*
X205074285Y-56119104D02*
X205074285Y-55928628D01*
X205074285Y-55928628D02*
X205121904Y-55690533D01*
X205121904Y-55690533D02*
X205169523Y-55547676D01*
X205169523Y-55547676D02*
X205217142Y-55452438D01*
X205217142Y-55452438D02*
X205312380Y-55309580D01*
X205312380Y-55309580D02*
X205359999Y-55261961D01*
X205740952Y-56023866D02*
X206502857Y-56023866D01*
X206121904Y-56404819D02*
X206121904Y-55642914D01*
X206883809Y-56785771D02*
X206931428Y-56738152D01*
X206931428Y-56738152D02*
X207026666Y-56595295D01*
X207026666Y-56595295D02*
X207074285Y-56500057D01*
X207074285Y-56500057D02*
X207121904Y-56357200D01*
X207121904Y-56357200D02*
X207169523Y-56119104D01*
X207169523Y-56119104D02*
X207169523Y-55928628D01*
X207169523Y-55928628D02*
X207121904Y-55690533D01*
X207121904Y-55690533D02*
X207074285Y-55547676D01*
X207074285Y-55547676D02*
X207026666Y-55452438D01*
X207026666Y-55452438D02*
X206931428Y-55309580D01*
X206931428Y-55309580D02*
X206883809Y-55261961D01*
X208407619Y-56404819D02*
X208407619Y-55404819D01*
X208979047Y-56404819D02*
X208550476Y-55833390D01*
X208979047Y-55404819D02*
X208407619Y-55976247D01*
X209693333Y-56785771D02*
X209645714Y-56738152D01*
X209645714Y-56738152D02*
X209550476Y-56595295D01*
X209550476Y-56595295D02*
X209502857Y-56500057D01*
X209502857Y-56500057D02*
X209455238Y-56357200D01*
X209455238Y-56357200D02*
X209407619Y-56119104D01*
X209407619Y-56119104D02*
X209407619Y-55928628D01*
X209407619Y-55928628D02*
X209455238Y-55690533D01*
X209455238Y-55690533D02*
X209502857Y-55547676D01*
X209502857Y-55547676D02*
X209550476Y-55452438D01*
X209550476Y-55452438D02*
X209645714Y-55309580D01*
X209645714Y-55309580D02*
X209693333Y-55261961D01*
X210074286Y-56023866D02*
X210836191Y-56023866D01*
X211217143Y-56785771D02*
X211264762Y-56738152D01*
X211264762Y-56738152D02*
X211360000Y-56595295D01*
X211360000Y-56595295D02*
X211407619Y-56500057D01*
X211407619Y-56500057D02*
X211455238Y-56357200D01*
X211455238Y-56357200D02*
X211502857Y-56119104D01*
X211502857Y-56119104D02*
X211502857Y-55928628D01*
X211502857Y-55928628D02*
X211455238Y-55690533D01*
X211455238Y-55690533D02*
X211407619Y-55547676D01*
X211407619Y-55547676D02*
X211360000Y-55452438D01*
X211360000Y-55452438D02*
X211264762Y-55309580D01*
X211264762Y-55309580D02*
X211217143Y-55261961D01*
X153704819Y-66689047D02*
X152704819Y-66689047D01*
X152704819Y-66689047D02*
X152704819Y-66308095D01*
X152704819Y-66308095D02*
X152752438Y-66212857D01*
X152752438Y-66212857D02*
X152800057Y-66165238D01*
X152800057Y-66165238D02*
X152895295Y-66117619D01*
X152895295Y-66117619D02*
X153038152Y-66117619D01*
X153038152Y-66117619D02*
X153133390Y-66165238D01*
X153133390Y-66165238D02*
X153181009Y-66212857D01*
X153181009Y-66212857D02*
X153228628Y-66308095D01*
X153228628Y-66308095D02*
X153228628Y-66689047D01*
X153704819Y-65546190D02*
X153657200Y-65641428D01*
X153657200Y-65641428D02*
X153609580Y-65689047D01*
X153609580Y-65689047D02*
X153514342Y-65736666D01*
X153514342Y-65736666D02*
X153228628Y-65736666D01*
X153228628Y-65736666D02*
X153133390Y-65689047D01*
X153133390Y-65689047D02*
X153085771Y-65641428D01*
X153085771Y-65641428D02*
X153038152Y-65546190D01*
X153038152Y-65546190D02*
X153038152Y-65403333D01*
X153038152Y-65403333D02*
X153085771Y-65308095D01*
X153085771Y-65308095D02*
X153133390Y-65260476D01*
X153133390Y-65260476D02*
X153228628Y-65212857D01*
X153228628Y-65212857D02*
X153514342Y-65212857D01*
X153514342Y-65212857D02*
X153609580Y-65260476D01*
X153609580Y-65260476D02*
X153657200Y-65308095D01*
X153657200Y-65308095D02*
X153704819Y-65403333D01*
X153704819Y-65403333D02*
X153704819Y-65546190D01*
X153038152Y-64927142D02*
X153038152Y-64546190D01*
X152704819Y-64784285D02*
X153561961Y-64784285D01*
X153561961Y-64784285D02*
X153657200Y-64736666D01*
X153657200Y-64736666D02*
X153704819Y-64641428D01*
X153704819Y-64641428D02*
X153704819Y-64546190D01*
X153704819Y-64212856D02*
X153038152Y-64212856D01*
X153133390Y-64212856D02*
X153085771Y-64165237D01*
X153085771Y-64165237D02*
X153038152Y-64069999D01*
X153038152Y-64069999D02*
X153038152Y-63927142D01*
X153038152Y-63927142D02*
X153085771Y-63831904D01*
X153085771Y-63831904D02*
X153181009Y-63784285D01*
X153181009Y-63784285D02*
X153704819Y-63784285D01*
X153181009Y-63784285D02*
X153085771Y-63736666D01*
X153085771Y-63736666D02*
X153038152Y-63641428D01*
X153038152Y-63641428D02*
X153038152Y-63498571D01*
X153038152Y-63498571D02*
X153085771Y-63403332D01*
X153085771Y-63403332D02*
X153181009Y-63355713D01*
X153181009Y-63355713D02*
X153704819Y-63355713D01*
X153657200Y-62498571D02*
X153704819Y-62593809D01*
X153704819Y-62593809D02*
X153704819Y-62784285D01*
X153704819Y-62784285D02*
X153657200Y-62879523D01*
X153657200Y-62879523D02*
X153561961Y-62927142D01*
X153561961Y-62927142D02*
X153181009Y-62927142D01*
X153181009Y-62927142D02*
X153085771Y-62879523D01*
X153085771Y-62879523D02*
X153038152Y-62784285D01*
X153038152Y-62784285D02*
X153038152Y-62593809D01*
X153038152Y-62593809D02*
X153085771Y-62498571D01*
X153085771Y-62498571D02*
X153181009Y-62450952D01*
X153181009Y-62450952D02*
X153276247Y-62450952D01*
X153276247Y-62450952D02*
X153371485Y-62927142D01*
X153038152Y-62165237D02*
X153038152Y-61784285D01*
X152704819Y-62022380D02*
X153561961Y-62022380D01*
X153561961Y-62022380D02*
X153657200Y-61974761D01*
X153657200Y-61974761D02*
X153704819Y-61879523D01*
X153704819Y-61879523D02*
X153704819Y-61784285D01*
X153657200Y-61069999D02*
X153704819Y-61165237D01*
X153704819Y-61165237D02*
X153704819Y-61355713D01*
X153704819Y-61355713D02*
X153657200Y-61450951D01*
X153657200Y-61450951D02*
X153561961Y-61498570D01*
X153561961Y-61498570D02*
X153181009Y-61498570D01*
X153181009Y-61498570D02*
X153085771Y-61450951D01*
X153085771Y-61450951D02*
X153038152Y-61355713D01*
X153038152Y-61355713D02*
X153038152Y-61165237D01*
X153038152Y-61165237D02*
X153085771Y-61069999D01*
X153085771Y-61069999D02*
X153181009Y-61022380D01*
X153181009Y-61022380D02*
X153276247Y-61022380D01*
X153276247Y-61022380D02*
X153371485Y-61498570D01*
X153704819Y-60593808D02*
X153038152Y-60593808D01*
X153228628Y-60593808D02*
X153133390Y-60546189D01*
X153133390Y-60546189D02*
X153085771Y-60498570D01*
X153085771Y-60498570D02*
X153038152Y-60403332D01*
X153038152Y-60403332D02*
X153038152Y-60308094D01*
X157784819Y-69673095D02*
X158784819Y-69339762D01*
X158784819Y-69339762D02*
X157784819Y-69006429D01*
X158403866Y-68673095D02*
X158403866Y-67911191D01*
X158784819Y-68292143D02*
X158022914Y-68292143D01*
X158499104Y-66720714D02*
X158499104Y-66244524D01*
X158784819Y-66815952D02*
X157784819Y-66482619D01*
X157784819Y-66482619D02*
X158784819Y-66149286D01*
X158784819Y-65815952D02*
X158118152Y-65815952D01*
X157784819Y-65815952D02*
X157832438Y-65863571D01*
X157832438Y-65863571D02*
X157880057Y-65815952D01*
X157880057Y-65815952D02*
X157832438Y-65768333D01*
X157832438Y-65768333D02*
X157784819Y-65815952D01*
X157784819Y-65815952D02*
X157880057Y-65815952D01*
X158499104Y-64625476D02*
X158499104Y-64149286D01*
X158784819Y-64720714D02*
X157784819Y-64387381D01*
X157784819Y-64387381D02*
X158784819Y-64054048D01*
X158784819Y-63577857D02*
X158737200Y-63673095D01*
X158737200Y-63673095D02*
X158689580Y-63720714D01*
X158689580Y-63720714D02*
X158594342Y-63768333D01*
X158594342Y-63768333D02*
X158308628Y-63768333D01*
X158308628Y-63768333D02*
X158213390Y-63720714D01*
X158213390Y-63720714D02*
X158165771Y-63673095D01*
X158165771Y-63673095D02*
X158118152Y-63577857D01*
X158118152Y-63577857D02*
X158118152Y-63435000D01*
X158118152Y-63435000D02*
X158165771Y-63339762D01*
X158165771Y-63339762D02*
X158213390Y-63292143D01*
X158213390Y-63292143D02*
X158308628Y-63244524D01*
X158308628Y-63244524D02*
X158594342Y-63244524D01*
X158594342Y-63244524D02*
X158689580Y-63292143D01*
X158689580Y-63292143D02*
X158737200Y-63339762D01*
X158737200Y-63339762D02*
X158784819Y-63435000D01*
X158784819Y-63435000D02*
X158784819Y-63577857D01*
X158118152Y-61625476D02*
X158927676Y-61625476D01*
X158927676Y-61625476D02*
X159022914Y-61673095D01*
X159022914Y-61673095D02*
X159070533Y-61720714D01*
X159070533Y-61720714D02*
X159118152Y-61815952D01*
X159118152Y-61815952D02*
X159118152Y-61958809D01*
X159118152Y-61958809D02*
X159070533Y-62054047D01*
X158737200Y-61625476D02*
X158784819Y-61720714D01*
X158784819Y-61720714D02*
X158784819Y-61911190D01*
X158784819Y-61911190D02*
X158737200Y-62006428D01*
X158737200Y-62006428D02*
X158689580Y-62054047D01*
X158689580Y-62054047D02*
X158594342Y-62101666D01*
X158594342Y-62101666D02*
X158308628Y-62101666D01*
X158308628Y-62101666D02*
X158213390Y-62054047D01*
X158213390Y-62054047D02*
X158165771Y-62006428D01*
X158165771Y-62006428D02*
X158118152Y-61911190D01*
X158118152Y-61911190D02*
X158118152Y-61720714D01*
X158118152Y-61720714D02*
X158165771Y-61625476D01*
X158118152Y-61149285D02*
X158784819Y-61149285D01*
X158213390Y-61149285D02*
X158165771Y-61101666D01*
X158165771Y-61101666D02*
X158118152Y-61006428D01*
X158118152Y-61006428D02*
X158118152Y-60863571D01*
X158118152Y-60863571D02*
X158165771Y-60768333D01*
X158165771Y-60768333D02*
X158261009Y-60720714D01*
X158261009Y-60720714D02*
X158784819Y-60720714D01*
X158784819Y-59815952D02*
X157784819Y-59815952D01*
X158737200Y-59815952D02*
X158784819Y-59911190D01*
X158784819Y-59911190D02*
X158784819Y-60101666D01*
X158784819Y-60101666D02*
X158737200Y-60196904D01*
X158737200Y-60196904D02*
X158689580Y-60244523D01*
X158689580Y-60244523D02*
X158594342Y-60292142D01*
X158594342Y-60292142D02*
X158308628Y-60292142D01*
X158308628Y-60292142D02*
X158213390Y-60244523D01*
X158213390Y-60244523D02*
X158165771Y-60196904D01*
X158165771Y-60196904D02*
X158118152Y-60101666D01*
X158118152Y-60101666D02*
X158118152Y-59911190D01*
X158118152Y-59911190D02*
X158165771Y-59815952D01*
X157784819Y-58720713D02*
X158784819Y-58387380D01*
X158784819Y-58387380D02*
X157784819Y-58054047D01*
X158737200Y-57768332D02*
X158784819Y-57673094D01*
X158784819Y-57673094D02*
X158784819Y-57482618D01*
X158784819Y-57482618D02*
X158737200Y-57387380D01*
X158737200Y-57387380D02*
X158641961Y-57339761D01*
X158641961Y-57339761D02*
X158594342Y-57339761D01*
X158594342Y-57339761D02*
X158499104Y-57387380D01*
X158499104Y-57387380D02*
X158451485Y-57482618D01*
X158451485Y-57482618D02*
X158451485Y-57625475D01*
X158451485Y-57625475D02*
X158403866Y-57720713D01*
X158403866Y-57720713D02*
X158308628Y-57768332D01*
X158308628Y-57768332D02*
X158261009Y-57768332D01*
X158261009Y-57768332D02*
X158165771Y-57720713D01*
X158165771Y-57720713D02*
X158118152Y-57625475D01*
X158118152Y-57625475D02*
X158118152Y-57482618D01*
X158118152Y-57482618D02*
X158165771Y-57387380D01*
X158118152Y-57006427D02*
X158784819Y-56815951D01*
X158784819Y-56815951D02*
X158308628Y-56625475D01*
X158308628Y-56625475D02*
X158784819Y-56434999D01*
X158784819Y-56434999D02*
X158118152Y-56244523D01*
X193723333Y-69104819D02*
X193390000Y-68628628D01*
X193151905Y-69104819D02*
X193151905Y-68104819D01*
X193151905Y-68104819D02*
X193532857Y-68104819D01*
X193532857Y-68104819D02*
X193628095Y-68152438D01*
X193628095Y-68152438D02*
X193675714Y-68200057D01*
X193675714Y-68200057D02*
X193723333Y-68295295D01*
X193723333Y-68295295D02*
X193723333Y-68438152D01*
X193723333Y-68438152D02*
X193675714Y-68533390D01*
X193675714Y-68533390D02*
X193628095Y-68581009D01*
X193628095Y-68581009D02*
X193532857Y-68628628D01*
X193532857Y-68628628D02*
X193151905Y-68628628D01*
X194580476Y-68438152D02*
X194580476Y-69104819D01*
X194342381Y-68057200D02*
X194104286Y-68771485D01*
X194104286Y-68771485D02*
X194723333Y-68771485D01*
X198374761Y-66564819D02*
X197803333Y-66564819D01*
X198089047Y-66564819D02*
X198089047Y-65564819D01*
X198089047Y-65564819D02*
X197993809Y-65707676D01*
X197993809Y-65707676D02*
X197898571Y-65802914D01*
X197898571Y-65802914D02*
X197803333Y-65850533D01*
X198993809Y-65564819D02*
X199089047Y-65564819D01*
X199089047Y-65564819D02*
X199184285Y-65612438D01*
X199184285Y-65612438D02*
X199231904Y-65660057D01*
X199231904Y-65660057D02*
X199279523Y-65755295D01*
X199279523Y-65755295D02*
X199327142Y-65945771D01*
X199327142Y-65945771D02*
X199327142Y-66183866D01*
X199327142Y-66183866D02*
X199279523Y-66374342D01*
X199279523Y-66374342D02*
X199231904Y-66469580D01*
X199231904Y-66469580D02*
X199184285Y-66517200D01*
X199184285Y-66517200D02*
X199089047Y-66564819D01*
X199089047Y-66564819D02*
X198993809Y-66564819D01*
X198993809Y-66564819D02*
X198898571Y-66517200D01*
X198898571Y-66517200D02*
X198850952Y-66469580D01*
X198850952Y-66469580D02*
X198803333Y-66374342D01*
X198803333Y-66374342D02*
X198755714Y-66183866D01*
X198755714Y-66183866D02*
X198755714Y-65945771D01*
X198755714Y-65945771D02*
X198803333Y-65755295D01*
X198803333Y-65755295D02*
X198850952Y-65660057D01*
X198850952Y-65660057D02*
X198898571Y-65612438D01*
X198898571Y-65612438D02*
X198993809Y-65564819D01*
X199755714Y-66564819D02*
X199755714Y-65564819D01*
X199850952Y-66183866D02*
X200136666Y-66564819D01*
X200136666Y-65898152D02*
X199755714Y-66279104D01*
X214043333Y-91869580D02*
X213995714Y-91917200D01*
X213995714Y-91917200D02*
X213852857Y-91964819D01*
X213852857Y-91964819D02*
X213757619Y-91964819D01*
X213757619Y-91964819D02*
X213614762Y-91917200D01*
X213614762Y-91917200D02*
X213519524Y-91821961D01*
X213519524Y-91821961D02*
X213471905Y-91726723D01*
X213471905Y-91726723D02*
X213424286Y-91536247D01*
X213424286Y-91536247D02*
X213424286Y-91393390D01*
X213424286Y-91393390D02*
X213471905Y-91202914D01*
X213471905Y-91202914D02*
X213519524Y-91107676D01*
X213519524Y-91107676D02*
X213614762Y-91012438D01*
X213614762Y-91012438D02*
X213757619Y-90964819D01*
X213757619Y-90964819D02*
X213852857Y-90964819D01*
X213852857Y-90964819D02*
X213995714Y-91012438D01*
X213995714Y-91012438D02*
X214043333Y-91060057D01*
X214424286Y-91060057D02*
X214471905Y-91012438D01*
X214471905Y-91012438D02*
X214567143Y-90964819D01*
X214567143Y-90964819D02*
X214805238Y-90964819D01*
X214805238Y-90964819D02*
X214900476Y-91012438D01*
X214900476Y-91012438D02*
X214948095Y-91060057D01*
X214948095Y-91060057D02*
X214995714Y-91155295D01*
X214995714Y-91155295D02*
X214995714Y-91250533D01*
X214995714Y-91250533D02*
X214948095Y-91393390D01*
X214948095Y-91393390D02*
X214376667Y-91964819D01*
X214376667Y-91964819D02*
X214995714Y-91964819D01*
X191818333Y-60214819D02*
X191485000Y-59738628D01*
X191246905Y-60214819D02*
X191246905Y-59214819D01*
X191246905Y-59214819D02*
X191627857Y-59214819D01*
X191627857Y-59214819D02*
X191723095Y-59262438D01*
X191723095Y-59262438D02*
X191770714Y-59310057D01*
X191770714Y-59310057D02*
X191818333Y-59405295D01*
X191818333Y-59405295D02*
X191818333Y-59548152D01*
X191818333Y-59548152D02*
X191770714Y-59643390D01*
X191770714Y-59643390D02*
X191723095Y-59691009D01*
X191723095Y-59691009D02*
X191627857Y-59738628D01*
X191627857Y-59738628D02*
X191246905Y-59738628D01*
X192675476Y-59214819D02*
X192485000Y-59214819D01*
X192485000Y-59214819D02*
X192389762Y-59262438D01*
X192389762Y-59262438D02*
X192342143Y-59310057D01*
X192342143Y-59310057D02*
X192246905Y-59452914D01*
X192246905Y-59452914D02*
X192199286Y-59643390D01*
X192199286Y-59643390D02*
X192199286Y-60024342D01*
X192199286Y-60024342D02*
X192246905Y-60119580D01*
X192246905Y-60119580D02*
X192294524Y-60167200D01*
X192294524Y-60167200D02*
X192389762Y-60214819D01*
X192389762Y-60214819D02*
X192580238Y-60214819D01*
X192580238Y-60214819D02*
X192675476Y-60167200D01*
X192675476Y-60167200D02*
X192723095Y-60119580D01*
X192723095Y-60119580D02*
X192770714Y-60024342D01*
X192770714Y-60024342D02*
X192770714Y-59786247D01*
X192770714Y-59786247D02*
X192723095Y-59691009D01*
X192723095Y-59691009D02*
X192675476Y-59643390D01*
X192675476Y-59643390D02*
X192580238Y-59595771D01*
X192580238Y-59595771D02*
X192389762Y-59595771D01*
X192389762Y-59595771D02*
X192294524Y-59643390D01*
X192294524Y-59643390D02*
X192246905Y-59691009D01*
X192246905Y-59691009D02*
X192199286Y-59786247D01*
X198850952Y-58944819D02*
X198279524Y-58944819D01*
X198565238Y-58944819D02*
X198565238Y-57944819D01*
X198565238Y-57944819D02*
X198470000Y-58087676D01*
X198470000Y-58087676D02*
X198374762Y-58182914D01*
X198374762Y-58182914D02*
X198279524Y-58230533D01*
X199279524Y-58944819D02*
X199279524Y-57944819D01*
X199374762Y-58563866D02*
X199660476Y-58944819D01*
X199660476Y-58278152D02*
X199279524Y-58659104D01*
X160703333Y-53769580D02*
X160655714Y-53817200D01*
X160655714Y-53817200D02*
X160512857Y-53864819D01*
X160512857Y-53864819D02*
X160417619Y-53864819D01*
X160417619Y-53864819D02*
X160274762Y-53817200D01*
X160274762Y-53817200D02*
X160179524Y-53721961D01*
X160179524Y-53721961D02*
X160131905Y-53626723D01*
X160131905Y-53626723D02*
X160084286Y-53436247D01*
X160084286Y-53436247D02*
X160084286Y-53293390D01*
X160084286Y-53293390D02*
X160131905Y-53102914D01*
X160131905Y-53102914D02*
X160179524Y-53007676D01*
X160179524Y-53007676D02*
X160274762Y-52912438D01*
X160274762Y-52912438D02*
X160417619Y-52864819D01*
X160417619Y-52864819D02*
X160512857Y-52864819D01*
X160512857Y-52864819D02*
X160655714Y-52912438D01*
X160655714Y-52912438D02*
X160703333Y-52960057D01*
X161655714Y-53864819D02*
X161084286Y-53864819D01*
X161370000Y-53864819D02*
X161370000Y-52864819D01*
X161370000Y-52864819D02*
X161274762Y-53007676D01*
X161274762Y-53007676D02*
X161179524Y-53102914D01*
X161179524Y-53102914D02*
X161084286Y-53150533D01*
X186103333Y-81804819D02*
X185770000Y-81328628D01*
X185531905Y-81804819D02*
X185531905Y-80804819D01*
X185531905Y-80804819D02*
X185912857Y-80804819D01*
X185912857Y-80804819D02*
X186008095Y-80852438D01*
X186008095Y-80852438D02*
X186055714Y-80900057D01*
X186055714Y-80900057D02*
X186103333Y-80995295D01*
X186103333Y-80995295D02*
X186103333Y-81138152D01*
X186103333Y-81138152D02*
X186055714Y-81233390D01*
X186055714Y-81233390D02*
X186008095Y-81281009D01*
X186008095Y-81281009D02*
X185912857Y-81328628D01*
X185912857Y-81328628D02*
X185531905Y-81328628D01*
X187055714Y-81804819D02*
X186484286Y-81804819D01*
X186770000Y-81804819D02*
X186770000Y-80804819D01*
X186770000Y-80804819D02*
X186674762Y-80947676D01*
X186674762Y-80947676D02*
X186579524Y-81042914D01*
X186579524Y-81042914D02*
X186484286Y-81090533D01*
X188360057Y-79500475D02*
X188312438Y-79452856D01*
X188312438Y-79452856D02*
X188264819Y-79357618D01*
X188264819Y-79357618D02*
X188264819Y-79119523D01*
X188264819Y-79119523D02*
X188312438Y-79024285D01*
X188312438Y-79024285D02*
X188360057Y-78976666D01*
X188360057Y-78976666D02*
X188455295Y-78929047D01*
X188455295Y-78929047D02*
X188550533Y-78929047D01*
X188550533Y-78929047D02*
X188693390Y-78976666D01*
X188693390Y-78976666D02*
X189264819Y-79548094D01*
X189264819Y-79548094D02*
X189264819Y-78929047D01*
X189264819Y-78500475D02*
X188264819Y-78500475D01*
X188883866Y-78405237D02*
X189264819Y-78119523D01*
X188598152Y-78119523D02*
X188979104Y-78500475D01*
X192023333Y-51272200D02*
X192166190Y-51319819D01*
X192166190Y-51319819D02*
X192404285Y-51319819D01*
X192404285Y-51319819D02*
X192499523Y-51272200D01*
X192499523Y-51272200D02*
X192547142Y-51224580D01*
X192547142Y-51224580D02*
X192594761Y-51129342D01*
X192594761Y-51129342D02*
X192594761Y-51034104D01*
X192594761Y-51034104D02*
X192547142Y-50938866D01*
X192547142Y-50938866D02*
X192499523Y-50891247D01*
X192499523Y-50891247D02*
X192404285Y-50843628D01*
X192404285Y-50843628D02*
X192213809Y-50796009D01*
X192213809Y-50796009D02*
X192118571Y-50748390D01*
X192118571Y-50748390D02*
X192070952Y-50700771D01*
X192070952Y-50700771D02*
X192023333Y-50605533D01*
X192023333Y-50605533D02*
X192023333Y-50510295D01*
X192023333Y-50510295D02*
X192070952Y-50415057D01*
X192070952Y-50415057D02*
X192118571Y-50367438D01*
X192118571Y-50367438D02*
X192213809Y-50319819D01*
X192213809Y-50319819D02*
X192451904Y-50319819D01*
X192451904Y-50319819D02*
X192594761Y-50367438D01*
X193023333Y-50653152D02*
X193023333Y-51653152D01*
X193023333Y-50700771D02*
X193118571Y-50653152D01*
X193118571Y-50653152D02*
X193309047Y-50653152D01*
X193309047Y-50653152D02*
X193404285Y-50700771D01*
X193404285Y-50700771D02*
X193451904Y-50748390D01*
X193451904Y-50748390D02*
X193499523Y-50843628D01*
X193499523Y-50843628D02*
X193499523Y-51129342D01*
X193499523Y-51129342D02*
X193451904Y-51224580D01*
X193451904Y-51224580D02*
X193404285Y-51272200D01*
X193404285Y-51272200D02*
X193309047Y-51319819D01*
X193309047Y-51319819D02*
X193118571Y-51319819D01*
X193118571Y-51319819D02*
X193023333Y-51272200D01*
X194309047Y-51272200D02*
X194213809Y-51319819D01*
X194213809Y-51319819D02*
X194023333Y-51319819D01*
X194023333Y-51319819D02*
X193928095Y-51272200D01*
X193928095Y-51272200D02*
X193880476Y-51176961D01*
X193880476Y-51176961D02*
X193880476Y-50796009D01*
X193880476Y-50796009D02*
X193928095Y-50700771D01*
X193928095Y-50700771D02*
X194023333Y-50653152D01*
X194023333Y-50653152D02*
X194213809Y-50653152D01*
X194213809Y-50653152D02*
X194309047Y-50700771D01*
X194309047Y-50700771D02*
X194356666Y-50796009D01*
X194356666Y-50796009D02*
X194356666Y-50891247D01*
X194356666Y-50891247D02*
X193880476Y-50986485D01*
X195213809Y-51319819D02*
X195213809Y-50796009D01*
X195213809Y-50796009D02*
X195166190Y-50700771D01*
X195166190Y-50700771D02*
X195070952Y-50653152D01*
X195070952Y-50653152D02*
X194880476Y-50653152D01*
X194880476Y-50653152D02*
X194785238Y-50700771D01*
X195213809Y-51272200D02*
X195118571Y-51319819D01*
X195118571Y-51319819D02*
X194880476Y-51319819D01*
X194880476Y-51319819D02*
X194785238Y-51272200D01*
X194785238Y-51272200D02*
X194737619Y-51176961D01*
X194737619Y-51176961D02*
X194737619Y-51081723D01*
X194737619Y-51081723D02*
X194785238Y-50986485D01*
X194785238Y-50986485D02*
X194880476Y-50938866D01*
X194880476Y-50938866D02*
X195118571Y-50938866D01*
X195118571Y-50938866D02*
X195213809Y-50891247D01*
X195690000Y-51319819D02*
X195690000Y-50319819D01*
X195785238Y-50938866D02*
X196070952Y-51319819D01*
X196070952Y-50653152D02*
X195690000Y-51034104D01*
X196880476Y-51272200D02*
X196785238Y-51319819D01*
X196785238Y-51319819D02*
X196594762Y-51319819D01*
X196594762Y-51319819D02*
X196499524Y-51272200D01*
X196499524Y-51272200D02*
X196451905Y-51176961D01*
X196451905Y-51176961D02*
X196451905Y-50796009D01*
X196451905Y-50796009D02*
X196499524Y-50700771D01*
X196499524Y-50700771D02*
X196594762Y-50653152D01*
X196594762Y-50653152D02*
X196785238Y-50653152D01*
X196785238Y-50653152D02*
X196880476Y-50700771D01*
X196880476Y-50700771D02*
X196928095Y-50796009D01*
X196928095Y-50796009D02*
X196928095Y-50891247D01*
X196928095Y-50891247D02*
X196451905Y-50986485D01*
X197356667Y-51319819D02*
X197356667Y-50653152D01*
X197356667Y-50843628D02*
X197404286Y-50748390D01*
X197404286Y-50748390D02*
X197451905Y-50700771D01*
X197451905Y-50700771D02*
X197547143Y-50653152D01*
X197547143Y-50653152D02*
X197642381Y-50653152D01*
X197928096Y-51272200D02*
X198023334Y-51319819D01*
X198023334Y-51319819D02*
X198213810Y-51319819D01*
X198213810Y-51319819D02*
X198309048Y-51272200D01*
X198309048Y-51272200D02*
X198356667Y-51176961D01*
X198356667Y-51176961D02*
X198356667Y-51129342D01*
X198356667Y-51129342D02*
X198309048Y-51034104D01*
X198309048Y-51034104D02*
X198213810Y-50986485D01*
X198213810Y-50986485D02*
X198070953Y-50986485D01*
X198070953Y-50986485D02*
X197975715Y-50938866D01*
X197975715Y-50938866D02*
X197928096Y-50843628D01*
X197928096Y-50843628D02*
X197928096Y-50796009D01*
X197928096Y-50796009D02*
X197975715Y-50700771D01*
X197975715Y-50700771D02*
X198070953Y-50653152D01*
X198070953Y-50653152D02*
X198213810Y-50653152D01*
X198213810Y-50653152D02*
X198309048Y-50700771D01*
X190142381Y-56018866D02*
X190904286Y-56018866D01*
X192618571Y-56399819D02*
X192142381Y-56399819D01*
X192142381Y-56399819D02*
X192142381Y-55399819D01*
X193713810Y-56018866D02*
X194475715Y-56018866D01*
X194094762Y-56399819D02*
X194094762Y-55637914D01*
X195713810Y-56018866D02*
X196475715Y-56018866D01*
X196094762Y-56399819D02*
X196094762Y-55637914D01*
X198285238Y-56399819D02*
X197951905Y-55923628D01*
X197713810Y-56399819D02*
X197713810Y-55399819D01*
X197713810Y-55399819D02*
X198094762Y-55399819D01*
X198094762Y-55399819D02*
X198190000Y-55447438D01*
X198190000Y-55447438D02*
X198237619Y-55495057D01*
X198237619Y-55495057D02*
X198285238Y-55590295D01*
X198285238Y-55590295D02*
X198285238Y-55733152D01*
X198285238Y-55733152D02*
X198237619Y-55828390D01*
X198237619Y-55828390D02*
X198190000Y-55876009D01*
X198190000Y-55876009D02*
X198094762Y-55923628D01*
X198094762Y-55923628D02*
X197713810Y-55923628D01*
X199475715Y-56018866D02*
X200237620Y-56018866D01*
X180388333Y-74184819D02*
X180055000Y-73708628D01*
X179816905Y-74184819D02*
X179816905Y-73184819D01*
X179816905Y-73184819D02*
X180197857Y-73184819D01*
X180197857Y-73184819D02*
X180293095Y-73232438D01*
X180293095Y-73232438D02*
X180340714Y-73280057D01*
X180340714Y-73280057D02*
X180388333Y-73375295D01*
X180388333Y-73375295D02*
X180388333Y-73518152D01*
X180388333Y-73518152D02*
X180340714Y-73613390D01*
X180340714Y-73613390D02*
X180293095Y-73661009D01*
X180293095Y-73661009D02*
X180197857Y-73708628D01*
X180197857Y-73708628D02*
X179816905Y-73708628D01*
X180721667Y-73184819D02*
X181388333Y-73184819D01*
X181388333Y-73184819D02*
X180959762Y-74184819D01*
X173450952Y-74184819D02*
X172879524Y-74184819D01*
X173165238Y-74184819D02*
X173165238Y-73184819D01*
X173165238Y-73184819D02*
X173070000Y-73327676D01*
X173070000Y-73327676D02*
X172974762Y-73422914D01*
X172974762Y-73422914D02*
X172879524Y-73470533D01*
X173879524Y-74184819D02*
X173879524Y-73184819D01*
X173974762Y-73803866D02*
X174260476Y-74184819D01*
X174260476Y-73518152D02*
X173879524Y-73899104D01*
X154988333Y-88789819D02*
X154655000Y-88313628D01*
X154416905Y-88789819D02*
X154416905Y-87789819D01*
X154416905Y-87789819D02*
X154797857Y-87789819D01*
X154797857Y-87789819D02*
X154893095Y-87837438D01*
X154893095Y-87837438D02*
X154940714Y-87885057D01*
X154940714Y-87885057D02*
X154988333Y-87980295D01*
X154988333Y-87980295D02*
X154988333Y-88123152D01*
X154988333Y-88123152D02*
X154940714Y-88218390D01*
X154940714Y-88218390D02*
X154893095Y-88266009D01*
X154893095Y-88266009D02*
X154797857Y-88313628D01*
X154797857Y-88313628D02*
X154416905Y-88313628D01*
X155369286Y-87885057D02*
X155416905Y-87837438D01*
X155416905Y-87837438D02*
X155512143Y-87789819D01*
X155512143Y-87789819D02*
X155750238Y-87789819D01*
X155750238Y-87789819D02*
X155845476Y-87837438D01*
X155845476Y-87837438D02*
X155893095Y-87885057D01*
X155893095Y-87885057D02*
X155940714Y-87980295D01*
X155940714Y-87980295D02*
X155940714Y-88075533D01*
X155940714Y-88075533D02*
X155893095Y-88218390D01*
X155893095Y-88218390D02*
X155321667Y-88789819D01*
X155321667Y-88789819D02*
X155940714Y-88789819D01*
X155340057Y-82040475D02*
X155292438Y-81992856D01*
X155292438Y-81992856D02*
X155244819Y-81897618D01*
X155244819Y-81897618D02*
X155244819Y-81659523D01*
X155244819Y-81659523D02*
X155292438Y-81564285D01*
X155292438Y-81564285D02*
X155340057Y-81516666D01*
X155340057Y-81516666D02*
X155435295Y-81469047D01*
X155435295Y-81469047D02*
X155530533Y-81469047D01*
X155530533Y-81469047D02*
X155673390Y-81516666D01*
X155673390Y-81516666D02*
X156244819Y-82088094D01*
X156244819Y-82088094D02*
X156244819Y-81469047D01*
X156244819Y-81040475D02*
X155244819Y-81040475D01*
X155863866Y-80945237D02*
X156244819Y-80659523D01*
X155578152Y-80659523D02*
X155959104Y-81040475D01*
X216583333Y-69104819D02*
X216250000Y-68628628D01*
X216011905Y-69104819D02*
X216011905Y-68104819D01*
X216011905Y-68104819D02*
X216392857Y-68104819D01*
X216392857Y-68104819D02*
X216488095Y-68152438D01*
X216488095Y-68152438D02*
X216535714Y-68200057D01*
X216535714Y-68200057D02*
X216583333Y-68295295D01*
X216583333Y-68295295D02*
X216583333Y-68438152D01*
X216583333Y-68438152D02*
X216535714Y-68533390D01*
X216535714Y-68533390D02*
X216488095Y-68581009D01*
X216488095Y-68581009D02*
X216392857Y-68628628D01*
X216392857Y-68628628D02*
X216011905Y-68628628D01*
X217488095Y-68104819D02*
X217011905Y-68104819D01*
X217011905Y-68104819D02*
X216964286Y-68581009D01*
X216964286Y-68581009D02*
X217011905Y-68533390D01*
X217011905Y-68533390D02*
X217107143Y-68485771D01*
X217107143Y-68485771D02*
X217345238Y-68485771D01*
X217345238Y-68485771D02*
X217440476Y-68533390D01*
X217440476Y-68533390D02*
X217488095Y-68581009D01*
X217488095Y-68581009D02*
X217535714Y-68676247D01*
X217535714Y-68676247D02*
X217535714Y-68914342D01*
X217535714Y-68914342D02*
X217488095Y-69009580D01*
X217488095Y-69009580D02*
X217440476Y-69057200D01*
X217440476Y-69057200D02*
X217345238Y-69104819D01*
X217345238Y-69104819D02*
X217107143Y-69104819D01*
X217107143Y-69104819D02*
X217011905Y-69057200D01*
X217011905Y-69057200D02*
X216964286Y-69009580D01*
X211074761Y-66564819D02*
X210503333Y-66564819D01*
X210789047Y-66564819D02*
X210789047Y-65564819D01*
X210789047Y-65564819D02*
X210693809Y-65707676D01*
X210693809Y-65707676D02*
X210598571Y-65802914D01*
X210598571Y-65802914D02*
X210503333Y-65850533D01*
X211693809Y-65564819D02*
X211789047Y-65564819D01*
X211789047Y-65564819D02*
X211884285Y-65612438D01*
X211884285Y-65612438D02*
X211931904Y-65660057D01*
X211931904Y-65660057D02*
X211979523Y-65755295D01*
X211979523Y-65755295D02*
X212027142Y-65945771D01*
X212027142Y-65945771D02*
X212027142Y-66183866D01*
X212027142Y-66183866D02*
X211979523Y-66374342D01*
X211979523Y-66374342D02*
X211931904Y-66469580D01*
X211931904Y-66469580D02*
X211884285Y-66517200D01*
X211884285Y-66517200D02*
X211789047Y-66564819D01*
X211789047Y-66564819D02*
X211693809Y-66564819D01*
X211693809Y-66564819D02*
X211598571Y-66517200D01*
X211598571Y-66517200D02*
X211550952Y-66469580D01*
X211550952Y-66469580D02*
X211503333Y-66374342D01*
X211503333Y-66374342D02*
X211455714Y-66183866D01*
X211455714Y-66183866D02*
X211455714Y-65945771D01*
X211455714Y-65945771D02*
X211503333Y-65755295D01*
X211503333Y-65755295D02*
X211550952Y-65660057D01*
X211550952Y-65660057D02*
X211598571Y-65612438D01*
X211598571Y-65612438D02*
X211693809Y-65564819D01*
X212455714Y-66564819D02*
X212455714Y-65564819D01*
X212550952Y-66183866D02*
X212836666Y-66564819D01*
X212836666Y-65898152D02*
X212455714Y-66279104D01*
X158798333Y-88789819D02*
X158465000Y-88313628D01*
X158226905Y-88789819D02*
X158226905Y-87789819D01*
X158226905Y-87789819D02*
X158607857Y-87789819D01*
X158607857Y-87789819D02*
X158703095Y-87837438D01*
X158703095Y-87837438D02*
X158750714Y-87885057D01*
X158750714Y-87885057D02*
X158798333Y-87980295D01*
X158798333Y-87980295D02*
X158798333Y-88123152D01*
X158798333Y-88123152D02*
X158750714Y-88218390D01*
X158750714Y-88218390D02*
X158703095Y-88266009D01*
X158703095Y-88266009D02*
X158607857Y-88313628D01*
X158607857Y-88313628D02*
X158226905Y-88313628D01*
X159131667Y-87789819D02*
X159750714Y-87789819D01*
X159750714Y-87789819D02*
X159417381Y-88170771D01*
X159417381Y-88170771D02*
X159560238Y-88170771D01*
X159560238Y-88170771D02*
X159655476Y-88218390D01*
X159655476Y-88218390D02*
X159703095Y-88266009D01*
X159703095Y-88266009D02*
X159750714Y-88361247D01*
X159750714Y-88361247D02*
X159750714Y-88599342D01*
X159750714Y-88599342D02*
X159703095Y-88694580D01*
X159703095Y-88694580D02*
X159655476Y-88742200D01*
X159655476Y-88742200D02*
X159560238Y-88789819D01*
X159560238Y-88789819D02*
X159274524Y-88789819D01*
X159274524Y-88789819D02*
X159179286Y-88742200D01*
X159179286Y-88742200D02*
X159131667Y-88694580D01*
X157880057Y-82040475D02*
X157832438Y-81992856D01*
X157832438Y-81992856D02*
X157784819Y-81897618D01*
X157784819Y-81897618D02*
X157784819Y-81659523D01*
X157784819Y-81659523D02*
X157832438Y-81564285D01*
X157832438Y-81564285D02*
X157880057Y-81516666D01*
X157880057Y-81516666D02*
X157975295Y-81469047D01*
X157975295Y-81469047D02*
X158070533Y-81469047D01*
X158070533Y-81469047D02*
X158213390Y-81516666D01*
X158213390Y-81516666D02*
X158784819Y-82088094D01*
X158784819Y-82088094D02*
X158784819Y-81469047D01*
X158784819Y-81040475D02*
X157784819Y-81040475D01*
X158403866Y-80945237D02*
X158784819Y-80659523D01*
X158118152Y-80659523D02*
X158499104Y-81040475D01*
D13*
%TO.C,J7*%
X187480000Y-92780000D02*
X187480000Y-95380000D01*
X187480000Y-92780000D02*
X190140000Y-92780000D01*
X187480000Y-95380000D02*
X190140000Y-95380000D01*
X188810000Y-90180000D02*
X190140000Y-90180000D01*
X190140000Y-90180000D02*
X190140000Y-91510000D01*
X190140000Y-92780000D02*
X190140000Y-95380000D01*
%TO.C,J9*%
X207860000Y-52080000D02*
X210460000Y-52080000D01*
X205260000Y-52080000D02*
X206590000Y-52080000D01*
X205260000Y-53410000D02*
X205260000Y-52080000D01*
X210460000Y-54740000D02*
X210460000Y-52080000D01*
X207860000Y-54740000D02*
X207860000Y-52080000D01*
X207860000Y-54740000D02*
X210460000Y-54740000D01*
%TO.C,J1*%
X154460000Y-67380000D02*
X154460000Y-57160000D01*
X154460000Y-69980000D02*
X154460000Y-68650000D01*
X155790000Y-69980000D02*
X154460000Y-69980000D01*
X157120000Y-57160000D02*
X154460000Y-57160000D01*
X157120000Y-67380000D02*
X154460000Y-67380000D01*
X157120000Y-67380000D02*
X157120000Y-57160000D01*
%TO.C,J10*%
X195100000Y-77600000D02*
X195100000Y-76270000D01*
X196430000Y-77600000D02*
X195100000Y-77600000D01*
X197700000Y-74940000D02*
X207920000Y-74940000D01*
X197700000Y-77600000D02*
X197700000Y-74940000D01*
X197700000Y-77600000D02*
X207920000Y-77600000D01*
X207920000Y-77600000D02*
X207920000Y-74940000D01*
%TO.C,R4*%
X202240000Y-64740000D02*
X195700000Y-64740000D01*
X195700000Y-64740000D02*
X195700000Y-67480000D01*
X203010000Y-66110000D02*
X202240000Y-66110000D01*
X194930000Y-66110000D02*
X195700000Y-66110000D01*
X202240000Y-67480000D02*
X202240000Y-64740000D01*
X195700000Y-67480000D02*
X202240000Y-67480000D01*
%TO.C,J8*%
X192560000Y-95320000D02*
X192560000Y-74940000D01*
X195220000Y-74940000D02*
X192560000Y-74940000D01*
X195220000Y-95320000D02*
X192560000Y-95320000D01*
X195220000Y-95320000D02*
X195220000Y-74940000D01*
X195220000Y-96590000D02*
X195220000Y-97920000D01*
X195220000Y-97920000D02*
X193890000Y-97920000D01*
%TO.C,C2*%
X213290000Y-95969000D02*
X213290000Y-94711000D01*
X215130000Y-95969000D02*
X215130000Y-94711000D01*
%TO.C,R6*%
X195700000Y-59860000D02*
X202240000Y-59860000D01*
X202240000Y-59860000D02*
X202240000Y-57120000D01*
X194930000Y-58490000D02*
X195700000Y-58490000D01*
X203010000Y-58490000D02*
X202240000Y-58490000D01*
X195700000Y-57120000D02*
X195700000Y-59860000D01*
X202240000Y-57120000D02*
X195700000Y-57120000D01*
%TO.C,C1*%
X161790000Y-57869000D02*
X161790000Y-56611000D01*
X159950000Y-57869000D02*
X159950000Y-56611000D01*
%TO.C,R1*%
X188810000Y-74770000D02*
X188810000Y-75540000D01*
X190180000Y-75540000D02*
X187440000Y-75540000D01*
X187440000Y-75540000D02*
X187440000Y-82080000D01*
X190180000Y-82080000D02*
X190180000Y-75540000D01*
X187440000Y-82080000D02*
X190180000Y-82080000D01*
X188810000Y-82850000D02*
X188810000Y-82080000D01*
%TO.C,J11*%
X207800000Y-74940000D02*
X209130000Y-74940000D01*
X207800000Y-76270000D02*
X207800000Y-74940000D01*
X207800000Y-77540000D02*
X207800000Y-97920000D01*
X207800000Y-77540000D02*
X210460000Y-77540000D01*
X207800000Y-97920000D02*
X210460000Y-97920000D01*
X210460000Y-77540000D02*
X210460000Y-97920000D01*
%TO.C,J4*%
X200320000Y-54760000D02*
X198990000Y-54760000D01*
X200320000Y-53430000D02*
X200320000Y-54760000D01*
X197720000Y-54760000D02*
X190040000Y-54760000D01*
X197720000Y-52100000D02*
X197720000Y-54760000D01*
X197720000Y-52100000D02*
X190040000Y-52100000D01*
X190040000Y-52100000D02*
X190040000Y-54760000D01*
%TO.C,R7*%
X176840000Y-72360000D02*
X170300000Y-72360000D01*
X170300000Y-72360000D02*
X170300000Y-75100000D01*
X177610000Y-73730000D02*
X176840000Y-73730000D01*
X169530000Y-73730000D02*
X170300000Y-73730000D01*
X176840000Y-75100000D02*
X176840000Y-72360000D01*
X170300000Y-75100000D02*
X176840000Y-75100000D01*
%TO.C,R2*%
X155790000Y-77310000D02*
X155790000Y-78080000D01*
X157160000Y-78080000D02*
X154420000Y-78080000D01*
X154420000Y-78080000D02*
X154420000Y-84620000D01*
X157160000Y-84620000D02*
X157160000Y-78080000D01*
X154420000Y-84620000D02*
X157160000Y-84620000D01*
X155790000Y-85390000D02*
X155790000Y-84620000D01*
%TO.C,J3*%
X187600000Y-64800000D02*
X184940000Y-64800000D01*
X187600000Y-67400000D02*
X187600000Y-64800000D01*
X187600000Y-67400000D02*
X184940000Y-67400000D01*
X184940000Y-67400000D02*
X184940000Y-64800000D01*
X187600000Y-68670000D02*
X187600000Y-70000000D01*
X187600000Y-70000000D02*
X186270000Y-70000000D01*
%TO.C,J2*%
X167280000Y-64800000D02*
X164620000Y-64800000D01*
X167280000Y-67400000D02*
X167280000Y-64800000D01*
X167280000Y-67400000D02*
X164620000Y-67400000D01*
X164620000Y-67400000D02*
X164620000Y-64800000D01*
X167280000Y-68670000D02*
X167280000Y-70000000D01*
X167280000Y-70000000D02*
X165950000Y-70000000D01*
%TO.C,J5*%
X167280000Y-52100000D02*
X164620000Y-52100000D01*
X167280000Y-57240000D02*
X167280000Y-52100000D01*
X167280000Y-57240000D02*
X164620000Y-57240000D01*
X164620000Y-57240000D02*
X164620000Y-52100000D01*
X167280000Y-58510000D02*
X167280000Y-59840000D01*
X167280000Y-59840000D02*
X165950000Y-59840000D01*
%TO.C,J6*%
X187600000Y-52100000D02*
X184940000Y-52100000D01*
X187600000Y-54700000D02*
X187600000Y-52100000D01*
X187600000Y-54700000D02*
X184940000Y-54700000D01*
X184940000Y-54700000D02*
X184940000Y-52100000D01*
X187600000Y-55970000D02*
X187600000Y-57300000D01*
X187600000Y-57300000D02*
X186270000Y-57300000D01*
%TO.C,R5*%
X214940000Y-64740000D02*
X208400000Y-64740000D01*
X208400000Y-64740000D02*
X208400000Y-67480000D01*
X215710000Y-66110000D02*
X214940000Y-66110000D01*
X207630000Y-66110000D02*
X208400000Y-66110000D01*
X214940000Y-67480000D02*
X214940000Y-64740000D01*
X208400000Y-67480000D02*
X214940000Y-67480000D01*
%TO.C,J13*%
X182520000Y-77480000D02*
X179860000Y-77480000D01*
X182520000Y-95320000D02*
X182520000Y-77480000D01*
X182520000Y-95320000D02*
X179860000Y-95320000D01*
X179860000Y-95320000D02*
X179860000Y-77480000D01*
X181190000Y-97920000D02*
X179860000Y-97920000D01*
X179860000Y-97920000D02*
X179860000Y-96590000D01*
%TO.C,J12*%
X164740000Y-77480000D02*
X164740000Y-78810000D01*
X163410000Y-77480000D02*
X164740000Y-77480000D01*
X164740000Y-80080000D02*
X164740000Y-97920000D01*
X162080000Y-80080000D02*
X164740000Y-80080000D01*
X162080000Y-80080000D02*
X162080000Y-97920000D01*
X162080000Y-97920000D02*
X164740000Y-97920000D01*
%TO.C,R3*%
X158330000Y-77310000D02*
X158330000Y-78080000D01*
X159700000Y-78080000D02*
X156960000Y-78080000D01*
X156960000Y-78080000D02*
X156960000Y-84620000D01*
X159700000Y-84620000D02*
X159700000Y-78080000D01*
X156960000Y-84620000D02*
X159700000Y-84620000D01*
X158330000Y-85390000D02*
X158330000Y-84620000D01*
%TD*%
M02*
