%TF.GenerationSoftware,KiCad,Pcbnew,8.0.3*%
%TF.CreationDate,2026-01-07T23:34:00+01:00*%
%TF.ProjectId,VintageRadio,56696e74-6167-4655-9261-64696f2e6b69,rev?*%
%TF.SameCoordinates,Original*%
%TF.FileFunction,Copper,L2,Bot*%
%TF.FilePolarity,Positive*%
%FSLAX46Y46*%
G04 Gerber Fmt 4.6, Leading zero omitted, Abs format (unit mm)*
G04 Created by KiCad (PCBNEW 8.0.3) date 2026-01-07 23:34:00*
%MOMM*%
%LPD*%
G01*
G04 APERTURE LIST*
%TA.AperFunction,ComponentPad*%
%ADD10O,1.700000X1.700000*%
%TD*%
%TA.AperFunction,ComponentPad*%
%ADD11R,1.700000X1.700000*%
%TD*%
%TA.AperFunction,ComponentPad*%
%ADD12C,1.700000*%
%TD*%
%TA.AperFunction,ComponentPad*%
%ADD13C,1.600000*%
%TD*%
%TA.AperFunction,ComponentPad*%
%ADD14O,1.600000X1.600000*%
%TD*%
%TA.AperFunction,Conductor*%
%ADD15C,0.400000*%
%TD*%
%TA.AperFunction,Conductor*%
%ADD16C,0.800000*%
%TD*%
G04 APERTURE END LIST*
D10*
%TO.P,J1,5,Pin_5*%
%TO.N,VCC*%
X160870000Y-78810000D03*
%TO.P,J1,4,Pin_4*%
%TO.N,GND*%
X160870000Y-81350000D03*
%TO.P,J1,3,Pin_3*%
%TO.N,Net-(J1-Pin_3)*%
X160870000Y-83890000D03*
%TO.P,J1,2,Pin_2*%
%TO.N,Net-(J1-Pin_2)*%
X160870000Y-86430000D03*
D11*
%TO.P,J1,1,Pin_1*%
%TO.N,Net-(J1-Pin_1)*%
X160870000Y-88970000D03*
%TD*%
D12*
%TO.P,J10,1,Pin_1*%
%TO.N,unconnected-(J10-Pin_1-Pad1)*%
X196430000Y-76270000D03*
D10*
%TO.P,J10,2,Pin_2*%
%TO.N,unconnected-(J10-Pin_2-Pad2)*%
X198970000Y-76270000D03*
%TO.P,J10,3,Pin_3*%
%TO.N,unconnected-(J10-Pin_3-Pad3)*%
X201510000Y-76270000D03*
%TO.P,J10,4,Pin_4*%
%TO.N,unconnected-(J10-Pin_4-Pad4)*%
X204050000Y-76270000D03*
%TO.P,J10,5,Pin_5*%
%TO.N,unconnected-(J10-Pin_5-Pad5)*%
X206590000Y-76270000D03*
%TD*%
D11*
%TO.P,J6,1,Pin_1*%
%TO.N,Net-(J4-Pin_4)*%
X178650000Y-96590000D03*
D10*
%TO.P,J6,2,Pin_2*%
%TO.N,Net-(J4-Pin_3)*%
X181190000Y-96590000D03*
%TD*%
D13*
%TO.P,R4,1*%
%TO.N,VCC*%
X214210000Y-58490000D03*
D14*
%TO.P,R4,2*%
%TO.N,Net-(J11-Pin_1)*%
X214210000Y-68650000D03*
%TD*%
D11*
%TO.P,J8,1,Pin_1*%
%TO.N,Net-(J8-Pin_1)*%
X193890000Y-96590000D03*
D10*
%TO.P,J8,2,Pin_2*%
%TO.N,unconnected-(J8-Pin_2-Pad2)*%
X193890000Y-94050000D03*
%TO.P,J8,3,Pin_3*%
%TO.N,Net-(J7-Pin_1)*%
X193890000Y-91510000D03*
%TO.P,J8,4,Pin_4*%
%TO.N,Net-(J8-Pin_4)*%
X193890000Y-88970000D03*
%TO.P,J8,5,Pin_5*%
%TO.N,unconnected-(J8-Pin_5-Pad5)*%
X193890000Y-86430000D03*
%TO.P,J8,6,Pin_6*%
%TO.N,unconnected-(J8-Pin_6-Pad6)*%
X193890000Y-83890000D03*
%TO.P,J8,7,Pin_7*%
%TO.N,unconnected-(J8-Pin_7-Pad7)*%
X193890000Y-81350000D03*
%TO.P,J8,8,Pin_8*%
%TO.N,unconnected-(J8-Pin_8-Pad8)*%
X193890000Y-78810000D03*
%TO.P,J8,9,Pin_9*%
%TO.N,unconnected-(J8-Pin_9-Pad9)*%
X193890000Y-76270000D03*
%TD*%
D11*
%TO.P,J5,1,Pin_1*%
%TO.N,Net-(J1-Pin_3)*%
X176110000Y-76270000D03*
D10*
%TO.P,J5,2,Pin_2*%
%TO.N,GND*%
X178650000Y-76270000D03*
%TO.P,J5,3,Pin_3*%
%TO.N,Net-(J1-Pin_3)*%
X181190000Y-76270000D03*
%TD*%
D11*
%TO.P,J3,1,Pin_1*%
%TO.N,Net-(J3-Pin_1)*%
X165950000Y-96590000D03*
D10*
%TO.P,J3,2,Pin_2*%
%TO.N,Net-(J3-Pin_2)*%
X168490000Y-96590000D03*
%TD*%
D12*
%TO.P,J13,1,Pin_1*%
%TO.N,unconnected-(J13-Pin_1-Pad1)*%
X191350000Y-71190000D03*
D10*
%TO.P,J13,2,Pin_2*%
%TO.N,GND*%
X193890000Y-71190000D03*
%TO.P,J13,3,Pin_3*%
%TO.N,unconnected-(J13-Pin_3-Pad3)*%
X196430000Y-71190000D03*
%TO.P,J13,4,Pin_4*%
%TO.N,unconnected-(J13-Pin_4-Pad4)*%
X198970000Y-71190000D03*
%TO.P,J13,5,Pin_5*%
%TO.N,unconnected-(J13-Pin_5-Pad5)*%
X201510000Y-71190000D03*
%TO.P,J13,6,Pin_6*%
%TO.N,unconnected-(J13-Pin_6-Pad6)*%
X204050000Y-71190000D03*
%TO.P,J13,7,Pin_7*%
%TO.N,unconnected-(J13-Pin_7-Pad7)*%
X206590000Y-71190000D03*
%TO.P,J13,8,Pin_8*%
%TO.N,Net-(J11-Pin_2)*%
X209130000Y-71190000D03*
%TD*%
D11*
%TO.P,J2,1,Pin_1*%
%TO.N,GND*%
X165950000Y-76270000D03*
D10*
%TO.P,J2,2,Pin_2*%
%TO.N,VCC*%
X168490000Y-76270000D03*
%TD*%
D14*
%TO.P,R7,2*%
%TO.N,Net-(J8-Pin_1)*%
X188810000Y-94050000D03*
D13*
%TO.P,R7,1*%
%TO.N,Net-(J12-Pin_2)*%
X188810000Y-83890000D03*
%TD*%
D10*
%TO.P,J9,2,Pin_2*%
%TO.N,GND*%
X176110000Y-55925000D03*
D11*
%TO.P,J9,1,Pin_1*%
%TO.N,Net-(J9-Pin_1)*%
X173570000Y-55925000D03*
%TD*%
D13*
%TO.P,C2,1*%
%TO.N,Net-(J1-Pin_1)*%
X214210000Y-96590000D03*
%TO.P,C2,2*%
%TO.N,GND*%
X214210000Y-94090000D03*
%TD*%
D11*
%TO.P,J7,1,Pin_1*%
%TO.N,Net-(J7-Pin_1)*%
X181190000Y-55950000D03*
D10*
%TO.P,J7,2,Pin_2*%
%TO.N,GND*%
X183730000Y-55950000D03*
%TD*%
D13*
%TO.P,R5,1*%
%TO.N,GND*%
X214210000Y-86430000D03*
D14*
%TO.P,R5,2*%
%TO.N,Net-(J11-Pin_1)*%
X214210000Y-76270000D03*
%TD*%
D13*
%TO.P,R6,1*%
%TO.N,VCC*%
X168490000Y-61030000D03*
D14*
%TO.P,R6,2*%
%TO.N,Net-(J9-Pin_1)*%
X168490000Y-71190000D03*
%TD*%
%TO.P,R2,2*%
%TO.N,Net-(J12-Pin_5)*%
X186270000Y-61030000D03*
D13*
%TO.P,R2,1*%
%TO.N,Net-(J1-Pin_2)*%
X176110000Y-61030000D03*
%TD*%
D14*
%TO.P,R3,2*%
%TO.N,Net-(J12-Pin_4)*%
X186270000Y-63570000D03*
D13*
%TO.P,R3,1*%
%TO.N,Net-(J1-Pin_2)*%
X176110000Y-63570000D03*
%TD*%
%TO.P,C1,1*%
%TO.N,Net-(J1-Pin_3)*%
X176110000Y-71190000D03*
%TO.P,C1,2*%
%TO.N,GND*%
X173610000Y-71190000D03*
%TD*%
D10*
%TO.P,J12,8,Pin_8*%
%TO.N,unconnected-(J12-Pin_8-Pad8)*%
X191350000Y-53410000D03*
%TO.P,J12,7,Pin_7*%
%TO.N,GND*%
X193890000Y-53410000D03*
%TO.P,J12,6,Pin_6*%
%TO.N,unconnected-(J12-Pin_6-Pad6)*%
X196430000Y-53410000D03*
%TO.P,J12,5,Pin_5*%
%TO.N,Net-(J12-Pin_5)*%
X198970000Y-53410000D03*
%TO.P,J12,4,Pin_4*%
%TO.N,Net-(J12-Pin_4)*%
X201510000Y-53410000D03*
%TO.P,J12,3,Pin_3*%
%TO.N,unconnected-(J12-Pin_3-Pad3)*%
X204050000Y-53410000D03*
%TO.P,J12,2,Pin_2*%
%TO.N,Net-(J12-Pin_2)*%
X206590000Y-53410000D03*
D11*
%TO.P,J12,1,Pin_1*%
%TO.N,VCC*%
X209130000Y-53410000D03*
%TD*%
D14*
%TO.P,R1,2*%
%TO.N,Net-(J8-Pin_4)*%
X188810000Y-66110000D03*
D13*
%TO.P,R1,1*%
%TO.N,Net-(J1-Pin_2)*%
X178650000Y-66110000D03*
%TD*%
D12*
%TO.P,J11,1,Pin_1*%
%TO.N,Net-(J11-Pin_1)*%
X209130000Y-76270000D03*
D10*
%TO.P,J11,2,Pin_2*%
%TO.N,Net-(J11-Pin_2)*%
X209130000Y-78810000D03*
%TO.P,J11,3,Pin_3*%
%TO.N,unconnected-(J11-Pin_3-Pad3)*%
X209130000Y-81350000D03*
%TO.P,J11,4,Pin_4*%
%TO.N,unconnected-(J11-Pin_4-Pad4)*%
X209130000Y-83890000D03*
%TO.P,J11,5,Pin_5*%
%TO.N,unconnected-(J11-Pin_5-Pad5)*%
X209130000Y-86430000D03*
%TO.P,J11,6,Pin_6*%
%TO.N,unconnected-(J11-Pin_6-Pad6)*%
X209130000Y-88970000D03*
%TO.P,J11,7,Pin_7*%
%TO.N,unconnected-(J11-Pin_7-Pad7)*%
X209130000Y-91510000D03*
%TO.P,J11,8,Pin_8*%
%TO.N,GND*%
X209130000Y-94050000D03*
%TO.P,J11,9,Pin_9*%
%TO.N,Net-(J1-Pin_1)*%
X209130000Y-96590000D03*
%TD*%
%TO.P,J4,4,Pin_4*%
%TO.N,Net-(J4-Pin_4)*%
X167865000Y-55925000D03*
%TO.P,J4,3,Pin_3*%
%TO.N,Net-(J4-Pin_3)*%
X165325000Y-55925000D03*
%TO.P,J4,2,Pin_2*%
%TO.N,Net-(J3-Pin_2)*%
X162785000Y-55925000D03*
D11*
%TO.P,J4,1,Pin_1*%
%TO.N,Net-(J3-Pin_1)*%
X160245000Y-55925000D03*
%TD*%
D15*
%TO.N,Net-(J1-Pin_3)*%
X176110000Y-76905000D02*
X178650000Y-79445000D01*
X176110000Y-71190000D02*
X176110000Y-76270000D01*
X178650000Y-79445000D02*
X174205000Y-83890000D01*
X181190000Y-76905000D02*
X178650000Y-79445000D01*
X174205000Y-83890000D02*
X160870000Y-83890000D01*
X176110000Y-76270000D02*
X176110000Y-76905000D01*
X181190000Y-76270000D02*
X181190000Y-76905000D01*
D16*
%TO.N,GND*%
X214170000Y-94050000D02*
X214210000Y-94090000D01*
%TO.N,Net-(J1-Pin_1)*%
X179740000Y-88970000D02*
X160870000Y-88970000D01*
X188810000Y-98040000D02*
X179740000Y-88970000D01*
X209130000Y-96590000D02*
X207680000Y-98040000D01*
X209130000Y-96590000D02*
X214210000Y-96590000D01*
X207680000Y-98040000D02*
X188810000Y-98040000D01*
%TO.N,VCC*%
X170395000Y-54045000D02*
X170395000Y-61347500D01*
X207680000Y-51960000D02*
X172480000Y-51960000D01*
X169601250Y-62141250D02*
X160870000Y-70872500D01*
D15*
X168490000Y-61030000D02*
X169601250Y-62141250D01*
D16*
X168490000Y-77472081D02*
X168490000Y-76270000D01*
X160870000Y-78810000D02*
X167152081Y-78810000D01*
D15*
X214210000Y-58490000D02*
X209130000Y-53410000D01*
D16*
X167152081Y-78810000D02*
X168490000Y-77472081D01*
X209130000Y-53410000D02*
X207680000Y-51960000D01*
X172480000Y-51960000D02*
X170395000Y-54045000D01*
X170395000Y-61347500D02*
X169601250Y-62141250D01*
X160870000Y-70872500D02*
X160870000Y-78810000D01*
D15*
%TO.N,Net-(J1-Pin_2)*%
X183730000Y-75000000D02*
X183730000Y-78810000D01*
X183730000Y-75000000D02*
X183730000Y-72460000D01*
X183730000Y-78810000D02*
X176110000Y-86430000D01*
X178650000Y-67380000D02*
X178650000Y-66110000D01*
X183730000Y-72460000D02*
X178650000Y-67380000D01*
X183730000Y-74365000D02*
X183730000Y-75000000D01*
X178650000Y-66110000D02*
X176110000Y-63570000D01*
X160870000Y-86430000D02*
X176110000Y-86430000D01*
X176110000Y-63570000D02*
X176110000Y-61030000D01*
%TO.N,Net-(J3-Pin_1)*%
X154520000Y-65261472D02*
X154520000Y-92993528D01*
X156846472Y-95320000D02*
X164680000Y-95320000D01*
X160245000Y-55925000D02*
X160245000Y-59536472D01*
X154520000Y-92993528D02*
X156846472Y-95320000D01*
X160245000Y-59536472D02*
X154520000Y-65261472D01*
X164680000Y-95320000D02*
X165950000Y-96590000D01*
%TO.N,Net-(J3-Pin_2)*%
X168490000Y-96590000D02*
X168490000Y-95955000D01*
X168490000Y-95955000D02*
X167220000Y-94685000D01*
X157060000Y-94685000D02*
X155155000Y-92780000D01*
X155155000Y-65475000D02*
X162785000Y-57845000D01*
X162785000Y-57845000D02*
X162785000Y-55925000D01*
X155155000Y-92780000D02*
X155155000Y-65475000D01*
X167220000Y-94685000D02*
X157060000Y-94685000D01*
%TO.N,Net-(J4-Pin_4)*%
X158330000Y-90875000D02*
X158330000Y-66110000D01*
X178650000Y-96590000D02*
X174205000Y-92145000D01*
X167865000Y-56575000D02*
X158330000Y-66110000D01*
X159600000Y-92145000D02*
X158330000Y-90875000D01*
X174205000Y-92145000D02*
X159600000Y-92145000D01*
X167865000Y-55925000D02*
X167865000Y-56575000D01*
%TO.N,Net-(J4-Pin_3)*%
X176745000Y-97225000D02*
X177360000Y-97840000D01*
X165325000Y-58266472D02*
X157695000Y-65896472D01*
X177360000Y-97840000D02*
X179940000Y-97840000D01*
X159386472Y-92780000D02*
X173991472Y-92780000D01*
X165325000Y-55925000D02*
X165325000Y-58266472D01*
X173991472Y-92780000D02*
X176745000Y-95533528D01*
X176745000Y-95533528D02*
X176745000Y-97225000D01*
X157695000Y-65896472D02*
X157695000Y-91088528D01*
X179940000Y-97840000D02*
X181190000Y-96590000D01*
X157695000Y-91088528D02*
X159386472Y-92780000D01*
%TO.N,Net-(J7-Pin_1)*%
X185000000Y-71190000D02*
X185000000Y-88970000D01*
X181190000Y-55950000D02*
X181190000Y-67380000D01*
X185000000Y-88970000D02*
X187540000Y-91510000D01*
X187540000Y-91510000D02*
X193890000Y-91510000D01*
X181190000Y-67380000D02*
X185000000Y-71190000D01*
%TO.N,Net-(J8-Pin_1)*%
X188810000Y-94050000D02*
X191350000Y-96590000D01*
X193890000Y-96590000D02*
X191350000Y-96590000D01*
%TO.N,Net-(J8-Pin_4)*%
X186270000Y-68650000D02*
X188810000Y-66110000D01*
X186270000Y-87700000D02*
X186270000Y-68650000D01*
X193890000Y-88970000D02*
X187540000Y-88970000D01*
X187540000Y-88970000D02*
X186270000Y-87700000D01*
%TO.N,Net-(J9-Pin_1)*%
X173570000Y-55925000D02*
X173570000Y-66110000D01*
X173570000Y-66110000D02*
X168490000Y-71190000D01*
%TO.N,Net-(J11-Pin_1)*%
X209130000Y-76270000D02*
X214210000Y-76270000D01*
X214210000Y-68650000D02*
X214210000Y-76270000D01*
%TO.N,Net-(J11-Pin_2)*%
X214845000Y-66110000D02*
X216750000Y-68015000D01*
X216750000Y-68015000D02*
X216750000Y-76905000D01*
X212305000Y-66110000D02*
X214845000Y-66110000D01*
X209130000Y-71190000D02*
X209130000Y-69285000D01*
X214845000Y-78810000D02*
X209130000Y-78810000D01*
X216750000Y-76905000D02*
X214845000Y-78810000D01*
X209130000Y-69285000D02*
X212305000Y-66110000D01*
%TO.N,Net-(J12-Pin_4)*%
X191350000Y-63570000D02*
X201510000Y-53410000D01*
X186270000Y-63570000D02*
X191350000Y-63570000D01*
%TO.N,Net-(J12-Pin_5)*%
X186270000Y-61030000D02*
X191350000Y-61030000D01*
X191350000Y-61030000D02*
X198970000Y-53410000D01*
%TO.N,Net-(J12-Pin_2)*%
X206590000Y-53410000D02*
X206590000Y-55950000D01*
X191350000Y-67380000D02*
X188810000Y-69920000D01*
X206590000Y-55950000D02*
X195160000Y-67380000D01*
X188810000Y-83890000D02*
X188810000Y-69920000D01*
X195160000Y-67380000D02*
X191350000Y-67380000D01*
%TD*%
%TA.AperFunction,Conductor*%
%TO.N,GND*%
G36*
X172202022Y-50889685D02*
G01*
X172247777Y-50942489D01*
X172257721Y-51011647D01*
X172228696Y-51075203D01*
X172182435Y-51108561D01*
X172053459Y-51161983D01*
X172053446Y-51161990D01*
X171905966Y-51260534D01*
X171905964Y-51260537D01*
X169695537Y-53470961D01*
X169695536Y-53470963D01*
X169690174Y-53478989D01*
X169690171Y-53478994D01*
X169596985Y-53618455D01*
X169563046Y-53700393D01*
X169529107Y-53782327D01*
X169529105Y-53782333D01*
X169529105Y-53782334D01*
X169510939Y-53873663D01*
X169494500Y-53956305D01*
X169494500Y-59907538D01*
X169474815Y-59974577D01*
X169422011Y-60020332D01*
X169352853Y-60030276D01*
X169299377Y-60009113D01*
X169142734Y-59899432D01*
X169142732Y-59899431D01*
X168936497Y-59803261D01*
X168936488Y-59803258D01*
X168716697Y-59744366D01*
X168716693Y-59744365D01*
X168716692Y-59744365D01*
X168716691Y-59744364D01*
X168716686Y-59744364D01*
X168490002Y-59724532D01*
X168489998Y-59724532D01*
X168263313Y-59744364D01*
X168263302Y-59744366D01*
X168043511Y-59803258D01*
X168043502Y-59803261D01*
X167837267Y-59899431D01*
X167837265Y-59899432D01*
X167650858Y-60029954D01*
X167489954Y-60190858D01*
X167359432Y-60377265D01*
X167359431Y-60377267D01*
X167263261Y-60583502D01*
X167263258Y-60583511D01*
X167204366Y-60803302D01*
X167204364Y-60803313D01*
X167184532Y-61029998D01*
X167184532Y-61030001D01*
X167204364Y-61256686D01*
X167204366Y-61256697D01*
X167263258Y-61476488D01*
X167263261Y-61476497D01*
X167359431Y-61682732D01*
X167359432Y-61682734D01*
X167489954Y-61869141D01*
X167650858Y-62030045D01*
X167650861Y-62030047D01*
X167837266Y-62160568D01*
X167998095Y-62235564D01*
X168050534Y-62281736D01*
X168069686Y-62348930D01*
X168049470Y-62415811D01*
X168033371Y-62435627D01*
X160170535Y-70298464D01*
X160170533Y-70298466D01*
X160153405Y-70324103D01*
X160153403Y-70324106D01*
X160071988Y-70445949D01*
X160044559Y-70512171D01*
X160004105Y-70609833D01*
X160004103Y-70609841D01*
X159977525Y-70743455D01*
X159977526Y-70743456D01*
X159969500Y-70783808D01*
X159969500Y-77749241D01*
X159949815Y-77816280D01*
X159933181Y-77836922D01*
X159831505Y-77938597D01*
X159695965Y-78132169D01*
X159695964Y-78132171D01*
X159596098Y-78346335D01*
X159596094Y-78346344D01*
X159534938Y-78574586D01*
X159534936Y-78574596D01*
X159514341Y-78809999D01*
X159514341Y-78810000D01*
X159534936Y-79045403D01*
X159534938Y-79045413D01*
X159596094Y-79273655D01*
X159596096Y-79273659D01*
X159596097Y-79273663D01*
X159633611Y-79354112D01*
X159695965Y-79487830D01*
X159695967Y-79487834D01*
X159780116Y-79608010D01*
X159827650Y-79675896D01*
X159831501Y-79681395D01*
X159831506Y-79681402D01*
X159998597Y-79848493D01*
X159998603Y-79848498D01*
X160184594Y-79978730D01*
X160228219Y-80033307D01*
X160235413Y-80102805D01*
X160203890Y-80165160D01*
X160184595Y-80181880D01*
X159998922Y-80311890D01*
X159998920Y-80311891D01*
X159831891Y-80478920D01*
X159831886Y-80478926D01*
X159696400Y-80672420D01*
X159696399Y-80672422D01*
X159596570Y-80886507D01*
X159596567Y-80886513D01*
X159539364Y-81099999D01*
X159539364Y-81100000D01*
X160436988Y-81100000D01*
X160404075Y-81157007D01*
X160370000Y-81284174D01*
X160370000Y-81415826D01*
X160404075Y-81542993D01*
X160436988Y-81600000D01*
X159539364Y-81600000D01*
X159596567Y-81813486D01*
X159596570Y-81813492D01*
X159696399Y-82027578D01*
X159831894Y-82221082D01*
X159998917Y-82388105D01*
X160184595Y-82518119D01*
X160228219Y-82572696D01*
X160235412Y-82642195D01*
X160203890Y-82704549D01*
X160184595Y-82721269D01*
X159998594Y-82851508D01*
X159831505Y-83018597D01*
X159695965Y-83212169D01*
X159695964Y-83212171D01*
X159596098Y-83426335D01*
X159596094Y-83426344D01*
X159534938Y-83654586D01*
X159534936Y-83654596D01*
X159514341Y-83889999D01*
X159514341Y-83890000D01*
X159534936Y-84125403D01*
X159534938Y-84125413D01*
X159596094Y-84353655D01*
X159596096Y-84353659D01*
X159596097Y-84353663D01*
X159633611Y-84434111D01*
X159695965Y-84567830D01*
X159695967Y-84567834D01*
X159831501Y-84761395D01*
X159831506Y-84761402D01*
X159998597Y-84928493D01*
X159998603Y-84928498D01*
X160184158Y-85058425D01*
X160227783Y-85113002D01*
X160234977Y-85182500D01*
X160203454Y-85244855D01*
X160184158Y-85261575D01*
X159998597Y-85391505D01*
X159831505Y-85558597D01*
X159695965Y-85752169D01*
X159695964Y-85752171D01*
X159596098Y-85966335D01*
X159596094Y-85966344D01*
X159534938Y-86194586D01*
X159534936Y-86194596D01*
X159514341Y-86429999D01*
X159514341Y-86430000D01*
X159534936Y-86665403D01*
X159534938Y-86665413D01*
X159596094Y-86893655D01*
X159596096Y-86893659D01*
X159596097Y-86893663D01*
X159633611Y-86974111D01*
X159695965Y-87107830D01*
X159695967Y-87107834D01*
X159831501Y-87301395D01*
X159831506Y-87301402D01*
X159953430Y-87423326D01*
X159986915Y-87484649D01*
X159981931Y-87554341D01*
X159940059Y-87610274D01*
X159909083Y-87627189D01*
X159777669Y-87676203D01*
X159777664Y-87676206D01*
X159662455Y-87762452D01*
X159662452Y-87762455D01*
X159576206Y-87877664D01*
X159576202Y-87877671D01*
X159525908Y-88012517D01*
X159519501Y-88072116D01*
X159519500Y-88072135D01*
X159519500Y-89867870D01*
X159519501Y-89867876D01*
X159525908Y-89927483D01*
X159576202Y-90062328D01*
X159576206Y-90062335D01*
X159662452Y-90177544D01*
X159662455Y-90177547D01*
X159777664Y-90263793D01*
X159777671Y-90263797D01*
X159912517Y-90314091D01*
X159912516Y-90314091D01*
X159919444Y-90314835D01*
X159972127Y-90320500D01*
X161767872Y-90320499D01*
X161827483Y-90314091D01*
X161962331Y-90263796D01*
X162077546Y-90177546D01*
X162163796Y-90062331D01*
X162171149Y-90042615D01*
X162205258Y-89951167D01*
X162247129Y-89895233D01*
X162312593Y-89870816D01*
X162321440Y-89870500D01*
X179315638Y-89870500D01*
X179382677Y-89890185D01*
X179403319Y-89906819D01*
X188235966Y-98739466D01*
X188295036Y-98778933D01*
X188295039Y-98778936D01*
X188382658Y-98837482D01*
X188383453Y-98838013D01*
X188465393Y-98871953D01*
X188465394Y-98871953D01*
X188465395Y-98871954D01*
X188512435Y-98891439D01*
X188566838Y-98935280D01*
X188588903Y-99001574D01*
X188571624Y-99069274D01*
X188520486Y-99116884D01*
X188464982Y-99130000D01*
X153301362Y-99130000D01*
X153234323Y-99110315D01*
X153213681Y-99093681D01*
X153101459Y-98981459D01*
X153067974Y-98920136D01*
X153072958Y-98850444D01*
X153078650Y-98837492D01*
X153158884Y-98680025D01*
X153219709Y-98492826D01*
X153236927Y-98384115D01*
X153250500Y-98298422D01*
X153250500Y-98101577D01*
X153219709Y-97907173D01*
X153173199Y-97764032D01*
X153158884Y-97719975D01*
X153158882Y-97719972D01*
X153158882Y-97719970D01*
X153072745Y-97550917D01*
X153069524Y-97544595D01*
X152953828Y-97385354D01*
X152814646Y-97246172D01*
X152655405Y-97130476D01*
X152648663Y-97127041D01*
X152480029Y-97041117D01*
X152292826Y-96980290D01*
X152098422Y-96949500D01*
X152098417Y-96949500D01*
X151901583Y-96949500D01*
X151901578Y-96949500D01*
X151707173Y-96980290D01*
X151519967Y-97041118D01*
X151362515Y-97121344D01*
X151293846Y-97134240D01*
X151229106Y-97107963D01*
X151218540Y-97098540D01*
X150746319Y-96626319D01*
X150712834Y-96564996D01*
X150710000Y-96538638D01*
X150710000Y-93062524D01*
X153819499Y-93062524D01*
X153846418Y-93197850D01*
X153846421Y-93197860D01*
X153899222Y-93325335D01*
X153975887Y-93440073D01*
X156399926Y-95864112D01*
X156514662Y-95940776D01*
X156613262Y-95981617D01*
X156642143Y-95993580D01*
X156642144Y-95993580D01*
X156642149Y-95993582D01*
X156669017Y-95998925D01*
X156669023Y-95998926D01*
X156669063Y-95998934D01*
X156759409Y-96016905D01*
X156777478Y-96020500D01*
X156777479Y-96020500D01*
X164338481Y-96020500D01*
X164405520Y-96040185D01*
X164426162Y-96056819D01*
X164563181Y-96193838D01*
X164596666Y-96255161D01*
X164599500Y-96281519D01*
X164599500Y-97487870D01*
X164599501Y-97487876D01*
X164605908Y-97547483D01*
X164656202Y-97682328D01*
X164656206Y-97682335D01*
X164742452Y-97797544D01*
X164742455Y-97797547D01*
X164857664Y-97883793D01*
X164857671Y-97883797D01*
X164992517Y-97934091D01*
X164992516Y-97934091D01*
X164999444Y-97934835D01*
X165052127Y-97940500D01*
X166847872Y-97940499D01*
X166907483Y-97934091D01*
X167042331Y-97883796D01*
X167157546Y-97797546D01*
X167243796Y-97682331D01*
X167292810Y-97550916D01*
X167334681Y-97494984D01*
X167400145Y-97470566D01*
X167468418Y-97485417D01*
X167496673Y-97506569D01*
X167618599Y-97628495D01*
X167715384Y-97696265D01*
X167812165Y-97764032D01*
X167812167Y-97764033D01*
X167812170Y-97764035D01*
X168026337Y-97863903D01*
X168254592Y-97925063D01*
X168431034Y-97940500D01*
X168489999Y-97945659D01*
X168490000Y-97945659D01*
X168490001Y-97945659D01*
X168548966Y-97940500D01*
X168725408Y-97925063D01*
X168953663Y-97863903D01*
X169167830Y-97764035D01*
X169361401Y-97628495D01*
X169528495Y-97461401D01*
X169664035Y-97267830D01*
X169763903Y-97053663D01*
X169825063Y-96825408D01*
X169845659Y-96590000D01*
X169825063Y-96354592D01*
X169763903Y-96126337D01*
X169664035Y-95912171D01*
X169640315Y-95878294D01*
X169528494Y-95718597D01*
X169361402Y-95551506D01*
X169361395Y-95551501D01*
X169167834Y-95415967D01*
X169167830Y-95415965D01*
X169143348Y-95404549D01*
X168953663Y-95316097D01*
X168953659Y-95316096D01*
X168953655Y-95316094D01*
X168832886Y-95283735D01*
X168777298Y-95251641D01*
X167666546Y-94140888D01*
X167666545Y-94140887D01*
X167551807Y-94064222D01*
X167424332Y-94011421D01*
X167424322Y-94011418D01*
X167288996Y-93984500D01*
X167288994Y-93984500D01*
X167288993Y-93984500D01*
X157401519Y-93984500D01*
X157334480Y-93964815D01*
X157313838Y-93948181D01*
X155891819Y-92526162D01*
X155858334Y-92464839D01*
X155855500Y-92438481D01*
X155855500Y-65816518D01*
X155875185Y-65749479D01*
X155891819Y-65728837D01*
X163329109Y-58291547D01*
X163329113Y-58291543D01*
X163372017Y-58227334D01*
X163405775Y-58176811D01*
X163436707Y-58102134D01*
X163458580Y-58049329D01*
X163463934Y-58022409D01*
X163485500Y-57913993D01*
X163485500Y-57147711D01*
X163505185Y-57080672D01*
X163538377Y-57046136D01*
X163656401Y-56963495D01*
X163823495Y-56796401D01*
X163953425Y-56610842D01*
X164008002Y-56567217D01*
X164077500Y-56560023D01*
X164139855Y-56591546D01*
X164156575Y-56610842D01*
X164286501Y-56796396D01*
X164286506Y-56796402D01*
X164453597Y-56963494D01*
X164530478Y-57017326D01*
X164566194Y-57042335D01*
X164571623Y-57046136D01*
X164615248Y-57100713D01*
X164624500Y-57147711D01*
X164624500Y-57924952D01*
X164604815Y-57991991D01*
X164588181Y-58012633D01*
X157150890Y-65449923D01*
X157150887Y-65449926D01*
X157124629Y-65489226D01*
X157074228Y-65564655D01*
X157074221Y-65564667D01*
X157021421Y-65692139D01*
X157021418Y-65692149D01*
X156994500Y-65827476D01*
X156994500Y-65827479D01*
X156994500Y-91019534D01*
X156994500Y-91157522D01*
X156994500Y-91157524D01*
X156994499Y-91157524D01*
X157021418Y-91292850D01*
X157021421Y-91292860D01*
X157074222Y-91420335D01*
X157150887Y-91535073D01*
X158939926Y-93324112D01*
X159054664Y-93400777D01*
X159149530Y-93440071D01*
X159182144Y-93453580D01*
X159182148Y-93453580D01*
X159182149Y-93453581D01*
X159317475Y-93480500D01*
X159317478Y-93480500D01*
X159317479Y-93480500D01*
X173649953Y-93480500D01*
X173716992Y-93500185D01*
X173737634Y-93516819D01*
X176008181Y-95787366D01*
X176041666Y-95848689D01*
X176044500Y-95875047D01*
X176044500Y-97156006D01*
X176044500Y-97293994D01*
X176044500Y-97293996D01*
X176044499Y-97293996D01*
X176071418Y-97429322D01*
X176071421Y-97429332D01*
X176124222Y-97556807D01*
X176200887Y-97671545D01*
X176200888Y-97671546D01*
X176815886Y-98286542D01*
X176913457Y-98384113D01*
X176913459Y-98384115D01*
X177028182Y-98460771D01*
X177028186Y-98460773D01*
X177028189Y-98460775D01*
X177102866Y-98491707D01*
X177102867Y-98491707D01*
X177102869Y-98491709D01*
X177155666Y-98513578D01*
X177155671Y-98513580D01*
X177155680Y-98513581D01*
X177155681Y-98513582D01*
X177182545Y-98518925D01*
X177182551Y-98518926D01*
X177182591Y-98518934D01*
X177272937Y-98536905D01*
X177291006Y-98540500D01*
X177291007Y-98540500D01*
X180008996Y-98540500D01*
X180117457Y-98518925D01*
X180144328Y-98513580D01*
X180208069Y-98487177D01*
X180271807Y-98460777D01*
X180271808Y-98460776D01*
X180271811Y-98460775D01*
X180386543Y-98384114D01*
X180818007Y-97952648D01*
X180879326Y-97919166D01*
X180937778Y-97920557D01*
X180954592Y-97925063D01*
X181131034Y-97940500D01*
X181189999Y-97945659D01*
X181190000Y-97945659D01*
X181190001Y-97945659D01*
X181248966Y-97940500D01*
X181425408Y-97925063D01*
X181653663Y-97863903D01*
X181867830Y-97764035D01*
X182061401Y-97628495D01*
X182228495Y-97461401D01*
X182364035Y-97267830D01*
X182463903Y-97053663D01*
X182525063Y-96825408D01*
X182545659Y-96590000D01*
X182525063Y-96354592D01*
X182463903Y-96126337D01*
X182364035Y-95912171D01*
X182340315Y-95878294D01*
X182228494Y-95718597D01*
X182061402Y-95551506D01*
X182061395Y-95551501D01*
X181867834Y-95415967D01*
X181867830Y-95415965D01*
X181843348Y-95404549D01*
X181653663Y-95316097D01*
X181653659Y-95316096D01*
X181653655Y-95316094D01*
X181425413Y-95254938D01*
X181425403Y-95254936D01*
X181190001Y-95234341D01*
X181189999Y-95234341D01*
X180954596Y-95254936D01*
X180954586Y-95254938D01*
X180726344Y-95316094D01*
X180726335Y-95316098D01*
X180512171Y-95415964D01*
X180512169Y-95415965D01*
X180318600Y-95551503D01*
X180196673Y-95673430D01*
X180135350Y-95706914D01*
X180065658Y-95701930D01*
X180009725Y-95660058D01*
X179992810Y-95629081D01*
X179943797Y-95497671D01*
X179943793Y-95497664D01*
X179857547Y-95382455D01*
X179857544Y-95382452D01*
X179742335Y-95296206D01*
X179742328Y-95296202D01*
X179607482Y-95245908D01*
X179607483Y-95245908D01*
X179547883Y-95239501D01*
X179547881Y-95239500D01*
X179547873Y-95239500D01*
X179547865Y-95239500D01*
X178341519Y-95239500D01*
X178274480Y-95219815D01*
X178253838Y-95203181D01*
X174651546Y-91600888D01*
X174651545Y-91600887D01*
X174536807Y-91524222D01*
X174409332Y-91471421D01*
X174409322Y-91471418D01*
X174273996Y-91444500D01*
X174273994Y-91444500D01*
X174273993Y-91444500D01*
X159941519Y-91444500D01*
X159874480Y-91424815D01*
X159853838Y-91408181D01*
X159066819Y-90621162D01*
X159033334Y-90559839D01*
X159030500Y-90533481D01*
X159030500Y-66451517D01*
X159050185Y-66384478D01*
X159066814Y-66363841D01*
X168172789Y-57257865D01*
X168228375Y-57225773D01*
X168328663Y-57198903D01*
X168542830Y-57099035D01*
X168736401Y-56963495D01*
X168903495Y-56796401D01*
X169039035Y-56602830D01*
X169138903Y-56388663D01*
X169200063Y-56160408D01*
X169220659Y-55925000D01*
X169200063Y-55689592D01*
X169138903Y-55461337D01*
X169039035Y-55247171D01*
X169033425Y-55239158D01*
X168903494Y-55053597D01*
X168736402Y-54886506D01*
X168736395Y-54886501D01*
X168542834Y-54750967D01*
X168542830Y-54750965D01*
X168517527Y-54739166D01*
X168328663Y-54651097D01*
X168328659Y-54651096D01*
X168328655Y-54651094D01*
X168100413Y-54589938D01*
X168100403Y-54589936D01*
X167865001Y-54569341D01*
X167864999Y-54569341D01*
X167629596Y-54589936D01*
X167629586Y-54589938D01*
X167401344Y-54651094D01*
X167401335Y-54651098D01*
X167187171Y-54750964D01*
X167187169Y-54750965D01*
X166993597Y-54886505D01*
X166826505Y-55053597D01*
X166696575Y-55239158D01*
X166641998Y-55282783D01*
X166572500Y-55289977D01*
X166510145Y-55258454D01*
X166493425Y-55239158D01*
X166363494Y-55053597D01*
X166196402Y-54886506D01*
X166196395Y-54886501D01*
X166002834Y-54750967D01*
X166002830Y-54750965D01*
X165977527Y-54739166D01*
X165788663Y-54651097D01*
X165788659Y-54651096D01*
X165788655Y-54651094D01*
X165560413Y-54589938D01*
X165560403Y-54589936D01*
X165325001Y-54569341D01*
X165324999Y-54569341D01*
X165089596Y-54589936D01*
X165089586Y-54589938D01*
X164861344Y-54651094D01*
X164861335Y-54651098D01*
X164647171Y-54750964D01*
X164647169Y-54750965D01*
X164453597Y-54886505D01*
X164286505Y-55053597D01*
X164156575Y-55239158D01*
X164101998Y-55282783D01*
X164032500Y-55289977D01*
X163970145Y-55258454D01*
X163953425Y-55239158D01*
X163823494Y-55053597D01*
X163656402Y-54886506D01*
X163656395Y-54886501D01*
X163462834Y-54750967D01*
X163462830Y-54750965D01*
X163437527Y-54739166D01*
X163248663Y-54651097D01*
X163248659Y-54651096D01*
X163248655Y-54651094D01*
X163020413Y-54589938D01*
X163020403Y-54589936D01*
X162785001Y-54569341D01*
X162784999Y-54569341D01*
X162549596Y-54589936D01*
X162549586Y-54589938D01*
X162321344Y-54651094D01*
X162321335Y-54651098D01*
X162107171Y-54750964D01*
X162107169Y-54750965D01*
X161913600Y-54886503D01*
X161791673Y-55008430D01*
X161730350Y-55041914D01*
X161660658Y-55036930D01*
X161604725Y-54995058D01*
X161587810Y-54964081D01*
X161538797Y-54832671D01*
X161538793Y-54832664D01*
X161452547Y-54717455D01*
X161452544Y-54717452D01*
X161337335Y-54631206D01*
X161337328Y-54631202D01*
X161202482Y-54580908D01*
X161202483Y-54580908D01*
X161142883Y-54574501D01*
X161142881Y-54574500D01*
X161142873Y-54574500D01*
X161142864Y-54574500D01*
X159347129Y-54574500D01*
X159347123Y-54574501D01*
X159287516Y-54580908D01*
X159152671Y-54631202D01*
X159152664Y-54631206D01*
X159037455Y-54717452D01*
X159037452Y-54717455D01*
X158951206Y-54832664D01*
X158951202Y-54832671D01*
X158900908Y-54967517D01*
X158894501Y-55027116D01*
X158894500Y-55027135D01*
X158894500Y-56822870D01*
X158894501Y-56822876D01*
X158900908Y-56882483D01*
X158951202Y-57017328D01*
X158951206Y-57017335D01*
X159037452Y-57132544D01*
X159037455Y-57132547D01*
X159152664Y-57218793D01*
X159152671Y-57218797D01*
X159165101Y-57223433D01*
X159287517Y-57269091D01*
X159347127Y-57275500D01*
X159420500Y-57275499D01*
X159487538Y-57295183D01*
X159533294Y-57347986D01*
X159544500Y-57399499D01*
X159544500Y-59194952D01*
X159524815Y-59261991D01*
X159508181Y-59282633D01*
X153975888Y-64814925D01*
X153975887Y-64814926D01*
X153899223Y-64929664D01*
X153846421Y-65057140D01*
X153846418Y-65057152D01*
X153835915Y-65109954D01*
X153835915Y-65109955D01*
X153819500Y-65192476D01*
X153819500Y-65192479D01*
X153819500Y-92924534D01*
X153819500Y-93062522D01*
X153819500Y-93062524D01*
X153819499Y-93062524D01*
X150710000Y-93062524D01*
X150710000Y-53461361D01*
X150729685Y-53394322D01*
X150746314Y-53373685D01*
X151218542Y-52901457D01*
X151279863Y-52867974D01*
X151349555Y-52872958D01*
X151362516Y-52878655D01*
X151519970Y-52958882D01*
X151519972Y-52958882D01*
X151519975Y-52958884D01*
X151620317Y-52991487D01*
X151707173Y-53019709D01*
X151901578Y-53050500D01*
X151901583Y-53050500D01*
X152098422Y-53050500D01*
X152292826Y-53019709D01*
X152302416Y-53016593D01*
X152480025Y-52958884D01*
X152655405Y-52869524D01*
X152814646Y-52753828D01*
X152953828Y-52614646D01*
X153069524Y-52455405D01*
X153158884Y-52280025D01*
X153219709Y-52092826D01*
X153230740Y-52023181D01*
X153250500Y-51898422D01*
X153250500Y-51701577D01*
X153219709Y-51507173D01*
X153158882Y-51319970D01*
X153078655Y-51162516D01*
X153065759Y-51093846D01*
X153092035Y-51029106D01*
X153101442Y-51018557D01*
X153213683Y-50906316D01*
X153275004Y-50872834D01*
X153301362Y-50870000D01*
X172134983Y-50870000D01*
X172202022Y-50889685D01*
G37*
%TD.AperFunction*%
%TA.AperFunction,Conductor*%
G36*
X216765677Y-50889685D02*
G01*
X216786319Y-50906319D01*
X216898540Y-51018540D01*
X216932025Y-51079863D01*
X216927041Y-51149555D01*
X216921344Y-51162515D01*
X216841118Y-51319967D01*
X216780290Y-51507173D01*
X216749500Y-51701577D01*
X216749500Y-51898422D01*
X216780290Y-52092826D01*
X216841117Y-52280029D01*
X216860296Y-52317669D01*
X216930476Y-52455405D01*
X217046172Y-52614646D01*
X217185354Y-52753828D01*
X217344595Y-52869524D01*
X217424034Y-52910000D01*
X217519970Y-52958882D01*
X217519972Y-52958882D01*
X217519975Y-52958884D01*
X217620317Y-52991487D01*
X217707173Y-53019709D01*
X217901578Y-53050500D01*
X217901583Y-53050500D01*
X218098422Y-53050500D01*
X218292826Y-53019709D01*
X218302416Y-53016593D01*
X218480025Y-52958884D01*
X218637485Y-52878654D01*
X218706152Y-52865759D01*
X218770893Y-52892035D01*
X218781459Y-52901459D01*
X219253681Y-53373681D01*
X219287166Y-53435004D01*
X219290000Y-53461362D01*
X219290000Y-96538637D01*
X219270315Y-96605676D01*
X219253681Y-96626318D01*
X218781458Y-97098540D01*
X218720135Y-97132025D01*
X218650443Y-97127041D01*
X218637482Y-97121344D01*
X218480029Y-97041117D01*
X218292826Y-96980290D01*
X218098422Y-96949500D01*
X218098417Y-96949500D01*
X217901583Y-96949500D01*
X217901578Y-96949500D01*
X217707173Y-96980290D01*
X217519970Y-97041117D01*
X217344594Y-97130476D01*
X217309456Y-97156006D01*
X217185354Y-97246172D01*
X217185352Y-97246174D01*
X217185351Y-97246174D01*
X217046174Y-97385351D01*
X217046174Y-97385352D01*
X217046172Y-97385354D01*
X217014360Y-97429139D01*
X216930476Y-97544594D01*
X216841117Y-97719970D01*
X216780290Y-97907173D01*
X216749500Y-98101577D01*
X216749500Y-98298422D01*
X216780290Y-98492826D01*
X216841117Y-98680029D01*
X216921344Y-98837482D01*
X216934240Y-98906151D01*
X216907964Y-98970892D01*
X216898541Y-98981457D01*
X216786320Y-99093680D01*
X216724997Y-99127166D01*
X216698638Y-99130000D01*
X208025017Y-99130000D01*
X207957978Y-99110315D01*
X207912223Y-99057511D01*
X207902279Y-98988353D01*
X207931304Y-98924797D01*
X207977557Y-98891442D01*
X208024605Y-98871953D01*
X208024607Y-98871953D01*
X208076535Y-98850444D01*
X208106547Y-98838013D01*
X208106549Y-98838011D01*
X208106552Y-98838010D01*
X208194955Y-98778939D01*
X208194955Y-98778938D01*
X208194959Y-98778936D01*
X208254036Y-98739464D01*
X209013565Y-97979933D01*
X209074886Y-97946450D01*
X209112049Y-97944088D01*
X209130000Y-97945659D01*
X209365408Y-97925063D01*
X209593663Y-97863903D01*
X209807830Y-97764035D01*
X210001401Y-97628495D01*
X210103077Y-97526819D01*
X210164400Y-97493334D01*
X210190758Y-97490500D01*
X213219952Y-97490500D01*
X213286991Y-97510185D01*
X213307628Y-97526814D01*
X213370861Y-97590047D01*
X213557266Y-97720568D01*
X213763504Y-97816739D01*
X213983308Y-97875635D01*
X214145230Y-97889801D01*
X214209998Y-97895468D01*
X214210000Y-97895468D01*
X214210002Y-97895468D01*
X214266673Y-97890509D01*
X214436692Y-97875635D01*
X214656496Y-97816739D01*
X214862734Y-97720568D01*
X215049139Y-97590047D01*
X215210047Y-97429139D01*
X215340568Y-97242734D01*
X215436739Y-97036496D01*
X215495635Y-96816692D01*
X215515468Y-96590000D01*
X215513280Y-96564996D01*
X215495635Y-96363313D01*
X215495635Y-96363308D01*
X215436739Y-96143504D01*
X215340568Y-95937266D01*
X215210047Y-95750861D01*
X215210045Y-95750858D01*
X215049141Y-95589954D01*
X214862734Y-95459432D01*
X214862730Y-95459430D01*
X214847022Y-95452105D01*
X214794583Y-95405931D01*
X214775433Y-95338737D01*
X214795650Y-95271857D01*
X214847028Y-95227340D01*
X214862481Y-95220134D01*
X214935471Y-95169024D01*
X214256447Y-94490000D01*
X214262661Y-94490000D01*
X214364394Y-94462741D01*
X214455606Y-94410080D01*
X214530080Y-94335606D01*
X214582741Y-94244394D01*
X214610000Y-94142661D01*
X214610000Y-94136447D01*
X215289024Y-94815471D01*
X215340136Y-94742478D01*
X215436264Y-94536331D01*
X215436269Y-94536317D01*
X215495139Y-94316610D01*
X215495141Y-94316599D01*
X215514966Y-94090002D01*
X215514966Y-94089997D01*
X215495141Y-93863400D01*
X215495139Y-93863389D01*
X215436269Y-93643682D01*
X215436264Y-93643668D01*
X215340136Y-93437521D01*
X215340132Y-93437513D01*
X215289025Y-93364526D01*
X214610000Y-94043551D01*
X214610000Y-94037339D01*
X214582741Y-93935606D01*
X214530080Y-93844394D01*
X214455606Y-93769920D01*
X214364394Y-93717259D01*
X214262661Y-93690000D01*
X214256448Y-93690000D01*
X214935472Y-93010974D01*
X214862478Y-92959863D01*
X214656331Y-92863735D01*
X214656317Y-92863730D01*
X214436610Y-92804860D01*
X214436599Y-92804858D01*
X214210002Y-92785034D01*
X214209998Y-92785034D01*
X213983400Y-92804858D01*
X213983389Y-92804860D01*
X213763682Y-92863730D01*
X213763673Y-92863734D01*
X213557516Y-92959866D01*
X213557512Y-92959868D01*
X213484526Y-93010973D01*
X213484526Y-93010974D01*
X214163553Y-93690000D01*
X214157339Y-93690000D01*
X214055606Y-93717259D01*
X213964394Y-93769920D01*
X213889920Y-93844394D01*
X213837259Y-93935606D01*
X213810000Y-94037339D01*
X213810000Y-94043552D01*
X213130974Y-93364526D01*
X213130973Y-93364526D01*
X213079868Y-93437512D01*
X213079866Y-93437516D01*
X212983734Y-93643673D01*
X212983730Y-93643682D01*
X212924860Y-93863389D01*
X212924858Y-93863400D01*
X212905034Y-94089997D01*
X212905034Y-94090002D01*
X212924858Y-94316599D01*
X212924860Y-94316610D01*
X212983730Y-94536317D01*
X212983735Y-94536331D01*
X213079863Y-94742478D01*
X213130974Y-94815472D01*
X213810000Y-94136446D01*
X213810000Y-94142661D01*
X213837259Y-94244394D01*
X213889920Y-94335606D01*
X213964394Y-94410080D01*
X214055606Y-94462741D01*
X214157339Y-94490000D01*
X214163553Y-94490000D01*
X213484526Y-95169025D01*
X213557513Y-95220132D01*
X213557515Y-95220133D01*
X213572973Y-95227341D01*
X213625413Y-95273513D01*
X213644566Y-95340706D01*
X213624351Y-95407587D01*
X213572979Y-95452104D01*
X213557270Y-95459429D01*
X213557265Y-95459432D01*
X213370862Y-95589951D01*
X213339248Y-95621566D01*
X213307631Y-95653182D01*
X213246311Y-95686666D01*
X213219952Y-95689500D01*
X210190758Y-95689500D01*
X210123719Y-95669815D01*
X210103077Y-95653181D01*
X210001402Y-95551506D01*
X210001401Y-95551505D01*
X209815405Y-95421269D01*
X209771781Y-95366692D01*
X209764588Y-95297193D01*
X209796110Y-95234839D01*
X209815405Y-95218119D01*
X210001082Y-95088105D01*
X210168105Y-94921082D01*
X210303600Y-94727578D01*
X210403429Y-94513492D01*
X210403432Y-94513486D01*
X210460636Y-94300000D01*
X209563012Y-94300000D01*
X209595925Y-94242993D01*
X209630000Y-94115826D01*
X209630000Y-93984174D01*
X209595925Y-93857007D01*
X209563012Y-93800000D01*
X210460636Y-93800000D01*
X210460635Y-93799999D01*
X210403432Y-93586513D01*
X210403429Y-93586507D01*
X210303600Y-93372422D01*
X210303599Y-93372420D01*
X210168113Y-93178926D01*
X210168108Y-93178920D01*
X210001078Y-93011890D01*
X209815405Y-92881879D01*
X209771780Y-92827302D01*
X209764588Y-92757804D01*
X209796110Y-92695449D01*
X209815406Y-92678730D01*
X209815842Y-92678425D01*
X210001401Y-92548495D01*
X210168495Y-92381401D01*
X210304035Y-92187830D01*
X210403903Y-91973663D01*
X210465063Y-91745408D01*
X210485659Y-91510000D01*
X210465063Y-91274592D01*
X210403903Y-91046337D01*
X210304035Y-90832171D01*
X210281683Y-90800248D01*
X210168494Y-90638597D01*
X210001402Y-90471506D01*
X210001396Y-90471501D01*
X209815842Y-90341575D01*
X209772217Y-90286998D01*
X209765023Y-90217500D01*
X209796546Y-90155145D01*
X209815842Y-90138425D01*
X209838026Y-90122891D01*
X210001401Y-90008495D01*
X210168495Y-89841401D01*
X210304035Y-89647830D01*
X210403903Y-89433663D01*
X210465063Y-89205408D01*
X210485659Y-88970000D01*
X210465063Y-88734592D01*
X210403903Y-88506337D01*
X210304035Y-88292171D01*
X210288886Y-88270535D01*
X210168494Y-88098597D01*
X210001402Y-87931506D01*
X210001396Y-87931501D01*
X209815842Y-87801575D01*
X209772217Y-87746998D01*
X209765023Y-87677500D01*
X209796546Y-87615145D01*
X209815842Y-87598425D01*
X209943518Y-87509025D01*
X210001401Y-87468495D01*
X210168495Y-87301401D01*
X210304035Y-87107830D01*
X210403903Y-86893663D01*
X210465063Y-86665408D01*
X210485659Y-86430000D01*
X210485659Y-86429997D01*
X212905034Y-86429997D01*
X212905034Y-86430002D01*
X212924858Y-86656599D01*
X212924860Y-86656610D01*
X212983730Y-86876317D01*
X212983735Y-86876331D01*
X213079863Y-87082478D01*
X213130974Y-87155472D01*
X213810000Y-86476446D01*
X213810000Y-86482661D01*
X213837259Y-86584394D01*
X213889920Y-86675606D01*
X213964394Y-86750080D01*
X214055606Y-86802741D01*
X214157339Y-86830000D01*
X214163553Y-86830000D01*
X213484526Y-87509025D01*
X213557513Y-87560132D01*
X213557521Y-87560136D01*
X213763668Y-87656264D01*
X213763682Y-87656269D01*
X213983389Y-87715139D01*
X213983400Y-87715141D01*
X214209998Y-87734966D01*
X214210002Y-87734966D01*
X214436599Y-87715141D01*
X214436610Y-87715139D01*
X214656317Y-87656269D01*
X214656331Y-87656264D01*
X214862478Y-87560136D01*
X214935471Y-87509024D01*
X214256447Y-86830000D01*
X214262661Y-86830000D01*
X214364394Y-86802741D01*
X214455606Y-86750080D01*
X214530080Y-86675606D01*
X214582741Y-86584394D01*
X214610000Y-86482661D01*
X214610000Y-86476447D01*
X215289024Y-87155471D01*
X215340136Y-87082478D01*
X215436264Y-86876331D01*
X215436269Y-86876317D01*
X215495139Y-86656610D01*
X215495141Y-86656599D01*
X215514966Y-86430002D01*
X215514966Y-86429997D01*
X215495141Y-86203400D01*
X215495139Y-86203389D01*
X215436269Y-85983682D01*
X215436264Y-85983668D01*
X215340136Y-85777521D01*
X215340132Y-85777513D01*
X215289025Y-85704526D01*
X214610000Y-86383551D01*
X214610000Y-86377339D01*
X214582741Y-86275606D01*
X214530080Y-86184394D01*
X214455606Y-86109920D01*
X214364394Y-86057259D01*
X214262661Y-86030000D01*
X214256448Y-86030000D01*
X214935472Y-85350974D01*
X214862478Y-85299863D01*
X214656331Y-85203735D01*
X214656317Y-85203730D01*
X214436610Y-85144860D01*
X214436599Y-85144858D01*
X214210002Y-85125034D01*
X214209998Y-85125034D01*
X213983400Y-85144858D01*
X213983389Y-85144860D01*
X213763682Y-85203730D01*
X213763673Y-85203734D01*
X213557516Y-85299866D01*
X213557512Y-85299868D01*
X213484526Y-85350973D01*
X213484526Y-85350974D01*
X214163553Y-86030000D01*
X214157339Y-86030000D01*
X214055606Y-86057259D01*
X213964394Y-86109920D01*
X213889920Y-86184394D01*
X213837259Y-86275606D01*
X213810000Y-86377339D01*
X213810000Y-86383552D01*
X213130974Y-85704526D01*
X213130973Y-85704526D01*
X213079868Y-85777512D01*
X213079866Y-85777516D01*
X212983734Y-85983673D01*
X212983730Y-85983682D01*
X212924860Y-86203389D01*
X212924858Y-86203400D01*
X212905034Y-86429997D01*
X210485659Y-86429997D01*
X210465063Y-86194592D01*
X210403903Y-85966337D01*
X210304035Y-85752171D01*
X210286177Y-85726666D01*
X210168494Y-85558597D01*
X210001402Y-85391506D01*
X210001396Y-85391501D01*
X209815842Y-85261575D01*
X209772217Y-85206998D01*
X209765023Y-85137500D01*
X209796546Y-85075145D01*
X209815842Y-85058425D01*
X209869909Y-85020567D01*
X210001401Y-84928495D01*
X210168495Y-84761401D01*
X210304035Y-84567830D01*
X210403903Y-84353663D01*
X210465063Y-84125408D01*
X210485659Y-83890000D01*
X210465063Y-83654592D01*
X210403903Y-83426337D01*
X210304035Y-83212171D01*
X210286177Y-83186666D01*
X210168494Y-83018597D01*
X210001402Y-82851506D01*
X210001396Y-82851501D01*
X209815842Y-82721575D01*
X209772217Y-82666998D01*
X209765023Y-82597500D01*
X209796546Y-82535145D01*
X209815842Y-82518425D01*
X209838026Y-82502891D01*
X210001401Y-82388495D01*
X210168495Y-82221401D01*
X210304035Y-82027830D01*
X210403903Y-81813663D01*
X210465063Y-81585408D01*
X210485659Y-81350000D01*
X210465063Y-81114592D01*
X210403903Y-80886337D01*
X210304035Y-80672171D01*
X210168495Y-80478599D01*
X210168494Y-80478597D01*
X210001402Y-80311506D01*
X210001396Y-80311501D01*
X209815842Y-80181575D01*
X209772217Y-80126998D01*
X209765023Y-80057500D01*
X209796546Y-79995145D01*
X209815842Y-79978425D01*
X209939922Y-79891543D01*
X210001401Y-79848495D01*
X210168495Y-79681401D01*
X210251136Y-79563376D01*
X210305713Y-79519752D01*
X210352711Y-79510500D01*
X214913996Y-79510500D01*
X215027962Y-79487830D01*
X215049328Y-79483580D01*
X215147691Y-79442837D01*
X215176807Y-79430777D01*
X215176808Y-79430776D01*
X215176811Y-79430775D01*
X215291543Y-79354114D01*
X217294114Y-77351543D01*
X217370775Y-77236811D01*
X217423580Y-77109328D01*
X217440677Y-77023377D01*
X217450500Y-76973996D01*
X217450500Y-67946004D01*
X217423581Y-67810677D01*
X217423580Y-67810676D01*
X217423580Y-67810672D01*
X217423578Y-67810667D01*
X217370777Y-67683192D01*
X217294112Y-67568454D01*
X215291545Y-65565887D01*
X215176807Y-65489222D01*
X215049332Y-65436421D01*
X215049322Y-65436418D01*
X214913996Y-65409500D01*
X214913994Y-65409500D01*
X214913993Y-65409500D01*
X212373994Y-65409500D01*
X212236006Y-65409500D01*
X212236004Y-65409500D01*
X212100677Y-65436418D01*
X212100667Y-65436421D01*
X211973192Y-65489222D01*
X211858454Y-65565887D01*
X208585887Y-68838454D01*
X208509222Y-68953192D01*
X208456421Y-69080667D01*
X208456418Y-69080677D01*
X208429500Y-69216004D01*
X208429500Y-69967288D01*
X208409815Y-70034327D01*
X208376624Y-70068863D01*
X208258594Y-70151508D01*
X208091505Y-70318597D01*
X207961575Y-70504158D01*
X207906998Y-70547783D01*
X207837500Y-70554977D01*
X207775145Y-70523454D01*
X207758425Y-70504158D01*
X207628494Y-70318597D01*
X207461402Y-70151506D01*
X207461395Y-70151501D01*
X207267834Y-70015967D01*
X207267830Y-70015965D01*
X207163442Y-69967288D01*
X207053663Y-69916097D01*
X207053659Y-69916096D01*
X207053655Y-69916094D01*
X206825413Y-69854938D01*
X206825403Y-69854936D01*
X206590001Y-69834341D01*
X206589999Y-69834341D01*
X206354596Y-69854936D01*
X206354586Y-69854938D01*
X206126344Y-69916094D01*
X206126335Y-69916098D01*
X205912171Y-70015964D01*
X205912169Y-70015965D01*
X205718597Y-70151505D01*
X205551505Y-70318597D01*
X205421575Y-70504158D01*
X205366998Y-70547783D01*
X205297500Y-70554977D01*
X205235145Y-70523454D01*
X205218425Y-70504158D01*
X205088494Y-70318597D01*
X204921402Y-70151506D01*
X204921395Y-70151501D01*
X204727834Y-70015967D01*
X204727830Y-70015965D01*
X204623442Y-69967288D01*
X204513663Y-69916097D01*
X204513659Y-69916096D01*
X204513655Y-69916094D01*
X204285413Y-69854938D01*
X204285403Y-69854936D01*
X204050001Y-69834341D01*
X204049999Y-69834341D01*
X203814596Y-69854936D01*
X203814586Y-69854938D01*
X203586344Y-69916094D01*
X203586335Y-69916098D01*
X203372171Y-70015964D01*
X203372169Y-70015965D01*
X203178597Y-70151505D01*
X203011505Y-70318597D01*
X202881575Y-70504158D01*
X202826998Y-70547783D01*
X202757500Y-70554977D01*
X202695145Y-70523454D01*
X202678425Y-70504158D01*
X202548494Y-70318597D01*
X202381402Y-70151506D01*
X202381395Y-70151501D01*
X202187834Y-70015967D01*
X202187830Y-70015965D01*
X202083442Y-69967288D01*
X201973663Y-69916097D01*
X201973659Y-69916096D01*
X201973655Y-69916094D01*
X201745413Y-69854938D01*
X201745403Y-69854936D01*
X201510001Y-69834341D01*
X201509999Y-69834341D01*
X201274596Y-69854936D01*
X201274586Y-69854938D01*
X201046344Y-69916094D01*
X201046335Y-69916098D01*
X200832171Y-70015964D01*
X200832169Y-70015965D01*
X200638597Y-70151505D01*
X200471505Y-70318597D01*
X200341575Y-70504158D01*
X200286998Y-70547783D01*
X200217500Y-70554977D01*
X200155145Y-70523454D01*
X200138425Y-70504158D01*
X200008494Y-70318597D01*
X199841402Y-70151506D01*
X199841395Y-70151501D01*
X199647834Y-70015967D01*
X199647830Y-70015965D01*
X199543442Y-69967288D01*
X199433663Y-69916097D01*
X199433659Y-69916096D01*
X199433655Y-69916094D01*
X199205413Y-69854938D01*
X199205403Y-69854936D01*
X198970001Y-69834341D01*
X198969999Y-69834341D01*
X198734596Y-69854936D01*
X198734586Y-69854938D01*
X198506344Y-69916094D01*
X198506335Y-69916098D01*
X198292171Y-70015964D01*
X198292169Y-70015965D01*
X198098597Y-70151505D01*
X197931505Y-70318597D01*
X197801575Y-70504158D01*
X197746998Y-70547783D01*
X197677500Y-70554977D01*
X197615145Y-70523454D01*
X197598425Y-70504158D01*
X197468494Y-70318597D01*
X197301402Y-70151506D01*
X197301395Y-70151501D01*
X197107834Y-70015967D01*
X197107830Y-70015965D01*
X197003442Y-69967288D01*
X196893663Y-69916097D01*
X196893659Y-69916096D01*
X196893655Y-69916094D01*
X196665413Y-69854938D01*
X196665403Y-69854936D01*
X196430001Y-69834341D01*
X196429999Y-69834341D01*
X196194596Y-69854936D01*
X196194586Y-69854938D01*
X195966344Y-69916094D01*
X195966335Y-69916098D01*
X195752171Y-70015964D01*
X195752169Y-70015965D01*
X195558597Y-70151505D01*
X195391508Y-70318594D01*
X195261269Y-70504595D01*
X195206692Y-70548219D01*
X195137193Y-70555412D01*
X195074839Y-70523890D01*
X195058119Y-70504594D01*
X194928113Y-70318926D01*
X194928108Y-70318920D01*
X194761082Y-70151894D01*
X194567578Y-70016399D01*
X194353492Y-69916570D01*
X194353486Y-69916567D01*
X194140000Y-69859364D01*
X194140000Y-70756988D01*
X194082993Y-70724075D01*
X193955826Y-70690000D01*
X193824174Y-70690000D01*
X193697007Y-70724075D01*
X193640000Y-70756988D01*
X193640000Y-69859364D01*
X193639999Y-69859364D01*
X193426513Y-69916567D01*
X193426507Y-69916570D01*
X193212422Y-70016399D01*
X193212420Y-70016400D01*
X193018926Y-70151886D01*
X193018920Y-70151891D01*
X192851891Y-70318920D01*
X192851890Y-70318922D01*
X192721880Y-70504595D01*
X192667303Y-70548219D01*
X192597804Y-70555412D01*
X192535450Y-70523890D01*
X192518730Y-70504594D01*
X192388494Y-70318597D01*
X192221402Y-70151506D01*
X192221395Y-70151501D01*
X192027834Y-70015967D01*
X192027830Y-70015965D01*
X191923442Y-69967288D01*
X191813663Y-69916097D01*
X191813659Y-69916096D01*
X191813655Y-69916094D01*
X191585413Y-69854938D01*
X191585403Y-69854936D01*
X191350001Y-69834341D01*
X191349999Y-69834341D01*
X191114596Y-69854936D01*
X191114586Y-69854938D01*
X190886344Y-69916094D01*
X190886335Y-69916098D01*
X190672171Y-70015964D01*
X190672169Y-70015965D01*
X190478597Y-70151505D01*
X190311505Y-70318597D01*
X190175965Y-70512169D01*
X190175964Y-70512171D01*
X190076098Y-70726335D01*
X190076094Y-70726344D01*
X190014938Y-70954586D01*
X190014936Y-70954596D01*
X189994341Y-71189999D01*
X189994341Y-71190000D01*
X190014936Y-71425403D01*
X190014938Y-71425413D01*
X190076094Y-71653655D01*
X190076096Y-71653659D01*
X190076097Y-71653663D01*
X190155801Y-71824588D01*
X190175965Y-71867830D01*
X190175967Y-71867834D01*
X190209324Y-71915472D01*
X190311505Y-72061401D01*
X190478599Y-72228495D01*
X190536482Y-72269025D01*
X190672165Y-72364032D01*
X190672167Y-72364033D01*
X190672170Y-72364035D01*
X190886337Y-72463903D01*
X191114592Y-72525063D01*
X191302918Y-72541539D01*
X191349999Y-72545659D01*
X191350000Y-72545659D01*
X191350001Y-72545659D01*
X191389234Y-72542226D01*
X191585408Y-72525063D01*
X191813663Y-72463903D01*
X192027830Y-72364035D01*
X192221401Y-72228495D01*
X192388495Y-72061401D01*
X192518730Y-71875405D01*
X192573307Y-71831781D01*
X192642805Y-71824587D01*
X192705160Y-71856110D01*
X192721879Y-71875405D01*
X192851890Y-72061078D01*
X193018917Y-72228105D01*
X193212421Y-72363600D01*
X193426507Y-72463429D01*
X193426516Y-72463433D01*
X193640000Y-72520634D01*
X193640000Y-71623012D01*
X193697007Y-71655925D01*
X193824174Y-71690000D01*
X193955826Y-71690000D01*
X194082993Y-71655925D01*
X194140000Y-71623012D01*
X194140000Y-72520633D01*
X194353483Y-72463433D01*
X194353492Y-72463429D01*
X194567578Y-72363600D01*
X194761082Y-72228105D01*
X194928105Y-72061082D01*
X195058119Y-71875405D01*
X195112696Y-71831781D01*
X195182195Y-71824588D01*
X195244549Y-71856110D01*
X195261269Y-71875405D01*
X195391505Y-72061401D01*
X195558599Y-72228495D01*
X195616482Y-72269025D01*
X195752165Y-72364032D01*
X195752167Y-72364033D01*
X195752170Y-72364035D01*
X195966337Y-72463903D01*
X196194592Y-72525063D01*
X196382918Y-72541539D01*
X196429999Y-72545659D01*
X196430000Y-72545659D01*
X196430001Y-72545659D01*
X196469234Y-72542226D01*
X196665408Y-72525063D01*
X196893663Y-72463903D01*
X197107830Y-72364035D01*
X197301401Y-72228495D01*
X197468495Y-72061401D01*
X197598425Y-71875842D01*
X197653002Y-71832217D01*
X197722500Y-71825023D01*
X197784855Y-71856546D01*
X197801575Y-71875842D01*
X197931500Y-72061395D01*
X197931505Y-72061401D01*
X198098599Y-72228495D01*
X198156482Y-72269025D01*
X198292165Y-72364032D01*
X198292167Y-72364033D01*
X198292170Y-72364035D01*
X198506337Y-72463903D01*
X198734592Y-72525063D01*
X198922918Y-72541539D01*
X198969999Y-72545659D01*
X198970000Y-72545659D01*
X198970001Y-72545659D01*
X199009234Y-72542226D01*
X199205408Y-72525063D01*
X199433663Y-72463903D01*
X199647830Y-72364035D01*
X199841401Y-72228495D01*
X200008495Y-72061401D01*
X200138425Y-71875842D01*
X200193002Y-71832217D01*
X200262500Y-71825023D01*
X200324855Y-71856546D01*
X200341575Y-71875842D01*
X200471500Y-72061395D01*
X200471505Y-72061401D01*
X200638599Y-72228495D01*
X200696482Y-72269025D01*
X200832165Y-72364032D01*
X200832167Y-72364033D01*
X200832170Y-72364035D01*
X201046337Y-72463903D01*
X201274592Y-72525063D01*
X201462918Y-72541539D01*
X201509999Y-72545659D01*
X201510000Y-72545659D01*
X201510001Y-72545659D01*
X201549234Y-72542226D01*
X201745408Y-72525063D01*
X201973663Y-72463903D01*
X202187830Y-72364035D01*
X202381401Y-72228495D01*
X202548495Y-72061401D01*
X202678425Y-71875842D01*
X202733002Y-71832217D01*
X202802500Y-71825023D01*
X202864855Y-71856546D01*
X202881575Y-71875842D01*
X203011500Y-72061395D01*
X203011505Y-72061401D01*
X203178599Y-72228495D01*
X203236482Y-72269025D01*
X203372165Y-72364032D01*
X203372167Y-72364033D01*
X203372170Y-72364035D01*
X203586337Y-72463903D01*
X203814592Y-72525063D01*
X204002918Y-72541539D01*
X204049999Y-72545659D01*
X204050000Y-72545659D01*
X204050001Y-72545659D01*
X204089234Y-72542226D01*
X204285408Y-72525063D01*
X204513663Y-72463903D01*
X204727830Y-72364035D01*
X204921401Y-72228495D01*
X205088495Y-72061401D01*
X205218425Y-71875842D01*
X205273002Y-71832217D01*
X205342500Y-71825023D01*
X205404855Y-71856546D01*
X205421575Y-71875842D01*
X205551500Y-72061395D01*
X205551505Y-72061401D01*
X205718599Y-72228495D01*
X205776482Y-72269025D01*
X205912165Y-72364032D01*
X205912167Y-72364033D01*
X205912170Y-72364035D01*
X206126337Y-72463903D01*
X206354592Y-72525063D01*
X206542918Y-72541539D01*
X206589999Y-72545659D01*
X206590000Y-72545659D01*
X206590001Y-72545659D01*
X206629234Y-72542226D01*
X206825408Y-72525063D01*
X207053663Y-72463903D01*
X207267830Y-72364035D01*
X207461401Y-72228495D01*
X207628495Y-72061401D01*
X207758425Y-71875842D01*
X207813002Y-71832217D01*
X207882500Y-71825023D01*
X207944855Y-71856546D01*
X207961575Y-71875842D01*
X208091500Y-72061395D01*
X208091505Y-72061401D01*
X208258599Y-72228495D01*
X208316482Y-72269025D01*
X208452165Y-72364032D01*
X208452167Y-72364033D01*
X208452170Y-72364035D01*
X208666337Y-72463903D01*
X208894592Y-72525063D01*
X209082918Y-72541539D01*
X209129999Y-72545659D01*
X209130000Y-72545659D01*
X209130001Y-72545659D01*
X209169234Y-72542226D01*
X209365408Y-72525063D01*
X209593663Y-72463903D01*
X209807830Y-72364035D01*
X210001401Y-72228495D01*
X210168495Y-72061401D01*
X210304035Y-71867830D01*
X210403903Y-71653663D01*
X210465063Y-71425408D01*
X210485659Y-71190000D01*
X210465063Y-70954592D01*
X210403903Y-70726337D01*
X210304035Y-70512171D01*
X210298731Y-70504595D01*
X210168494Y-70318597D01*
X210001404Y-70151508D01*
X210001402Y-70151506D01*
X210001401Y-70151505D01*
X210001396Y-70151501D01*
X210001393Y-70151499D01*
X209883376Y-70068861D01*
X209839751Y-70014284D01*
X209830500Y-69967287D01*
X209830500Y-69626519D01*
X209850185Y-69559480D01*
X209866819Y-69538838D01*
X212558838Y-66846819D01*
X212620161Y-66813334D01*
X212646519Y-66810500D01*
X214503481Y-66810500D01*
X214570520Y-66830185D01*
X214591162Y-66846819D01*
X215198258Y-67453915D01*
X215231743Y-67515238D01*
X215226759Y-67584930D01*
X215184887Y-67640863D01*
X215119423Y-67665280D01*
X215051150Y-67650428D01*
X215039454Y-67643171D01*
X214862734Y-67519432D01*
X214862732Y-67519431D01*
X214656497Y-67423261D01*
X214656488Y-67423258D01*
X214436697Y-67364366D01*
X214436693Y-67364365D01*
X214436692Y-67364365D01*
X214436691Y-67364364D01*
X214436686Y-67364364D01*
X214210002Y-67344532D01*
X214209998Y-67344532D01*
X213983313Y-67364364D01*
X213983302Y-67364366D01*
X213763511Y-67423258D01*
X213763502Y-67423261D01*
X213557267Y-67519431D01*
X213557265Y-67519432D01*
X213370858Y-67649954D01*
X213209954Y-67810858D01*
X213079432Y-67997265D01*
X213079431Y-67997267D01*
X212983261Y-68203502D01*
X212983258Y-68203511D01*
X212924366Y-68423302D01*
X212924364Y-68423313D01*
X212904532Y-68649998D01*
X212904532Y-68650001D01*
X212924364Y-68876686D01*
X212924366Y-68876697D01*
X212983258Y-69096488D01*
X212983261Y-69096497D01*
X213079431Y-69302732D01*
X213079432Y-69302734D01*
X213209954Y-69489141D01*
X213370857Y-69650044D01*
X213370860Y-69650046D01*
X213370861Y-69650047D01*
X213456623Y-69710097D01*
X213500248Y-69764673D01*
X213509500Y-69811672D01*
X213509500Y-75108326D01*
X213489815Y-75175365D01*
X213456624Y-75209901D01*
X213370863Y-75269951D01*
X213209951Y-75430862D01*
X213149902Y-75516623D01*
X213095325Y-75560248D01*
X213048327Y-75569500D01*
X210352711Y-75569500D01*
X210285672Y-75549815D01*
X210251136Y-75516623D01*
X210168494Y-75398597D01*
X210001402Y-75231506D01*
X210001395Y-75231501D01*
X209807834Y-75095967D01*
X209807830Y-75095965D01*
X209736727Y-75062809D01*
X209593663Y-74996097D01*
X209593659Y-74996096D01*
X209593655Y-74996094D01*
X209365413Y-74934938D01*
X209365403Y-74934936D01*
X209130001Y-74914341D01*
X209129999Y-74914341D01*
X208894596Y-74934936D01*
X208894586Y-74934938D01*
X208666344Y-74996094D01*
X208666335Y-74996098D01*
X208452171Y-75095964D01*
X208452169Y-75095965D01*
X208258597Y-75231505D01*
X208091505Y-75398597D01*
X207961575Y-75584158D01*
X207906998Y-75627783D01*
X207837500Y-75634977D01*
X207775145Y-75603454D01*
X207758425Y-75584158D01*
X207628494Y-75398597D01*
X207461402Y-75231506D01*
X207461395Y-75231501D01*
X207267834Y-75095967D01*
X207267830Y-75095965D01*
X207196727Y-75062809D01*
X207053663Y-74996097D01*
X207053659Y-74996096D01*
X207053655Y-74996094D01*
X206825413Y-74934938D01*
X206825403Y-74934936D01*
X206590001Y-74914341D01*
X206589999Y-74914341D01*
X206354596Y-74934936D01*
X206354586Y-74934938D01*
X206126344Y-74996094D01*
X206126335Y-74996098D01*
X205912171Y-75095964D01*
X205912169Y-75095965D01*
X205718597Y-75231505D01*
X205551505Y-75398597D01*
X205421575Y-75584158D01*
X205366998Y-75627783D01*
X205297500Y-75634977D01*
X205235145Y-75603454D01*
X205218425Y-75584158D01*
X205088494Y-75398597D01*
X204921402Y-75231506D01*
X204921395Y-75231501D01*
X204727834Y-75095967D01*
X204727830Y-75095965D01*
X204656727Y-75062809D01*
X204513663Y-74996097D01*
X204513659Y-74996096D01*
X204513655Y-74996094D01*
X204285413Y-74934938D01*
X204285403Y-74934936D01*
X204050001Y-74914341D01*
X204049999Y-74914341D01*
X203814596Y-74934936D01*
X203814586Y-74934938D01*
X203586344Y-74996094D01*
X203586335Y-74996098D01*
X203372171Y-75095964D01*
X203372169Y-75095965D01*
X203178597Y-75231505D01*
X203011505Y-75398597D01*
X202881575Y-75584158D01*
X202826998Y-75627783D01*
X202757500Y-75634977D01*
X202695145Y-75603454D01*
X202678425Y-75584158D01*
X202548494Y-75398597D01*
X202381402Y-75231506D01*
X202381395Y-75231501D01*
X202187834Y-75095967D01*
X202187830Y-75095965D01*
X202116727Y-75062809D01*
X201973663Y-74996097D01*
X201973659Y-74996096D01*
X201973655Y-74996094D01*
X201745413Y-74934938D01*
X201745403Y-74934936D01*
X201510001Y-74914341D01*
X201509999Y-74914341D01*
X201274596Y-74934936D01*
X201274586Y-74934938D01*
X201046344Y-74996094D01*
X201046335Y-74996098D01*
X200832171Y-75095964D01*
X200832169Y-75095965D01*
X200638597Y-75231505D01*
X200471505Y-75398597D01*
X200341575Y-75584158D01*
X200286998Y-75627783D01*
X200217500Y-75634977D01*
X200155145Y-75603454D01*
X200138425Y-75584158D01*
X200008494Y-75398597D01*
X199841402Y-75231506D01*
X199841395Y-75231501D01*
X199647834Y-75095967D01*
X199647830Y-75095965D01*
X199576727Y-75062809D01*
X199433663Y-74996097D01*
X199433659Y-74996096D01*
X199433655Y-74996094D01*
X199205413Y-74934938D01*
X199205403Y-74934936D01*
X198970001Y-74914341D01*
X198969999Y-74914341D01*
X198734596Y-74934936D01*
X198734586Y-74934938D01*
X198506344Y-74996094D01*
X198506335Y-74996098D01*
X198292171Y-75095964D01*
X198292169Y-75095965D01*
X198098597Y-75231505D01*
X197931505Y-75398597D01*
X197801575Y-75584158D01*
X197746998Y-75627783D01*
X197677500Y-75634977D01*
X197615145Y-75603454D01*
X197598425Y-75584158D01*
X197468494Y-75398597D01*
X197301402Y-75231506D01*
X197301395Y-75231501D01*
X197107834Y-75095967D01*
X197107830Y-75095965D01*
X197036727Y-75062809D01*
X196893663Y-74996097D01*
X196893659Y-74996096D01*
X196893655Y-74996094D01*
X196665413Y-74934938D01*
X196665403Y-74934936D01*
X196430001Y-74914341D01*
X196429999Y-74914341D01*
X196194596Y-74934936D01*
X196194586Y-74934938D01*
X195966344Y-74996094D01*
X195966335Y-74996098D01*
X195752171Y-75095964D01*
X195752169Y-75095965D01*
X195558597Y-75231505D01*
X195391505Y-75398597D01*
X195261575Y-75584158D01*
X195206998Y-75627783D01*
X195137500Y-75634977D01*
X195075145Y-75603454D01*
X195058425Y-75584158D01*
X194928494Y-75398597D01*
X194761402Y-75231506D01*
X194761395Y-75231501D01*
X194567834Y-75095967D01*
X194567830Y-75095965D01*
X194496727Y-75062809D01*
X194353663Y-74996097D01*
X194353659Y-74996096D01*
X194353655Y-74996094D01*
X194125413Y-74934938D01*
X194125403Y-74934936D01*
X193890001Y-74914341D01*
X193889999Y-74914341D01*
X193654596Y-74934936D01*
X193654586Y-74934938D01*
X193426344Y-74996094D01*
X193426335Y-74996098D01*
X193212171Y-75095964D01*
X193212169Y-75095965D01*
X193018597Y-75231505D01*
X192851505Y-75398597D01*
X192715965Y-75592169D01*
X192715964Y-75592171D01*
X192616098Y-75806335D01*
X192616094Y-75806344D01*
X192554938Y-76034586D01*
X192554936Y-76034596D01*
X192534341Y-76269999D01*
X192534341Y-76270000D01*
X192554936Y-76505403D01*
X192554938Y-76505413D01*
X192616094Y-76733655D01*
X192616096Y-76733659D01*
X192616097Y-76733663D01*
X192696004Y-76905023D01*
X192715965Y-76947830D01*
X192715967Y-76947834D01*
X192822133Y-77099454D01*
X192851501Y-77141396D01*
X192851506Y-77141402D01*
X193018597Y-77308493D01*
X193018603Y-77308498D01*
X193204158Y-77438425D01*
X193247783Y-77493002D01*
X193254977Y-77562500D01*
X193223454Y-77624855D01*
X193204158Y-77641575D01*
X193018597Y-77771505D01*
X192851505Y-77938597D01*
X192715965Y-78132169D01*
X192715964Y-78132171D01*
X192616098Y-78346335D01*
X192616094Y-78346344D01*
X192554938Y-78574586D01*
X192554936Y-78574596D01*
X192534341Y-78809999D01*
X192534341Y-78810000D01*
X192554936Y-79045403D01*
X192554938Y-79045413D01*
X192616094Y-79273655D01*
X192616096Y-79273659D01*
X192616097Y-79273663D01*
X192653611Y-79354112D01*
X192715965Y-79487830D01*
X192715967Y-79487834D01*
X192800116Y-79608010D01*
X192847650Y-79675896D01*
X192851501Y-79681395D01*
X192851506Y-79681402D01*
X193018597Y-79848493D01*
X193018603Y-79848498D01*
X193204158Y-79978425D01*
X193247783Y-80033002D01*
X193254977Y-80102500D01*
X193223454Y-80164855D01*
X193204158Y-80181575D01*
X193018597Y-80311505D01*
X192851505Y-80478597D01*
X192715965Y-80672169D01*
X192715964Y-80672171D01*
X192616098Y-80886335D01*
X192616094Y-80886344D01*
X192554938Y-81114586D01*
X192554936Y-81114596D01*
X192534341Y-81349999D01*
X192534341Y-81350000D01*
X192554936Y-81585403D01*
X192554938Y-81585413D01*
X192616094Y-81813655D01*
X192616096Y-81813659D01*
X192616097Y-81813663D01*
X192715847Y-82027578D01*
X192715965Y-82027830D01*
X192715967Y-82027834D01*
X192851501Y-82221395D01*
X192851506Y-82221402D01*
X193018597Y-82388493D01*
X193018603Y-82388498D01*
X193204158Y-82518425D01*
X193247783Y-82573002D01*
X193254977Y-82642500D01*
X193223454Y-82704855D01*
X193204158Y-82721575D01*
X193018597Y-82851505D01*
X192851505Y-83018597D01*
X192715965Y-83212169D01*
X192715964Y-83212171D01*
X192616098Y-83426335D01*
X192616094Y-83426344D01*
X192554938Y-83654586D01*
X192554936Y-83654596D01*
X192534341Y-83889999D01*
X192534341Y-83890000D01*
X192554936Y-84125403D01*
X192554938Y-84125413D01*
X192616094Y-84353655D01*
X192616096Y-84353659D01*
X192616097Y-84353663D01*
X192653611Y-84434111D01*
X192715965Y-84567830D01*
X192715967Y-84567834D01*
X192851501Y-84761395D01*
X192851506Y-84761402D01*
X193018597Y-84928493D01*
X193018603Y-84928498D01*
X193204158Y-85058425D01*
X193247783Y-85113002D01*
X193254977Y-85182500D01*
X193223454Y-85244855D01*
X193204158Y-85261575D01*
X193018597Y-85391505D01*
X192851505Y-85558597D01*
X192715965Y-85752169D01*
X192715964Y-85752171D01*
X192616098Y-85966335D01*
X192616094Y-85966344D01*
X192554938Y-86194586D01*
X192554936Y-86194596D01*
X192534341Y-86429999D01*
X192534341Y-86430000D01*
X192554936Y-86665403D01*
X192554938Y-86665413D01*
X192616094Y-86893655D01*
X192616096Y-86893659D01*
X192616097Y-86893663D01*
X192653611Y-86974111D01*
X192715965Y-87107830D01*
X192715967Y-87107834D01*
X192851501Y-87301395D01*
X192851506Y-87301402D01*
X193018597Y-87468493D01*
X193018603Y-87468498D01*
X193204158Y-87598425D01*
X193247783Y-87653002D01*
X193254977Y-87722500D01*
X193223454Y-87784855D01*
X193204158Y-87801575D01*
X193018597Y-87931505D01*
X192851506Y-88098596D01*
X192768864Y-88216623D01*
X192714287Y-88260248D01*
X192667289Y-88269500D01*
X187881519Y-88269500D01*
X187814480Y-88249815D01*
X187793838Y-88233181D01*
X187006819Y-87446162D01*
X186973334Y-87384839D01*
X186970500Y-87358481D01*
X186970500Y-68991517D01*
X186990185Y-68924478D01*
X187006814Y-68903841D01*
X188479629Y-67431025D01*
X188540950Y-67397542D01*
X188578116Y-67395180D01*
X188583303Y-67395633D01*
X188583308Y-67395635D01*
X188786015Y-67413369D01*
X188809999Y-67415468D01*
X188810000Y-67415468D01*
X188810002Y-67415468D01*
X188866673Y-67410509D01*
X189036692Y-67395635D01*
X189256496Y-67336739D01*
X189462734Y-67240568D01*
X189649139Y-67110047D01*
X189810047Y-66949139D01*
X189940568Y-66762734D01*
X190036739Y-66556496D01*
X190095635Y-66336692D01*
X190115468Y-66110000D01*
X190095635Y-65883308D01*
X190036739Y-65663504D01*
X189940568Y-65457266D01*
X189810047Y-65270861D01*
X189810045Y-65270858D01*
X189649141Y-65109954D01*
X189462734Y-64979432D01*
X189462732Y-64979431D01*
X189256497Y-64883261D01*
X189256488Y-64883258D01*
X189036697Y-64824366D01*
X189036693Y-64824365D01*
X189036692Y-64824365D01*
X189036691Y-64824364D01*
X189036686Y-64824364D01*
X188810002Y-64804532D01*
X188809998Y-64804532D01*
X188583313Y-64824364D01*
X188583302Y-64824366D01*
X188363511Y-64883258D01*
X188363502Y-64883261D01*
X188157267Y-64979431D01*
X188157265Y-64979432D01*
X187970858Y-65109954D01*
X187809954Y-65270858D01*
X187679432Y-65457265D01*
X187679431Y-65457267D01*
X187583261Y-65663502D01*
X187583258Y-65663511D01*
X187524366Y-65883302D01*
X187524364Y-65883313D01*
X187504532Y-66109998D01*
X187504532Y-66110001D01*
X187524819Y-66341882D01*
X187511052Y-66410382D01*
X187488972Y-66440370D01*
X185725888Y-68203453D01*
X185725887Y-68203454D01*
X185649222Y-68318192D01*
X185596421Y-68445667D01*
X185596418Y-68445677D01*
X185569500Y-68581004D01*
X185569500Y-70469480D01*
X185549815Y-70536519D01*
X185497011Y-70582274D01*
X185427853Y-70592218D01*
X185364297Y-70563193D01*
X185357819Y-70557161D01*
X181926819Y-67126161D01*
X181893334Y-67064838D01*
X181890500Y-67038480D01*
X181890500Y-57424499D01*
X181910185Y-57357460D01*
X181962989Y-57311705D01*
X182014500Y-57300499D01*
X182087871Y-57300499D01*
X182087872Y-57300499D01*
X182147483Y-57294091D01*
X182282331Y-57243796D01*
X182397546Y-57157546D01*
X182483796Y-57042331D01*
X182533002Y-56910401D01*
X182574872Y-56854468D01*
X182640337Y-56830050D01*
X182708610Y-56844901D01*
X182736865Y-56866053D01*
X182858917Y-56988105D01*
X183052421Y-57123600D01*
X183266507Y-57223429D01*
X183266516Y-57223433D01*
X183480000Y-57280634D01*
X183480000Y-56383012D01*
X183537007Y-56415925D01*
X183664174Y-56450000D01*
X183795826Y-56450000D01*
X183922993Y-56415925D01*
X183980000Y-56383012D01*
X183980000Y-57280633D01*
X184193483Y-57223433D01*
X184193492Y-57223429D01*
X184407578Y-57123600D01*
X184601082Y-56988105D01*
X184768105Y-56821082D01*
X184903600Y-56627578D01*
X185003429Y-56413492D01*
X185003432Y-56413486D01*
X185060636Y-56200000D01*
X184163012Y-56200000D01*
X184195925Y-56142993D01*
X184230000Y-56015826D01*
X184230000Y-55884174D01*
X184195925Y-55757007D01*
X184163012Y-55700000D01*
X185060636Y-55700000D01*
X185060635Y-55699999D01*
X185003432Y-55486513D01*
X185003429Y-55486507D01*
X184903600Y-55272422D01*
X184903599Y-55272420D01*
X184768113Y-55078926D01*
X184768108Y-55078920D01*
X184601082Y-54911894D01*
X184407578Y-54776399D01*
X184193492Y-54676570D01*
X184193486Y-54676567D01*
X183980000Y-54619364D01*
X183980000Y-55516988D01*
X183922993Y-55484075D01*
X183795826Y-55450000D01*
X183664174Y-55450000D01*
X183537007Y-55484075D01*
X183480000Y-55516988D01*
X183480000Y-54619364D01*
X183479999Y-54619364D01*
X183266513Y-54676567D01*
X183266507Y-54676570D01*
X183052422Y-54776399D01*
X183052420Y-54776400D01*
X182858926Y-54911886D01*
X182736865Y-55033947D01*
X182675542Y-55067431D01*
X182605850Y-55062447D01*
X182549917Y-55020575D01*
X182533002Y-54989598D01*
X182525421Y-54969273D01*
X182494693Y-54886886D01*
X182483797Y-54857671D01*
X182483793Y-54857664D01*
X182397547Y-54742455D01*
X182397544Y-54742452D01*
X182282335Y-54656206D01*
X182282328Y-54656202D01*
X182147482Y-54605908D01*
X182147483Y-54605908D01*
X182087883Y-54599501D01*
X182087881Y-54599500D01*
X182087873Y-54599500D01*
X182087864Y-54599500D01*
X180292129Y-54599500D01*
X180292123Y-54599501D01*
X180232516Y-54605908D01*
X180097671Y-54656202D01*
X180097664Y-54656206D01*
X179982455Y-54742452D01*
X179982452Y-54742455D01*
X179896206Y-54857664D01*
X179896202Y-54857671D01*
X179845908Y-54992517D01*
X179839501Y-55052116D01*
X179839500Y-55052135D01*
X179839500Y-56847870D01*
X179839501Y-56847876D01*
X179845908Y-56907483D01*
X179896202Y-57042328D01*
X179896206Y-57042335D01*
X179982452Y-57157544D01*
X179982455Y-57157547D01*
X180097664Y-57243793D01*
X180097671Y-57243797D01*
X180129408Y-57255634D01*
X180232517Y-57294091D01*
X180292127Y-57300500D01*
X180365500Y-57300499D01*
X180432538Y-57320183D01*
X180478294Y-57372986D01*
X180489500Y-57424499D01*
X180489500Y-67311006D01*
X180489500Y-67448994D01*
X180489500Y-67448996D01*
X180489499Y-67448996D01*
X180516418Y-67584322D01*
X180516421Y-67584332D01*
X180569222Y-67711807D01*
X180645887Y-67826545D01*
X180645888Y-67826546D01*
X184263181Y-71443838D01*
X184296666Y-71505161D01*
X184299500Y-71531519D01*
X184299500Y-71739481D01*
X184279815Y-71806520D01*
X184227011Y-71852275D01*
X184157853Y-71862219D01*
X184094297Y-71833194D01*
X184087819Y-71827162D01*
X179517603Y-67256946D01*
X179484118Y-67195623D01*
X179489102Y-67125931D01*
X179517603Y-67081584D01*
X179650045Y-66949141D01*
X179650047Y-66949139D01*
X179780568Y-66762734D01*
X179876739Y-66556496D01*
X179935635Y-66336692D01*
X179955468Y-66110000D01*
X179935635Y-65883308D01*
X179876739Y-65663504D01*
X179780568Y-65457266D01*
X179650047Y-65270861D01*
X179650045Y-65270858D01*
X179489141Y-65109954D01*
X179302734Y-64979432D01*
X179302732Y-64979431D01*
X179096497Y-64883261D01*
X179096488Y-64883258D01*
X178876697Y-64824366D01*
X178876693Y-64824365D01*
X178876692Y-64824365D01*
X178876691Y-64824364D01*
X178876686Y-64824364D01*
X178650002Y-64804532D01*
X178649998Y-64804532D01*
X178418116Y-64824819D01*
X178349616Y-64811052D01*
X178319628Y-64788972D01*
X177431027Y-63900370D01*
X177397542Y-63839047D01*
X177395180Y-63801881D01*
X177395633Y-63796697D01*
X177395635Y-63796692D01*
X177415468Y-63570000D01*
X177395635Y-63343308D01*
X177336739Y-63123504D01*
X177240568Y-62917266D01*
X177110047Y-62730861D01*
X176949139Y-62569953D01*
X176863376Y-62509901D01*
X176819751Y-62455324D01*
X176810500Y-62408326D01*
X176810500Y-62191672D01*
X176830185Y-62124633D01*
X176863375Y-62090098D01*
X176949139Y-62030047D01*
X177110047Y-61869139D01*
X177240568Y-61682734D01*
X177336739Y-61476496D01*
X177395635Y-61256692D01*
X177415468Y-61030000D01*
X177395635Y-60803308D01*
X177336739Y-60583504D01*
X177240568Y-60377266D01*
X177110047Y-60190861D01*
X177110045Y-60190858D01*
X176949141Y-60029954D01*
X176762734Y-59899432D01*
X176762732Y-59899431D01*
X176556497Y-59803261D01*
X176556488Y-59803258D01*
X176336697Y-59744366D01*
X176336693Y-59744365D01*
X176336692Y-59744365D01*
X176336691Y-59744364D01*
X176336686Y-59744364D01*
X176110002Y-59724532D01*
X176109998Y-59724532D01*
X175883313Y-59744364D01*
X175883302Y-59744366D01*
X175663511Y-59803258D01*
X175663502Y-59803261D01*
X175457267Y-59899431D01*
X175457265Y-59899432D01*
X175270858Y-60029954D01*
X175109954Y-60190858D01*
X174979432Y-60377265D01*
X174979431Y-60377267D01*
X174883261Y-60583502D01*
X174883258Y-60583511D01*
X174824366Y-60803302D01*
X174824364Y-60803313D01*
X174804532Y-61029998D01*
X174804532Y-61030001D01*
X174824364Y-61256686D01*
X174824366Y-61256697D01*
X174883258Y-61476488D01*
X174883261Y-61476497D01*
X174979431Y-61682732D01*
X174979432Y-61682734D01*
X175109954Y-61869141D01*
X175270857Y-62030044D01*
X175270860Y-62030046D01*
X175270861Y-62030047D01*
X175356623Y-62090097D01*
X175400248Y-62144673D01*
X175409500Y-62191672D01*
X175409500Y-62408326D01*
X175389815Y-62475365D01*
X175356624Y-62509901D01*
X175270863Y-62569951D01*
X175109951Y-62730862D01*
X174979432Y-62917265D01*
X174979431Y-62917267D01*
X174883261Y-63123502D01*
X174883258Y-63123511D01*
X174824366Y-63343302D01*
X174824364Y-63343313D01*
X174804532Y-63569998D01*
X174804532Y-63570001D01*
X174824364Y-63796686D01*
X174824366Y-63796697D01*
X174883258Y-64016488D01*
X174883261Y-64016497D01*
X174979431Y-64222732D01*
X174979432Y-64222734D01*
X175109954Y-64409141D01*
X175270858Y-64570045D01*
X175270861Y-64570047D01*
X175457266Y-64700568D01*
X175663504Y-64796739D01*
X175883308Y-64855635D01*
X176045230Y-64869801D01*
X176109998Y-64875468D01*
X176110000Y-64875468D01*
X176110001Y-64875468D01*
X176128304Y-64873866D01*
X176336692Y-64855635D01*
X176336697Y-64855633D01*
X176341881Y-64855180D01*
X176410381Y-64868946D01*
X176440370Y-64891027D01*
X177328972Y-65779628D01*
X177362457Y-65840951D01*
X177364819Y-65878116D01*
X177344532Y-66109998D01*
X177344532Y-66110001D01*
X177364364Y-66336686D01*
X177364366Y-66336697D01*
X177423258Y-66556488D01*
X177423261Y-66556497D01*
X177519431Y-66762732D01*
X177519432Y-66762734D01*
X177649954Y-66949141D01*
X177810857Y-67110044D01*
X177810860Y-67110046D01*
X177810861Y-67110047D01*
X177896623Y-67170097D01*
X177940248Y-67224673D01*
X177949500Y-67271672D01*
X177949500Y-67311006D01*
X177949500Y-67448994D01*
X177949500Y-67448996D01*
X177949499Y-67448996D01*
X177976418Y-67584322D01*
X177976421Y-67584332D01*
X178029222Y-67711807D01*
X178105887Y-67826545D01*
X178105888Y-67826546D01*
X182993181Y-72713838D01*
X183026666Y-72775161D01*
X183029500Y-72801519D01*
X183029500Y-78468481D01*
X183009815Y-78535520D01*
X182993181Y-78556162D01*
X175856162Y-85693181D01*
X175794839Y-85726666D01*
X175768481Y-85729500D01*
X162092711Y-85729500D01*
X162025672Y-85709815D01*
X161991136Y-85676623D01*
X161908494Y-85558597D01*
X161741402Y-85391506D01*
X161741396Y-85391501D01*
X161555842Y-85261575D01*
X161512217Y-85206998D01*
X161505023Y-85137500D01*
X161536546Y-85075145D01*
X161555842Y-85058425D01*
X161609909Y-85020567D01*
X161741401Y-84928495D01*
X161908495Y-84761401D01*
X161991136Y-84643376D01*
X162045713Y-84599752D01*
X162092711Y-84590500D01*
X174273996Y-84590500D01*
X174387962Y-84567830D01*
X174409328Y-84563580D01*
X174473069Y-84537177D01*
X174536807Y-84510777D01*
X174536808Y-84510776D01*
X174536811Y-84510775D01*
X174651543Y-84434114D01*
X179194114Y-79891543D01*
X179194114Y-79891542D01*
X181477298Y-77608356D01*
X181532882Y-77576265D01*
X181613080Y-77554776D01*
X181653653Y-77543906D01*
X181653654Y-77543905D01*
X181653663Y-77543903D01*
X181867830Y-77444035D01*
X182061401Y-77308495D01*
X182228495Y-77141401D01*
X182364035Y-76947830D01*
X182463903Y-76733663D01*
X182525063Y-76505408D01*
X182545659Y-76270000D01*
X182525063Y-76034592D01*
X182463903Y-75806337D01*
X182364035Y-75592171D01*
X182358731Y-75584595D01*
X182228494Y-75398597D01*
X182061402Y-75231506D01*
X182061395Y-75231501D01*
X181867834Y-75095967D01*
X181867830Y-75095965D01*
X181796727Y-75062809D01*
X181653663Y-74996097D01*
X181653659Y-74996096D01*
X181653655Y-74996094D01*
X181425413Y-74934938D01*
X181425403Y-74934936D01*
X181190001Y-74914341D01*
X181189999Y-74914341D01*
X180954596Y-74934936D01*
X180954586Y-74934938D01*
X180726344Y-74996094D01*
X180726335Y-74996098D01*
X180512171Y-75095964D01*
X180512169Y-75095965D01*
X180318597Y-75231505D01*
X180151508Y-75398594D01*
X180021269Y-75584595D01*
X179966692Y-75628219D01*
X179897193Y-75635412D01*
X179834839Y-75603890D01*
X179818119Y-75584594D01*
X179688113Y-75398926D01*
X179688108Y-75398920D01*
X179521082Y-75231894D01*
X179327578Y-75096399D01*
X179113492Y-74996570D01*
X179113486Y-74996567D01*
X178900000Y-74939364D01*
X178900000Y-75836988D01*
X178842993Y-75804075D01*
X178715826Y-75770000D01*
X178584174Y-75770000D01*
X178457007Y-75804075D01*
X178400000Y-75836988D01*
X178400000Y-74939364D01*
X178399999Y-74939364D01*
X178186513Y-74996567D01*
X178186507Y-74996570D01*
X177972422Y-75096399D01*
X177972420Y-75096400D01*
X177778926Y-75231886D01*
X177656865Y-75353947D01*
X177595542Y-75387431D01*
X177525850Y-75382447D01*
X177469917Y-75340575D01*
X177453002Y-75309598D01*
X177452954Y-75309470D01*
X177403887Y-75177913D01*
X177403797Y-75177671D01*
X177403793Y-75177664D01*
X177317547Y-75062455D01*
X177317544Y-75062452D01*
X177202335Y-74976206D01*
X177202328Y-74976202D01*
X177067482Y-74925908D01*
X177067483Y-74925908D01*
X177007883Y-74919501D01*
X177007881Y-74919500D01*
X177007873Y-74919500D01*
X177007865Y-74919500D01*
X176934500Y-74919500D01*
X176867461Y-74899815D01*
X176821706Y-74847011D01*
X176810500Y-74795500D01*
X176810500Y-72351672D01*
X176830185Y-72284633D01*
X176863375Y-72250098D01*
X176949139Y-72190047D01*
X177110047Y-72029139D01*
X177240568Y-71842734D01*
X177336739Y-71636496D01*
X177395635Y-71416692D01*
X177415468Y-71190000D01*
X177395635Y-70963308D01*
X177336739Y-70743504D01*
X177240568Y-70537266D01*
X177110047Y-70350861D01*
X177110045Y-70350858D01*
X176949141Y-70189954D01*
X176762734Y-70059432D01*
X176762732Y-70059431D01*
X176556497Y-69963261D01*
X176556488Y-69963258D01*
X176336697Y-69904366D01*
X176336693Y-69904365D01*
X176336692Y-69904365D01*
X176336691Y-69904364D01*
X176336686Y-69904364D01*
X176110002Y-69884532D01*
X176109998Y-69884532D01*
X175883313Y-69904364D01*
X175883302Y-69904366D01*
X175663511Y-69963258D01*
X175663502Y-69963261D01*
X175457267Y-70059431D01*
X175457265Y-70059432D01*
X175270858Y-70189954D01*
X175109954Y-70350858D01*
X174979432Y-70537265D01*
X174979429Y-70537270D01*
X174972104Y-70552979D01*
X174925929Y-70605417D01*
X174858735Y-70624566D01*
X174791855Y-70604347D01*
X174747341Y-70552973D01*
X174740133Y-70537515D01*
X174740132Y-70537513D01*
X174689025Y-70464526D01*
X174010000Y-71143551D01*
X174010000Y-71137339D01*
X173982741Y-71035606D01*
X173930080Y-70944394D01*
X173855606Y-70869920D01*
X173764394Y-70817259D01*
X173662661Y-70790000D01*
X173656448Y-70790000D01*
X174335472Y-70110974D01*
X174262478Y-70059863D01*
X174056331Y-69963735D01*
X174056317Y-69963730D01*
X173836610Y-69904860D01*
X173836599Y-69904858D01*
X173610002Y-69885034D01*
X173609998Y-69885034D01*
X173383400Y-69904858D01*
X173383389Y-69904860D01*
X173163682Y-69963730D01*
X173163673Y-69963734D01*
X172957516Y-70059866D01*
X172957512Y-70059868D01*
X172884526Y-70110973D01*
X172884526Y-70110974D01*
X173563553Y-70790000D01*
X173557339Y-70790000D01*
X173455606Y-70817259D01*
X173364394Y-70869920D01*
X173289920Y-70944394D01*
X173237259Y-71035606D01*
X173210000Y-71137339D01*
X173210000Y-71143552D01*
X172530974Y-70464526D01*
X172530973Y-70464526D01*
X172479868Y-70537512D01*
X172479866Y-70537516D01*
X172383734Y-70743673D01*
X172383730Y-70743682D01*
X172324860Y-70963389D01*
X172324858Y-70963400D01*
X172305034Y-71189997D01*
X172305034Y-71190002D01*
X172324858Y-71416599D01*
X172324860Y-71416610D01*
X172383730Y-71636317D01*
X172383735Y-71636331D01*
X172479863Y-71842478D01*
X172530974Y-71915472D01*
X173210000Y-71236446D01*
X173210000Y-71242661D01*
X173237259Y-71344394D01*
X173289920Y-71435606D01*
X173364394Y-71510080D01*
X173455606Y-71562741D01*
X173557339Y-71590000D01*
X173563553Y-71590000D01*
X172884526Y-72269025D01*
X172957513Y-72320132D01*
X172957521Y-72320136D01*
X173163668Y-72416264D01*
X173163682Y-72416269D01*
X173383389Y-72475139D01*
X173383400Y-72475141D01*
X173609998Y-72494966D01*
X173610002Y-72494966D01*
X173836599Y-72475141D01*
X173836610Y-72475139D01*
X174056317Y-72416269D01*
X174056331Y-72416264D01*
X174262478Y-72320136D01*
X174335471Y-72269024D01*
X173656447Y-71590000D01*
X173662661Y-71590000D01*
X173764394Y-71562741D01*
X173855606Y-71510080D01*
X173930080Y-71435606D01*
X173982741Y-71344394D01*
X174010000Y-71242661D01*
X174010000Y-71236447D01*
X174689024Y-71915471D01*
X174740134Y-71842481D01*
X174747340Y-71827028D01*
X174793511Y-71774587D01*
X174860704Y-71755433D01*
X174927585Y-71775646D01*
X174972105Y-71827022D01*
X174979430Y-71842730D01*
X174979432Y-71842734D01*
X175109954Y-72029141D01*
X175270857Y-72190044D01*
X175270860Y-72190046D01*
X175270861Y-72190047D01*
X175356623Y-72250097D01*
X175400248Y-72304673D01*
X175409500Y-72351672D01*
X175409500Y-74795500D01*
X175389815Y-74862539D01*
X175337011Y-74908294D01*
X175285502Y-74919500D01*
X175212130Y-74919500D01*
X175212123Y-74919501D01*
X175152516Y-74925908D01*
X175017671Y-74976202D01*
X175017664Y-74976206D01*
X174902455Y-75062452D01*
X174902452Y-75062455D01*
X174816206Y-75177664D01*
X174816202Y-75177671D01*
X174765908Y-75312517D01*
X174759501Y-75372116D01*
X174759500Y-75372135D01*
X174759500Y-77167870D01*
X174759501Y-77167876D01*
X174765908Y-77227483D01*
X174816202Y-77362328D01*
X174816206Y-77362335D01*
X174902452Y-77477544D01*
X174902455Y-77477547D01*
X175017664Y-77563793D01*
X175017671Y-77563797D01*
X175048963Y-77575468D01*
X175152517Y-77614091D01*
X175212127Y-77620500D01*
X175783480Y-77620499D01*
X175850519Y-77640183D01*
X175871161Y-77656818D01*
X177571661Y-79357318D01*
X177605146Y-79418641D01*
X177600162Y-79488333D01*
X177571661Y-79532680D01*
X173951162Y-83153181D01*
X173889839Y-83186666D01*
X173863481Y-83189500D01*
X162092711Y-83189500D01*
X162025672Y-83169815D01*
X161991136Y-83136623D01*
X161908494Y-83018597D01*
X161741402Y-82851506D01*
X161741401Y-82851505D01*
X161555405Y-82721269D01*
X161511781Y-82666692D01*
X161504588Y-82597193D01*
X161536110Y-82534839D01*
X161555405Y-82518119D01*
X161741082Y-82388105D01*
X161908105Y-82221082D01*
X162043600Y-82027578D01*
X162143429Y-81813492D01*
X162143432Y-81813486D01*
X162200636Y-81600000D01*
X161303012Y-81600000D01*
X161335925Y-81542993D01*
X161370000Y-81415826D01*
X161370000Y-81284174D01*
X161335925Y-81157007D01*
X161303012Y-81100000D01*
X162200636Y-81100000D01*
X162200635Y-81099999D01*
X162143432Y-80886513D01*
X162143429Y-80886507D01*
X162043600Y-80672422D01*
X162043599Y-80672420D01*
X161908113Y-80478926D01*
X161908108Y-80478920D01*
X161741078Y-80311890D01*
X161555405Y-80181879D01*
X161511780Y-80127302D01*
X161504588Y-80057804D01*
X161536110Y-79995449D01*
X161555406Y-79978730D01*
X161679922Y-79891543D01*
X161741401Y-79848495D01*
X161843077Y-79746819D01*
X161904400Y-79713334D01*
X161930758Y-79710500D01*
X167240774Y-79710500D01*
X167240775Y-79710499D01*
X167414747Y-79675895D01*
X167496687Y-79641953D01*
X167578628Y-79608013D01*
X167578630Y-79608011D01*
X167578633Y-79608010D01*
X167667036Y-79548939D01*
X167667036Y-79548938D01*
X167667040Y-79548936D01*
X167726117Y-79509464D01*
X169189464Y-78046117D01*
X169213735Y-78009792D01*
X169261305Y-77938600D01*
X169261305Y-77938599D01*
X169280748Y-77909500D01*
X169288013Y-77898628D01*
X169313572Y-77836923D01*
X169340669Y-77771506D01*
X169355893Y-77734751D01*
X169355895Y-77734747D01*
X169390500Y-77560773D01*
X169390500Y-77383389D01*
X169390500Y-77330758D01*
X169410185Y-77263719D01*
X169426819Y-77243077D01*
X169442524Y-77227372D01*
X169528495Y-77141401D01*
X169664035Y-76947830D01*
X169763903Y-76733663D01*
X169825063Y-76505408D01*
X169845659Y-76270000D01*
X169825063Y-76034592D01*
X169763903Y-75806337D01*
X169664035Y-75592171D01*
X169658731Y-75584595D01*
X169528494Y-75398597D01*
X169361402Y-75231506D01*
X169361395Y-75231501D01*
X169167834Y-75095967D01*
X169167830Y-75095965D01*
X169096727Y-75062809D01*
X168953663Y-74996097D01*
X168953659Y-74996096D01*
X168953655Y-74996094D01*
X168725413Y-74934938D01*
X168725403Y-74934936D01*
X168490001Y-74914341D01*
X168489999Y-74914341D01*
X168254596Y-74934936D01*
X168254586Y-74934938D01*
X168026344Y-74996094D01*
X168026335Y-74996098D01*
X167812171Y-75095964D01*
X167812169Y-75095965D01*
X167618600Y-75231503D01*
X167496284Y-75353819D01*
X167434961Y-75387303D01*
X167365269Y-75382319D01*
X167309336Y-75340447D01*
X167292421Y-75309470D01*
X167243354Y-75177913D01*
X167243350Y-75177906D01*
X167157190Y-75062812D01*
X167157187Y-75062809D01*
X167042093Y-74976649D01*
X167042086Y-74976645D01*
X166907379Y-74926403D01*
X166907372Y-74926401D01*
X166847844Y-74920000D01*
X166200000Y-74920000D01*
X166200000Y-75836988D01*
X166142993Y-75804075D01*
X166015826Y-75770000D01*
X165884174Y-75770000D01*
X165757007Y-75804075D01*
X165700000Y-75836988D01*
X165700000Y-74920000D01*
X165052155Y-74920000D01*
X164992627Y-74926401D01*
X164992620Y-74926403D01*
X164857913Y-74976645D01*
X164857906Y-74976649D01*
X164742812Y-75062809D01*
X164742809Y-75062812D01*
X164656649Y-75177906D01*
X164656645Y-75177913D01*
X164606403Y-75312620D01*
X164606401Y-75312627D01*
X164600000Y-75372155D01*
X164600000Y-76020000D01*
X165516988Y-76020000D01*
X165484075Y-76077007D01*
X165450000Y-76204174D01*
X165450000Y-76335826D01*
X165484075Y-76462993D01*
X165516988Y-76520000D01*
X164600000Y-76520000D01*
X164600000Y-77167844D01*
X164606401Y-77227372D01*
X164606403Y-77227379D01*
X164656645Y-77362086D01*
X164656649Y-77362093D01*
X164742809Y-77477187D01*
X164742812Y-77477190D01*
X164857906Y-77563350D01*
X164857913Y-77563354D01*
X164992620Y-77613596D01*
X164992627Y-77613598D01*
X165052155Y-77619999D01*
X165052172Y-77620000D01*
X165700000Y-77620000D01*
X165700000Y-76703012D01*
X165757007Y-76735925D01*
X165884174Y-76770000D01*
X166015826Y-76770000D01*
X166142993Y-76735925D01*
X166200000Y-76703012D01*
X166200000Y-77620000D01*
X166769219Y-77620000D01*
X166836258Y-77639685D01*
X166882013Y-77692489D01*
X166891957Y-77761647D01*
X166862932Y-77825203D01*
X166856900Y-77831681D01*
X166815400Y-77873181D01*
X166754077Y-77906666D01*
X166727719Y-77909500D01*
X161930758Y-77909500D01*
X161863719Y-77889815D01*
X161843077Y-77873181D01*
X161806819Y-77836923D01*
X161773334Y-77775600D01*
X161770500Y-77749242D01*
X161770500Y-71296862D01*
X161790185Y-71229823D01*
X161806819Y-71209181D01*
X161826002Y-71189998D01*
X167184532Y-71189998D01*
X167184532Y-71190001D01*
X167204364Y-71416686D01*
X167204366Y-71416697D01*
X167263258Y-71636488D01*
X167263261Y-71636497D01*
X167359431Y-71842732D01*
X167359432Y-71842734D01*
X167489954Y-72029141D01*
X167650858Y-72190045D01*
X167650861Y-72190047D01*
X167837266Y-72320568D01*
X168043504Y-72416739D01*
X168263308Y-72475635D01*
X168425230Y-72489801D01*
X168489998Y-72495468D01*
X168490000Y-72495468D01*
X168490002Y-72495468D01*
X168546673Y-72490509D01*
X168716692Y-72475635D01*
X168936496Y-72416739D01*
X169142734Y-72320568D01*
X169329139Y-72190047D01*
X169490047Y-72029139D01*
X169620568Y-71842734D01*
X169716739Y-71636496D01*
X169775635Y-71416692D01*
X169795468Y-71190000D01*
X169775635Y-70963308D01*
X169775633Y-70963303D01*
X169775180Y-70958117D01*
X169788946Y-70889617D01*
X169811024Y-70859631D01*
X174114114Y-66556543D01*
X174190775Y-66441811D01*
X174243580Y-66314328D01*
X174270500Y-66178994D01*
X174270500Y-66041006D01*
X174270500Y-57399499D01*
X174290185Y-57332460D01*
X174342989Y-57286705D01*
X174394500Y-57275499D01*
X174467871Y-57275499D01*
X174467872Y-57275499D01*
X174527483Y-57269091D01*
X174662331Y-57218796D01*
X174777546Y-57132546D01*
X174863796Y-57017331D01*
X174913002Y-56885401D01*
X174954872Y-56829468D01*
X175020337Y-56805050D01*
X175088610Y-56819901D01*
X175116865Y-56841053D01*
X175238917Y-56963105D01*
X175432421Y-57098600D01*
X175646507Y-57198429D01*
X175646516Y-57198433D01*
X175860000Y-57255634D01*
X175860000Y-56358012D01*
X175917007Y-56390925D01*
X176044174Y-56425000D01*
X176175826Y-56425000D01*
X176302993Y-56390925D01*
X176360000Y-56358012D01*
X176360000Y-57255633D01*
X176573483Y-57198433D01*
X176573492Y-57198429D01*
X176787578Y-57098600D01*
X176981082Y-56963105D01*
X177148105Y-56796082D01*
X177283600Y-56602578D01*
X177383429Y-56388492D01*
X177383432Y-56388486D01*
X177440636Y-56175000D01*
X176543012Y-56175000D01*
X176575925Y-56117993D01*
X176610000Y-55990826D01*
X176610000Y-55859174D01*
X176575925Y-55732007D01*
X176543012Y-55675000D01*
X177440636Y-55675000D01*
X177440635Y-55674999D01*
X177383432Y-55461513D01*
X177383429Y-55461507D01*
X177283600Y-55247422D01*
X177283599Y-55247420D01*
X177148113Y-55053926D01*
X177148108Y-55053920D01*
X176981082Y-54886894D01*
X176787578Y-54751399D01*
X176573492Y-54651570D01*
X176573486Y-54651567D01*
X176360000Y-54594364D01*
X176360000Y-55491988D01*
X176302993Y-55459075D01*
X176175826Y-55425000D01*
X176044174Y-55425000D01*
X175917007Y-55459075D01*
X175860000Y-55491988D01*
X175860000Y-54594364D01*
X175859999Y-54594364D01*
X175646513Y-54651567D01*
X175646507Y-54651570D01*
X175432422Y-54751399D01*
X175432420Y-54751400D01*
X175238926Y-54886886D01*
X175116865Y-55008947D01*
X175055542Y-55042431D01*
X174985850Y-55037447D01*
X174929917Y-54995575D01*
X174913002Y-54964598D01*
X174863797Y-54832671D01*
X174863793Y-54832664D01*
X174777547Y-54717455D01*
X174777544Y-54717452D01*
X174662335Y-54631206D01*
X174662328Y-54631202D01*
X174527482Y-54580908D01*
X174527483Y-54580908D01*
X174467883Y-54574501D01*
X174467881Y-54574500D01*
X174467873Y-54574500D01*
X174467864Y-54574500D01*
X172672129Y-54574500D01*
X172672123Y-54574501D01*
X172612516Y-54580908D01*
X172477671Y-54631202D01*
X172477664Y-54631206D01*
X172362455Y-54717452D01*
X172362452Y-54717455D01*
X172276206Y-54832664D01*
X172276202Y-54832671D01*
X172225908Y-54967517D01*
X172219501Y-55027116D01*
X172219500Y-55027135D01*
X172219500Y-56822870D01*
X172219501Y-56822876D01*
X172225908Y-56882483D01*
X172276202Y-57017328D01*
X172276206Y-57017335D01*
X172362452Y-57132544D01*
X172362455Y-57132547D01*
X172477664Y-57218793D01*
X172477671Y-57218797D01*
X172490101Y-57223433D01*
X172612517Y-57269091D01*
X172672127Y-57275500D01*
X172745500Y-57275499D01*
X172812538Y-57295183D01*
X172858294Y-57347986D01*
X172869500Y-57399499D01*
X172869500Y-65768480D01*
X172849815Y-65835519D01*
X172833181Y-65856161D01*
X168820369Y-69868972D01*
X168759046Y-69902457D01*
X168721881Y-69904819D01*
X168716680Y-69904364D01*
X168697171Y-69902657D01*
X168490002Y-69884532D01*
X168489998Y-69884532D01*
X168263313Y-69904364D01*
X168263302Y-69904366D01*
X168043511Y-69963258D01*
X168043502Y-69963261D01*
X167837267Y-70059431D01*
X167837265Y-70059432D01*
X167650858Y-70189954D01*
X167489954Y-70350858D01*
X167359432Y-70537265D01*
X167359431Y-70537267D01*
X167263261Y-70743502D01*
X167263258Y-70743511D01*
X167204366Y-70963302D01*
X167204364Y-70963313D01*
X167184532Y-71189998D01*
X161826002Y-71189998D01*
X166372819Y-66643181D01*
X170300714Y-62715286D01*
X171094464Y-61921536D01*
X171133936Y-61862459D01*
X171193013Y-61774047D01*
X171198553Y-61760671D01*
X171230836Y-61682735D01*
X171230836Y-61682734D01*
X171244074Y-61650775D01*
X171260895Y-61610166D01*
X171295500Y-61436192D01*
X171295500Y-61258808D01*
X171295500Y-54469361D01*
X171315185Y-54402322D01*
X171331819Y-54381680D01*
X172816680Y-52896819D01*
X172878003Y-52863334D01*
X172904361Y-52860500D01*
X189937497Y-52860500D01*
X190004536Y-52880185D01*
X190050291Y-52932989D01*
X190060235Y-53002147D01*
X190057272Y-53016593D01*
X190014938Y-53174586D01*
X190014936Y-53174596D01*
X189994341Y-53409999D01*
X189994341Y-53410000D01*
X190014936Y-53645403D01*
X190014938Y-53645413D01*
X190076094Y-53873655D01*
X190076096Y-53873660D01*
X190076097Y-53873663D01*
X190114634Y-53956305D01*
X190175965Y-54087830D01*
X190175967Y-54087834D01*
X190284281Y-54242521D01*
X190311505Y-54281401D01*
X190478599Y-54448495D01*
X190575384Y-54516265D01*
X190672165Y-54584032D01*
X190672167Y-54584033D01*
X190672170Y-54584035D01*
X190886337Y-54683903D01*
X191114592Y-54745063D01*
X191291034Y-54760500D01*
X191349999Y-54765659D01*
X191350000Y-54765659D01*
X191350001Y-54765659D01*
X191408966Y-54760500D01*
X191585408Y-54745063D01*
X191813663Y-54683903D01*
X192027830Y-54584035D01*
X192221401Y-54448495D01*
X192388495Y-54281401D01*
X192518730Y-54095405D01*
X192573307Y-54051781D01*
X192642805Y-54044587D01*
X192705160Y-54076110D01*
X192721879Y-54095405D01*
X192851890Y-54281078D01*
X193018917Y-54448105D01*
X193212421Y-54583600D01*
X193426507Y-54683429D01*
X193426516Y-54683433D01*
X193640000Y-54740634D01*
X193640000Y-53843012D01*
X193697007Y-53875925D01*
X193824174Y-53910000D01*
X193955826Y-53910000D01*
X194082993Y-53875925D01*
X194140000Y-53843012D01*
X194140000Y-54740633D01*
X194353483Y-54683433D01*
X194353492Y-54683429D01*
X194567578Y-54583600D01*
X194761082Y-54448105D01*
X194928105Y-54281082D01*
X195058119Y-54095405D01*
X195112696Y-54051781D01*
X195182195Y-54044588D01*
X195244549Y-54076110D01*
X195261269Y-54095405D01*
X195391505Y-54281401D01*
X195558599Y-54448495D01*
X195655384Y-54516265D01*
X195752165Y-54584032D01*
X195752167Y-54584033D01*
X195752170Y-54584035D01*
X195966337Y-54683903D01*
X196194592Y-54745063D01*
X196343196Y-54758064D01*
X196408264Y-54783516D01*
X196449243Y-54840107D01*
X196453121Y-54909869D01*
X196420069Y-54969273D01*
X191096162Y-60293181D01*
X191034839Y-60326666D01*
X191008481Y-60329500D01*
X187431673Y-60329500D01*
X187364634Y-60309815D01*
X187330098Y-60276623D01*
X187270045Y-60190858D01*
X187109141Y-60029954D01*
X186922734Y-59899432D01*
X186922732Y-59899431D01*
X186716497Y-59803261D01*
X186716488Y-59803258D01*
X186496697Y-59744366D01*
X186496693Y-59744365D01*
X186496692Y-59744365D01*
X186496691Y-59744364D01*
X186496686Y-59744364D01*
X186270002Y-59724532D01*
X186269998Y-59724532D01*
X186043313Y-59744364D01*
X186043302Y-59744366D01*
X185823511Y-59803258D01*
X185823502Y-59803261D01*
X185617267Y-59899431D01*
X185617265Y-59899432D01*
X185430858Y-60029954D01*
X185269954Y-60190858D01*
X185139432Y-60377265D01*
X185139431Y-60377267D01*
X185043261Y-60583502D01*
X185043258Y-60583511D01*
X184984366Y-60803302D01*
X184984364Y-60803313D01*
X184964532Y-61029998D01*
X184964532Y-61030001D01*
X184984364Y-61256686D01*
X184984366Y-61256697D01*
X185043258Y-61476488D01*
X185043261Y-61476497D01*
X185139431Y-61682732D01*
X185139432Y-61682734D01*
X185269954Y-61869141D01*
X185430858Y-62030045D01*
X185430861Y-62030047D01*
X185617266Y-62160568D01*
X185675275Y-62187618D01*
X185727714Y-62233791D01*
X185746866Y-62300984D01*
X185726650Y-62367865D01*
X185675275Y-62412382D01*
X185617267Y-62439431D01*
X185617265Y-62439432D01*
X185430858Y-62569954D01*
X185269954Y-62730858D01*
X185139432Y-62917265D01*
X185139431Y-62917267D01*
X185043261Y-63123502D01*
X185043258Y-63123511D01*
X184984366Y-63343302D01*
X184984364Y-63343313D01*
X184964532Y-63569998D01*
X184964532Y-63570001D01*
X184984364Y-63796686D01*
X184984366Y-63796697D01*
X185043258Y-64016488D01*
X185043261Y-64016497D01*
X185139431Y-64222732D01*
X185139432Y-64222734D01*
X185269954Y-64409141D01*
X185430858Y-64570045D01*
X185430861Y-64570047D01*
X185617266Y-64700568D01*
X185823504Y-64796739D01*
X186043308Y-64855635D01*
X186205230Y-64869801D01*
X186269998Y-64875468D01*
X186270000Y-64875468D01*
X186270002Y-64875468D01*
X186326673Y-64870509D01*
X186496692Y-64855635D01*
X186716496Y-64796739D01*
X186922734Y-64700568D01*
X187109139Y-64570047D01*
X187270047Y-64409139D01*
X187330098Y-64323377D01*
X187384675Y-64279752D01*
X187431673Y-64270500D01*
X191418996Y-64270500D01*
X191510040Y-64252389D01*
X191554328Y-64243580D01*
X191618069Y-64217177D01*
X191681807Y-64190777D01*
X191681808Y-64190776D01*
X191681811Y-64190775D01*
X191796543Y-64114114D01*
X201138006Y-54772649D01*
X201199327Y-54739166D01*
X201257778Y-54740557D01*
X201274592Y-54745063D01*
X201451034Y-54760500D01*
X201509999Y-54765659D01*
X201510000Y-54765659D01*
X201510001Y-54765659D01*
X201568966Y-54760500D01*
X201745408Y-54745063D01*
X201973663Y-54683903D01*
X202187830Y-54584035D01*
X202381401Y-54448495D01*
X202548495Y-54281401D01*
X202678425Y-54095842D01*
X202733002Y-54052217D01*
X202802500Y-54045023D01*
X202864855Y-54076546D01*
X202881575Y-54095842D01*
X203011500Y-54281395D01*
X203011505Y-54281401D01*
X203178599Y-54448495D01*
X203275384Y-54516265D01*
X203372165Y-54584032D01*
X203372167Y-54584033D01*
X203372170Y-54584035D01*
X203586337Y-54683903D01*
X203814592Y-54745063D01*
X203991034Y-54760500D01*
X204049999Y-54765659D01*
X204050000Y-54765659D01*
X204050001Y-54765659D01*
X204108966Y-54760500D01*
X204285408Y-54745063D01*
X204513663Y-54683903D01*
X204727830Y-54584035D01*
X204921401Y-54448495D01*
X205088495Y-54281401D01*
X205218425Y-54095842D01*
X205273002Y-54052217D01*
X205342500Y-54045023D01*
X205404855Y-54076546D01*
X205421575Y-54095842D01*
X205551501Y-54281396D01*
X205551506Y-54281402D01*
X205718597Y-54448494D01*
X205836623Y-54531136D01*
X205880248Y-54585713D01*
X205889500Y-54632711D01*
X205889500Y-55608481D01*
X205869815Y-55675520D01*
X205853181Y-55696162D01*
X194906162Y-66643181D01*
X194844839Y-66676666D01*
X194818481Y-66679500D01*
X191281003Y-66679500D01*
X191172590Y-66701065D01*
X191172589Y-66701065D01*
X191159131Y-66703742D01*
X191145673Y-66706419D01*
X191145671Y-66706420D01*
X191092866Y-66728292D01*
X191092864Y-66728293D01*
X191092863Y-66728292D01*
X191018191Y-66759223D01*
X190941453Y-66810499D01*
X190941452Y-66810500D01*
X190903454Y-66835888D01*
X190903453Y-66835889D01*
X188265890Y-69473451D01*
X188265884Y-69473458D01*
X188237531Y-69515893D01*
X188237531Y-69515894D01*
X188189228Y-69588183D01*
X188189221Y-69588195D01*
X188136421Y-69715667D01*
X188136418Y-69715677D01*
X188109500Y-69851004D01*
X188109500Y-82728326D01*
X188089815Y-82795365D01*
X188056624Y-82829901D01*
X187970863Y-82889951D01*
X187809951Y-83050862D01*
X187679432Y-83237265D01*
X187679431Y-83237267D01*
X187583261Y-83443502D01*
X187583258Y-83443511D01*
X187524366Y-83663302D01*
X187524364Y-83663313D01*
X187504532Y-83889998D01*
X187504532Y-83890001D01*
X187524364Y-84116686D01*
X187524366Y-84116697D01*
X187583258Y-84336488D01*
X187583261Y-84336497D01*
X187679431Y-84542732D01*
X187679432Y-84542734D01*
X187809954Y-84729141D01*
X187970858Y-84890045D01*
X187970861Y-84890047D01*
X188157266Y-85020568D01*
X188363504Y-85116739D01*
X188363509Y-85116740D01*
X188363511Y-85116741D01*
X188416415Y-85130916D01*
X188583308Y-85175635D01*
X188745230Y-85189801D01*
X188809998Y-85195468D01*
X188810000Y-85195468D01*
X188810002Y-85195468D01*
X188866673Y-85190509D01*
X189036692Y-85175635D01*
X189256496Y-85116739D01*
X189462734Y-85020568D01*
X189649139Y-84890047D01*
X189810047Y-84729139D01*
X189940568Y-84542734D01*
X190036739Y-84336496D01*
X190095635Y-84116692D01*
X190115468Y-83890000D01*
X190095635Y-83663308D01*
X190036739Y-83443504D01*
X189940568Y-83237266D01*
X189810047Y-83050861D01*
X189649139Y-82889953D01*
X189563376Y-82829901D01*
X189519751Y-82775324D01*
X189510500Y-82728326D01*
X189510500Y-70261518D01*
X189530185Y-70194479D01*
X189546819Y-70173837D01*
X191603837Y-68116819D01*
X191665160Y-68083334D01*
X191691518Y-68080500D01*
X195228996Y-68080500D01*
X195320040Y-68062389D01*
X195364328Y-68053580D01*
X195428069Y-68027177D01*
X195491807Y-68000777D01*
X195491808Y-68000776D01*
X195491811Y-68000775D01*
X195606543Y-67924114D01*
X207134114Y-56396543D01*
X207210775Y-56281811D01*
X207263580Y-56154328D01*
X207290500Y-56018994D01*
X207290500Y-55881006D01*
X207290500Y-54632711D01*
X207310185Y-54565672D01*
X207343377Y-54531136D01*
X207431601Y-54469361D01*
X207461401Y-54448495D01*
X207583329Y-54326566D01*
X207644648Y-54293084D01*
X207714340Y-54298068D01*
X207770274Y-54339939D01*
X207787189Y-54370917D01*
X207836202Y-54502328D01*
X207836206Y-54502335D01*
X207922452Y-54617544D01*
X207922455Y-54617547D01*
X208037664Y-54703793D01*
X208037671Y-54703797D01*
X208172517Y-54754091D01*
X208172516Y-54754091D01*
X208179444Y-54754835D01*
X208232127Y-54760500D01*
X209438480Y-54760499D01*
X209505519Y-54780184D01*
X209526161Y-54796818D01*
X212888972Y-58159629D01*
X212922457Y-58220952D01*
X212924819Y-58258117D01*
X212904532Y-58489998D01*
X212904532Y-58490001D01*
X212924364Y-58716686D01*
X212924366Y-58716697D01*
X212983258Y-58936488D01*
X212983261Y-58936497D01*
X213079431Y-59142732D01*
X213079432Y-59142734D01*
X213209954Y-59329141D01*
X213370858Y-59490045D01*
X213370861Y-59490047D01*
X213557266Y-59620568D01*
X213763504Y-59716739D01*
X213983308Y-59775635D01*
X214145230Y-59789801D01*
X214209998Y-59795468D01*
X214210000Y-59795468D01*
X214210002Y-59795468D01*
X214266673Y-59790509D01*
X214436692Y-59775635D01*
X214656496Y-59716739D01*
X214862734Y-59620568D01*
X215049139Y-59490047D01*
X215210047Y-59329139D01*
X215340568Y-59142734D01*
X215436739Y-58936496D01*
X215495635Y-58716692D01*
X215515468Y-58490000D01*
X215513612Y-58468791D01*
X215507111Y-58394481D01*
X215495635Y-58263308D01*
X215436739Y-58043504D01*
X215340568Y-57837266D01*
X215210047Y-57650861D01*
X215210045Y-57650858D01*
X215049141Y-57489954D01*
X214862734Y-57359432D01*
X214862732Y-57359431D01*
X214656497Y-57263261D01*
X214656488Y-57263258D01*
X214436697Y-57204366D01*
X214436693Y-57204365D01*
X214436692Y-57204365D01*
X214436691Y-57204364D01*
X214436686Y-57204364D01*
X214210002Y-57184532D01*
X214209998Y-57184532D01*
X213978117Y-57204819D01*
X213909617Y-57191052D01*
X213879629Y-57168972D01*
X210516818Y-53806161D01*
X210483333Y-53744838D01*
X210480499Y-53718480D01*
X210480499Y-52512129D01*
X210480498Y-52512123D01*
X210474091Y-52452516D01*
X210423797Y-52317671D01*
X210423793Y-52317664D01*
X210337547Y-52202455D01*
X210337544Y-52202452D01*
X210222335Y-52116206D01*
X210222328Y-52116202D01*
X210087482Y-52065908D01*
X210087483Y-52065908D01*
X210027883Y-52059501D01*
X210027881Y-52059500D01*
X210027873Y-52059500D01*
X210027865Y-52059500D01*
X209104362Y-52059500D01*
X209037323Y-52039815D01*
X209016681Y-52023181D01*
X208254035Y-51260535D01*
X208254030Y-51260531D01*
X208194961Y-51221064D01*
X208194960Y-51221063D01*
X208106544Y-51161985D01*
X208106542Y-51161984D01*
X208024607Y-51128046D01*
X208024606Y-51128046D01*
X207977564Y-51108560D01*
X207923162Y-51064720D01*
X207901097Y-50998426D01*
X207918376Y-50930727D01*
X207969513Y-50883116D01*
X208025018Y-50870000D01*
X216698638Y-50870000D01*
X216765677Y-50889685D01*
G37*
%TD.AperFunction*%
%TA.AperFunction,Conductor*%
G36*
X207944855Y-76936546D02*
G01*
X207961575Y-76955842D01*
X208091501Y-77141396D01*
X208091506Y-77141402D01*
X208258597Y-77308493D01*
X208258603Y-77308498D01*
X208444158Y-77438425D01*
X208487783Y-77493002D01*
X208494977Y-77562500D01*
X208463454Y-77624855D01*
X208444158Y-77641575D01*
X208258597Y-77771505D01*
X208091505Y-77938597D01*
X207955965Y-78132169D01*
X207955964Y-78132171D01*
X207856098Y-78346335D01*
X207856094Y-78346344D01*
X207794938Y-78574586D01*
X207794936Y-78574596D01*
X207774341Y-78809999D01*
X207774341Y-78810000D01*
X207794936Y-79045403D01*
X207794938Y-79045413D01*
X207856094Y-79273655D01*
X207856096Y-79273659D01*
X207856097Y-79273663D01*
X207893611Y-79354112D01*
X207955965Y-79487830D01*
X207955967Y-79487834D01*
X208040116Y-79608010D01*
X208087650Y-79675896D01*
X208091501Y-79681395D01*
X208091506Y-79681402D01*
X208258597Y-79848493D01*
X208258603Y-79848498D01*
X208444158Y-79978425D01*
X208487783Y-80033002D01*
X208494977Y-80102500D01*
X208463454Y-80164855D01*
X208444158Y-80181575D01*
X208258597Y-80311505D01*
X208091505Y-80478597D01*
X207955965Y-80672169D01*
X207955964Y-80672171D01*
X207856098Y-80886335D01*
X207856094Y-80886344D01*
X207794938Y-81114586D01*
X207794936Y-81114596D01*
X207774341Y-81349999D01*
X207774341Y-81350000D01*
X207794936Y-81585403D01*
X207794938Y-81585413D01*
X207856094Y-81813655D01*
X207856096Y-81813659D01*
X207856097Y-81813663D01*
X207955847Y-82027578D01*
X207955965Y-82027830D01*
X207955967Y-82027834D01*
X208091501Y-82221395D01*
X208091506Y-82221402D01*
X208258597Y-82388493D01*
X208258603Y-82388498D01*
X208444158Y-82518425D01*
X208487783Y-82573002D01*
X208494977Y-82642500D01*
X208463454Y-82704855D01*
X208444158Y-82721575D01*
X208258597Y-82851505D01*
X208091505Y-83018597D01*
X207955965Y-83212169D01*
X207955964Y-83212171D01*
X207856098Y-83426335D01*
X207856094Y-83426344D01*
X207794938Y-83654586D01*
X207794936Y-83654596D01*
X207774341Y-83889999D01*
X207774341Y-83890000D01*
X207794936Y-84125403D01*
X207794938Y-84125413D01*
X207856094Y-84353655D01*
X207856096Y-84353659D01*
X207856097Y-84353663D01*
X207893611Y-84434111D01*
X207955965Y-84567830D01*
X207955967Y-84567834D01*
X208091501Y-84761395D01*
X208091506Y-84761402D01*
X208258597Y-84928493D01*
X208258603Y-84928498D01*
X208444158Y-85058425D01*
X208487783Y-85113002D01*
X208494977Y-85182500D01*
X208463454Y-85244855D01*
X208444158Y-85261575D01*
X208258597Y-85391505D01*
X208091505Y-85558597D01*
X207955965Y-85752169D01*
X207955964Y-85752171D01*
X207856098Y-85966335D01*
X207856094Y-85966344D01*
X207794938Y-86194586D01*
X207794936Y-86194596D01*
X207774341Y-86429999D01*
X207774341Y-86430000D01*
X207794936Y-86665403D01*
X207794938Y-86665413D01*
X207856094Y-86893655D01*
X207856096Y-86893659D01*
X207856097Y-86893663D01*
X207893611Y-86974111D01*
X207955965Y-87107830D01*
X207955967Y-87107834D01*
X208091501Y-87301395D01*
X208091506Y-87301402D01*
X208258597Y-87468493D01*
X208258603Y-87468498D01*
X208444158Y-87598425D01*
X208487783Y-87653002D01*
X208494977Y-87722500D01*
X208463454Y-87784855D01*
X208444158Y-87801575D01*
X208258597Y-87931505D01*
X208091505Y-88098597D01*
X207955965Y-88292169D01*
X207955964Y-88292171D01*
X207856098Y-88506335D01*
X207856094Y-88506344D01*
X207794938Y-88734586D01*
X207794936Y-88734596D01*
X207774341Y-88969999D01*
X207774341Y-88970000D01*
X207794936Y-89205403D01*
X207794938Y-89205413D01*
X207856094Y-89433655D01*
X207856096Y-89433659D01*
X207856097Y-89433663D01*
X207893611Y-89514111D01*
X207955965Y-89647830D01*
X207955967Y-89647834D01*
X208091501Y-89841395D01*
X208091506Y-89841402D01*
X208258597Y-90008493D01*
X208258603Y-90008498D01*
X208444158Y-90138425D01*
X208487783Y-90193002D01*
X208494977Y-90262500D01*
X208463454Y-90324855D01*
X208444158Y-90341575D01*
X208258597Y-90471505D01*
X208091505Y-90638597D01*
X207955965Y-90832169D01*
X207955964Y-90832171D01*
X207856098Y-91046335D01*
X207856094Y-91046344D01*
X207794938Y-91274586D01*
X207794936Y-91274596D01*
X207774341Y-91509999D01*
X207774341Y-91510000D01*
X207794936Y-91745403D01*
X207794938Y-91745413D01*
X207856094Y-91973655D01*
X207856096Y-91973659D01*
X207856097Y-91973663D01*
X207929358Y-92130772D01*
X207955965Y-92187830D01*
X207955967Y-92187834D01*
X208091501Y-92381395D01*
X208091506Y-92381402D01*
X208258597Y-92548493D01*
X208258603Y-92548498D01*
X208444594Y-92678730D01*
X208488219Y-92733307D01*
X208495413Y-92802805D01*
X208463890Y-92865160D01*
X208444595Y-92881880D01*
X208258922Y-93011890D01*
X208258920Y-93011891D01*
X208091891Y-93178920D01*
X208091886Y-93178926D01*
X207956400Y-93372420D01*
X207956399Y-93372422D01*
X207856570Y-93586507D01*
X207856567Y-93586513D01*
X207799364Y-93799999D01*
X207799364Y-93800000D01*
X208696988Y-93800000D01*
X208664075Y-93857007D01*
X208630000Y-93984174D01*
X208630000Y-94115826D01*
X208664075Y-94242993D01*
X208696988Y-94300000D01*
X207799364Y-94300000D01*
X207856567Y-94513486D01*
X207856570Y-94513492D01*
X207956399Y-94727578D01*
X208091894Y-94921082D01*
X208258917Y-95088105D01*
X208444595Y-95218119D01*
X208488219Y-95272696D01*
X208495412Y-95342195D01*
X208463890Y-95404549D01*
X208444595Y-95421269D01*
X208258594Y-95551508D01*
X208091505Y-95718597D01*
X207955965Y-95912169D01*
X207955964Y-95912171D01*
X207856098Y-96126335D01*
X207856094Y-96126344D01*
X207794938Y-96354586D01*
X207794936Y-96354596D01*
X207774341Y-96589998D01*
X207775911Y-96607952D01*
X207762141Y-96676452D01*
X207740063Y-96706435D01*
X207343319Y-97103181D01*
X207281996Y-97136666D01*
X207255638Y-97139500D01*
X195364500Y-97139500D01*
X195297461Y-97119815D01*
X195251706Y-97067011D01*
X195240500Y-97015500D01*
X195240499Y-95692129D01*
X195240498Y-95692123D01*
X195240497Y-95692116D01*
X195234091Y-95632517D01*
X195232809Y-95629081D01*
X195183797Y-95497671D01*
X195183793Y-95497664D01*
X195097547Y-95382455D01*
X195097544Y-95382452D01*
X194982335Y-95296206D01*
X194982328Y-95296202D01*
X194850917Y-95247189D01*
X194794983Y-95205318D01*
X194770566Y-95139853D01*
X194785418Y-95071580D01*
X194806563Y-95043332D01*
X194928495Y-94921401D01*
X195064035Y-94727830D01*
X195163903Y-94513663D01*
X195225063Y-94285408D01*
X195245659Y-94050000D01*
X195225063Y-93814592D01*
X195163903Y-93586337D01*
X195064035Y-93372171D01*
X195031241Y-93325335D01*
X194928494Y-93178597D01*
X194761402Y-93011506D01*
X194761396Y-93011501D01*
X194575842Y-92881575D01*
X194532217Y-92826998D01*
X194525023Y-92757500D01*
X194556546Y-92695145D01*
X194575842Y-92678425D01*
X194598026Y-92662891D01*
X194761401Y-92548495D01*
X194928495Y-92381401D01*
X195064035Y-92187830D01*
X195163903Y-91973663D01*
X195225063Y-91745408D01*
X195245659Y-91510000D01*
X195225063Y-91274592D01*
X195163903Y-91046337D01*
X195064035Y-90832171D01*
X195041683Y-90800248D01*
X194928494Y-90638597D01*
X194761402Y-90471506D01*
X194761396Y-90471501D01*
X194575842Y-90341575D01*
X194532217Y-90286998D01*
X194525023Y-90217500D01*
X194556546Y-90155145D01*
X194575842Y-90138425D01*
X194598026Y-90122891D01*
X194761401Y-90008495D01*
X194928495Y-89841401D01*
X195064035Y-89647830D01*
X195163903Y-89433663D01*
X195225063Y-89205408D01*
X195245659Y-88970000D01*
X195225063Y-88734592D01*
X195163903Y-88506337D01*
X195064035Y-88292171D01*
X195048886Y-88270535D01*
X194928494Y-88098597D01*
X194761402Y-87931506D01*
X194761396Y-87931501D01*
X194575842Y-87801575D01*
X194532217Y-87746998D01*
X194525023Y-87677500D01*
X194556546Y-87615145D01*
X194575842Y-87598425D01*
X194703518Y-87509025D01*
X194761401Y-87468495D01*
X194928495Y-87301401D01*
X195064035Y-87107830D01*
X195163903Y-86893663D01*
X195225063Y-86665408D01*
X195245659Y-86430000D01*
X195225063Y-86194592D01*
X195163903Y-85966337D01*
X195064035Y-85752171D01*
X195046177Y-85726666D01*
X194928494Y-85558597D01*
X194761402Y-85391506D01*
X194761396Y-85391501D01*
X194575842Y-85261575D01*
X194532217Y-85206998D01*
X194525023Y-85137500D01*
X194556546Y-85075145D01*
X194575842Y-85058425D01*
X194629909Y-85020567D01*
X194761401Y-84928495D01*
X194928495Y-84761401D01*
X195064035Y-84567830D01*
X195163903Y-84353663D01*
X195225063Y-84125408D01*
X195245659Y-83890000D01*
X195225063Y-83654592D01*
X195163903Y-83426337D01*
X195064035Y-83212171D01*
X195046177Y-83186666D01*
X194928494Y-83018597D01*
X194761402Y-82851506D01*
X194761396Y-82851501D01*
X194575842Y-82721575D01*
X194532217Y-82666998D01*
X194525023Y-82597500D01*
X194556546Y-82535145D01*
X194575842Y-82518425D01*
X194598026Y-82502891D01*
X194761401Y-82388495D01*
X194928495Y-82221401D01*
X195064035Y-82027830D01*
X195163903Y-81813663D01*
X195225063Y-81585408D01*
X195245659Y-81350000D01*
X195225063Y-81114592D01*
X195163903Y-80886337D01*
X195064035Y-80672171D01*
X194928495Y-80478599D01*
X194928494Y-80478597D01*
X194761402Y-80311506D01*
X194761396Y-80311501D01*
X194575842Y-80181575D01*
X194532217Y-80126998D01*
X194525023Y-80057500D01*
X194556546Y-79995145D01*
X194575842Y-79978425D01*
X194699922Y-79891543D01*
X194761401Y-79848495D01*
X194928495Y-79681401D01*
X195064035Y-79487830D01*
X195163903Y-79273663D01*
X195225063Y-79045408D01*
X195245659Y-78810000D01*
X195225063Y-78574592D01*
X195163903Y-78346337D01*
X195064035Y-78132171D01*
X195046177Y-78106666D01*
X194928494Y-77938597D01*
X194761402Y-77771506D01*
X194761396Y-77771501D01*
X194575842Y-77641575D01*
X194532217Y-77586998D01*
X194525023Y-77517500D01*
X194556546Y-77455145D01*
X194575842Y-77438425D01*
X194654441Y-77383389D01*
X194761401Y-77308495D01*
X194928495Y-77141401D01*
X195058425Y-76955842D01*
X195113002Y-76912217D01*
X195182500Y-76905023D01*
X195244855Y-76936546D01*
X195261575Y-76955842D01*
X195391500Y-77141395D01*
X195391505Y-77141401D01*
X195558599Y-77308495D01*
X195655384Y-77376265D01*
X195752165Y-77444032D01*
X195752167Y-77444033D01*
X195752170Y-77444035D01*
X195966337Y-77543903D01*
X196194592Y-77605063D01*
X196371034Y-77620500D01*
X196429999Y-77625659D01*
X196430000Y-77625659D01*
X196430001Y-77625659D01*
X196488966Y-77620500D01*
X196665408Y-77605063D01*
X196893663Y-77543903D01*
X197107830Y-77444035D01*
X197301401Y-77308495D01*
X197468495Y-77141401D01*
X197598425Y-76955842D01*
X197653002Y-76912217D01*
X197722500Y-76905023D01*
X197784855Y-76936546D01*
X197801575Y-76955842D01*
X197931500Y-77141395D01*
X197931505Y-77141401D01*
X198098599Y-77308495D01*
X198195384Y-77376265D01*
X198292165Y-77444032D01*
X198292167Y-77444033D01*
X198292170Y-77444035D01*
X198506337Y-77543903D01*
X198734592Y-77605063D01*
X198911034Y-77620500D01*
X198969999Y-77625659D01*
X198970000Y-77625659D01*
X198970001Y-77625659D01*
X199028966Y-77620500D01*
X199205408Y-77605063D01*
X199433663Y-77543903D01*
X199647830Y-77444035D01*
X199841401Y-77308495D01*
X200008495Y-77141401D01*
X200138425Y-76955842D01*
X200193002Y-76912217D01*
X200262500Y-76905023D01*
X200324855Y-76936546D01*
X200341575Y-76955842D01*
X200471500Y-77141395D01*
X200471505Y-77141401D01*
X200638599Y-77308495D01*
X200735384Y-77376265D01*
X200832165Y-77444032D01*
X200832167Y-77444033D01*
X200832170Y-77444035D01*
X201046337Y-77543903D01*
X201274592Y-77605063D01*
X201451034Y-77620500D01*
X201509999Y-77625659D01*
X201510000Y-77625659D01*
X201510001Y-77625659D01*
X201568966Y-77620500D01*
X201745408Y-77605063D01*
X201973663Y-77543903D01*
X202187830Y-77444035D01*
X202381401Y-77308495D01*
X202548495Y-77141401D01*
X202678425Y-76955842D01*
X202733002Y-76912217D01*
X202802500Y-76905023D01*
X202864855Y-76936546D01*
X202881575Y-76955842D01*
X203011500Y-77141395D01*
X203011505Y-77141401D01*
X203178599Y-77308495D01*
X203275384Y-77376265D01*
X203372165Y-77444032D01*
X203372167Y-77444033D01*
X203372170Y-77444035D01*
X203586337Y-77543903D01*
X203814592Y-77605063D01*
X203991034Y-77620500D01*
X204049999Y-77625659D01*
X204050000Y-77625659D01*
X204050001Y-77625659D01*
X204108966Y-77620500D01*
X204285408Y-77605063D01*
X204513663Y-77543903D01*
X204727830Y-77444035D01*
X204921401Y-77308495D01*
X205088495Y-77141401D01*
X205218425Y-76955842D01*
X205273002Y-76912217D01*
X205342500Y-76905023D01*
X205404855Y-76936546D01*
X205421575Y-76955842D01*
X205551500Y-77141395D01*
X205551505Y-77141401D01*
X205718599Y-77308495D01*
X205815384Y-77376265D01*
X205912165Y-77444032D01*
X205912167Y-77444033D01*
X205912170Y-77444035D01*
X206126337Y-77543903D01*
X206354592Y-77605063D01*
X206531034Y-77620500D01*
X206589999Y-77625659D01*
X206590000Y-77625659D01*
X206590001Y-77625659D01*
X206648966Y-77620500D01*
X206825408Y-77605063D01*
X207053663Y-77543903D01*
X207267830Y-77444035D01*
X207461401Y-77308495D01*
X207628495Y-77141401D01*
X207758425Y-76955842D01*
X207813002Y-76912217D01*
X207882500Y-76905023D01*
X207944855Y-76936546D01*
G37*
%TD.AperFunction*%
%TA.AperFunction,Conductor*%
G36*
X178900000Y-77600633D02*
G01*
X179113483Y-77543433D01*
X179113492Y-77543430D01*
X179314490Y-77449702D01*
X179383567Y-77439210D01*
X179447351Y-77467729D01*
X179485591Y-77526206D01*
X179486146Y-77596073D01*
X179454576Y-77649765D01*
X178737680Y-78366662D01*
X178676357Y-78400147D01*
X178606666Y-78395163D01*
X178562318Y-78366662D01*
X177845420Y-77649764D01*
X177811935Y-77588441D01*
X177816919Y-77518749D01*
X177858791Y-77462816D01*
X177924255Y-77438399D01*
X177985506Y-77449701D01*
X178186507Y-77543429D01*
X178186516Y-77543433D01*
X178400000Y-77600634D01*
X178400000Y-76703012D01*
X178457007Y-76735925D01*
X178584174Y-76770000D01*
X178715826Y-76770000D01*
X178842993Y-76735925D01*
X178900000Y-76703012D01*
X178900000Y-77600633D01*
G37*
%TD.AperFunction*%
%TD*%
M02*
