%TF.GenerationSoftware,KiCad,Pcbnew,8.0.3*%
%TF.CreationDate,2026-01-07T23:34:00+01:00*%
%TF.ProjectId,VintageRadio,56696e74-6167-4655-9261-64696f2e6b69,rev?*%
%TF.SameCoordinates,Original*%
%TF.FileFunction,Soldermask,Top*%
%TF.FilePolarity,Negative*%
%FSLAX46Y46*%
G04 Gerber Fmt 4.6, Leading zero omitted, Abs format (unit mm)*
G04 Created by KiCad (PCBNEW 8.0.3) date 2026-01-07 23:34:00*
%MOMM*%
%LPD*%
G01*
G04 APERTURE LIST*
%ADD10O,1.700000X1.700000*%
%ADD11R,1.700000X1.700000*%
%ADD12C,2.000000*%
%ADD13C,1.700000*%
%ADD14C,1.600000*%
%ADD15O,1.600000X1.600000*%
G04 APERTURE END LIST*
D10*
%TO.C,J1*%
X160870000Y-78810000D03*
X160870000Y-81350000D03*
X160870000Y-83890000D03*
X160870000Y-86430000D03*
D11*
X160870000Y-88970000D03*
%TD*%
D12*
%TO.C,H3*%
X152000000Y-98200000D03*
%TD*%
D13*
%TO.C,J10*%
X196430000Y-76270000D03*
D10*
X198970000Y-76270000D03*
X201510000Y-76270000D03*
X204050000Y-76270000D03*
X206590000Y-76270000D03*
%TD*%
D11*
%TO.C,J6*%
X178650000Y-96590000D03*
D10*
X181190000Y-96590000D03*
%TD*%
D14*
%TO.C,R4*%
X214210000Y-58490000D03*
D15*
X214210000Y-68650000D03*
%TD*%
D12*
%TO.C,H1*%
X152000000Y-51800000D03*
%TD*%
%TO.C,H4*%
X218000000Y-98200000D03*
%TD*%
D11*
%TO.C,J8*%
X193890000Y-96590000D03*
D10*
X193890000Y-94050000D03*
X193890000Y-91510000D03*
X193890000Y-88970000D03*
X193890000Y-86430000D03*
X193890000Y-83890000D03*
X193890000Y-81350000D03*
X193890000Y-78810000D03*
X193890000Y-76270000D03*
%TD*%
D11*
%TO.C,J5*%
X176110000Y-76270000D03*
D10*
X178650000Y-76270000D03*
X181190000Y-76270000D03*
%TD*%
D11*
%TO.C,J3*%
X165950000Y-96590000D03*
D10*
X168490000Y-96590000D03*
%TD*%
D13*
%TO.C,J13*%
X191350000Y-71190000D03*
D10*
X193890000Y-71190000D03*
X196430000Y-71190000D03*
X198970000Y-71190000D03*
X201510000Y-71190000D03*
X204050000Y-71190000D03*
X206590000Y-71190000D03*
X209130000Y-71190000D03*
%TD*%
D11*
%TO.C,J2*%
X165950000Y-76270000D03*
D10*
X168490000Y-76270000D03*
%TD*%
D15*
%TO.C,R7*%
X188810000Y-94050000D03*
D14*
X188810000Y-83890000D03*
%TD*%
D10*
%TO.C,J9*%
X176110000Y-55925000D03*
D11*
X173570000Y-55925000D03*
%TD*%
D14*
%TO.C,C2*%
X214210000Y-96590000D03*
X214210000Y-94090000D03*
%TD*%
D11*
%TO.C,J7*%
X181190000Y-55950000D03*
D10*
X183730000Y-55950000D03*
%TD*%
D14*
%TO.C,R5*%
X214210000Y-86430000D03*
D15*
X214210000Y-76270000D03*
%TD*%
D14*
%TO.C,R6*%
X168490000Y-61030000D03*
D15*
X168490000Y-71190000D03*
%TD*%
%TO.C,R2*%
X186270000Y-61030000D03*
D14*
X176110000Y-61030000D03*
%TD*%
D15*
%TO.C,R3*%
X186270000Y-63570000D03*
D14*
X176110000Y-63570000D03*
%TD*%
D12*
%TO.C,H2*%
X218000000Y-51800000D03*
%TD*%
D14*
%TO.C,C1*%
X176110000Y-71190000D03*
X173610000Y-71190000D03*
%TD*%
D10*
%TO.C,J12*%
X191350000Y-53410000D03*
X193890000Y-53410000D03*
X196430000Y-53410000D03*
X198970000Y-53410000D03*
X201510000Y-53410000D03*
X204050000Y-53410000D03*
X206590000Y-53410000D03*
D11*
X209130000Y-53410000D03*
%TD*%
D15*
%TO.C,R1*%
X188810000Y-66110000D03*
D14*
X178650000Y-66110000D03*
%TD*%
D13*
%TO.C,J11*%
X209130000Y-76270000D03*
D10*
X209130000Y-78810000D03*
X209130000Y-81350000D03*
X209130000Y-83890000D03*
X209130000Y-86430000D03*
X209130000Y-88970000D03*
X209130000Y-91510000D03*
X209130000Y-94050000D03*
X209130000Y-96590000D03*
%TD*%
%TO.C,J4*%
X167865000Y-55925000D03*
X165325000Y-55925000D03*
X162785000Y-55925000D03*
D11*
X160245000Y-55925000D03*
%TD*%
M02*
