M48
; DRILL file {KiCad 8.0.3} date 2026-01-09T14:43:22+0100
; FORMAT={-:-/ absolute / metric / decimal}
; #@! TF.CreationDate,2026-01-09T14:43:22+01:00
; #@! TF.GenerationSoftware,Kicad,Pcbnew,8.0.3
; #@! TF.FileFunction,Plated,1,2,PTH
FMAT,2
METRIC
; #@! TA.AperFunction,Plated,PTH,ComponentDrill
T1C0.800
; #@! TA.AperFunction,Plated,PTH,ComponentDrill
T2C1.000
%
G90
G05
T1
X155.79Y-76.27
X155.79Y-86.43
X158.33Y-76.27
X158.33Y-86.43
X160.87Y-55.99
X160.87Y-58.49
X168.49Y-73.73
X178.65Y-73.73
X188.81Y-73.73
X188.81Y-83.89
X193.89Y-58.49
X193.89Y-66.11
X204.05Y-58.49
X204.05Y-66.11
X206.59Y-66.11
X214.21Y-94.09
X214.21Y-96.59
X216.75Y-66.11
T2
X155.79Y-58.49
X155.79Y-61.03
X155.79Y-63.57
X155.79Y-66.11
X155.79Y-68.65
X163.41Y-78.81
X163.41Y-81.35
X163.41Y-83.89
X163.41Y-86.43
X163.41Y-88.97
X163.41Y-91.51
X163.41Y-94.05
X163.41Y-96.59
X165.95Y-53.43
X165.95Y-55.97
X165.95Y-58.51
X165.95Y-66.13
X165.95Y-68.67
X181.19Y-78.81
X181.19Y-81.35
X181.19Y-83.89
X181.19Y-86.43
X181.19Y-88.97
X181.19Y-91.51
X181.19Y-94.05
X181.19Y-96.59
X186.27Y-53.43
X186.27Y-55.97
X186.27Y-66.13
X186.27Y-68.67
X188.81Y-91.51
X188.81Y-94.05
X191.37Y-53.43
X193.89Y-76.27
X193.89Y-78.81
X193.89Y-81.35
X193.89Y-83.89
X193.89Y-86.43
X193.89Y-88.97
X193.89Y-91.51
X193.89Y-94.05
X193.89Y-96.59
X193.91Y-53.43
X196.43Y-76.27
X196.45Y-53.43
X198.97Y-76.27
X198.99Y-53.43
X201.51Y-76.27
X204.05Y-76.27
X206.59Y-53.41
X206.59Y-76.27
X209.13Y-53.41
X209.13Y-76.27
X209.13Y-78.81
X209.13Y-81.35
X209.13Y-83.89
X209.13Y-86.43
X209.13Y-88.97
X209.13Y-91.51
X209.13Y-94.05
X209.13Y-96.59
M30
