M48
; DRILL file {KiCad 8.0.3} date 2026-01-07T23:34:13+0100
; FORMAT={-:-/ absolute / metric / decimal}
; #@! TF.CreationDate,2026-01-07T23:34:13+01:00
; #@! TF.GenerationSoftware,Kicad,Pcbnew,8.0.3
; #@! TF.FileFunction,Plated,1,2,PTH
FMAT,2
METRIC
; #@! TA.AperFunction,Plated,PTH,ComponentDrill
T1C0.800
; #@! TA.AperFunction,Plated,PTH,ComponentDrill
T2C1.000
%
G90
G05
T1
X168.49Y-61.03
X168.49Y-71.19
X173.61Y-71.19
X176.11Y-61.03
X176.11Y-63.57
X176.11Y-71.19
X178.65Y-66.11
X186.27Y-61.03
X186.27Y-63.57
X188.81Y-66.11
X188.81Y-83.89
X188.81Y-94.05
X214.21Y-58.49
X214.21Y-68.65
X214.21Y-76.27
X214.21Y-86.43
X214.21Y-94.09
X214.21Y-96.59
T2
X160.245Y-55.925
X160.87Y-78.81
X160.87Y-81.35
X160.87Y-83.89
X160.87Y-86.43
X160.87Y-88.97
X162.785Y-55.925
X165.325Y-55.925
X165.95Y-76.27
X165.95Y-96.59
X167.865Y-55.925
X168.49Y-76.27
X168.49Y-96.59
X173.57Y-55.925
X176.11Y-55.925
X176.11Y-76.27
X178.65Y-76.27
X178.65Y-96.59
X181.19Y-55.95
X181.19Y-76.27
X181.19Y-96.59
X183.73Y-55.95
X191.35Y-53.41
X191.35Y-71.19
X193.89Y-53.41
X193.89Y-71.19
X193.89Y-76.27
X193.89Y-78.81
X193.89Y-81.35
X193.89Y-83.89
X193.89Y-86.43
X193.89Y-88.97
X193.89Y-91.51
X193.89Y-94.05
X193.89Y-96.59
X196.43Y-53.41
X196.43Y-71.19
X196.43Y-76.27
X198.97Y-53.41
X198.97Y-71.19
X198.97Y-76.27
X201.51Y-53.41
X201.51Y-71.19
X201.51Y-76.27
X204.05Y-53.41
X204.05Y-71.19
X204.05Y-76.27
X206.59Y-53.41
X206.59Y-71.19
X206.59Y-76.27
X209.13Y-53.41
X209.13Y-71.19
X209.13Y-76.27
X209.13Y-78.81
X209.13Y-81.35
X209.13Y-83.89
X209.13Y-86.43
X209.13Y-88.97
X209.13Y-91.51
X209.13Y-94.05
X209.13Y-96.59
M30
