%TF.GenerationSoftware,KiCad,Pcbnew,8.0.3*%
%TF.CreationDate,2026-01-09T14:43:18+01:00*%
%TF.ProjectId,VintageRadio,56696e74-6167-4655-9261-64696f2e6b69,rev?*%
%TF.SameCoordinates,Original*%
%TF.FileFunction,Copper,L2,Bot*%
%TF.FilePolarity,Positive*%
%FSLAX46Y46*%
G04 Gerber Fmt 4.6, Leading zero omitted, Abs format (unit mm)*
G04 Created by KiCad (PCBNEW 8.0.3) date 2026-01-09 14:43:18*
%MOMM*%
%LPD*%
G01*
G04 APERTURE LIST*
%TA.AperFunction,ComponentPad*%
%ADD10R,1.700000X1.700000*%
%TD*%
%TA.AperFunction,ComponentPad*%
%ADD11O,1.700000X1.700000*%
%TD*%
%TA.AperFunction,ComponentPad*%
%ADD12C,1.700000*%
%TD*%
%TA.AperFunction,ComponentPad*%
%ADD13O,1.600000X1.600000*%
%TD*%
%TA.AperFunction,ComponentPad*%
%ADD14C,1.600000*%
%TD*%
%TA.AperFunction,Conductor*%
%ADD15C,0.400000*%
%TD*%
G04 APERTURE END LIST*
D10*
%TO.P,J7,1,Pin_1*%
%TO.N,Net-(J7-Pin_1)*%
X188810000Y-91510000D03*
D11*
%TO.P,J7,2,Pin_2*%
%TO.N,GND*%
X188810000Y-94050000D03*
%TD*%
%TO.P,J9,2,Pin_2*%
%TO.N,GND*%
X209130000Y-53410000D03*
D10*
%TO.P,J9,1,Pin_1*%
%TO.N,Net-(J9-Pin_1)*%
X206590000Y-53410000D03*
%TD*%
%TO.P,J1,1,Pin_1*%
%TO.N,Net-(J1-Pin_1)*%
X155790000Y-68650000D03*
D11*
%TO.P,J1,2,Pin_2*%
%TO.N,Net-(J1-Pin_2)*%
X155790000Y-66110000D03*
%TO.P,J1,3,Pin_3*%
%TO.N,Net-(J1-Pin_3)*%
X155790000Y-63570000D03*
%TO.P,J1,4,Pin_4*%
%TO.N,GND*%
X155790000Y-61030000D03*
%TO.P,J1,5,Pin_5*%
%TO.N,VCC*%
X155790000Y-58490000D03*
%TD*%
D12*
%TO.P,J10,1,Pin_1*%
%TO.N,unconnected-(J10-Pin_1-Pad1)*%
X196430000Y-76270000D03*
D11*
%TO.P,J10,2,Pin_2*%
%TO.N,unconnected-(J10-Pin_2-Pad2)*%
X198970000Y-76270000D03*
%TO.P,J10,3,Pin_3*%
%TO.N,unconnected-(J10-Pin_3-Pad3)*%
X201510000Y-76270000D03*
%TO.P,J10,4,Pin_4*%
%TO.N,unconnected-(J10-Pin_4-Pad4)*%
X204050000Y-76270000D03*
%TO.P,J10,5,Pin_5*%
%TO.N,unconnected-(J10-Pin_5-Pad5)*%
X206590000Y-76270000D03*
%TD*%
D13*
%TO.P,R4,2*%
%TO.N,Net-(J11-Pin_1)*%
X204050000Y-66110000D03*
D14*
%TO.P,R4,1*%
%TO.N,VCC*%
X193890000Y-66110000D03*
%TD*%
D10*
%TO.P,J8,1,Pin_1*%
%TO.N,Net-(J8-Pin_1)*%
X193890000Y-96590000D03*
D11*
%TO.P,J8,2,Pin_2*%
%TO.N,unconnected-(J8-Pin_2-Pad2)*%
X193890000Y-94050000D03*
%TO.P,J8,3,Pin_3*%
%TO.N,Net-(J7-Pin_1)*%
X193890000Y-91510000D03*
%TO.P,J8,4,Pin_4*%
%TO.N,Net-(J8-Pin_4)*%
X193890000Y-88970000D03*
%TO.P,J8,5,Pin_5*%
%TO.N,unconnected-(J8-Pin_5-Pad5)*%
X193890000Y-86430000D03*
%TO.P,J8,6,Pin_6*%
%TO.N,unconnected-(J8-Pin_6-Pad6)*%
X193890000Y-83890000D03*
%TO.P,J8,7,Pin_7*%
%TO.N,unconnected-(J8-Pin_7-Pad7)*%
X193890000Y-81350000D03*
%TO.P,J8,8,Pin_8*%
%TO.N,unconnected-(J8-Pin_8-Pad8)*%
X193890000Y-78810000D03*
%TO.P,J8,9,Pin_9*%
%TO.N,unconnected-(J8-Pin_9-Pad9)*%
X193890000Y-76270000D03*
%TD*%
D14*
%TO.P,C2,1*%
%TO.N,Net-(J1-Pin_1)*%
X214210000Y-96590000D03*
%TO.P,C2,2*%
%TO.N,GND*%
X214210000Y-94090000D03*
%TD*%
%TO.P,R6,1*%
%TO.N,VCC*%
X193890000Y-58490000D03*
D13*
%TO.P,R6,2*%
%TO.N,Net-(J9-Pin_1)*%
X204050000Y-58490000D03*
%TD*%
D14*
%TO.P,C1,1*%
%TO.N,Net-(J1-Pin_3)*%
X160870000Y-58490000D03*
%TO.P,C1,2*%
%TO.N,GND*%
X160870000Y-55990000D03*
%TD*%
%TO.P,R1,1*%
%TO.N,Net-(J1-Pin_2)*%
X188810000Y-73730000D03*
D13*
%TO.P,R1,2*%
%TO.N,Net-(J8-Pin_4)*%
X188810000Y-83890000D03*
%TD*%
D12*
%TO.P,J11,1,Pin_1*%
%TO.N,Net-(J11-Pin_1)*%
X209130000Y-76270000D03*
D11*
%TO.P,J11,2,Pin_2*%
%TO.N,Net-(J11-Pin_2)*%
X209130000Y-78810000D03*
%TO.P,J11,3,Pin_3*%
%TO.N,unconnected-(J11-Pin_3-Pad3)*%
X209130000Y-81350000D03*
%TO.P,J11,4,Pin_4*%
%TO.N,unconnected-(J11-Pin_4-Pad4)*%
X209130000Y-83890000D03*
%TO.P,J11,5,Pin_5*%
%TO.N,unconnected-(J11-Pin_5-Pad5)*%
X209130000Y-86430000D03*
%TO.P,J11,6,Pin_6*%
%TO.N,unconnected-(J11-Pin_6-Pad6)*%
X209130000Y-88970000D03*
%TO.P,J11,7,Pin_7*%
%TO.N,unconnected-(J11-Pin_7-Pad7)*%
X209130000Y-91510000D03*
%TO.P,J11,8,Pin_8*%
%TO.N,GND*%
X209130000Y-94050000D03*
%TO.P,J11,9,Pin_9*%
%TO.N,Net-(J1-Pin_1)*%
X209130000Y-96590000D03*
%TD*%
D10*
%TO.P,J4,1,Pin_1*%
%TO.N,Net-(J3-Pin_1)*%
X198990000Y-53430000D03*
D11*
%TO.P,J4,2,Pin_2*%
%TO.N,Net-(J3-Pin_2)*%
X196450000Y-53430000D03*
%TO.P,J4,3,Pin_3*%
%TO.N,Net-(J4-Pin_3)*%
X193910000Y-53430000D03*
%TO.P,J4,4,Pin_4*%
%TO.N,Net-(J4-Pin_4)*%
X191370000Y-53430000D03*
%TD*%
D13*
%TO.P,R7,2*%
%TO.N,Net-(J8-Pin_1)*%
X178650000Y-73730000D03*
D14*
%TO.P,R7,1*%
%TO.N,Net-(J12-Pin_2)*%
X168490000Y-73730000D03*
%TD*%
%TO.P,R2,1*%
%TO.N,Net-(J1-Pin_2)*%
X155790000Y-76270000D03*
D13*
%TO.P,R2,2*%
%TO.N,Net-(J12-Pin_5)*%
X155790000Y-86430000D03*
%TD*%
D11*
%TO.P,J3,2,Pin_2*%
%TO.N,Net-(J3-Pin_2)*%
X186270000Y-66130000D03*
D10*
%TO.P,J3,1,Pin_1*%
%TO.N,Net-(J3-Pin_1)*%
X186270000Y-68670000D03*
%TD*%
D11*
%TO.P,J2,2,Pin_2*%
%TO.N,VCC*%
X165950000Y-66130000D03*
D10*
%TO.P,J2,1,Pin_1*%
%TO.N,GND*%
X165950000Y-68670000D03*
%TD*%
D11*
%TO.P,J5,3,Pin_3*%
%TO.N,Net-(J1-Pin_3)*%
X165950000Y-53430000D03*
%TO.P,J5,2,Pin_2*%
%TO.N,GND*%
X165950000Y-55970000D03*
D10*
%TO.P,J5,1,Pin_1*%
%TO.N,Net-(J1-Pin_3)*%
X165950000Y-58510000D03*
%TD*%
D11*
%TO.P,J6,2,Pin_2*%
%TO.N,Net-(J4-Pin_4)*%
X186270000Y-53430000D03*
D10*
%TO.P,J6,1,Pin_1*%
%TO.N,Net-(J4-Pin_3)*%
X186270000Y-55970000D03*
%TD*%
D13*
%TO.P,R5,2*%
%TO.N,Net-(J11-Pin_1)*%
X206590000Y-66110000D03*
D14*
%TO.P,R5,1*%
%TO.N,GND*%
X216750000Y-66110000D03*
%TD*%
D11*
%TO.P,J13,8,Pin_8*%
%TO.N,Net-(J11-Pin_2)*%
X181190000Y-78810000D03*
%TO.P,J13,7,Pin_7*%
%TO.N,unconnected-(J13-Pin_7-Pad7)*%
X181190000Y-81350000D03*
%TO.P,J13,6,Pin_6*%
%TO.N,unconnected-(J13-Pin_6-Pad6)*%
X181190000Y-83890000D03*
%TO.P,J13,5,Pin_5*%
%TO.N,unconnected-(J13-Pin_5-Pad5)*%
X181190000Y-86430000D03*
%TO.P,J13,4,Pin_4*%
%TO.N,unconnected-(J13-Pin_4-Pad4)*%
X181190000Y-88970000D03*
%TO.P,J13,3,Pin_3*%
%TO.N,unconnected-(J13-Pin_3-Pad3)*%
X181190000Y-91510000D03*
%TO.P,J13,2,Pin_2*%
%TO.N,GND*%
X181190000Y-94050000D03*
D12*
%TO.P,J13,1,Pin_1*%
%TO.N,unconnected-(J13-Pin_1-Pad1)*%
X181190000Y-96590000D03*
%TD*%
D11*
%TO.P,J12,8,Pin_8*%
%TO.N,unconnected-(J12-Pin_8-Pad8)*%
X163410000Y-96590000D03*
%TO.P,J12,7,Pin_7*%
%TO.N,GND*%
X163410000Y-94050000D03*
%TO.P,J12,6,Pin_6*%
%TO.N,unconnected-(J12-Pin_6-Pad6)*%
X163410000Y-91510000D03*
%TO.P,J12,5,Pin_5*%
%TO.N,Net-(J12-Pin_5)*%
X163410000Y-88970000D03*
%TO.P,J12,4,Pin_4*%
%TO.N,Net-(J12-Pin_4)*%
X163410000Y-86430000D03*
%TO.P,J12,3,Pin_3*%
%TO.N,unconnected-(J12-Pin_3-Pad3)*%
X163410000Y-83890000D03*
%TO.P,J12,2,Pin_2*%
%TO.N,Net-(J12-Pin_2)*%
X163410000Y-81350000D03*
D10*
%TO.P,J12,1,Pin_1*%
%TO.N,VCC*%
X163410000Y-78810000D03*
%TD*%
D14*
%TO.P,R3,1*%
%TO.N,Net-(J1-Pin_2)*%
X158330000Y-76270000D03*
D13*
%TO.P,R3,2*%
%TO.N,Net-(J12-Pin_4)*%
X158330000Y-86430000D03*
%TD*%
D15*
%TO.N,VCC*%
X151980000Y-62300000D02*
X155790000Y-58490000D01*
X159600000Y-82620000D02*
X153250000Y-82620000D01*
X153250000Y-82620000D02*
X151980000Y-81350000D01*
X151980000Y-81350000D02*
X151980000Y-62300000D01*
X163410000Y-78810000D02*
X159600000Y-82620000D01*
%TO.N,Net-(J1-Pin_2)*%
X167220000Y-70555000D02*
X164680000Y-70555000D01*
X169125000Y-68650000D02*
X167220000Y-70555000D01*
X182460000Y-68650000D02*
X169125000Y-68650000D01*
X164680000Y-70555000D02*
X161505000Y-73730000D01*
X187540000Y-73730000D02*
X182460000Y-68650000D01*
X188810000Y-73730000D02*
X187540000Y-73730000D01*
X161505000Y-73730000D02*
X158330000Y-73730000D01*
%TO.N,Net-(J11-Pin_2)*%
X181190000Y-78810000D02*
X179285000Y-78810000D01*
X193890000Y-73730000D02*
X191985000Y-75635000D01*
X197065000Y-73730000D02*
X193890000Y-73730000D01*
X191985000Y-75635000D02*
X191985000Y-76270000D01*
X174840000Y-74365000D02*
X179285000Y-78810000D01*
X174840000Y-72460000D02*
X174840000Y-74365000D01*
X176110000Y-71190000D02*
X174840000Y-72460000D01*
X181190000Y-71190000D02*
X176110000Y-71190000D01*
X188175000Y-78175000D02*
X181190000Y-71190000D01*
X191985000Y-76270000D02*
X190080000Y-78175000D01*
X207860000Y-64205000D02*
X203415000Y-64205000D01*
X203415000Y-64205000D02*
X202145000Y-65475000D01*
X211035000Y-67380000D02*
X207860000Y-64205000D01*
X202145000Y-65475000D02*
X202145000Y-68650000D01*
X190080000Y-78175000D02*
X188175000Y-78175000D01*
X211035000Y-76905000D02*
X211035000Y-67380000D01*
X202145000Y-68650000D02*
X197065000Y-73730000D01*
X209130000Y-78810000D02*
X211035000Y-76905000D01*
%TO.N,Net-(J1-Pin_1)*%
X215480000Y-96590000D02*
X214210000Y-96590000D01*
X216115000Y-90240000D02*
X216115000Y-95955000D01*
X214527500Y-63887500D02*
X214527500Y-88652500D01*
X214527500Y-88652500D02*
X216115000Y-90240000D01*
X211035000Y-60395000D02*
X214527500Y-63887500D01*
X199605000Y-64205000D02*
X203415000Y-60395000D01*
X203415000Y-60395000D02*
X211035000Y-60395000D01*
X199605000Y-68015000D02*
X199605000Y-64205000D01*
X192620000Y-71190000D02*
X196430000Y-71190000D01*
X190715000Y-73095000D02*
X192620000Y-71190000D01*
X189445000Y-75635000D02*
X190715000Y-74365000D01*
X190715000Y-74365000D02*
X190715000Y-73095000D01*
X188175000Y-75635000D02*
X189445000Y-75635000D01*
X216115000Y-95955000D02*
X215480000Y-96590000D01*
X169760000Y-69285000D02*
X181825000Y-69285000D01*
X167855000Y-71190000D02*
X169760000Y-69285000D01*
X165950000Y-71190000D02*
X167855000Y-71190000D01*
X155155000Y-78175000D02*
X158965000Y-78175000D01*
X196430000Y-71190000D02*
X199605000Y-68015000D01*
X154520000Y-77540000D02*
X155155000Y-78175000D01*
X181825000Y-69285000D02*
X188175000Y-75635000D01*
X155790000Y-74365000D02*
X154520000Y-75635000D01*
X154520000Y-75635000D02*
X154520000Y-77540000D01*
X155790000Y-68650000D02*
X155790000Y-74365000D01*
X158965000Y-78175000D02*
X165950000Y-71190000D01*
%TO.N,Net-(J3-Pin_1)*%
X196747500Y-67062500D02*
X195140000Y-68670000D01*
X195140000Y-68670000D02*
X186270000Y-68670000D01*
X197700000Y-54720000D02*
X197700000Y-55950000D01*
X198990000Y-53430000D02*
X197700000Y-54720000D01*
X197700000Y-55950000D02*
X196747500Y-56902500D01*
X196747500Y-56902500D02*
X196747500Y-67062500D01*
%TO.N,Net-(J1-Pin_2)*%
X155790000Y-76270000D02*
X158330000Y-76270000D01*
X158330000Y-73730000D02*
X158330000Y-76270000D01*
%TO.N,Net-(J12-Pin_4)*%
X163410000Y-86430000D02*
X158330000Y-86430000D01*
%TO.N,Net-(J12-Pin_5)*%
X158330000Y-88970000D02*
X155790000Y-86430000D01*
X163410000Y-88970000D02*
X158330000Y-88970000D01*
%TO.N,Net-(J12-Pin_2)*%
X165950000Y-81350000D02*
X163410000Y-81350000D01*
X168490000Y-78810000D02*
X165950000Y-81350000D01*
X168490000Y-73730000D02*
X168490000Y-78810000D01*
%TO.N,Net-(J8-Pin_1)*%
X181190000Y-73730000D02*
X178650000Y-73730000D01*
X186270000Y-96590000D02*
X193890000Y-96590000D01*
X185000000Y-77540000D02*
X185000000Y-95320000D01*
X185000000Y-95320000D02*
X186270000Y-96590000D01*
X181190000Y-73730000D02*
X185000000Y-77540000D01*
%TO.N,Net-(J3-Pin_2)*%
X187540000Y-66110000D02*
X189445000Y-68015000D01*
X189445000Y-68015000D02*
X194525000Y-68015000D01*
X187520000Y-66130000D02*
X187540000Y-66110000D01*
X186270000Y-66130000D02*
X187520000Y-66130000D01*
X195795000Y-55950000D02*
X196450000Y-55295000D01*
X195795000Y-66745000D02*
X195795000Y-55950000D01*
X194525000Y-68015000D02*
X195795000Y-66745000D01*
X196450000Y-55295000D02*
X196450000Y-53430000D01*
%TO.N,Net-(J11-Pin_1)*%
X209130000Y-68650000D02*
X209130000Y-76270000D01*
X206590000Y-66110000D02*
X209130000Y-68650000D01*
X204050000Y-66110000D02*
X206590000Y-66110000D01*
%TO.N,VCC*%
X193890000Y-58490000D02*
X193890000Y-66110000D01*
%TO.N,Net-(J9-Pin_1)*%
X206590000Y-55950000D02*
X206590000Y-53410000D01*
X204050000Y-58490000D02*
X206590000Y-55950000D01*
%TO.N,VCC*%
X177380000Y-58490000D02*
X193890000Y-58490000D01*
%TO.N,Net-(J1-Pin_3)*%
X160870000Y-58490000D02*
X155790000Y-63570000D01*
%TO.N,VCC*%
X169740000Y-66130000D02*
X177380000Y-58490000D01*
X165950000Y-66130000D02*
X169740000Y-66130000D01*
X158965000Y-50870000D02*
X169760000Y-50870000D01*
X155790000Y-54045000D02*
X158965000Y-50870000D01*
X169760000Y-50870000D02*
X177380000Y-58490000D01*
X155790000Y-58490000D02*
X155790000Y-54045000D01*
%TO.N,Net-(J1-Pin_3)*%
X164045000Y-54045000D02*
X164045000Y-58510000D01*
X164660000Y-53430000D02*
X164045000Y-54045000D01*
X165950000Y-53430000D02*
X164660000Y-53430000D01*
X165950000Y-58510000D02*
X164045000Y-58510000D01*
X164045000Y-58510000D02*
X160890000Y-58510000D01*
X160890000Y-58510000D02*
X160870000Y-58490000D01*
%TO.N,Net-(J4-Pin_3)*%
X192005000Y-55335000D02*
X193910000Y-53430000D01*
X186885000Y-55335000D02*
X192005000Y-55335000D01*
X186270000Y-55950000D02*
X186905000Y-55315000D01*
X186270000Y-55970000D02*
X186270000Y-55950000D01*
X186270000Y-55950000D02*
X186885000Y-55335000D01*
%TO.N,Net-(J3-Pin_1)*%
X198950000Y-53430000D02*
X198990000Y-53430000D01*
%TO.N,Net-(J4-Pin_4)*%
X191370000Y-53430000D02*
X186270000Y-53430000D01*
%TO.N,Net-(J8-Pin_4)*%
X191985000Y-87700000D02*
X191985000Y-85160000D01*
X193255000Y-88970000D02*
X191985000Y-87700000D01*
X190715000Y-83890000D02*
X188810000Y-83890000D01*
X191985000Y-85160000D02*
X190715000Y-83890000D01*
X193890000Y-88970000D02*
X193255000Y-88970000D01*
%TO.N,Net-(J1-Pin_2)*%
X158330000Y-73730000D02*
X158330000Y-67380000D01*
X158330000Y-67380000D02*
X157060000Y-66110000D01*
X155790000Y-66110000D02*
X157060000Y-66110000D01*
%TO.N,Net-(J7-Pin_1)*%
X188810000Y-91510000D02*
X193890000Y-91510000D01*
%TO.N,Net-(J1-Pin_1)*%
X209130000Y-96590000D02*
X214210000Y-96590000D01*
%TD*%
%TA.AperFunction,Conductor*%
%TO.N,GND*%
G36*
X157742020Y-50889685D02*
G01*
X157787775Y-50942489D01*
X157797719Y-51011647D01*
X157768694Y-51075203D01*
X157762662Y-51081681D01*
X155245888Y-53598453D01*
X155245887Y-53598454D01*
X155169222Y-53713192D01*
X155116421Y-53840667D01*
X155116418Y-53840679D01*
X155089882Y-53974085D01*
X155089878Y-53974108D01*
X155089501Y-53976001D01*
X155089500Y-53976011D01*
X155089500Y-57267288D01*
X155069815Y-57334327D01*
X155036624Y-57368863D01*
X154918594Y-57451508D01*
X154751505Y-57618597D01*
X154615965Y-57812169D01*
X154615964Y-57812171D01*
X154516098Y-58026335D01*
X154516094Y-58026344D01*
X154454938Y-58254586D01*
X154454936Y-58254596D01*
X154434341Y-58489999D01*
X154434341Y-58490000D01*
X154454937Y-58725409D01*
X154454937Y-58725410D01*
X154459442Y-58742225D01*
X154457776Y-58812075D01*
X154427347Y-58861994D01*
X151435887Y-61853454D01*
X151359222Y-61968192D01*
X151306421Y-62095667D01*
X151306418Y-62095677D01*
X151279500Y-62231004D01*
X151279500Y-62231007D01*
X151279500Y-81281006D01*
X151279500Y-81418994D01*
X151279500Y-81418996D01*
X151279499Y-81418996D01*
X151306418Y-81554322D01*
X151306421Y-81554332D01*
X151359222Y-81681807D01*
X151435887Y-81796545D01*
X152803454Y-83164112D01*
X152918190Y-83240776D01*
X152986873Y-83269225D01*
X153045671Y-83293580D01*
X153045672Y-83293580D01*
X153045677Y-83293582D01*
X153072545Y-83298925D01*
X153072551Y-83298926D01*
X153072591Y-83298934D01*
X153162937Y-83316905D01*
X153181006Y-83320500D01*
X153181007Y-83320500D01*
X159668996Y-83320500D01*
X159777457Y-83298925D01*
X159804328Y-83293580D01*
X159868069Y-83267177D01*
X159931807Y-83240777D01*
X159931808Y-83240776D01*
X159931811Y-83240775D01*
X160046543Y-83164114D01*
X161850728Y-81359927D01*
X161912049Y-81326444D01*
X161981740Y-81331428D01*
X162037674Y-81373299D01*
X162061935Y-81436802D01*
X162074936Y-81585403D01*
X162074938Y-81585413D01*
X162136094Y-81813655D01*
X162136096Y-81813659D01*
X162136097Y-81813663D01*
X162185450Y-81919500D01*
X162235965Y-82027830D01*
X162235967Y-82027834D01*
X162371501Y-82221395D01*
X162371506Y-82221402D01*
X162538597Y-82388493D01*
X162538603Y-82388498D01*
X162724158Y-82518425D01*
X162767783Y-82573002D01*
X162774977Y-82642500D01*
X162743454Y-82704855D01*
X162724158Y-82721575D01*
X162538597Y-82851505D01*
X162371505Y-83018597D01*
X162235965Y-83212169D01*
X162235964Y-83212171D01*
X162136098Y-83426335D01*
X162136094Y-83426344D01*
X162074938Y-83654586D01*
X162074936Y-83654596D01*
X162054341Y-83889999D01*
X162054341Y-83890000D01*
X162074936Y-84125403D01*
X162074938Y-84125413D01*
X162136094Y-84353655D01*
X162136096Y-84353659D01*
X162136097Y-84353663D01*
X162224262Y-84542732D01*
X162235965Y-84567830D01*
X162235967Y-84567834D01*
X162323989Y-84693541D01*
X162371499Y-84761393D01*
X162371501Y-84761395D01*
X162371506Y-84761402D01*
X162538597Y-84928493D01*
X162538603Y-84928498D01*
X162724158Y-85058425D01*
X162767783Y-85113002D01*
X162774977Y-85182500D01*
X162743454Y-85244855D01*
X162724158Y-85261575D01*
X162538597Y-85391505D01*
X162371506Y-85558596D01*
X162288864Y-85676623D01*
X162234287Y-85720248D01*
X162187289Y-85729500D01*
X159491673Y-85729500D01*
X159424634Y-85709815D01*
X159390098Y-85676623D01*
X159330045Y-85590858D01*
X159169141Y-85429954D01*
X158982734Y-85299432D01*
X158982732Y-85299431D01*
X158776497Y-85203261D01*
X158776488Y-85203258D01*
X158556697Y-85144366D01*
X158556693Y-85144365D01*
X158556692Y-85144365D01*
X158556691Y-85144364D01*
X158556686Y-85144364D01*
X158330002Y-85124532D01*
X158329998Y-85124532D01*
X158103313Y-85144364D01*
X158103302Y-85144366D01*
X157883511Y-85203258D01*
X157883502Y-85203261D01*
X157677267Y-85299431D01*
X157677265Y-85299432D01*
X157490858Y-85429954D01*
X157329954Y-85590858D01*
X157199432Y-85777265D01*
X157199431Y-85777267D01*
X157172382Y-85835275D01*
X157126209Y-85887714D01*
X157059016Y-85906866D01*
X156992135Y-85886650D01*
X156947618Y-85835275D01*
X156920568Y-85777267D01*
X156920567Y-85777265D01*
X156790045Y-85590858D01*
X156629141Y-85429954D01*
X156442734Y-85299432D01*
X156442732Y-85299431D01*
X156236497Y-85203261D01*
X156236488Y-85203258D01*
X156016697Y-85144366D01*
X156016693Y-85144365D01*
X156016692Y-85144365D01*
X156016691Y-85144364D01*
X156016686Y-85144364D01*
X155790002Y-85124532D01*
X155789998Y-85124532D01*
X155563313Y-85144364D01*
X155563302Y-85144366D01*
X155343511Y-85203258D01*
X155343502Y-85203261D01*
X155137267Y-85299431D01*
X155137265Y-85299432D01*
X154950858Y-85429954D01*
X154789954Y-85590858D01*
X154659432Y-85777265D01*
X154659431Y-85777267D01*
X154563261Y-85983502D01*
X154563258Y-85983511D01*
X154504366Y-86203302D01*
X154504364Y-86203313D01*
X154484532Y-86429998D01*
X154484532Y-86430001D01*
X154504364Y-86656686D01*
X154504366Y-86656697D01*
X154563258Y-86876488D01*
X154563261Y-86876497D01*
X154659431Y-87082732D01*
X154659432Y-87082734D01*
X154789954Y-87269141D01*
X154950858Y-87430045D01*
X154950861Y-87430047D01*
X155137266Y-87560568D01*
X155343504Y-87656739D01*
X155563308Y-87715635D01*
X155725230Y-87729801D01*
X155789998Y-87735468D01*
X155790000Y-87735468D01*
X155790001Y-87735468D01*
X155808304Y-87733866D01*
X156016692Y-87715635D01*
X156016697Y-87715633D01*
X156021881Y-87715180D01*
X156090381Y-87728946D01*
X156120370Y-87751027D01*
X157090838Y-88721494D01*
X157785886Y-89416542D01*
X157883458Y-89514114D01*
X157883459Y-89514115D01*
X157998184Y-89590772D01*
X157998185Y-89590772D01*
X157998189Y-89590775D01*
X158039248Y-89607782D01*
X158125671Y-89643580D01*
X158140232Y-89646476D01*
X158147011Y-89647825D01*
X158147024Y-89647827D01*
X158147038Y-89647830D01*
X158204022Y-89659165D01*
X158261005Y-89670500D01*
X158261007Y-89670500D01*
X162187289Y-89670500D01*
X162254328Y-89690185D01*
X162288864Y-89723377D01*
X162371505Y-89841402D01*
X162538597Y-90008493D01*
X162538603Y-90008498D01*
X162724158Y-90138425D01*
X162767783Y-90193002D01*
X162774977Y-90262500D01*
X162743454Y-90324855D01*
X162724158Y-90341575D01*
X162538597Y-90471505D01*
X162371505Y-90638597D01*
X162235965Y-90832169D01*
X162235964Y-90832171D01*
X162136098Y-91046335D01*
X162136094Y-91046344D01*
X162074938Y-91274586D01*
X162074936Y-91274596D01*
X162054341Y-91509999D01*
X162054341Y-91510000D01*
X162074936Y-91745403D01*
X162074938Y-91745413D01*
X162136094Y-91973655D01*
X162136096Y-91973659D01*
X162136097Y-91973663D01*
X162235965Y-92187830D01*
X162235967Y-92187834D01*
X162371501Y-92381395D01*
X162371506Y-92381402D01*
X162538597Y-92548493D01*
X162538603Y-92548498D01*
X162724594Y-92678730D01*
X162768219Y-92733307D01*
X162775413Y-92802805D01*
X162743890Y-92865160D01*
X162724595Y-92881880D01*
X162538922Y-93011890D01*
X162538920Y-93011891D01*
X162371891Y-93178920D01*
X162371886Y-93178926D01*
X162236400Y-93372420D01*
X162236399Y-93372422D01*
X162136570Y-93586507D01*
X162136567Y-93586513D01*
X162079364Y-93799999D01*
X162079364Y-93800000D01*
X162976988Y-93800000D01*
X162944075Y-93857007D01*
X162910000Y-93984174D01*
X162910000Y-94115826D01*
X162944075Y-94242993D01*
X162976988Y-94300000D01*
X162079364Y-94300000D01*
X162136567Y-94513486D01*
X162136570Y-94513492D01*
X162236399Y-94727578D01*
X162371894Y-94921082D01*
X162538917Y-95088105D01*
X162724595Y-95218119D01*
X162768219Y-95272696D01*
X162775412Y-95342195D01*
X162743890Y-95404549D01*
X162724595Y-95421269D01*
X162538594Y-95551508D01*
X162371505Y-95718597D01*
X162235965Y-95912169D01*
X162235964Y-95912171D01*
X162136098Y-96126335D01*
X162136094Y-96126344D01*
X162074938Y-96354586D01*
X162074936Y-96354596D01*
X162054341Y-96589999D01*
X162054341Y-96590000D01*
X162074936Y-96825403D01*
X162074938Y-96825413D01*
X162136094Y-97053655D01*
X162136096Y-97053659D01*
X162136097Y-97053663D01*
X162173611Y-97134112D01*
X162235965Y-97267830D01*
X162235967Y-97267834D01*
X162344281Y-97422521D01*
X162371505Y-97461401D01*
X162538599Y-97628495D01*
X162635384Y-97696265D01*
X162732165Y-97764032D01*
X162736856Y-97766740D01*
X162736000Y-97768221D01*
X162782644Y-97809292D01*
X162801795Y-97876486D01*
X162781578Y-97943367D01*
X162728412Y-97988700D01*
X162677799Y-97999500D01*
X152800862Y-97999500D01*
X152733823Y-97979815D01*
X152713181Y-97963181D01*
X150746319Y-95996319D01*
X150712834Y-95934996D01*
X150710000Y-95908638D01*
X150710000Y-53461361D01*
X150729685Y-53394322D01*
X150746314Y-53373685D01*
X151218542Y-52901457D01*
X151279863Y-52867974D01*
X151349555Y-52872958D01*
X151362513Y-52878654D01*
X151376713Y-52885889D01*
X151519970Y-52958882D01*
X151519972Y-52958882D01*
X151519975Y-52958884D01*
X151620317Y-52991487D01*
X151707173Y-53019709D01*
X151901578Y-53050500D01*
X151901583Y-53050500D01*
X152098422Y-53050500D01*
X152292826Y-53019709D01*
X152480025Y-52958884D01*
X152655405Y-52869524D01*
X152814646Y-52753828D01*
X152953828Y-52614646D01*
X153069524Y-52455405D01*
X153158884Y-52280025D01*
X153219709Y-52092826D01*
X153220805Y-52085908D01*
X153250500Y-51898422D01*
X153250500Y-51701577D01*
X153219709Y-51507173D01*
X153158882Y-51319970D01*
X153078655Y-51162516D01*
X153065759Y-51093846D01*
X153092035Y-51029106D01*
X153101442Y-51018557D01*
X153213683Y-50906316D01*
X153275004Y-50872834D01*
X153301362Y-50870000D01*
X157674981Y-50870000D01*
X157742020Y-50889685D01*
G37*
%TD.AperFunction*%
%TA.AperFunction,Conductor*%
G36*
X155324075Y-60837007D02*
G01*
X155290000Y-60964174D01*
X155290000Y-61095826D01*
X155324075Y-61222993D01*
X155356988Y-61280000D01*
X154459364Y-61280000D01*
X154516567Y-61493486D01*
X154516570Y-61493492D01*
X154616399Y-61707578D01*
X154751894Y-61901082D01*
X154918917Y-62068105D01*
X155104595Y-62198119D01*
X155148219Y-62252696D01*
X155155412Y-62322195D01*
X155123890Y-62384549D01*
X155104595Y-62401269D01*
X154918594Y-62531508D01*
X154751505Y-62698597D01*
X154615965Y-62892169D01*
X154615964Y-62892171D01*
X154516098Y-63106335D01*
X154516094Y-63106344D01*
X154454938Y-63334586D01*
X154454936Y-63334596D01*
X154434341Y-63569999D01*
X154434341Y-63570000D01*
X154454936Y-63805403D01*
X154454938Y-63805413D01*
X154516094Y-64033655D01*
X154516096Y-64033659D01*
X154516097Y-64033663D01*
X154563820Y-64136004D01*
X154615965Y-64247830D01*
X154615967Y-64247834D01*
X154751501Y-64441395D01*
X154751506Y-64441402D01*
X154918597Y-64608493D01*
X154918603Y-64608498D01*
X155104158Y-64738425D01*
X155147783Y-64793002D01*
X155154977Y-64862500D01*
X155123454Y-64924855D01*
X155104158Y-64941575D01*
X154918597Y-65071505D01*
X154751505Y-65238597D01*
X154615965Y-65432169D01*
X154615964Y-65432171D01*
X154516098Y-65646335D01*
X154516094Y-65646344D01*
X154454938Y-65874586D01*
X154454936Y-65874596D01*
X154434341Y-66109999D01*
X154434341Y-66110000D01*
X154454936Y-66345403D01*
X154454938Y-66345413D01*
X154516094Y-66573655D01*
X154516096Y-66573659D01*
X154516097Y-66573663D01*
X154562938Y-66674114D01*
X154615965Y-66787830D01*
X154615967Y-66787834D01*
X154709429Y-66921311D01*
X154748430Y-66977010D01*
X154751501Y-66981395D01*
X154751506Y-66981402D01*
X154873430Y-67103326D01*
X154906915Y-67164649D01*
X154901931Y-67234341D01*
X154860059Y-67290274D01*
X154829083Y-67307189D01*
X154697669Y-67356203D01*
X154697664Y-67356206D01*
X154582455Y-67442452D01*
X154582452Y-67442455D01*
X154496206Y-67557664D01*
X154496202Y-67557671D01*
X154445908Y-67692517D01*
X154442433Y-67724843D01*
X154439501Y-67752123D01*
X154439500Y-67752135D01*
X154439500Y-69547870D01*
X154439501Y-69547876D01*
X154445908Y-69607483D01*
X154496202Y-69742328D01*
X154496206Y-69742335D01*
X154582452Y-69857544D01*
X154582455Y-69857547D01*
X154697664Y-69943793D01*
X154697671Y-69943797D01*
X154742618Y-69960561D01*
X154832517Y-69994091D01*
X154892127Y-70000500D01*
X154965500Y-70000499D01*
X155032538Y-70020183D01*
X155078294Y-70072986D01*
X155089500Y-70124499D01*
X155089500Y-74023480D01*
X155069815Y-74090519D01*
X155053181Y-74111161D01*
X153975888Y-75188453D01*
X153975887Y-75188454D01*
X153899222Y-75303192D01*
X153846421Y-75430667D01*
X153846418Y-75430677D01*
X153819500Y-75566004D01*
X153819500Y-75566007D01*
X153819500Y-77471006D01*
X153819500Y-77608994D01*
X153819500Y-77608996D01*
X153819499Y-77608996D01*
X153846418Y-77744322D01*
X153846421Y-77744332D01*
X153899222Y-77871807D01*
X153975887Y-77986545D01*
X154708454Y-78719112D01*
X154823192Y-78795777D01*
X154950667Y-78848578D01*
X154950672Y-78848580D01*
X154950676Y-78848580D01*
X154950677Y-78848581D01*
X155086003Y-78875500D01*
X155086006Y-78875500D01*
X159033996Y-78875500D01*
X159125040Y-78857389D01*
X159169328Y-78848580D01*
X159262471Y-78809999D01*
X159296807Y-78795777D01*
X159296808Y-78795776D01*
X159296811Y-78795775D01*
X159411543Y-78719114D01*
X166203838Y-71926819D01*
X166265161Y-71893334D01*
X166291519Y-71890500D01*
X167923996Y-71890500D01*
X168015040Y-71872389D01*
X168059328Y-71863580D01*
X168123069Y-71837177D01*
X168186807Y-71810777D01*
X168186808Y-71810776D01*
X168186811Y-71810775D01*
X168301543Y-71734114D01*
X170013838Y-70021819D01*
X170075161Y-69988334D01*
X170101519Y-69985500D01*
X181483481Y-69985500D01*
X181550520Y-70005185D01*
X181571162Y-70021819D01*
X187728453Y-76179111D01*
X187728454Y-76179112D01*
X187728457Y-76179114D01*
X187806739Y-76231420D01*
X187843189Y-76255775D01*
X187970672Y-76308580D01*
X187970676Y-76308580D01*
X187970677Y-76308581D01*
X188106004Y-76335500D01*
X188106007Y-76335500D01*
X189513996Y-76335500D01*
X189605040Y-76317389D01*
X189649328Y-76308580D01*
X189742469Y-76270000D01*
X189776807Y-76255777D01*
X189776808Y-76255776D01*
X189776811Y-76255775D01*
X189891543Y-76179114D01*
X191259114Y-74811543D01*
X191335775Y-74696811D01*
X191388580Y-74569329D01*
X191396798Y-74528013D01*
X191413966Y-74441706D01*
X191415500Y-74433994D01*
X191415500Y-73436519D01*
X191435185Y-73369480D01*
X191451819Y-73348838D01*
X192873838Y-71926819D01*
X192935161Y-71893334D01*
X192961519Y-71890500D01*
X196498996Y-71890500D01*
X196590040Y-71872389D01*
X196634328Y-71863580D01*
X196698069Y-71837177D01*
X196761807Y-71810777D01*
X196761808Y-71810776D01*
X196761811Y-71810775D01*
X196876543Y-71734114D01*
X200149114Y-68461543D01*
X200225775Y-68346811D01*
X200237634Y-68318182D01*
X200278578Y-68219332D01*
X200278580Y-68219328D01*
X200301145Y-68105887D01*
X200305500Y-68083996D01*
X200305500Y-64546519D01*
X200325185Y-64479480D01*
X200341819Y-64458838D01*
X203668838Y-61131819D01*
X203730161Y-61098334D01*
X203756519Y-61095500D01*
X210693481Y-61095500D01*
X210760520Y-61115185D01*
X210781162Y-61131819D01*
X213790681Y-64141338D01*
X213824166Y-64202661D01*
X213827000Y-64229019D01*
X213827000Y-88583506D01*
X213827000Y-88721494D01*
X213827000Y-88721496D01*
X213826999Y-88721496D01*
X213853918Y-88856822D01*
X213853921Y-88856832D01*
X213906722Y-88984307D01*
X213983387Y-89099045D01*
X213983388Y-89099046D01*
X215378181Y-90493838D01*
X215411666Y-90555161D01*
X215414500Y-90581519D01*
X215414500Y-93240182D01*
X215394815Y-93307221D01*
X215342011Y-93352976D01*
X215291953Y-93361598D01*
X214610000Y-94043551D01*
X214610000Y-94037339D01*
X214582741Y-93935606D01*
X214530080Y-93844394D01*
X214455606Y-93769920D01*
X214364394Y-93717259D01*
X214262661Y-93690000D01*
X214256448Y-93690000D01*
X214935472Y-93010974D01*
X214862478Y-92959863D01*
X214656331Y-92863735D01*
X214656317Y-92863730D01*
X214436610Y-92804860D01*
X214436599Y-92804858D01*
X214210002Y-92785034D01*
X214209998Y-92785034D01*
X213983400Y-92804858D01*
X213983389Y-92804860D01*
X213763682Y-92863730D01*
X213763673Y-92863734D01*
X213557516Y-92959866D01*
X213557512Y-92959868D01*
X213484526Y-93010973D01*
X213484526Y-93010974D01*
X214163553Y-93690000D01*
X214157339Y-93690000D01*
X214055606Y-93717259D01*
X213964394Y-93769920D01*
X213889920Y-93844394D01*
X213837259Y-93935606D01*
X213810000Y-94037339D01*
X213810000Y-94043552D01*
X213130974Y-93364526D01*
X213130973Y-93364526D01*
X213079868Y-93437512D01*
X213079866Y-93437516D01*
X212983734Y-93643673D01*
X212983730Y-93643682D01*
X212924860Y-93863389D01*
X212924858Y-93863400D01*
X212905034Y-94089997D01*
X212905034Y-94090002D01*
X212924858Y-94316599D01*
X212924860Y-94316610D01*
X212983730Y-94536317D01*
X212983735Y-94536331D01*
X213079863Y-94742478D01*
X213130974Y-94815472D01*
X213810000Y-94136446D01*
X213810000Y-94142661D01*
X213837259Y-94244394D01*
X213889920Y-94335606D01*
X213964394Y-94410080D01*
X214055606Y-94462741D01*
X214157339Y-94490000D01*
X214163553Y-94490000D01*
X213484526Y-95169025D01*
X213557513Y-95220132D01*
X213557515Y-95220133D01*
X213572973Y-95227341D01*
X213625413Y-95273513D01*
X213644566Y-95340706D01*
X213624351Y-95407587D01*
X213572979Y-95452104D01*
X213557270Y-95459429D01*
X213557265Y-95459432D01*
X213370858Y-95589954D01*
X213209954Y-95750858D01*
X213149902Y-95836623D01*
X213095325Y-95880248D01*
X213048327Y-95889500D01*
X210352711Y-95889500D01*
X210285672Y-95869815D01*
X210251136Y-95836623D01*
X210248276Y-95832539D01*
X210202066Y-95766543D01*
X210168494Y-95718597D01*
X210001402Y-95551506D01*
X210001401Y-95551505D01*
X209815405Y-95421269D01*
X209771781Y-95366692D01*
X209764588Y-95297193D01*
X209796110Y-95234839D01*
X209815405Y-95218119D01*
X210001082Y-95088105D01*
X210168105Y-94921082D01*
X210303600Y-94727578D01*
X210403429Y-94513492D01*
X210403432Y-94513486D01*
X210460636Y-94300000D01*
X209563012Y-94300000D01*
X209595925Y-94242993D01*
X209630000Y-94115826D01*
X209630000Y-93984174D01*
X209595925Y-93857007D01*
X209563012Y-93800000D01*
X210460636Y-93800000D01*
X210460635Y-93799999D01*
X210403432Y-93586513D01*
X210403429Y-93586507D01*
X210303600Y-93372422D01*
X210303599Y-93372420D01*
X210168113Y-93178926D01*
X210168108Y-93178920D01*
X210001078Y-93011890D01*
X209815405Y-92881879D01*
X209771780Y-92827302D01*
X209764588Y-92757804D01*
X209796110Y-92695449D01*
X209815406Y-92678730D01*
X209815842Y-92678425D01*
X210001401Y-92548495D01*
X210168495Y-92381401D01*
X210304035Y-92187830D01*
X210403903Y-91973663D01*
X210465063Y-91745408D01*
X210485659Y-91510000D01*
X210465063Y-91274592D01*
X210403903Y-91046337D01*
X210304035Y-90832171D01*
X210281683Y-90800248D01*
X210168494Y-90638597D01*
X210001402Y-90471506D01*
X210001396Y-90471501D01*
X209815842Y-90341575D01*
X209772217Y-90286998D01*
X209765023Y-90217500D01*
X209796546Y-90155145D01*
X209815842Y-90138425D01*
X209962595Y-90035667D01*
X210001401Y-90008495D01*
X210168495Y-89841401D01*
X210304035Y-89647830D01*
X210403903Y-89433663D01*
X210465063Y-89205408D01*
X210485659Y-88970000D01*
X210465063Y-88734592D01*
X210403903Y-88506337D01*
X210304035Y-88292171D01*
X210281683Y-88260248D01*
X210168494Y-88098597D01*
X210001402Y-87931506D01*
X210001396Y-87931501D01*
X209815842Y-87801575D01*
X209772217Y-87746998D01*
X209765023Y-87677500D01*
X209796546Y-87615145D01*
X209815842Y-87598425D01*
X209869909Y-87560567D01*
X210001401Y-87468495D01*
X210168495Y-87301401D01*
X210304035Y-87107830D01*
X210403903Y-86893663D01*
X210465063Y-86665408D01*
X210485659Y-86430000D01*
X210465063Y-86194592D01*
X210403903Y-85966337D01*
X210304035Y-85752171D01*
X210281683Y-85720248D01*
X210168494Y-85558597D01*
X210001402Y-85391506D01*
X210001396Y-85391501D01*
X209815842Y-85261575D01*
X209772217Y-85206998D01*
X209765023Y-85137500D01*
X209796546Y-85075145D01*
X209815842Y-85058425D01*
X209962588Y-84955672D01*
X210001401Y-84928495D01*
X210168495Y-84761401D01*
X210304035Y-84567830D01*
X210403903Y-84353663D01*
X210465063Y-84125408D01*
X210485659Y-83890000D01*
X210465063Y-83654592D01*
X210403903Y-83426337D01*
X210304035Y-83212171D01*
X210274378Y-83169815D01*
X210168494Y-83018597D01*
X210001402Y-82851506D01*
X210001396Y-82851501D01*
X209815842Y-82721575D01*
X209772217Y-82666998D01*
X209765023Y-82597500D01*
X209796546Y-82535145D01*
X209815842Y-82518425D01*
X209838026Y-82502891D01*
X210001401Y-82388495D01*
X210168495Y-82221401D01*
X210304035Y-82027830D01*
X210403903Y-81813663D01*
X210465063Y-81585408D01*
X210485659Y-81350000D01*
X210465063Y-81114592D01*
X210403903Y-80886337D01*
X210304035Y-80672171D01*
X210286177Y-80646666D01*
X210168494Y-80478597D01*
X210001402Y-80311506D01*
X210001396Y-80311501D01*
X209815842Y-80181575D01*
X209772217Y-80126998D01*
X209765023Y-80057500D01*
X209796546Y-79995145D01*
X209815842Y-79978425D01*
X209838026Y-79962891D01*
X210001401Y-79848495D01*
X210168495Y-79681401D01*
X210304035Y-79487830D01*
X210403903Y-79273663D01*
X210465063Y-79045408D01*
X210485659Y-78810000D01*
X210484414Y-78795775D01*
X210465063Y-78574596D01*
X210465063Y-78574592D01*
X210460558Y-78557779D01*
X210462219Y-78487932D01*
X210492649Y-78438006D01*
X211579114Y-77351543D01*
X211655775Y-77236811D01*
X211708580Y-77109328D01*
X211725677Y-77023377D01*
X211735500Y-76973996D01*
X211735500Y-67311006D01*
X211728970Y-67278181D01*
X211726712Y-67266829D01*
X211708580Y-67175672D01*
X211690281Y-67131493D01*
X211655777Y-67048192D01*
X211579112Y-66933454D01*
X208306545Y-63660887D01*
X208191807Y-63584222D01*
X208064332Y-63531421D01*
X208064322Y-63531418D01*
X207928996Y-63504500D01*
X207928994Y-63504500D01*
X207928993Y-63504500D01*
X203346007Y-63504500D01*
X203346003Y-63504500D01*
X203237590Y-63526065D01*
X203237589Y-63526065D01*
X203210681Y-63531418D01*
X203210671Y-63531420D01*
X203083190Y-63584224D01*
X202968454Y-63660887D01*
X201600887Y-65028454D01*
X201533371Y-65129501D01*
X201533370Y-65129502D01*
X201524227Y-65143184D01*
X201524222Y-65143193D01*
X201471421Y-65270667D01*
X201471418Y-65270677D01*
X201444500Y-65406004D01*
X201444500Y-68308481D01*
X201424815Y-68375520D01*
X201408181Y-68396162D01*
X196811162Y-72993181D01*
X196749839Y-73026666D01*
X196723481Y-73029500D01*
X193821004Y-73029500D01*
X193685677Y-73056418D01*
X193685667Y-73056421D01*
X193558192Y-73109222D01*
X193443454Y-73185887D01*
X191440887Y-75188454D01*
X191364222Y-75303192D01*
X191311421Y-75430667D01*
X191311418Y-75430677D01*
X191284500Y-75566004D01*
X191284500Y-75928481D01*
X191264815Y-75995520D01*
X191248181Y-76016162D01*
X189826162Y-77438181D01*
X189764839Y-77471666D01*
X189738481Y-77474500D01*
X188516519Y-77474500D01*
X188449480Y-77454815D01*
X188428838Y-77438181D01*
X181636546Y-70645888D01*
X181636545Y-70645887D01*
X181521807Y-70569222D01*
X181394332Y-70516421D01*
X181394322Y-70516418D01*
X181258996Y-70489500D01*
X181258994Y-70489500D01*
X181258993Y-70489500D01*
X176041007Y-70489500D01*
X176041003Y-70489500D01*
X175932590Y-70511065D01*
X175932589Y-70511065D01*
X175905681Y-70516418D01*
X175905671Y-70516420D01*
X175778190Y-70569224D01*
X175663454Y-70645887D01*
X174295887Y-72013454D01*
X174219222Y-72128192D01*
X174166421Y-72255667D01*
X174166418Y-72255677D01*
X174139500Y-72391004D01*
X174139500Y-72391007D01*
X174139500Y-74296006D01*
X174139500Y-74433994D01*
X174139500Y-74433996D01*
X174139499Y-74433996D01*
X174166418Y-74569322D01*
X174166421Y-74569332D01*
X174219222Y-74696807D01*
X174295887Y-74811545D01*
X174295888Y-74811546D01*
X176577794Y-77093451D01*
X178838457Y-79354114D01*
X178884409Y-79384817D01*
X178884411Y-79384819D01*
X178884412Y-79384819D01*
X178953189Y-79430775D01*
X179043332Y-79468113D01*
X179080671Y-79483580D01*
X179102038Y-79487830D01*
X179159022Y-79499165D01*
X179216005Y-79510500D01*
X179216007Y-79510500D01*
X179967289Y-79510500D01*
X180034328Y-79530185D01*
X180068864Y-79563377D01*
X180151505Y-79681402D01*
X180318597Y-79848493D01*
X180318603Y-79848498D01*
X180504158Y-79978425D01*
X180547783Y-80033002D01*
X180554977Y-80102500D01*
X180523454Y-80164855D01*
X180504158Y-80181575D01*
X180318597Y-80311505D01*
X180151505Y-80478597D01*
X180015965Y-80672169D01*
X180015964Y-80672171D01*
X179916098Y-80886335D01*
X179916094Y-80886344D01*
X179854938Y-81114586D01*
X179854936Y-81114596D01*
X179834341Y-81349999D01*
X179834341Y-81350000D01*
X179854936Y-81585403D01*
X179854938Y-81585413D01*
X179916094Y-81813655D01*
X179916096Y-81813659D01*
X179916097Y-81813663D01*
X179965450Y-81919500D01*
X180015965Y-82027830D01*
X180015967Y-82027834D01*
X180151501Y-82221395D01*
X180151506Y-82221402D01*
X180318597Y-82388493D01*
X180318603Y-82388498D01*
X180504158Y-82518425D01*
X180547783Y-82573002D01*
X180554977Y-82642500D01*
X180523454Y-82704855D01*
X180504158Y-82721575D01*
X180318597Y-82851505D01*
X180151505Y-83018597D01*
X180015965Y-83212169D01*
X180015964Y-83212171D01*
X179916098Y-83426335D01*
X179916094Y-83426344D01*
X179854938Y-83654586D01*
X179854936Y-83654596D01*
X179834341Y-83889999D01*
X179834341Y-83890000D01*
X179854936Y-84125403D01*
X179854938Y-84125413D01*
X179916094Y-84353655D01*
X179916096Y-84353659D01*
X179916097Y-84353663D01*
X180004262Y-84542732D01*
X180015965Y-84567830D01*
X180015967Y-84567834D01*
X180103989Y-84693541D01*
X180151499Y-84761393D01*
X180151501Y-84761395D01*
X180151506Y-84761402D01*
X180318597Y-84928493D01*
X180318603Y-84928498D01*
X180504158Y-85058425D01*
X180547783Y-85113002D01*
X180554977Y-85182500D01*
X180523454Y-85244855D01*
X180504158Y-85261575D01*
X180318597Y-85391505D01*
X180151505Y-85558597D01*
X180015965Y-85752169D01*
X180015964Y-85752171D01*
X179916098Y-85966335D01*
X179916094Y-85966344D01*
X179854938Y-86194586D01*
X179854936Y-86194596D01*
X179834341Y-86429999D01*
X179834341Y-86430000D01*
X179854936Y-86665403D01*
X179854938Y-86665413D01*
X179916094Y-86893655D01*
X179916096Y-86893659D01*
X179916097Y-86893663D01*
X179985500Y-87042497D01*
X180015965Y-87107830D01*
X180015967Y-87107834D01*
X180151501Y-87301395D01*
X180151506Y-87301402D01*
X180318597Y-87468493D01*
X180318603Y-87468498D01*
X180504158Y-87598425D01*
X180547783Y-87653002D01*
X180554977Y-87722500D01*
X180523454Y-87784855D01*
X180504158Y-87801575D01*
X180318597Y-87931505D01*
X180151505Y-88098597D01*
X180015965Y-88292169D01*
X180015964Y-88292171D01*
X179916098Y-88506335D01*
X179916094Y-88506344D01*
X179854938Y-88734586D01*
X179854936Y-88734596D01*
X179834341Y-88969999D01*
X179834341Y-88970000D01*
X179854936Y-89205403D01*
X179854938Y-89205413D01*
X179916094Y-89433655D01*
X179916096Y-89433659D01*
X179916097Y-89433663D01*
X179989358Y-89590772D01*
X180015965Y-89647830D01*
X180015967Y-89647834D01*
X180151501Y-89841395D01*
X180151504Y-89841400D01*
X180318597Y-90008493D01*
X180318603Y-90008498D01*
X180504158Y-90138425D01*
X180547783Y-90193002D01*
X180554977Y-90262500D01*
X180523454Y-90324855D01*
X180504158Y-90341575D01*
X180318597Y-90471505D01*
X180151505Y-90638597D01*
X180015965Y-90832169D01*
X180015964Y-90832171D01*
X179916098Y-91046335D01*
X179916094Y-91046344D01*
X179854938Y-91274586D01*
X179854936Y-91274596D01*
X179834341Y-91509999D01*
X179834341Y-91510000D01*
X179854936Y-91745403D01*
X179854938Y-91745413D01*
X179916094Y-91973655D01*
X179916096Y-91973659D01*
X179916097Y-91973663D01*
X180015965Y-92187830D01*
X180015967Y-92187834D01*
X180151501Y-92381395D01*
X180151506Y-92381402D01*
X180318597Y-92548493D01*
X180318603Y-92548498D01*
X180504594Y-92678730D01*
X180548219Y-92733307D01*
X180555413Y-92802805D01*
X180523890Y-92865160D01*
X180504595Y-92881880D01*
X180318922Y-93011890D01*
X180318920Y-93011891D01*
X180151891Y-93178920D01*
X180151886Y-93178926D01*
X180016400Y-93372420D01*
X180016399Y-93372422D01*
X179916570Y-93586507D01*
X179916567Y-93586513D01*
X179859364Y-93799999D01*
X179859364Y-93800000D01*
X180756988Y-93800000D01*
X180724075Y-93857007D01*
X180690000Y-93984174D01*
X180690000Y-94115826D01*
X180724075Y-94242993D01*
X180756988Y-94300000D01*
X179859364Y-94300000D01*
X179916567Y-94513486D01*
X179916570Y-94513492D01*
X180016399Y-94727578D01*
X180151894Y-94921082D01*
X180318917Y-95088105D01*
X180504595Y-95218119D01*
X180548219Y-95272696D01*
X180555412Y-95342195D01*
X180523890Y-95404549D01*
X180504595Y-95421269D01*
X180318594Y-95551508D01*
X180151505Y-95718597D01*
X180015965Y-95912169D01*
X180015964Y-95912171D01*
X179916098Y-96126335D01*
X179916094Y-96126344D01*
X179854938Y-96354586D01*
X179854936Y-96354596D01*
X179834341Y-96589999D01*
X179834341Y-96590000D01*
X179854936Y-96825403D01*
X179854938Y-96825413D01*
X179916094Y-97053655D01*
X179916096Y-97053659D01*
X179916097Y-97053663D01*
X179953611Y-97134112D01*
X180015965Y-97267830D01*
X180015967Y-97267834D01*
X180124281Y-97422521D01*
X180151505Y-97461401D01*
X180318599Y-97628495D01*
X180415384Y-97696265D01*
X180512165Y-97764032D01*
X180516856Y-97766740D01*
X180516000Y-97768221D01*
X180562644Y-97809292D01*
X180581795Y-97876486D01*
X180561578Y-97943367D01*
X180508412Y-97988700D01*
X180457799Y-97999500D01*
X164142201Y-97999500D01*
X164075162Y-97979815D01*
X164029407Y-97927011D01*
X164019463Y-97857853D01*
X164048488Y-97794297D01*
X164083706Y-97767714D01*
X164083144Y-97766740D01*
X164087823Y-97764037D01*
X164087830Y-97764035D01*
X164281401Y-97628495D01*
X164448495Y-97461401D01*
X164584035Y-97267830D01*
X164683903Y-97053663D01*
X164745063Y-96825408D01*
X164765659Y-96590000D01*
X164745063Y-96354592D01*
X164683903Y-96126337D01*
X164584035Y-95912171D01*
X164581562Y-95908638D01*
X164448494Y-95718597D01*
X164281402Y-95551506D01*
X164281401Y-95551505D01*
X164095405Y-95421269D01*
X164051781Y-95366692D01*
X164044588Y-95297193D01*
X164076110Y-95234839D01*
X164095405Y-95218119D01*
X164281082Y-95088105D01*
X164448105Y-94921082D01*
X164583600Y-94727578D01*
X164683429Y-94513492D01*
X164683432Y-94513486D01*
X164740636Y-94300000D01*
X163843012Y-94300000D01*
X163875925Y-94242993D01*
X163910000Y-94115826D01*
X163910000Y-93984174D01*
X163875925Y-93857007D01*
X163843012Y-93800000D01*
X164740636Y-93800000D01*
X164740635Y-93799999D01*
X164683432Y-93586513D01*
X164683429Y-93586507D01*
X164583600Y-93372422D01*
X164583599Y-93372420D01*
X164448113Y-93178926D01*
X164448108Y-93178920D01*
X164281078Y-93011890D01*
X164095405Y-92881879D01*
X164051780Y-92827302D01*
X164044588Y-92757804D01*
X164076110Y-92695449D01*
X164095406Y-92678730D01*
X164095842Y-92678425D01*
X164281401Y-92548495D01*
X164448495Y-92381401D01*
X164584035Y-92187830D01*
X164683903Y-91973663D01*
X164745063Y-91745408D01*
X164765659Y-91510000D01*
X164745063Y-91274592D01*
X164683903Y-91046337D01*
X164584035Y-90832171D01*
X164561683Y-90800248D01*
X164448494Y-90638597D01*
X164281402Y-90471506D01*
X164281396Y-90471501D01*
X164095842Y-90341575D01*
X164052217Y-90286998D01*
X164045023Y-90217500D01*
X164076546Y-90155145D01*
X164095842Y-90138425D01*
X164242595Y-90035667D01*
X164281401Y-90008495D01*
X164448495Y-89841401D01*
X164584035Y-89647830D01*
X164683903Y-89433663D01*
X164745063Y-89205408D01*
X164765659Y-88970000D01*
X164745063Y-88734592D01*
X164683903Y-88506337D01*
X164584035Y-88292171D01*
X164561683Y-88260248D01*
X164448494Y-88098597D01*
X164281402Y-87931506D01*
X164281396Y-87931501D01*
X164095842Y-87801575D01*
X164052217Y-87746998D01*
X164045023Y-87677500D01*
X164076546Y-87615145D01*
X164095842Y-87598425D01*
X164149909Y-87560567D01*
X164281401Y-87468495D01*
X164448495Y-87301401D01*
X164584035Y-87107830D01*
X164683903Y-86893663D01*
X164745063Y-86665408D01*
X164765659Y-86430000D01*
X164745063Y-86194592D01*
X164683903Y-85966337D01*
X164584035Y-85752171D01*
X164561683Y-85720248D01*
X164448494Y-85558597D01*
X164281402Y-85391506D01*
X164281396Y-85391501D01*
X164095842Y-85261575D01*
X164052217Y-85206998D01*
X164045023Y-85137500D01*
X164076546Y-85075145D01*
X164095842Y-85058425D01*
X164242588Y-84955672D01*
X164281401Y-84928495D01*
X164448495Y-84761401D01*
X164584035Y-84567830D01*
X164683903Y-84353663D01*
X164745063Y-84125408D01*
X164765659Y-83890000D01*
X164745063Y-83654592D01*
X164683903Y-83426337D01*
X164584035Y-83212171D01*
X164554378Y-83169815D01*
X164448494Y-83018597D01*
X164281402Y-82851506D01*
X164281396Y-82851501D01*
X164095842Y-82721575D01*
X164052217Y-82666998D01*
X164045023Y-82597500D01*
X164076546Y-82535145D01*
X164095842Y-82518425D01*
X164118026Y-82502891D01*
X164281401Y-82388495D01*
X164448495Y-82221401D01*
X164531136Y-82103376D01*
X164585713Y-82059752D01*
X164632711Y-82050500D01*
X166018996Y-82050500D01*
X166132962Y-82027830D01*
X166154328Y-82023580D01*
X166218069Y-81997177D01*
X166281807Y-81970777D01*
X166281808Y-81970776D01*
X166281811Y-81970775D01*
X166396543Y-81894114D01*
X169034113Y-79256543D01*
X169110774Y-79141812D01*
X169110775Y-79141811D01*
X169163580Y-79014328D01*
X169190500Y-78878993D01*
X169190500Y-74891672D01*
X169210185Y-74824633D01*
X169243375Y-74790098D01*
X169329139Y-74730047D01*
X169490047Y-74569139D01*
X169620568Y-74382734D01*
X169716739Y-74176496D01*
X169775635Y-73956692D01*
X169795468Y-73730000D01*
X169775635Y-73503308D01*
X169716739Y-73283504D01*
X169620568Y-73077266D01*
X169490047Y-72890861D01*
X169490045Y-72890858D01*
X169329141Y-72729954D01*
X169142734Y-72599432D01*
X169142732Y-72599431D01*
X168936497Y-72503261D01*
X168936488Y-72503258D01*
X168716697Y-72444366D01*
X168716693Y-72444365D01*
X168716692Y-72444365D01*
X168716691Y-72444364D01*
X168716686Y-72444364D01*
X168490002Y-72424532D01*
X168489998Y-72424532D01*
X168263313Y-72444364D01*
X168263302Y-72444366D01*
X168043511Y-72503258D01*
X168043502Y-72503261D01*
X167837267Y-72599431D01*
X167837265Y-72599432D01*
X167650858Y-72729954D01*
X167489954Y-72890858D01*
X167359432Y-73077265D01*
X167359431Y-73077267D01*
X167263261Y-73283502D01*
X167263258Y-73283511D01*
X167204366Y-73503302D01*
X167204364Y-73503313D01*
X167184532Y-73729998D01*
X167184532Y-73730001D01*
X167204364Y-73956686D01*
X167204366Y-73956697D01*
X167263258Y-74176488D01*
X167263261Y-74176497D01*
X167359431Y-74382732D01*
X167359432Y-74382734D01*
X167489954Y-74569141D01*
X167650857Y-74730044D01*
X167650860Y-74730046D01*
X167650861Y-74730047D01*
X167736623Y-74790097D01*
X167780248Y-74844673D01*
X167789500Y-74891672D01*
X167789500Y-78468481D01*
X167769815Y-78535520D01*
X167753181Y-78556162D01*
X165696162Y-80613181D01*
X165634839Y-80646666D01*
X165608481Y-80649500D01*
X164632711Y-80649500D01*
X164565672Y-80629815D01*
X164531136Y-80596623D01*
X164448496Y-80478600D01*
X164448493Y-80478597D01*
X164326567Y-80356671D01*
X164293084Y-80295351D01*
X164298068Y-80225659D01*
X164339939Y-80169725D01*
X164370915Y-80152810D01*
X164502331Y-80103796D01*
X164617546Y-80017546D01*
X164703796Y-79902331D01*
X164754091Y-79767483D01*
X164760500Y-79707873D01*
X164760499Y-77912128D01*
X164754091Y-77852517D01*
X164745751Y-77830157D01*
X164703797Y-77717671D01*
X164703793Y-77717664D01*
X164617547Y-77602455D01*
X164617544Y-77602452D01*
X164502335Y-77516206D01*
X164502328Y-77516202D01*
X164367482Y-77465908D01*
X164367483Y-77465908D01*
X164307883Y-77459501D01*
X164307881Y-77459500D01*
X164307873Y-77459500D01*
X164307864Y-77459500D01*
X162512129Y-77459500D01*
X162512123Y-77459501D01*
X162452516Y-77465908D01*
X162317671Y-77516202D01*
X162317664Y-77516206D01*
X162202455Y-77602452D01*
X162202452Y-77602455D01*
X162116206Y-77717664D01*
X162116202Y-77717671D01*
X162065908Y-77852517D01*
X162059501Y-77912116D01*
X162059501Y-77912123D01*
X162059500Y-77912135D01*
X162059500Y-79118480D01*
X162039815Y-79185519D01*
X162023181Y-79206161D01*
X159346162Y-81883181D01*
X159284839Y-81916666D01*
X159258481Y-81919500D01*
X153591519Y-81919500D01*
X153524480Y-81899815D01*
X153503838Y-81883181D01*
X152716819Y-81096162D01*
X152683334Y-81034839D01*
X152680500Y-81008481D01*
X152680500Y-62641518D01*
X152700185Y-62574479D01*
X152716814Y-62553842D01*
X154454337Y-60816318D01*
X154515660Y-60782834D01*
X154542018Y-60780000D01*
X155356988Y-60780000D01*
X155324075Y-60837007D01*
G37*
%TD.AperFunction*%
%TA.AperFunction,Conductor*%
G36*
X180915520Y-71910185D02*
G01*
X180936162Y-71926819D01*
X187728453Y-78719111D01*
X187728454Y-78719112D01*
X187843192Y-78795777D01*
X187970667Y-78848578D01*
X187970672Y-78848580D01*
X187970676Y-78848580D01*
X187970677Y-78848581D01*
X188106003Y-78875500D01*
X188106006Y-78875500D01*
X190148996Y-78875500D01*
X190240040Y-78857389D01*
X190284328Y-78848580D01*
X190377471Y-78809999D01*
X190411807Y-78795777D01*
X190411808Y-78795776D01*
X190411811Y-78795775D01*
X190526543Y-78719114D01*
X192457771Y-76787885D01*
X192519092Y-76754402D01*
X192588783Y-76759386D01*
X192644717Y-76801258D01*
X192657830Y-76823160D01*
X192696004Y-76905023D01*
X192715965Y-76947830D01*
X192715967Y-76947834D01*
X192817930Y-77093451D01*
X192851501Y-77141396D01*
X192851506Y-77141402D01*
X193018597Y-77308493D01*
X193018603Y-77308498D01*
X193204158Y-77438425D01*
X193247783Y-77493002D01*
X193254977Y-77562500D01*
X193223454Y-77624855D01*
X193204158Y-77641575D01*
X193018597Y-77771505D01*
X192851505Y-77938597D01*
X192715965Y-78132169D01*
X192715964Y-78132171D01*
X192616098Y-78346335D01*
X192616094Y-78346344D01*
X192554938Y-78574586D01*
X192554936Y-78574596D01*
X192534341Y-78809999D01*
X192534341Y-78810000D01*
X192554936Y-79045403D01*
X192554938Y-79045413D01*
X192616094Y-79273655D01*
X192616096Y-79273659D01*
X192616097Y-79273663D01*
X192653612Y-79354114D01*
X192715965Y-79487830D01*
X192715967Y-79487834D01*
X192851501Y-79681395D01*
X192851506Y-79681402D01*
X193018597Y-79848493D01*
X193018603Y-79848498D01*
X193204158Y-79978425D01*
X193247783Y-80033002D01*
X193254977Y-80102500D01*
X193223454Y-80164855D01*
X193204158Y-80181575D01*
X193018597Y-80311505D01*
X192851505Y-80478597D01*
X192715965Y-80672169D01*
X192715964Y-80672171D01*
X192616098Y-80886335D01*
X192616094Y-80886344D01*
X192554938Y-81114586D01*
X192554936Y-81114596D01*
X192534341Y-81349999D01*
X192534341Y-81350000D01*
X192554936Y-81585403D01*
X192554938Y-81585413D01*
X192616094Y-81813655D01*
X192616096Y-81813659D01*
X192616097Y-81813663D01*
X192665450Y-81919500D01*
X192715965Y-82027830D01*
X192715967Y-82027834D01*
X192851501Y-82221395D01*
X192851506Y-82221402D01*
X193018597Y-82388493D01*
X193018603Y-82388498D01*
X193204158Y-82518425D01*
X193247783Y-82573002D01*
X193254977Y-82642500D01*
X193223454Y-82704855D01*
X193204158Y-82721575D01*
X193018597Y-82851505D01*
X192851505Y-83018597D01*
X192715965Y-83212169D01*
X192715964Y-83212171D01*
X192616098Y-83426335D01*
X192616094Y-83426344D01*
X192554938Y-83654586D01*
X192554936Y-83654596D01*
X192534341Y-83889999D01*
X192534341Y-83890000D01*
X192554936Y-84125403D01*
X192554938Y-84125413D01*
X192616094Y-84353655D01*
X192616096Y-84353659D01*
X192616097Y-84353663D01*
X192704262Y-84542732D01*
X192709262Y-84553455D01*
X192719754Y-84622533D01*
X192691234Y-84686317D01*
X192651816Y-84712092D01*
X192699326Y-84683904D01*
X192769151Y-84686397D01*
X192826544Y-84726245D01*
X192831567Y-84732928D01*
X192851499Y-84761393D01*
X192851506Y-84761402D01*
X193018597Y-84928493D01*
X193018603Y-84928498D01*
X193204158Y-85058425D01*
X193247783Y-85113002D01*
X193254977Y-85182500D01*
X193223454Y-85244855D01*
X193204158Y-85261575D01*
X193018597Y-85391505D01*
X192897181Y-85512922D01*
X192835858Y-85546407D01*
X192766166Y-85541423D01*
X192710233Y-85499551D01*
X192685816Y-85434087D01*
X192685500Y-85425241D01*
X192685500Y-85091004D01*
X192658581Y-84955677D01*
X192658580Y-84955676D01*
X192658580Y-84955672D01*
X192631397Y-84890047D01*
X192615431Y-84851502D01*
X192607963Y-84782036D01*
X192638669Y-84720690D01*
X192632758Y-84724556D01*
X192562890Y-84725111D01*
X192509199Y-84693541D01*
X191161545Y-83345887D01*
X191046807Y-83269222D01*
X190919332Y-83216421D01*
X190919322Y-83216418D01*
X190783996Y-83189500D01*
X190783994Y-83189500D01*
X190783993Y-83189500D01*
X189971673Y-83189500D01*
X189904634Y-83169815D01*
X189870098Y-83136623D01*
X189810045Y-83050858D01*
X189649141Y-82889954D01*
X189462734Y-82759432D01*
X189462732Y-82759431D01*
X189256497Y-82663261D01*
X189256488Y-82663258D01*
X189036697Y-82604366D01*
X189036693Y-82604365D01*
X189036692Y-82604365D01*
X189036691Y-82604364D01*
X189036686Y-82604364D01*
X188810002Y-82584532D01*
X188809998Y-82584532D01*
X188583313Y-82604364D01*
X188583302Y-82604366D01*
X188363511Y-82663258D01*
X188363502Y-82663261D01*
X188157267Y-82759431D01*
X188157265Y-82759432D01*
X187970858Y-82889954D01*
X187809954Y-83050858D01*
X187679432Y-83237265D01*
X187679431Y-83237267D01*
X187583261Y-83443502D01*
X187583258Y-83443511D01*
X187524366Y-83663302D01*
X187524364Y-83663313D01*
X187504532Y-83889998D01*
X187504532Y-83890001D01*
X187524364Y-84116686D01*
X187524366Y-84116697D01*
X187583258Y-84336488D01*
X187583261Y-84336497D01*
X187679431Y-84542732D01*
X187679432Y-84542734D01*
X187809954Y-84729141D01*
X187970858Y-84890045D01*
X187970861Y-84890047D01*
X188157266Y-85020568D01*
X188363504Y-85116739D01*
X188583308Y-85175635D01*
X188745230Y-85189801D01*
X188809998Y-85195468D01*
X188810000Y-85195468D01*
X188810002Y-85195468D01*
X188866673Y-85190509D01*
X189036692Y-85175635D01*
X189256496Y-85116739D01*
X189462734Y-85020568D01*
X189649139Y-84890047D01*
X189810047Y-84729139D01*
X189870098Y-84643377D01*
X189924675Y-84599752D01*
X189971673Y-84590500D01*
X190373481Y-84590500D01*
X190440520Y-84610185D01*
X190461162Y-84626819D01*
X191248181Y-85413838D01*
X191281666Y-85475161D01*
X191284500Y-85501519D01*
X191284500Y-87631006D01*
X191284500Y-87768994D01*
X191284500Y-87768996D01*
X191284499Y-87768996D01*
X191311418Y-87904322D01*
X191311421Y-87904332D01*
X191364222Y-88031807D01*
X191440887Y-88146545D01*
X191440888Y-88146546D01*
X192551641Y-89257298D01*
X192583735Y-89312886D01*
X192616094Y-89433655D01*
X192616096Y-89433659D01*
X192616097Y-89433663D01*
X192689358Y-89590772D01*
X192715965Y-89647830D01*
X192715967Y-89647834D01*
X192851501Y-89841395D01*
X192851504Y-89841400D01*
X193018597Y-90008493D01*
X193018603Y-90008498D01*
X193204158Y-90138425D01*
X193247783Y-90193002D01*
X193254977Y-90262500D01*
X193223454Y-90324855D01*
X193204158Y-90341575D01*
X193018597Y-90471505D01*
X192851506Y-90638596D01*
X192768864Y-90756623D01*
X192714287Y-90800248D01*
X192667289Y-90809500D01*
X190284499Y-90809500D01*
X190217460Y-90789815D01*
X190171705Y-90737011D01*
X190160499Y-90685500D01*
X190160499Y-90612129D01*
X190160498Y-90612123D01*
X190160497Y-90612116D01*
X190154091Y-90552517D01*
X190145751Y-90530157D01*
X190103797Y-90417671D01*
X190103793Y-90417664D01*
X190017547Y-90302455D01*
X190017544Y-90302452D01*
X189902335Y-90216206D01*
X189902328Y-90216202D01*
X189767482Y-90165908D01*
X189767483Y-90165908D01*
X189707883Y-90159501D01*
X189707881Y-90159500D01*
X189707873Y-90159500D01*
X189707864Y-90159500D01*
X187912129Y-90159500D01*
X187912123Y-90159501D01*
X187852516Y-90165908D01*
X187717671Y-90216202D01*
X187717664Y-90216206D01*
X187602455Y-90302452D01*
X187602452Y-90302455D01*
X187516206Y-90417664D01*
X187516202Y-90417671D01*
X187465908Y-90552517D01*
X187459501Y-90612116D01*
X187459501Y-90612123D01*
X187459500Y-90612135D01*
X187459500Y-92407870D01*
X187459501Y-92407876D01*
X187465908Y-92467483D01*
X187516202Y-92602328D01*
X187516206Y-92602335D01*
X187602452Y-92717544D01*
X187602455Y-92717547D01*
X187717664Y-92803793D01*
X187717671Y-92803797D01*
X187779877Y-92826998D01*
X187849598Y-92853002D01*
X187905531Y-92894873D01*
X187929949Y-92960337D01*
X187915098Y-93028610D01*
X187893947Y-93056865D01*
X187771886Y-93178926D01*
X187636400Y-93372420D01*
X187636399Y-93372422D01*
X187536570Y-93586507D01*
X187536567Y-93586513D01*
X187479364Y-93799999D01*
X187479364Y-93800000D01*
X188376988Y-93800000D01*
X188344075Y-93857007D01*
X188310000Y-93984174D01*
X188310000Y-94115826D01*
X188344075Y-94242993D01*
X188376988Y-94300000D01*
X187479364Y-94300000D01*
X187536567Y-94513486D01*
X187536570Y-94513492D01*
X187636399Y-94727578D01*
X187771894Y-94921082D01*
X187938917Y-95088105D01*
X188132421Y-95223600D01*
X188346507Y-95323429D01*
X188346516Y-95323433D01*
X188560000Y-95380634D01*
X188560000Y-94483012D01*
X188617007Y-94515925D01*
X188744174Y-94550000D01*
X188875826Y-94550000D01*
X189002993Y-94515925D01*
X189060000Y-94483012D01*
X189060000Y-95380633D01*
X189273483Y-95323433D01*
X189273492Y-95323429D01*
X189487578Y-95223600D01*
X189681082Y-95088105D01*
X189848105Y-94921082D01*
X189983600Y-94727578D01*
X190083429Y-94513492D01*
X190083432Y-94513486D01*
X190140636Y-94300000D01*
X189243012Y-94300000D01*
X189275925Y-94242993D01*
X189310000Y-94115826D01*
X189310000Y-93984174D01*
X189275925Y-93857007D01*
X189243012Y-93800000D01*
X190140636Y-93800000D01*
X190140635Y-93799999D01*
X190083432Y-93586513D01*
X190083429Y-93586507D01*
X189983600Y-93372422D01*
X189983599Y-93372420D01*
X189848113Y-93178926D01*
X189848108Y-93178920D01*
X189726053Y-93056865D01*
X189692568Y-92995542D01*
X189697552Y-92925850D01*
X189739424Y-92869917D01*
X189770400Y-92853002D01*
X189859847Y-92819641D01*
X189902326Y-92803798D01*
X189902326Y-92803797D01*
X189902331Y-92803796D01*
X190017546Y-92717546D01*
X190103796Y-92602331D01*
X190154091Y-92467483D01*
X190160500Y-92407873D01*
X190160500Y-92334500D01*
X190180185Y-92267461D01*
X190232989Y-92221706D01*
X190284500Y-92210500D01*
X192667289Y-92210500D01*
X192734328Y-92230185D01*
X192768863Y-92263376D01*
X192785624Y-92287313D01*
X192851505Y-92381402D01*
X193018597Y-92548493D01*
X193018603Y-92548498D01*
X193204158Y-92678425D01*
X193247783Y-92733002D01*
X193254977Y-92802500D01*
X193223454Y-92864855D01*
X193204158Y-92881575D01*
X193018597Y-93011505D01*
X192851505Y-93178597D01*
X192715965Y-93372169D01*
X192715964Y-93372171D01*
X192616098Y-93586335D01*
X192616094Y-93586344D01*
X192554938Y-93814586D01*
X192554936Y-93814596D01*
X192534341Y-94049999D01*
X192534341Y-94050000D01*
X192554936Y-94285403D01*
X192554938Y-94285413D01*
X192616094Y-94513655D01*
X192616096Y-94513659D01*
X192616097Y-94513663D01*
X192715847Y-94727578D01*
X192715965Y-94727830D01*
X192715967Y-94727834D01*
X192779691Y-94818840D01*
X192851501Y-94921396D01*
X192851506Y-94921402D01*
X192973430Y-95043326D01*
X193006915Y-95104649D01*
X193001931Y-95174341D01*
X192960059Y-95230274D01*
X192929083Y-95247189D01*
X192797669Y-95296203D01*
X192797664Y-95296206D01*
X192682455Y-95382452D01*
X192682452Y-95382455D01*
X192596206Y-95497664D01*
X192596202Y-95497671D01*
X192545908Y-95632517D01*
X192542433Y-95664843D01*
X192539501Y-95692123D01*
X192539500Y-95692135D01*
X192539500Y-95765500D01*
X192519815Y-95832539D01*
X192467011Y-95878294D01*
X192415500Y-95889500D01*
X186611519Y-95889500D01*
X186544480Y-95869815D01*
X186523838Y-95853181D01*
X185736819Y-95066162D01*
X185703334Y-95004839D01*
X185700500Y-94978481D01*
X185700500Y-77471004D01*
X185673581Y-77335677D01*
X185673580Y-77335676D01*
X185673580Y-77335672D01*
X185662322Y-77308493D01*
X185620778Y-77208195D01*
X185620776Y-77208191D01*
X185620775Y-77208189D01*
X185572469Y-77135894D01*
X185572469Y-77135893D01*
X185544115Y-77093458D01*
X185544109Y-77093451D01*
X181636545Y-73185887D01*
X181521807Y-73109222D01*
X181394332Y-73056421D01*
X181394322Y-73056418D01*
X181258996Y-73029500D01*
X181258994Y-73029500D01*
X181258993Y-73029500D01*
X179811673Y-73029500D01*
X179744634Y-73009815D01*
X179710098Y-72976623D01*
X179650045Y-72890858D01*
X179489141Y-72729954D01*
X179302734Y-72599432D01*
X179302732Y-72599431D01*
X179096497Y-72503261D01*
X179096488Y-72503258D01*
X178876697Y-72444366D01*
X178876693Y-72444365D01*
X178876692Y-72444365D01*
X178876691Y-72444364D01*
X178876686Y-72444364D01*
X178650002Y-72424532D01*
X178649998Y-72424532D01*
X178423313Y-72444364D01*
X178423302Y-72444366D01*
X178203511Y-72503258D01*
X178203502Y-72503261D01*
X177997267Y-72599431D01*
X177997265Y-72599432D01*
X177810858Y-72729954D01*
X177649954Y-72890858D01*
X177519432Y-73077265D01*
X177519431Y-73077267D01*
X177423261Y-73283502D01*
X177423258Y-73283511D01*
X177364366Y-73503302D01*
X177364364Y-73503313D01*
X177344532Y-73729998D01*
X177344532Y-73730001D01*
X177364364Y-73956686D01*
X177364366Y-73956697D01*
X177423258Y-74176488D01*
X177423261Y-74176497D01*
X177519431Y-74382732D01*
X177519432Y-74382734D01*
X177649954Y-74569141D01*
X177810858Y-74730045D01*
X177810861Y-74730047D01*
X177997266Y-74860568D01*
X178203504Y-74956739D01*
X178203509Y-74956740D01*
X178203511Y-74956741D01*
X178256415Y-74970916D01*
X178423308Y-75015635D01*
X178579305Y-75029283D01*
X178649998Y-75035468D01*
X178650000Y-75035468D01*
X178650002Y-75035468D01*
X178706673Y-75030509D01*
X178876692Y-75015635D01*
X179096496Y-74956739D01*
X179302734Y-74860568D01*
X179489139Y-74730047D01*
X179650047Y-74569139D01*
X179710098Y-74483377D01*
X179764675Y-74439752D01*
X179811673Y-74430500D01*
X180848481Y-74430500D01*
X180915520Y-74450185D01*
X180936162Y-74466819D01*
X184263181Y-77793838D01*
X184296666Y-77855161D01*
X184299500Y-77881519D01*
X184299500Y-95251006D01*
X184299500Y-95388994D01*
X184299500Y-95388996D01*
X184299499Y-95388996D01*
X184326418Y-95524322D01*
X184326421Y-95524332D01*
X184379222Y-95651807D01*
X184455887Y-95766545D01*
X185823454Y-97134112D01*
X185823457Y-97134114D01*
X185938189Y-97210775D01*
X186065671Y-97263580D01*
X186080232Y-97266476D01*
X186087011Y-97267825D01*
X186087024Y-97267827D01*
X186087038Y-97267830D01*
X186144022Y-97279165D01*
X186201005Y-97290500D01*
X186201007Y-97290500D01*
X192415501Y-97290500D01*
X192482540Y-97310185D01*
X192528295Y-97362989D01*
X192539501Y-97414500D01*
X192539501Y-97487876D01*
X192545908Y-97547483D01*
X192596202Y-97682328D01*
X192596206Y-97682335D01*
X192685181Y-97801189D01*
X192709599Y-97866653D01*
X192694748Y-97934926D01*
X192645343Y-97984332D01*
X192585915Y-97999500D01*
X181922201Y-97999500D01*
X181855162Y-97979815D01*
X181809407Y-97927011D01*
X181799463Y-97857853D01*
X181828488Y-97794297D01*
X181863706Y-97767714D01*
X181863144Y-97766740D01*
X181867823Y-97764037D01*
X181867830Y-97764035D01*
X182061401Y-97628495D01*
X182228495Y-97461401D01*
X182364035Y-97267830D01*
X182463903Y-97053663D01*
X182525063Y-96825408D01*
X182545659Y-96590000D01*
X182525063Y-96354592D01*
X182463903Y-96126337D01*
X182364035Y-95912171D01*
X182361562Y-95908638D01*
X182228494Y-95718597D01*
X182061402Y-95551506D01*
X182061401Y-95551505D01*
X181875405Y-95421269D01*
X181831781Y-95366692D01*
X181824588Y-95297193D01*
X181856110Y-95234839D01*
X181875405Y-95218119D01*
X182061082Y-95088105D01*
X182228105Y-94921082D01*
X182363600Y-94727578D01*
X182463429Y-94513492D01*
X182463432Y-94513486D01*
X182520636Y-94300000D01*
X181623012Y-94300000D01*
X181655925Y-94242993D01*
X181690000Y-94115826D01*
X181690000Y-93984174D01*
X181655925Y-93857007D01*
X181623012Y-93800000D01*
X182520636Y-93800000D01*
X182520635Y-93799999D01*
X182463432Y-93586513D01*
X182463429Y-93586507D01*
X182363600Y-93372422D01*
X182363599Y-93372420D01*
X182228113Y-93178926D01*
X182228108Y-93178920D01*
X182061078Y-93011890D01*
X181875405Y-92881879D01*
X181831780Y-92827302D01*
X181824588Y-92757804D01*
X181856110Y-92695449D01*
X181875406Y-92678730D01*
X181875842Y-92678425D01*
X182061401Y-92548495D01*
X182228495Y-92381401D01*
X182364035Y-92187830D01*
X182463903Y-91973663D01*
X182525063Y-91745408D01*
X182545659Y-91510000D01*
X182525063Y-91274592D01*
X182463903Y-91046337D01*
X182364035Y-90832171D01*
X182341683Y-90800248D01*
X182228494Y-90638597D01*
X182061402Y-90471506D01*
X182061396Y-90471501D01*
X181875842Y-90341575D01*
X181832217Y-90286998D01*
X181825023Y-90217500D01*
X181856546Y-90155145D01*
X181875842Y-90138425D01*
X182022595Y-90035667D01*
X182061401Y-90008495D01*
X182228495Y-89841401D01*
X182364035Y-89647830D01*
X182463903Y-89433663D01*
X182525063Y-89205408D01*
X182545659Y-88970000D01*
X182525063Y-88734592D01*
X182463903Y-88506337D01*
X182364035Y-88292171D01*
X182341683Y-88260248D01*
X182228494Y-88098597D01*
X182061402Y-87931506D01*
X182061396Y-87931501D01*
X181875842Y-87801575D01*
X181832217Y-87746998D01*
X181825023Y-87677500D01*
X181856546Y-87615145D01*
X181875842Y-87598425D01*
X181929909Y-87560567D01*
X182061401Y-87468495D01*
X182228495Y-87301401D01*
X182364035Y-87107830D01*
X182463903Y-86893663D01*
X182525063Y-86665408D01*
X182545659Y-86430000D01*
X182525063Y-86194592D01*
X182463903Y-85966337D01*
X182364035Y-85752171D01*
X182341683Y-85720248D01*
X182228494Y-85558597D01*
X182061402Y-85391506D01*
X182061396Y-85391501D01*
X181875842Y-85261575D01*
X181832217Y-85206998D01*
X181825023Y-85137500D01*
X181856546Y-85075145D01*
X181875842Y-85058425D01*
X182022588Y-84955672D01*
X182061401Y-84928495D01*
X182228495Y-84761401D01*
X182364035Y-84567830D01*
X182463903Y-84353663D01*
X182525063Y-84125408D01*
X182545659Y-83890000D01*
X182525063Y-83654592D01*
X182463903Y-83426337D01*
X182364035Y-83212171D01*
X182334378Y-83169815D01*
X182228494Y-83018597D01*
X182061402Y-82851506D01*
X182061396Y-82851501D01*
X181875842Y-82721575D01*
X181832217Y-82666998D01*
X181825023Y-82597500D01*
X181856546Y-82535145D01*
X181875842Y-82518425D01*
X181898026Y-82502891D01*
X182061401Y-82388495D01*
X182228495Y-82221401D01*
X182364035Y-82027830D01*
X182463903Y-81813663D01*
X182525063Y-81585408D01*
X182545659Y-81350000D01*
X182525063Y-81114592D01*
X182463903Y-80886337D01*
X182364035Y-80672171D01*
X182346177Y-80646666D01*
X182228494Y-80478597D01*
X182061402Y-80311506D01*
X182061396Y-80311501D01*
X181875842Y-80181575D01*
X181832217Y-80126998D01*
X181825023Y-80057500D01*
X181856546Y-79995145D01*
X181875842Y-79978425D01*
X181898026Y-79962891D01*
X182061401Y-79848495D01*
X182228495Y-79681401D01*
X182364035Y-79487830D01*
X182463903Y-79273663D01*
X182525063Y-79045408D01*
X182545659Y-78810000D01*
X182544414Y-78795775D01*
X182525063Y-78574596D01*
X182525063Y-78574592D01*
X182463903Y-78346337D01*
X182364035Y-78132171D01*
X182341683Y-78100248D01*
X182228494Y-77938597D01*
X182061402Y-77771506D01*
X182061395Y-77771501D01*
X181867834Y-77635967D01*
X181867830Y-77635965D01*
X181845729Y-77625659D01*
X181653663Y-77536097D01*
X181653659Y-77536096D01*
X181653655Y-77536094D01*
X181425413Y-77474938D01*
X181425403Y-77474936D01*
X181190001Y-77454341D01*
X181189999Y-77454341D01*
X180954596Y-77474936D01*
X180954586Y-77474938D01*
X180726344Y-77536094D01*
X180726335Y-77536098D01*
X180512171Y-77635964D01*
X180512169Y-77635965D01*
X180318597Y-77771505D01*
X180151506Y-77938596D01*
X180068864Y-78056623D01*
X180014287Y-78100248D01*
X179967289Y-78109500D01*
X179626519Y-78109500D01*
X179559480Y-78089815D01*
X179538838Y-78073181D01*
X175576819Y-74111162D01*
X175543334Y-74049839D01*
X175540500Y-74023481D01*
X175540500Y-72801519D01*
X175560185Y-72734480D01*
X175576819Y-72713838D01*
X176363838Y-71926819D01*
X176425161Y-71893334D01*
X176451519Y-71890500D01*
X180848481Y-71890500D01*
X180915520Y-71910185D01*
G37*
%TD.AperFunction*%
%TA.AperFunction,Conductor*%
G36*
X207944855Y-76936546D02*
G01*
X207961575Y-76955842D01*
X208091501Y-77141396D01*
X208091506Y-77141402D01*
X208258597Y-77308493D01*
X208258603Y-77308498D01*
X208444158Y-77438425D01*
X208487783Y-77493002D01*
X208494977Y-77562500D01*
X208463454Y-77624855D01*
X208444158Y-77641575D01*
X208258597Y-77771505D01*
X208091505Y-77938597D01*
X207955965Y-78132169D01*
X207955964Y-78132171D01*
X207856098Y-78346335D01*
X207856094Y-78346344D01*
X207794938Y-78574586D01*
X207794936Y-78574596D01*
X207774341Y-78809999D01*
X207774341Y-78810000D01*
X207794936Y-79045403D01*
X207794938Y-79045413D01*
X207856094Y-79273655D01*
X207856096Y-79273659D01*
X207856097Y-79273663D01*
X207893612Y-79354114D01*
X207955965Y-79487830D01*
X207955967Y-79487834D01*
X208091501Y-79681395D01*
X208091506Y-79681402D01*
X208258597Y-79848493D01*
X208258603Y-79848498D01*
X208444158Y-79978425D01*
X208487783Y-80033002D01*
X208494977Y-80102500D01*
X208463454Y-80164855D01*
X208444158Y-80181575D01*
X208258597Y-80311505D01*
X208091505Y-80478597D01*
X207955965Y-80672169D01*
X207955964Y-80672171D01*
X207856098Y-80886335D01*
X207856094Y-80886344D01*
X207794938Y-81114586D01*
X207794936Y-81114596D01*
X207774341Y-81349999D01*
X207774341Y-81350000D01*
X207794936Y-81585403D01*
X207794938Y-81585413D01*
X207856094Y-81813655D01*
X207856096Y-81813659D01*
X207856097Y-81813663D01*
X207905450Y-81919500D01*
X207955965Y-82027830D01*
X207955967Y-82027834D01*
X208091501Y-82221395D01*
X208091506Y-82221402D01*
X208258597Y-82388493D01*
X208258603Y-82388498D01*
X208444158Y-82518425D01*
X208487783Y-82573002D01*
X208494977Y-82642500D01*
X208463454Y-82704855D01*
X208444158Y-82721575D01*
X208258597Y-82851505D01*
X208091505Y-83018597D01*
X207955965Y-83212169D01*
X207955964Y-83212171D01*
X207856098Y-83426335D01*
X207856094Y-83426344D01*
X207794938Y-83654586D01*
X207794936Y-83654596D01*
X207774341Y-83889999D01*
X207774341Y-83890000D01*
X207794936Y-84125403D01*
X207794938Y-84125413D01*
X207856094Y-84353655D01*
X207856096Y-84353659D01*
X207856097Y-84353663D01*
X207944262Y-84542732D01*
X207955965Y-84567830D01*
X207955967Y-84567834D01*
X208043989Y-84693541D01*
X208091499Y-84761393D01*
X208091501Y-84761395D01*
X208091506Y-84761402D01*
X208258597Y-84928493D01*
X208258603Y-84928498D01*
X208444158Y-85058425D01*
X208487783Y-85113002D01*
X208494977Y-85182500D01*
X208463454Y-85244855D01*
X208444158Y-85261575D01*
X208258597Y-85391505D01*
X208091505Y-85558597D01*
X207955965Y-85752169D01*
X207955964Y-85752171D01*
X207856098Y-85966335D01*
X207856094Y-85966344D01*
X207794938Y-86194586D01*
X207794936Y-86194596D01*
X207774341Y-86429999D01*
X207774341Y-86430000D01*
X207794936Y-86665403D01*
X207794938Y-86665413D01*
X207856094Y-86893655D01*
X207856096Y-86893659D01*
X207856097Y-86893663D01*
X207925500Y-87042497D01*
X207955965Y-87107830D01*
X207955967Y-87107834D01*
X208091501Y-87301395D01*
X208091506Y-87301402D01*
X208258597Y-87468493D01*
X208258603Y-87468498D01*
X208444158Y-87598425D01*
X208487783Y-87653002D01*
X208494977Y-87722500D01*
X208463454Y-87784855D01*
X208444158Y-87801575D01*
X208258597Y-87931505D01*
X208091505Y-88098597D01*
X207955965Y-88292169D01*
X207955964Y-88292171D01*
X207856098Y-88506335D01*
X207856094Y-88506344D01*
X207794938Y-88734586D01*
X207794936Y-88734596D01*
X207774341Y-88969999D01*
X207774341Y-88970000D01*
X207794936Y-89205403D01*
X207794938Y-89205413D01*
X207856094Y-89433655D01*
X207856096Y-89433659D01*
X207856097Y-89433663D01*
X207929358Y-89590772D01*
X207955965Y-89647830D01*
X207955967Y-89647834D01*
X208091501Y-89841395D01*
X208091504Y-89841400D01*
X208258597Y-90008493D01*
X208258603Y-90008498D01*
X208444158Y-90138425D01*
X208487783Y-90193002D01*
X208494977Y-90262500D01*
X208463454Y-90324855D01*
X208444158Y-90341575D01*
X208258597Y-90471505D01*
X208091505Y-90638597D01*
X207955965Y-90832169D01*
X207955964Y-90832171D01*
X207856098Y-91046335D01*
X207856094Y-91046344D01*
X207794938Y-91274586D01*
X207794936Y-91274596D01*
X207774341Y-91509999D01*
X207774341Y-91510000D01*
X207794936Y-91745403D01*
X207794938Y-91745413D01*
X207856094Y-91973655D01*
X207856096Y-91973659D01*
X207856097Y-91973663D01*
X207955965Y-92187830D01*
X207955967Y-92187834D01*
X208091501Y-92381395D01*
X208091506Y-92381402D01*
X208258597Y-92548493D01*
X208258603Y-92548498D01*
X208444594Y-92678730D01*
X208488219Y-92733307D01*
X208495413Y-92802805D01*
X208463890Y-92865160D01*
X208444595Y-92881880D01*
X208258922Y-93011890D01*
X208258920Y-93011891D01*
X208091891Y-93178920D01*
X208091886Y-93178926D01*
X207956400Y-93372420D01*
X207956399Y-93372422D01*
X207856570Y-93586507D01*
X207856567Y-93586513D01*
X207799364Y-93799999D01*
X207799364Y-93800000D01*
X208696988Y-93800000D01*
X208664075Y-93857007D01*
X208630000Y-93984174D01*
X208630000Y-94115826D01*
X208664075Y-94242993D01*
X208696988Y-94300000D01*
X207799364Y-94300000D01*
X207856567Y-94513486D01*
X207856570Y-94513492D01*
X207956399Y-94727578D01*
X208091894Y-94921082D01*
X208258917Y-95088105D01*
X208444595Y-95218119D01*
X208488219Y-95272696D01*
X208495412Y-95342195D01*
X208463890Y-95404549D01*
X208444595Y-95421269D01*
X208258594Y-95551508D01*
X208091505Y-95718597D01*
X207955965Y-95912169D01*
X207955964Y-95912171D01*
X207856098Y-96126335D01*
X207856094Y-96126344D01*
X207794938Y-96354586D01*
X207794936Y-96354596D01*
X207774341Y-96589999D01*
X207774341Y-96590000D01*
X207794936Y-96825403D01*
X207794938Y-96825413D01*
X207856094Y-97053655D01*
X207856096Y-97053659D01*
X207856097Y-97053663D01*
X207893611Y-97134112D01*
X207955965Y-97267830D01*
X207955967Y-97267834D01*
X208064281Y-97422521D01*
X208091505Y-97461401D01*
X208258599Y-97628495D01*
X208355384Y-97696265D01*
X208452165Y-97764032D01*
X208456856Y-97766740D01*
X208456000Y-97768221D01*
X208502644Y-97809292D01*
X208521795Y-97876486D01*
X208501578Y-97943367D01*
X208448412Y-97988700D01*
X208397799Y-97999500D01*
X195194085Y-97999500D01*
X195127046Y-97979815D01*
X195081291Y-97927011D01*
X195071347Y-97857853D01*
X195094819Y-97801189D01*
X195183793Y-97682335D01*
X195183792Y-97682335D01*
X195183796Y-97682331D01*
X195234091Y-97547483D01*
X195240500Y-97487873D01*
X195240499Y-95692128D01*
X195234091Y-95632517D01*
X195226990Y-95613479D01*
X195183797Y-95497671D01*
X195183793Y-95497664D01*
X195097547Y-95382455D01*
X195097544Y-95382452D01*
X194982335Y-95296206D01*
X194982328Y-95296202D01*
X194850917Y-95247189D01*
X194794983Y-95205318D01*
X194770566Y-95139853D01*
X194785418Y-95071580D01*
X194806563Y-95043332D01*
X194928495Y-94921401D01*
X195064035Y-94727830D01*
X195163903Y-94513663D01*
X195225063Y-94285408D01*
X195245659Y-94050000D01*
X195225063Y-93814592D01*
X195163903Y-93586337D01*
X195064035Y-93372171D01*
X194928495Y-93178599D01*
X194928494Y-93178597D01*
X194761402Y-93011506D01*
X194761396Y-93011501D01*
X194575842Y-92881575D01*
X194532217Y-92826998D01*
X194525023Y-92757500D01*
X194556546Y-92695145D01*
X194575842Y-92678425D01*
X194598026Y-92662891D01*
X194761401Y-92548495D01*
X194928495Y-92381401D01*
X195064035Y-92187830D01*
X195163903Y-91973663D01*
X195225063Y-91745408D01*
X195245659Y-91510000D01*
X195225063Y-91274592D01*
X195163903Y-91046337D01*
X195064035Y-90832171D01*
X195041683Y-90800248D01*
X194928494Y-90638597D01*
X194761402Y-90471506D01*
X194761396Y-90471501D01*
X194575842Y-90341575D01*
X194532217Y-90286998D01*
X194525023Y-90217500D01*
X194556546Y-90155145D01*
X194575842Y-90138425D01*
X194722595Y-90035667D01*
X194761401Y-90008495D01*
X194928495Y-89841401D01*
X195064035Y-89647830D01*
X195163903Y-89433663D01*
X195225063Y-89205408D01*
X195245659Y-88970000D01*
X195225063Y-88734592D01*
X195163903Y-88506337D01*
X195064035Y-88292171D01*
X195041683Y-88260248D01*
X194928494Y-88098597D01*
X194761402Y-87931506D01*
X194761396Y-87931501D01*
X194575842Y-87801575D01*
X194532217Y-87746998D01*
X194525023Y-87677500D01*
X194556546Y-87615145D01*
X194575842Y-87598425D01*
X194629909Y-87560567D01*
X194761401Y-87468495D01*
X194928495Y-87301401D01*
X195064035Y-87107830D01*
X195163903Y-86893663D01*
X195225063Y-86665408D01*
X195245659Y-86430000D01*
X195225063Y-86194592D01*
X195163903Y-85966337D01*
X195064035Y-85752171D01*
X195041683Y-85720248D01*
X194928494Y-85558597D01*
X194761402Y-85391506D01*
X194761396Y-85391501D01*
X194575842Y-85261575D01*
X194532217Y-85206998D01*
X194525023Y-85137500D01*
X194556546Y-85075145D01*
X194575842Y-85058425D01*
X194722588Y-84955672D01*
X194761401Y-84928495D01*
X194928495Y-84761401D01*
X195064035Y-84567830D01*
X195163903Y-84353663D01*
X195225063Y-84125408D01*
X195245659Y-83890000D01*
X195225063Y-83654592D01*
X195163903Y-83426337D01*
X195064035Y-83212171D01*
X195034378Y-83169815D01*
X194928494Y-83018597D01*
X194761402Y-82851506D01*
X194761396Y-82851501D01*
X194575842Y-82721575D01*
X194532217Y-82666998D01*
X194525023Y-82597500D01*
X194556546Y-82535145D01*
X194575842Y-82518425D01*
X194598026Y-82502891D01*
X194761401Y-82388495D01*
X194928495Y-82221401D01*
X195064035Y-82027830D01*
X195163903Y-81813663D01*
X195225063Y-81585408D01*
X195245659Y-81350000D01*
X195225063Y-81114592D01*
X195163903Y-80886337D01*
X195064035Y-80672171D01*
X195046177Y-80646666D01*
X194928494Y-80478597D01*
X194761402Y-80311506D01*
X194761396Y-80311501D01*
X194575842Y-80181575D01*
X194532217Y-80126998D01*
X194525023Y-80057500D01*
X194556546Y-79995145D01*
X194575842Y-79978425D01*
X194598026Y-79962891D01*
X194761401Y-79848495D01*
X194928495Y-79681401D01*
X195064035Y-79487830D01*
X195163903Y-79273663D01*
X195225063Y-79045408D01*
X195245659Y-78810000D01*
X195244414Y-78795775D01*
X195225063Y-78574596D01*
X195225063Y-78574592D01*
X195163903Y-78346337D01*
X195064035Y-78132171D01*
X195041683Y-78100248D01*
X194928494Y-77938597D01*
X194761402Y-77771506D01*
X194761396Y-77771501D01*
X194575842Y-77641575D01*
X194532217Y-77586998D01*
X194525023Y-77517500D01*
X194556546Y-77455145D01*
X194575842Y-77438425D01*
X194639524Y-77393834D01*
X194761401Y-77308495D01*
X194928495Y-77141401D01*
X195058425Y-76955842D01*
X195113002Y-76912217D01*
X195182500Y-76905023D01*
X195244855Y-76936546D01*
X195261575Y-76955842D01*
X195391500Y-77141395D01*
X195391505Y-77141401D01*
X195558599Y-77308495D01*
X195593386Y-77332853D01*
X195752165Y-77444032D01*
X195752167Y-77444033D01*
X195752170Y-77444035D01*
X195966337Y-77543903D01*
X196194592Y-77605063D01*
X196382918Y-77621539D01*
X196429999Y-77625659D01*
X196430000Y-77625659D01*
X196430001Y-77625659D01*
X196469234Y-77622226D01*
X196665408Y-77605063D01*
X196893663Y-77543903D01*
X197107830Y-77444035D01*
X197301401Y-77308495D01*
X197468495Y-77141401D01*
X197598425Y-76955842D01*
X197653002Y-76912217D01*
X197722500Y-76905023D01*
X197784855Y-76936546D01*
X197801575Y-76955842D01*
X197931500Y-77141395D01*
X197931505Y-77141401D01*
X198098599Y-77308495D01*
X198133386Y-77332853D01*
X198292165Y-77444032D01*
X198292167Y-77444033D01*
X198292170Y-77444035D01*
X198506337Y-77543903D01*
X198734592Y-77605063D01*
X198922918Y-77621539D01*
X198969999Y-77625659D01*
X198970000Y-77625659D01*
X198970001Y-77625659D01*
X199009234Y-77622226D01*
X199205408Y-77605063D01*
X199433663Y-77543903D01*
X199647830Y-77444035D01*
X199841401Y-77308495D01*
X200008495Y-77141401D01*
X200138425Y-76955842D01*
X200193002Y-76912217D01*
X200262500Y-76905023D01*
X200324855Y-76936546D01*
X200341575Y-76955842D01*
X200471500Y-77141395D01*
X200471505Y-77141401D01*
X200638599Y-77308495D01*
X200673386Y-77332853D01*
X200832165Y-77444032D01*
X200832167Y-77444033D01*
X200832170Y-77444035D01*
X201046337Y-77543903D01*
X201274592Y-77605063D01*
X201462918Y-77621539D01*
X201509999Y-77625659D01*
X201510000Y-77625659D01*
X201510001Y-77625659D01*
X201549234Y-77622226D01*
X201745408Y-77605063D01*
X201973663Y-77543903D01*
X202187830Y-77444035D01*
X202381401Y-77308495D01*
X202548495Y-77141401D01*
X202678425Y-76955842D01*
X202733002Y-76912217D01*
X202802500Y-76905023D01*
X202864855Y-76936546D01*
X202881575Y-76955842D01*
X203011500Y-77141395D01*
X203011505Y-77141401D01*
X203178599Y-77308495D01*
X203213386Y-77332853D01*
X203372165Y-77444032D01*
X203372167Y-77444033D01*
X203372170Y-77444035D01*
X203586337Y-77543903D01*
X203814592Y-77605063D01*
X204002918Y-77621539D01*
X204049999Y-77625659D01*
X204050000Y-77625659D01*
X204050001Y-77625659D01*
X204089234Y-77622226D01*
X204285408Y-77605063D01*
X204513663Y-77543903D01*
X204727830Y-77444035D01*
X204921401Y-77308495D01*
X205088495Y-77141401D01*
X205218425Y-76955842D01*
X205273002Y-76912217D01*
X205342500Y-76905023D01*
X205404855Y-76936546D01*
X205421575Y-76955842D01*
X205551500Y-77141395D01*
X205551505Y-77141401D01*
X205718599Y-77308495D01*
X205753386Y-77332853D01*
X205912165Y-77444032D01*
X205912167Y-77444033D01*
X205912170Y-77444035D01*
X206126337Y-77543903D01*
X206354592Y-77605063D01*
X206542918Y-77621539D01*
X206589999Y-77625659D01*
X206590000Y-77625659D01*
X206590001Y-77625659D01*
X206629234Y-77622226D01*
X206825408Y-77605063D01*
X207053663Y-77543903D01*
X207267830Y-77444035D01*
X207461401Y-77308495D01*
X207628495Y-77141401D01*
X207758425Y-76955842D01*
X207813002Y-76912217D01*
X207882500Y-76905023D01*
X207944855Y-76936546D01*
G37*
%TD.AperFunction*%
%TA.AperFunction,Conductor*%
G36*
X216765677Y-50889685D02*
G01*
X216786319Y-50906319D01*
X216898540Y-51018540D01*
X216932025Y-51079863D01*
X216927041Y-51149555D01*
X216921344Y-51162515D01*
X216841118Y-51319967D01*
X216780290Y-51507173D01*
X216749500Y-51701577D01*
X216749500Y-51898422D01*
X216780290Y-52092826D01*
X216841117Y-52280029D01*
X216897918Y-52391506D01*
X216930476Y-52455405D01*
X217046172Y-52614646D01*
X217185354Y-52753828D01*
X217344595Y-52869524D01*
X217424034Y-52910000D01*
X217519970Y-52958882D01*
X217519972Y-52958882D01*
X217519975Y-52958884D01*
X217620317Y-52991487D01*
X217707173Y-53019709D01*
X217901578Y-53050500D01*
X217901583Y-53050500D01*
X218098422Y-53050500D01*
X218292826Y-53019709D01*
X218480025Y-52958884D01*
X218637485Y-52878654D01*
X218706152Y-52865759D01*
X218770893Y-52892035D01*
X218781459Y-52901459D01*
X219253681Y-53373681D01*
X219287166Y-53435004D01*
X219290000Y-53461362D01*
X219290000Y-95908638D01*
X219270315Y-95975677D01*
X219253681Y-95996319D01*
X217286819Y-97963181D01*
X217225496Y-97996666D01*
X217199138Y-97999500D01*
X214823890Y-97999500D01*
X214756851Y-97979815D01*
X214711096Y-97927011D01*
X214701152Y-97857853D01*
X214730177Y-97794297D01*
X214771483Y-97763119D01*
X214862734Y-97720568D01*
X215049139Y-97590047D01*
X215210047Y-97429139D01*
X215270098Y-97343377D01*
X215324675Y-97299752D01*
X215371673Y-97290500D01*
X215548996Y-97290500D01*
X215662987Y-97267825D01*
X215684328Y-97263580D01*
X215748069Y-97237177D01*
X215811807Y-97210777D01*
X215811808Y-97210776D01*
X215811811Y-97210775D01*
X215926543Y-97134114D01*
X216659114Y-96401543D01*
X216735775Y-96286811D01*
X216788580Y-96159328D01*
X216815500Y-96023994D01*
X216815500Y-95886006D01*
X216815500Y-90171007D01*
X216815500Y-90171004D01*
X216788581Y-90035677D01*
X216788580Y-90035676D01*
X216788580Y-90035672D01*
X216735775Y-89908189D01*
X216691149Y-89841401D01*
X216659114Y-89793457D01*
X216659111Y-89793453D01*
X215264319Y-88398661D01*
X215230834Y-88337338D01*
X215228000Y-88310980D01*
X215228000Y-66394508D01*
X215247685Y-66327469D01*
X215300489Y-66281714D01*
X215369647Y-66271770D01*
X215433203Y-66300795D01*
X215470977Y-66359573D01*
X215471775Y-66362415D01*
X215523730Y-66556317D01*
X215523735Y-66556331D01*
X215619863Y-66762478D01*
X215670974Y-66835472D01*
X216350000Y-66156446D01*
X216350000Y-66162661D01*
X216377259Y-66264394D01*
X216429920Y-66355606D01*
X216504394Y-66430080D01*
X216595606Y-66482741D01*
X216697339Y-66510000D01*
X216703553Y-66510000D01*
X216024526Y-67189025D01*
X216097513Y-67240132D01*
X216097521Y-67240136D01*
X216303668Y-67336264D01*
X216303682Y-67336269D01*
X216523389Y-67395139D01*
X216523400Y-67395141D01*
X216749998Y-67414966D01*
X216750002Y-67414966D01*
X216976599Y-67395141D01*
X216976610Y-67395139D01*
X217196317Y-67336269D01*
X217196331Y-67336264D01*
X217402478Y-67240136D01*
X217475471Y-67189024D01*
X216796447Y-66510000D01*
X216802661Y-66510000D01*
X216904394Y-66482741D01*
X216995606Y-66430080D01*
X217070080Y-66355606D01*
X217122741Y-66264394D01*
X217150000Y-66162661D01*
X217150000Y-66156447D01*
X217829024Y-66835471D01*
X217880136Y-66762478D01*
X217976264Y-66556331D01*
X217976269Y-66556317D01*
X218035139Y-66336610D01*
X218035141Y-66336599D01*
X218054966Y-66110002D01*
X218054966Y-66109997D01*
X218035141Y-65883400D01*
X218035139Y-65883389D01*
X217976269Y-65663682D01*
X217976264Y-65663668D01*
X217880136Y-65457521D01*
X217880132Y-65457513D01*
X217829025Y-65384526D01*
X217150000Y-66063551D01*
X217150000Y-66057339D01*
X217122741Y-65955606D01*
X217070080Y-65864394D01*
X216995606Y-65789920D01*
X216904394Y-65737259D01*
X216802661Y-65710000D01*
X216796448Y-65710000D01*
X217475472Y-65030974D01*
X217402478Y-64979863D01*
X217196331Y-64883735D01*
X217196317Y-64883730D01*
X216976610Y-64824860D01*
X216976599Y-64824858D01*
X216750002Y-64805034D01*
X216749998Y-64805034D01*
X216523400Y-64824858D01*
X216523389Y-64824860D01*
X216303682Y-64883730D01*
X216303673Y-64883734D01*
X216097516Y-64979866D01*
X216097512Y-64979868D01*
X216024526Y-65030973D01*
X216024526Y-65030974D01*
X216703553Y-65710000D01*
X216697339Y-65710000D01*
X216595606Y-65737259D01*
X216504394Y-65789920D01*
X216429920Y-65864394D01*
X216377259Y-65955606D01*
X216350000Y-66057339D01*
X216350000Y-66063552D01*
X215670974Y-65384526D01*
X215670973Y-65384526D01*
X215619868Y-65457512D01*
X215619866Y-65457516D01*
X215523734Y-65663673D01*
X215523730Y-65663682D01*
X215471775Y-65857584D01*
X215435410Y-65917245D01*
X215372563Y-65947774D01*
X215303187Y-65939479D01*
X215249310Y-65894994D01*
X215228035Y-65828442D01*
X215228000Y-65825491D01*
X215228000Y-63818505D01*
X215225396Y-63805417D01*
X215225395Y-63805413D01*
X215225394Y-63805408D01*
X215201080Y-63683172D01*
X215191849Y-63660886D01*
X215148277Y-63555692D01*
X215071612Y-63440954D01*
X211481545Y-59850887D01*
X211366807Y-59774222D01*
X211239332Y-59721421D01*
X211239322Y-59721418D01*
X211103996Y-59694500D01*
X211103994Y-59694500D01*
X211103993Y-59694500D01*
X204984049Y-59694500D01*
X204917010Y-59674815D01*
X204871255Y-59622011D01*
X204861311Y-59552853D01*
X204890336Y-59489297D01*
X204896368Y-59482819D01*
X205050045Y-59329141D01*
X205050047Y-59329139D01*
X205180568Y-59142734D01*
X205276739Y-58936496D01*
X205335635Y-58716692D01*
X205355468Y-58490000D01*
X205335635Y-58263308D01*
X205335633Y-58263303D01*
X205335180Y-58258117D01*
X205348946Y-58189617D01*
X205371024Y-58159631D01*
X207134113Y-56396543D01*
X207210774Y-56281812D01*
X207210775Y-56281811D01*
X207263580Y-56154328D01*
X207290500Y-56018993D01*
X207290500Y-54884499D01*
X207310185Y-54817460D01*
X207362989Y-54771705D01*
X207414500Y-54760499D01*
X207487871Y-54760499D01*
X207487872Y-54760499D01*
X207547483Y-54754091D01*
X207682331Y-54703796D01*
X207797546Y-54617546D01*
X207883796Y-54502331D01*
X207890581Y-54484141D01*
X207933002Y-54370402D01*
X207974872Y-54314468D01*
X208040337Y-54290050D01*
X208108610Y-54304901D01*
X208136865Y-54326053D01*
X208258917Y-54448105D01*
X208452421Y-54583600D01*
X208666507Y-54683429D01*
X208666516Y-54683433D01*
X208880000Y-54740634D01*
X208880000Y-53843012D01*
X208937007Y-53875925D01*
X209064174Y-53910000D01*
X209195826Y-53910000D01*
X209322993Y-53875925D01*
X209380000Y-53843012D01*
X209380000Y-54740633D01*
X209593483Y-54683433D01*
X209593492Y-54683429D01*
X209807578Y-54583600D01*
X210001082Y-54448105D01*
X210168105Y-54281082D01*
X210303600Y-54087578D01*
X210403429Y-53873492D01*
X210403432Y-53873486D01*
X210460636Y-53660000D01*
X209563012Y-53660000D01*
X209595925Y-53602993D01*
X209630000Y-53475826D01*
X209630000Y-53344174D01*
X209595925Y-53217007D01*
X209563012Y-53160000D01*
X210460636Y-53160000D01*
X210460635Y-53159999D01*
X210403432Y-52946513D01*
X210403429Y-52946507D01*
X210303600Y-52732422D01*
X210303599Y-52732420D01*
X210168113Y-52538926D01*
X210168108Y-52538920D01*
X210001082Y-52371894D01*
X209807578Y-52236399D01*
X209593492Y-52136570D01*
X209593486Y-52136567D01*
X209380000Y-52079364D01*
X209380000Y-52976988D01*
X209322993Y-52944075D01*
X209195826Y-52910000D01*
X209064174Y-52910000D01*
X208937007Y-52944075D01*
X208880000Y-52976988D01*
X208880000Y-52079364D01*
X208879999Y-52079364D01*
X208666513Y-52136567D01*
X208666507Y-52136570D01*
X208452422Y-52236399D01*
X208452420Y-52236400D01*
X208258926Y-52371886D01*
X208136865Y-52493947D01*
X208075542Y-52527431D01*
X208005850Y-52522447D01*
X207949917Y-52480575D01*
X207933002Y-52449598D01*
X207911333Y-52391501D01*
X207883796Y-52317669D01*
X207883795Y-52317668D01*
X207883793Y-52317664D01*
X207797547Y-52202455D01*
X207797544Y-52202452D01*
X207682335Y-52116206D01*
X207682328Y-52116202D01*
X207547482Y-52065908D01*
X207547483Y-52065908D01*
X207487883Y-52059501D01*
X207487881Y-52059500D01*
X207487873Y-52059500D01*
X207487864Y-52059500D01*
X205692129Y-52059500D01*
X205692123Y-52059501D01*
X205632516Y-52065908D01*
X205497671Y-52116202D01*
X205497664Y-52116206D01*
X205382455Y-52202452D01*
X205382452Y-52202455D01*
X205296206Y-52317664D01*
X205296202Y-52317671D01*
X205245908Y-52452517D01*
X205239501Y-52512116D01*
X205239500Y-52512135D01*
X205239500Y-54307870D01*
X205239501Y-54307876D01*
X205245908Y-54367483D01*
X205296202Y-54502328D01*
X205296206Y-54502335D01*
X205382452Y-54617544D01*
X205382455Y-54617547D01*
X205497664Y-54703793D01*
X205497671Y-54703797D01*
X205542618Y-54720561D01*
X205632517Y-54754091D01*
X205692127Y-54760500D01*
X205765500Y-54760499D01*
X205832538Y-54780183D01*
X205878294Y-54832986D01*
X205889500Y-54884499D01*
X205889500Y-55608480D01*
X205869815Y-55675519D01*
X205853181Y-55696161D01*
X204380369Y-57168972D01*
X204319046Y-57202457D01*
X204281881Y-57204819D01*
X204276680Y-57204364D01*
X204257171Y-57202657D01*
X204050002Y-57184532D01*
X204049998Y-57184532D01*
X203823313Y-57204364D01*
X203823302Y-57204366D01*
X203603511Y-57263258D01*
X203603502Y-57263261D01*
X203397267Y-57359431D01*
X203397265Y-57359432D01*
X203210858Y-57489954D01*
X203049954Y-57650858D01*
X202919432Y-57837265D01*
X202919431Y-57837267D01*
X202823261Y-58043502D01*
X202823258Y-58043511D01*
X202764366Y-58263302D01*
X202764364Y-58263313D01*
X202744532Y-58489998D01*
X202744532Y-58490001D01*
X202764364Y-58716686D01*
X202764366Y-58716697D01*
X202823258Y-58936488D01*
X202823261Y-58936497D01*
X202919431Y-59142732D01*
X202919432Y-59142734D01*
X203049954Y-59329141D01*
X203210856Y-59490043D01*
X203210859Y-59490045D01*
X203210861Y-59490047D01*
X203233261Y-59505731D01*
X203276885Y-59560305D01*
X203284080Y-59629803D01*
X203252559Y-59692159D01*
X203209591Y-59721867D01*
X203083190Y-59774223D01*
X202968454Y-59850887D01*
X199060887Y-63758454D01*
X198984222Y-63873192D01*
X198931421Y-64000667D01*
X198931418Y-64000677D01*
X198904500Y-64136004D01*
X198904500Y-67673481D01*
X198884815Y-67740520D01*
X198868181Y-67761162D01*
X196176162Y-70453181D01*
X196114839Y-70486666D01*
X196088481Y-70489500D01*
X192551004Y-70489500D01*
X192415677Y-70516418D01*
X192415667Y-70516421D01*
X192288192Y-70569222D01*
X192173454Y-70645887D01*
X190170887Y-72648454D01*
X190094223Y-72763190D01*
X190041867Y-72889591D01*
X189998026Y-72943994D01*
X189931732Y-72966059D01*
X189864032Y-72948780D01*
X189825732Y-72913261D01*
X189810047Y-72890861D01*
X189810044Y-72890858D01*
X189810043Y-72890856D01*
X189649141Y-72729954D01*
X189462734Y-72599432D01*
X189462732Y-72599431D01*
X189256497Y-72503261D01*
X189256488Y-72503258D01*
X189036697Y-72444366D01*
X189036693Y-72444365D01*
X189036692Y-72444365D01*
X189036691Y-72444364D01*
X189036686Y-72444364D01*
X188810002Y-72424532D01*
X188809998Y-72424532D01*
X188583313Y-72444364D01*
X188583302Y-72444366D01*
X188363511Y-72503258D01*
X188363502Y-72503261D01*
X188157267Y-72599431D01*
X188157265Y-72599432D01*
X187970858Y-72729954D01*
X187838416Y-72862397D01*
X187777093Y-72895882D01*
X187707401Y-72890898D01*
X187663054Y-72862397D01*
X182906546Y-68105888D01*
X182791807Y-68029222D01*
X182664332Y-67976421D01*
X182664322Y-67976418D01*
X182528996Y-67949500D01*
X182528994Y-67949500D01*
X182528993Y-67949500D01*
X169193994Y-67949500D01*
X169056006Y-67949500D01*
X169056004Y-67949500D01*
X168920677Y-67976418D01*
X168920667Y-67976421D01*
X168793192Y-68029222D01*
X168678453Y-68105888D01*
X167511681Y-69272661D01*
X167450358Y-69306146D01*
X167380666Y-69301162D01*
X167324733Y-69259290D01*
X167300316Y-69193826D01*
X167300000Y-69184980D01*
X167300000Y-68920000D01*
X166383012Y-68920000D01*
X166415925Y-68862993D01*
X166450000Y-68735826D01*
X166450000Y-68604174D01*
X166415925Y-68477007D01*
X166383012Y-68420000D01*
X167300000Y-68420000D01*
X167300000Y-67772172D01*
X167299999Y-67772155D01*
X167293598Y-67712627D01*
X167293596Y-67712620D01*
X167243354Y-67577913D01*
X167243350Y-67577906D01*
X167157190Y-67462812D01*
X167157187Y-67462809D01*
X167042093Y-67376649D01*
X167042088Y-67376646D01*
X166910528Y-67327577D01*
X166854595Y-67285705D01*
X166830178Y-67220241D01*
X166845030Y-67151968D01*
X166866175Y-67123720D01*
X166988495Y-67001401D01*
X167071136Y-66883376D01*
X167125713Y-66839752D01*
X167172711Y-66830500D01*
X169808996Y-66830500D01*
X169922962Y-66807830D01*
X169944328Y-66803580D01*
X170008069Y-66777177D01*
X170071807Y-66750777D01*
X170071808Y-66750776D01*
X170071811Y-66750775D01*
X170186543Y-66674114D01*
X177633838Y-59226819D01*
X177695161Y-59193334D01*
X177721519Y-59190500D01*
X192728327Y-59190500D01*
X192795366Y-59210185D01*
X192829902Y-59243377D01*
X192889954Y-59329141D01*
X193050857Y-59490044D01*
X193050860Y-59490046D01*
X193050861Y-59490047D01*
X193136623Y-59550097D01*
X193180248Y-59604673D01*
X193189500Y-59651672D01*
X193189500Y-64948326D01*
X193169815Y-65015365D01*
X193136624Y-65049901D01*
X193050863Y-65109951D01*
X192889951Y-65270862D01*
X192759432Y-65457265D01*
X192759431Y-65457267D01*
X192663261Y-65663502D01*
X192663258Y-65663511D01*
X192604366Y-65883302D01*
X192604364Y-65883313D01*
X192584532Y-66109998D01*
X192584532Y-66110001D01*
X192604364Y-66336686D01*
X192604366Y-66336697D01*
X192663258Y-66556488D01*
X192663261Y-66556497D01*
X192759431Y-66762732D01*
X192759432Y-66762734D01*
X192889954Y-66949141D01*
X193043632Y-67102819D01*
X193077117Y-67164142D01*
X193072133Y-67233834D01*
X193030261Y-67289767D01*
X192964797Y-67314184D01*
X192955951Y-67314500D01*
X189786519Y-67314500D01*
X189719480Y-67294815D01*
X189698838Y-67278181D01*
X187986546Y-65565888D01*
X187986545Y-65565887D01*
X187871807Y-65489222D01*
X187744332Y-65436421D01*
X187744322Y-65436418D01*
X187608996Y-65409500D01*
X187608994Y-65409500D01*
X187478707Y-65409500D01*
X187411668Y-65389815D01*
X187377132Y-65356623D01*
X187308494Y-65258597D01*
X187141402Y-65091506D01*
X187141395Y-65091501D01*
X186947834Y-64955967D01*
X186947830Y-64955965D01*
X186931448Y-64948326D01*
X186733663Y-64856097D01*
X186733659Y-64856096D01*
X186733655Y-64856094D01*
X186505413Y-64794938D01*
X186505403Y-64794936D01*
X186270001Y-64774341D01*
X186269999Y-64774341D01*
X186034596Y-64794936D01*
X186034586Y-64794938D01*
X185806344Y-64856094D01*
X185806335Y-64856098D01*
X185592171Y-64955964D01*
X185592169Y-64955965D01*
X185398597Y-65091505D01*
X185231505Y-65258597D01*
X185095965Y-65452169D01*
X185095964Y-65452171D01*
X184996098Y-65666335D01*
X184996094Y-65666344D01*
X184934938Y-65894586D01*
X184934936Y-65894596D01*
X184914341Y-66129999D01*
X184914341Y-66130000D01*
X184934936Y-66365403D01*
X184934938Y-66365413D01*
X184996094Y-66593655D01*
X184996096Y-66593659D01*
X184996097Y-66593663D01*
X185074936Y-66762734D01*
X185095965Y-66807830D01*
X185095967Y-66807834D01*
X185231501Y-67001395D01*
X185231506Y-67001402D01*
X185353430Y-67123326D01*
X185386915Y-67184649D01*
X185381931Y-67254341D01*
X185340059Y-67310274D01*
X185309083Y-67327189D01*
X185177669Y-67376203D01*
X185177664Y-67376206D01*
X185062455Y-67462452D01*
X185062452Y-67462455D01*
X184976206Y-67577664D01*
X184976202Y-67577671D01*
X184925908Y-67712517D01*
X184921650Y-67752127D01*
X184919501Y-67772123D01*
X184919500Y-67772135D01*
X184919500Y-69567870D01*
X184919501Y-69567876D01*
X184925908Y-69627483D01*
X184976202Y-69762328D01*
X184976206Y-69762335D01*
X185062452Y-69877544D01*
X185062455Y-69877547D01*
X185177664Y-69963793D01*
X185177671Y-69963797D01*
X185312517Y-70014091D01*
X185312516Y-70014091D01*
X185319444Y-70014835D01*
X185372127Y-70020500D01*
X187167872Y-70020499D01*
X187227483Y-70014091D01*
X187362331Y-69963796D01*
X187477546Y-69877546D01*
X187563796Y-69762331D01*
X187614091Y-69627483D01*
X187620500Y-69567873D01*
X187620500Y-69494500D01*
X187640185Y-69427461D01*
X187692989Y-69381706D01*
X187744500Y-69370500D01*
X195208996Y-69370500D01*
X195300040Y-69352389D01*
X195344328Y-69343580D01*
X195434702Y-69306146D01*
X195471807Y-69290777D01*
X195471808Y-69290776D01*
X195471811Y-69290775D01*
X195586543Y-69214114D01*
X197291614Y-67509043D01*
X197331737Y-67448994D01*
X197368275Y-67394311D01*
X197395917Y-67327577D01*
X197405667Y-67304038D01*
X197405668Y-67304035D01*
X197407546Y-67299501D01*
X197421080Y-67266829D01*
X197439212Y-67175671D01*
X197448000Y-67131493D01*
X197448000Y-57244018D01*
X197467685Y-57176979D01*
X197484319Y-57156337D01*
X198244113Y-56396543D01*
X198320774Y-56281812D01*
X198320775Y-56281811D01*
X198373580Y-56154328D01*
X198400500Y-56018993D01*
X198400500Y-55061517D01*
X198420185Y-54994478D01*
X198436815Y-54973840D01*
X198593837Y-54816817D01*
X198655160Y-54783333D01*
X198681518Y-54780499D01*
X199887871Y-54780499D01*
X199887872Y-54780499D01*
X199947483Y-54774091D01*
X200082331Y-54723796D01*
X200197546Y-54637546D01*
X200283796Y-54522331D01*
X200334091Y-54387483D01*
X200340500Y-54327873D01*
X200340499Y-52532128D01*
X200334091Y-52472517D01*
X200332810Y-52469083D01*
X200283797Y-52337671D01*
X200283793Y-52337664D01*
X200197547Y-52222455D01*
X200197544Y-52222452D01*
X200082335Y-52136206D01*
X200082328Y-52136202D01*
X199947482Y-52085908D01*
X199947483Y-52085908D01*
X199887883Y-52079501D01*
X199887881Y-52079500D01*
X199887873Y-52079500D01*
X199887864Y-52079500D01*
X198092129Y-52079500D01*
X198092123Y-52079501D01*
X198032516Y-52085908D01*
X197897671Y-52136202D01*
X197897664Y-52136206D01*
X197782455Y-52222452D01*
X197782452Y-52222455D01*
X197696206Y-52337664D01*
X197696203Y-52337669D01*
X197647189Y-52469083D01*
X197605317Y-52525016D01*
X197539853Y-52549433D01*
X197471580Y-52534581D01*
X197443326Y-52513430D01*
X197321402Y-52391506D01*
X197321395Y-52391501D01*
X197127834Y-52255967D01*
X197127830Y-52255965D01*
X197085873Y-52236400D01*
X196913663Y-52156097D01*
X196913659Y-52156096D01*
X196913655Y-52156094D01*
X196685413Y-52094938D01*
X196685403Y-52094936D01*
X196450001Y-52074341D01*
X196449999Y-52074341D01*
X196214596Y-52094936D01*
X196214586Y-52094938D01*
X195986344Y-52156094D01*
X195986335Y-52156098D01*
X195772171Y-52255964D01*
X195772169Y-52255965D01*
X195578597Y-52391505D01*
X195411505Y-52558597D01*
X195281575Y-52744158D01*
X195226998Y-52787783D01*
X195157500Y-52794977D01*
X195095145Y-52763454D01*
X195078425Y-52744158D01*
X194948494Y-52558597D01*
X194781402Y-52391506D01*
X194781395Y-52391501D01*
X194587834Y-52255967D01*
X194587830Y-52255965D01*
X194545873Y-52236400D01*
X194373663Y-52156097D01*
X194373659Y-52156096D01*
X194373655Y-52156094D01*
X194145413Y-52094938D01*
X194145403Y-52094936D01*
X193910001Y-52074341D01*
X193909999Y-52074341D01*
X193674596Y-52094936D01*
X193674586Y-52094938D01*
X193446344Y-52156094D01*
X193446335Y-52156098D01*
X193232171Y-52255964D01*
X193232169Y-52255965D01*
X193038597Y-52391505D01*
X192871505Y-52558597D01*
X192741575Y-52744158D01*
X192686998Y-52787783D01*
X192617500Y-52794977D01*
X192555145Y-52763454D01*
X192538425Y-52744158D01*
X192408494Y-52558597D01*
X192241402Y-52391506D01*
X192241395Y-52391501D01*
X192047834Y-52255967D01*
X192047830Y-52255965D01*
X192005873Y-52236400D01*
X191833663Y-52156097D01*
X191833659Y-52156096D01*
X191833655Y-52156094D01*
X191605413Y-52094938D01*
X191605403Y-52094936D01*
X191370001Y-52074341D01*
X191369999Y-52074341D01*
X191134596Y-52094936D01*
X191134586Y-52094938D01*
X190906344Y-52156094D01*
X190906335Y-52156098D01*
X190692171Y-52255964D01*
X190692169Y-52255965D01*
X190498597Y-52391505D01*
X190331506Y-52558596D01*
X190248864Y-52676623D01*
X190194287Y-52720248D01*
X190147289Y-52729500D01*
X187492711Y-52729500D01*
X187425672Y-52709815D01*
X187391136Y-52676623D01*
X187308494Y-52558597D01*
X187141402Y-52391506D01*
X187141395Y-52391501D01*
X186947834Y-52255967D01*
X186947830Y-52255965D01*
X186905873Y-52236400D01*
X186733663Y-52156097D01*
X186733659Y-52156096D01*
X186733655Y-52156094D01*
X186505413Y-52094938D01*
X186505403Y-52094936D01*
X186270001Y-52074341D01*
X186269999Y-52074341D01*
X186034596Y-52094936D01*
X186034586Y-52094938D01*
X185806344Y-52156094D01*
X185806335Y-52156098D01*
X185592171Y-52255964D01*
X185592169Y-52255965D01*
X185398597Y-52391505D01*
X185231505Y-52558597D01*
X185095965Y-52752169D01*
X185095964Y-52752171D01*
X184996098Y-52966335D01*
X184996094Y-52966344D01*
X184934938Y-53194586D01*
X184934936Y-53194596D01*
X184914341Y-53429999D01*
X184914341Y-53430000D01*
X184934936Y-53665403D01*
X184934938Y-53665413D01*
X184996094Y-53893655D01*
X184996096Y-53893659D01*
X184996097Y-53893663D01*
X185033612Y-53974114D01*
X185095965Y-54107830D01*
X185095967Y-54107834D01*
X185177039Y-54223616D01*
X185231501Y-54301396D01*
X185231506Y-54301402D01*
X185353430Y-54423326D01*
X185386915Y-54484649D01*
X185381931Y-54554341D01*
X185340059Y-54610274D01*
X185309083Y-54627189D01*
X185177669Y-54676203D01*
X185177664Y-54676206D01*
X185062455Y-54762452D01*
X185062452Y-54762455D01*
X184976206Y-54877664D01*
X184976202Y-54877671D01*
X184925908Y-55012517D01*
X184919501Y-55072116D01*
X184919500Y-55072135D01*
X184919500Y-56867870D01*
X184919501Y-56867876D01*
X184925908Y-56927483D01*
X184976202Y-57062328D01*
X184976206Y-57062335D01*
X185062452Y-57177544D01*
X185062455Y-57177547D01*
X185177664Y-57263793D01*
X185177671Y-57263797D01*
X185312517Y-57314091D01*
X185312516Y-57314091D01*
X185319444Y-57314835D01*
X185372127Y-57320500D01*
X187167872Y-57320499D01*
X187227483Y-57314091D01*
X187362331Y-57263796D01*
X187477546Y-57177546D01*
X187563796Y-57062331D01*
X187614091Y-56927483D01*
X187620500Y-56867873D01*
X187620500Y-56159500D01*
X187640185Y-56092461D01*
X187692989Y-56046706D01*
X187744500Y-56035500D01*
X192073996Y-56035500D01*
X192165040Y-56017389D01*
X192209328Y-56008580D01*
X192273069Y-55982177D01*
X192336807Y-55955777D01*
X192336808Y-55955776D01*
X192336811Y-55955775D01*
X192451543Y-55879114D01*
X193538006Y-54792649D01*
X193599327Y-54759166D01*
X193657778Y-54760557D01*
X193674592Y-54765063D01*
X193862918Y-54781539D01*
X193909999Y-54785659D01*
X193910000Y-54785659D01*
X193910001Y-54785659D01*
X193949234Y-54782226D01*
X194145408Y-54765063D01*
X194373663Y-54703903D01*
X194587830Y-54604035D01*
X194781401Y-54468495D01*
X194948495Y-54301401D01*
X195078425Y-54115842D01*
X195133002Y-54072217D01*
X195202500Y-54065023D01*
X195264855Y-54096546D01*
X195281575Y-54115842D01*
X195411501Y-54301396D01*
X195411506Y-54301402D01*
X195578597Y-54468494D01*
X195696623Y-54551136D01*
X195740248Y-54605713D01*
X195749500Y-54652711D01*
X195749500Y-54953480D01*
X195729815Y-55020519D01*
X195713181Y-55041161D01*
X195250888Y-55503453D01*
X195250887Y-55503454D01*
X195174222Y-55618192D01*
X195121421Y-55745667D01*
X195121418Y-55745679D01*
X195094882Y-55879085D01*
X195094878Y-55879108D01*
X195094501Y-55881001D01*
X195094500Y-55881011D01*
X195094500Y-57555951D01*
X195074815Y-57622990D01*
X195022011Y-57668745D01*
X194952853Y-57678689D01*
X194889297Y-57649664D01*
X194882819Y-57643632D01*
X194729141Y-57489954D01*
X194542734Y-57359432D01*
X194542732Y-57359431D01*
X194336497Y-57263261D01*
X194336488Y-57263258D01*
X194116697Y-57204366D01*
X194116693Y-57204365D01*
X194116692Y-57204365D01*
X194116691Y-57204364D01*
X194116686Y-57204364D01*
X193890002Y-57184532D01*
X193889998Y-57184532D01*
X193663313Y-57204364D01*
X193663302Y-57204366D01*
X193443511Y-57263258D01*
X193443502Y-57263261D01*
X193237267Y-57359431D01*
X193237265Y-57359432D01*
X193050858Y-57489954D01*
X192889954Y-57650858D01*
X192829902Y-57736623D01*
X192775325Y-57780248D01*
X192728327Y-57789500D01*
X177721518Y-57789500D01*
X177654479Y-57769815D01*
X177633837Y-57753181D01*
X170962338Y-51081681D01*
X170928853Y-51020358D01*
X170933837Y-50950666D01*
X170975709Y-50894733D01*
X171041173Y-50870316D01*
X171050019Y-50870000D01*
X216698638Y-50870000D01*
X216765677Y-50889685D01*
G37*
%TD.AperFunction*%
%TA.AperFunction,Conductor*%
G36*
X215292393Y-94818840D02*
G01*
X215348193Y-94830055D01*
X215398376Y-94878670D01*
X215414500Y-94939816D01*
X215414500Y-95613479D01*
X215394815Y-95680518D01*
X215378181Y-95701160D01*
X215356945Y-95722396D01*
X215295622Y-95755881D01*
X215225930Y-95750897D01*
X215181583Y-95722396D01*
X215049141Y-95589954D01*
X214862734Y-95459432D01*
X214862730Y-95459430D01*
X214847022Y-95452105D01*
X214794583Y-95405931D01*
X214775433Y-95338737D01*
X214795650Y-95271857D01*
X214847028Y-95227340D01*
X214862481Y-95220134D01*
X214935471Y-95169024D01*
X214256447Y-94490000D01*
X214262661Y-94490000D01*
X214364394Y-94462741D01*
X214455606Y-94410080D01*
X214530080Y-94335606D01*
X214582741Y-94244394D01*
X214610000Y-94142661D01*
X214610000Y-94136447D01*
X215292393Y-94818840D01*
G37*
%TD.AperFunction*%
%TA.AperFunction,Conductor*%
G36*
X169485520Y-51590185D02*
G01*
X169506162Y-51606819D01*
X176301661Y-58402318D01*
X176335146Y-58463641D01*
X176330162Y-58533333D01*
X176301661Y-58577680D01*
X169486162Y-65393181D01*
X169424839Y-65426666D01*
X169398481Y-65429500D01*
X167172711Y-65429500D01*
X167105672Y-65409815D01*
X167071136Y-65376623D01*
X166988494Y-65258597D01*
X166821402Y-65091506D01*
X166821395Y-65091501D01*
X166627834Y-64955967D01*
X166627830Y-64955965D01*
X166611448Y-64948326D01*
X166413663Y-64856097D01*
X166413659Y-64856096D01*
X166413655Y-64856094D01*
X166185413Y-64794938D01*
X166185403Y-64794936D01*
X165950001Y-64774341D01*
X165949999Y-64774341D01*
X165714596Y-64794936D01*
X165714586Y-64794938D01*
X165486344Y-64856094D01*
X165486335Y-64856098D01*
X165272171Y-64955964D01*
X165272169Y-64955965D01*
X165078597Y-65091505D01*
X164911505Y-65258597D01*
X164775965Y-65452169D01*
X164775964Y-65452171D01*
X164676098Y-65666335D01*
X164676094Y-65666344D01*
X164614938Y-65894586D01*
X164614936Y-65894596D01*
X164594341Y-66129999D01*
X164594341Y-66130000D01*
X164614936Y-66365403D01*
X164614938Y-66365413D01*
X164676094Y-66593655D01*
X164676096Y-66593659D01*
X164676097Y-66593663D01*
X164754936Y-66762734D01*
X164775965Y-66807830D01*
X164775967Y-66807834D01*
X164911501Y-67001395D01*
X164911506Y-67001402D01*
X165033818Y-67123714D01*
X165067303Y-67185037D01*
X165062319Y-67254729D01*
X165020447Y-67310662D01*
X164989471Y-67327577D01*
X164857912Y-67376646D01*
X164857906Y-67376649D01*
X164742812Y-67462809D01*
X164742809Y-67462812D01*
X164656649Y-67577906D01*
X164656645Y-67577913D01*
X164606403Y-67712620D01*
X164606401Y-67712627D01*
X164600000Y-67772155D01*
X164600000Y-68420000D01*
X165516988Y-68420000D01*
X165484075Y-68477007D01*
X165450000Y-68604174D01*
X165450000Y-68735826D01*
X165484075Y-68862993D01*
X165516988Y-68920000D01*
X164600000Y-68920000D01*
X164600000Y-69567844D01*
X164606401Y-69627372D01*
X164606403Y-69627383D01*
X164634660Y-69703143D01*
X164639644Y-69772834D01*
X164606158Y-69834157D01*
X164544835Y-69867642D01*
X164542671Y-69868092D01*
X164475676Y-69881418D01*
X164475667Y-69881421D01*
X164348192Y-69934222D01*
X164233454Y-70010887D01*
X164233453Y-70010888D01*
X161251162Y-72993181D01*
X161189839Y-73026666D01*
X161163481Y-73029500D01*
X159154500Y-73029500D01*
X159087461Y-73009815D01*
X159041706Y-72957011D01*
X159030500Y-72905500D01*
X159030500Y-67311004D01*
X159030499Y-67311002D01*
X159003581Y-67175677D01*
X159003579Y-67175671D01*
X159000607Y-67168495D01*
X158993761Y-67151968D01*
X158950778Y-67048196D01*
X158950776Y-67048192D01*
X158950775Y-67048189D01*
X158874114Y-66933457D01*
X158874112Y-66933454D01*
X157506545Y-65565887D01*
X157391807Y-65489222D01*
X157264332Y-65436421D01*
X157264322Y-65436418D01*
X157128996Y-65409500D01*
X157128994Y-65409500D01*
X157128993Y-65409500D01*
X157012711Y-65409500D01*
X156945672Y-65389815D01*
X156911136Y-65356623D01*
X156828494Y-65238597D01*
X156661402Y-65071506D01*
X156661396Y-65071501D01*
X156475842Y-64941575D01*
X156432217Y-64886998D01*
X156425023Y-64817500D01*
X156456546Y-64755145D01*
X156475842Y-64738425D01*
X156498026Y-64722891D01*
X156661401Y-64608495D01*
X156828495Y-64441401D01*
X156964035Y-64247830D01*
X157063903Y-64033663D01*
X157125063Y-63805408D01*
X157145659Y-63570000D01*
X157125063Y-63334592D01*
X157120558Y-63317779D01*
X157122219Y-63247932D01*
X157152649Y-63198006D01*
X160539630Y-59811025D01*
X160600951Y-59777542D01*
X160638117Y-59775180D01*
X160643303Y-59775633D01*
X160643308Y-59775635D01*
X160848263Y-59793566D01*
X160869999Y-59795468D01*
X160870000Y-59795468D01*
X160870002Y-59795468D01*
X160926673Y-59790509D01*
X161096692Y-59775635D01*
X161316496Y-59716739D01*
X161522734Y-59620568D01*
X161709139Y-59490047D01*
X161870047Y-59329139D01*
X161916094Y-59263377D01*
X161970671Y-59219752D01*
X162017669Y-59210500D01*
X163976007Y-59210500D01*
X164475501Y-59210500D01*
X164542540Y-59230185D01*
X164588295Y-59282989D01*
X164599501Y-59334500D01*
X164599501Y-59407876D01*
X164605908Y-59467483D01*
X164656202Y-59602328D01*
X164656206Y-59602335D01*
X164742452Y-59717544D01*
X164742455Y-59717547D01*
X164857664Y-59803793D01*
X164857671Y-59803797D01*
X164992517Y-59854091D01*
X164992516Y-59854091D01*
X164999444Y-59854835D01*
X165052127Y-59860500D01*
X166847872Y-59860499D01*
X166907483Y-59854091D01*
X167042331Y-59803796D01*
X167157546Y-59717546D01*
X167243796Y-59602331D01*
X167294091Y-59467483D01*
X167300500Y-59407873D01*
X167300499Y-57612128D01*
X167294091Y-57552517D01*
X167243796Y-57417669D01*
X167243795Y-57417668D01*
X167243793Y-57417664D01*
X167157547Y-57302455D01*
X167157544Y-57302452D01*
X167042335Y-57216206D01*
X167042328Y-57216202D01*
X166910401Y-57166997D01*
X166854467Y-57125126D01*
X166830050Y-57059662D01*
X166844902Y-56991389D01*
X166866053Y-56963133D01*
X166988108Y-56841078D01*
X167123600Y-56647578D01*
X167223429Y-56433492D01*
X167223432Y-56433486D01*
X167280636Y-56220000D01*
X166383012Y-56220000D01*
X166415925Y-56162993D01*
X166450000Y-56035826D01*
X166450000Y-55904174D01*
X166415925Y-55777007D01*
X166383012Y-55720000D01*
X167280636Y-55720000D01*
X167280635Y-55719999D01*
X167223432Y-55506513D01*
X167223429Y-55506507D01*
X167123600Y-55292422D01*
X167123599Y-55292420D01*
X166988113Y-55098926D01*
X166988108Y-55098920D01*
X166821078Y-54931890D01*
X166635405Y-54801879D01*
X166591780Y-54747302D01*
X166584588Y-54677804D01*
X166616110Y-54615449D01*
X166635406Y-54598730D01*
X166698800Y-54554341D01*
X166821401Y-54468495D01*
X166988495Y-54301401D01*
X167124035Y-54107830D01*
X167223903Y-53893663D01*
X167285063Y-53665408D01*
X167305659Y-53430000D01*
X167285063Y-53194592D01*
X167223903Y-52966337D01*
X167124035Y-52752171D01*
X167123262Y-52751066D01*
X166988494Y-52558597D01*
X166821402Y-52391506D01*
X166821395Y-52391501D01*
X166627834Y-52255967D01*
X166627830Y-52255965D01*
X166585873Y-52236400D01*
X166413663Y-52156097D01*
X166413659Y-52156096D01*
X166413655Y-52156094D01*
X166185413Y-52094938D01*
X166185403Y-52094936D01*
X165950001Y-52074341D01*
X165949999Y-52074341D01*
X165714596Y-52094936D01*
X165714586Y-52094938D01*
X165486344Y-52156094D01*
X165486335Y-52156098D01*
X165272171Y-52255964D01*
X165272169Y-52255965D01*
X165078597Y-52391505D01*
X164911506Y-52558596D01*
X164828864Y-52676623D01*
X164774287Y-52720248D01*
X164727289Y-52729500D01*
X164591003Y-52729500D01*
X164482590Y-52751065D01*
X164482589Y-52751065D01*
X164466379Y-52754289D01*
X164455669Y-52756420D01*
X164417531Y-52772218D01*
X164328191Y-52809223D01*
X164237946Y-52869524D01*
X164237945Y-52869525D01*
X164213454Y-52885888D01*
X164213453Y-52885889D01*
X163500888Y-53598453D01*
X163500887Y-53598454D01*
X163424222Y-53713192D01*
X163371421Y-53840667D01*
X163371418Y-53840679D01*
X163344882Y-53974085D01*
X163344878Y-53974108D01*
X163344501Y-53976001D01*
X163344500Y-53976011D01*
X163344500Y-57685500D01*
X163324815Y-57752539D01*
X163272011Y-57798294D01*
X163220500Y-57809500D01*
X162045677Y-57809500D01*
X161978638Y-57789815D01*
X161944102Y-57756623D01*
X161870045Y-57650858D01*
X161709141Y-57489954D01*
X161522734Y-57359432D01*
X161522730Y-57359430D01*
X161507022Y-57352105D01*
X161454583Y-57305931D01*
X161435433Y-57238737D01*
X161455650Y-57171857D01*
X161507028Y-57127340D01*
X161522481Y-57120134D01*
X161595471Y-57069024D01*
X160916447Y-56390000D01*
X160922661Y-56390000D01*
X161024394Y-56362741D01*
X161115606Y-56310080D01*
X161190080Y-56235606D01*
X161242741Y-56144394D01*
X161270000Y-56042661D01*
X161270000Y-56036447D01*
X161949024Y-56715471D01*
X162000136Y-56642478D01*
X162096264Y-56436331D01*
X162096269Y-56436317D01*
X162155139Y-56216610D01*
X162155141Y-56216599D01*
X162174966Y-55990002D01*
X162174966Y-55989997D01*
X162155141Y-55763400D01*
X162155139Y-55763389D01*
X162096269Y-55543682D01*
X162096264Y-55543668D01*
X162000136Y-55337521D01*
X162000132Y-55337513D01*
X161949025Y-55264526D01*
X161270000Y-55943551D01*
X161270000Y-55937339D01*
X161242741Y-55835606D01*
X161190080Y-55744394D01*
X161115606Y-55669920D01*
X161024394Y-55617259D01*
X160922661Y-55590000D01*
X160916448Y-55590000D01*
X161595472Y-54910974D01*
X161522478Y-54859863D01*
X161316331Y-54763735D01*
X161316317Y-54763730D01*
X161096610Y-54704860D01*
X161096599Y-54704858D01*
X160870002Y-54685034D01*
X160869998Y-54685034D01*
X160643400Y-54704858D01*
X160643389Y-54704860D01*
X160423682Y-54763730D01*
X160423673Y-54763734D01*
X160217516Y-54859866D01*
X160217512Y-54859868D01*
X160144526Y-54910973D01*
X160144526Y-54910974D01*
X160823553Y-55590000D01*
X160817339Y-55590000D01*
X160715606Y-55617259D01*
X160624394Y-55669920D01*
X160549920Y-55744394D01*
X160497259Y-55835606D01*
X160470000Y-55937339D01*
X160470000Y-55943552D01*
X159790974Y-55264526D01*
X159790973Y-55264526D01*
X159739868Y-55337512D01*
X159739866Y-55337516D01*
X159643734Y-55543673D01*
X159643730Y-55543682D01*
X159584860Y-55763389D01*
X159584858Y-55763400D01*
X159565034Y-55989997D01*
X159565034Y-55990002D01*
X159584858Y-56216599D01*
X159584860Y-56216610D01*
X159643730Y-56436317D01*
X159643735Y-56436331D01*
X159739863Y-56642478D01*
X159790974Y-56715472D01*
X160470000Y-56036446D01*
X160470000Y-56042661D01*
X160497259Y-56144394D01*
X160549920Y-56235606D01*
X160624394Y-56310080D01*
X160715606Y-56362741D01*
X160817339Y-56390000D01*
X160823553Y-56390000D01*
X160144526Y-57069025D01*
X160217513Y-57120132D01*
X160217515Y-57120133D01*
X160232973Y-57127341D01*
X160285413Y-57173513D01*
X160304566Y-57240706D01*
X160284351Y-57307587D01*
X160232979Y-57352104D01*
X160217270Y-57359429D01*
X160217265Y-57359432D01*
X160030858Y-57489954D01*
X159869954Y-57650858D01*
X159739432Y-57837265D01*
X159739431Y-57837267D01*
X159643261Y-58043502D01*
X159643258Y-58043511D01*
X159584366Y-58263302D01*
X159584364Y-58263313D01*
X159564532Y-58489998D01*
X159564532Y-58490001D01*
X159584819Y-58721881D01*
X159571052Y-58790381D01*
X159548972Y-58820369D01*
X157125661Y-61243681D01*
X157064338Y-61277166D01*
X157037980Y-61280000D01*
X156223012Y-61280000D01*
X156255925Y-61222993D01*
X156290000Y-61095826D01*
X156290000Y-60964174D01*
X156255925Y-60837007D01*
X156223012Y-60780000D01*
X157120636Y-60780000D01*
X157120635Y-60779999D01*
X157063432Y-60566513D01*
X157063429Y-60566507D01*
X156963600Y-60352422D01*
X156963599Y-60352420D01*
X156828113Y-60158926D01*
X156828108Y-60158920D01*
X156661078Y-59991890D01*
X156475405Y-59861879D01*
X156431780Y-59807302D01*
X156424588Y-59737804D01*
X156456110Y-59675449D01*
X156475406Y-59658730D01*
X156529907Y-59620568D01*
X156661401Y-59528495D01*
X156828495Y-59361401D01*
X156964035Y-59167830D01*
X157063903Y-58953663D01*
X157125063Y-58725408D01*
X157145659Y-58490000D01*
X157125063Y-58254592D01*
X157063903Y-58026337D01*
X156964035Y-57812171D01*
X156954319Y-57798294D01*
X156828494Y-57618597D01*
X156661404Y-57451508D01*
X156661401Y-57451505D01*
X156661396Y-57451501D01*
X156661393Y-57451499D01*
X156543376Y-57368861D01*
X156499751Y-57314284D01*
X156490500Y-57267287D01*
X156490500Y-54386519D01*
X156510185Y-54319480D01*
X156526819Y-54298838D01*
X159218838Y-51606819D01*
X159280161Y-51573334D01*
X159306519Y-51570500D01*
X169418481Y-51570500D01*
X169485520Y-51590185D01*
G37*
%TD.AperFunction*%
%TD*%
M02*
