%TF.GenerationSoftware,KiCad,Pcbnew,8.0.3*%
%TF.CreationDate,2026-01-09T14:43:18+01:00*%
%TF.ProjectId,VintageRadio,56696e74-6167-4655-9261-64696f2e6b69,rev?*%
%TF.SameCoordinates,Original*%
%TF.FileFunction,Soldermask,Top*%
%TF.FilePolarity,Negative*%
%FSLAX46Y46*%
G04 Gerber Fmt 4.6, Leading zero omitted, Abs format (unit mm)*
G04 Created by KiCad (PCBNEW 8.0.3) date 2026-01-09 14:43:18*
%MOMM*%
%LPD*%
G01*
G04 APERTURE LIST*
%ADD10R,1.700000X1.700000*%
%ADD11O,1.700000X1.700000*%
%ADD12C,1.700000*%
%ADD13O,1.600000X1.600000*%
%ADD14C,1.600000*%
%ADD15C,2.000000*%
G04 APERTURE END LIST*
D10*
%TO.C,J7*%
X188810000Y-91510000D03*
D11*
X188810000Y-94050000D03*
%TD*%
%TO.C,J9*%
X209130000Y-53410000D03*
D10*
X206590000Y-53410000D03*
%TD*%
%TO.C,J1*%
X155790000Y-68650000D03*
D11*
X155790000Y-66110000D03*
X155790000Y-63570000D03*
X155790000Y-61030000D03*
X155790000Y-58490000D03*
%TD*%
D12*
%TO.C,J10*%
X196430000Y-76270000D03*
D11*
X198970000Y-76270000D03*
X201510000Y-76270000D03*
X204050000Y-76270000D03*
X206590000Y-76270000D03*
%TD*%
D13*
%TO.C,R4*%
X204050000Y-66110000D03*
D14*
X193890000Y-66110000D03*
%TD*%
D10*
%TO.C,J8*%
X193890000Y-96590000D03*
D11*
X193890000Y-94050000D03*
X193890000Y-91510000D03*
X193890000Y-88970000D03*
X193890000Y-86430000D03*
X193890000Y-83890000D03*
X193890000Y-81350000D03*
X193890000Y-78810000D03*
X193890000Y-76270000D03*
%TD*%
D14*
%TO.C,C2*%
X214210000Y-96590000D03*
X214210000Y-94090000D03*
%TD*%
%TO.C,R6*%
X193890000Y-58490000D03*
D13*
X204050000Y-58490000D03*
%TD*%
D14*
%TO.C,C1*%
X160870000Y-58490000D03*
X160870000Y-55990000D03*
%TD*%
%TO.C,R1*%
X188810000Y-73730000D03*
D13*
X188810000Y-83890000D03*
%TD*%
D12*
%TO.C,J11*%
X209130000Y-76270000D03*
D11*
X209130000Y-78810000D03*
X209130000Y-81350000D03*
X209130000Y-83890000D03*
X209130000Y-86430000D03*
X209130000Y-88970000D03*
X209130000Y-91510000D03*
X209130000Y-94050000D03*
X209130000Y-96590000D03*
%TD*%
D10*
%TO.C,J4*%
X198990000Y-53430000D03*
D11*
X196450000Y-53430000D03*
X193910000Y-53430000D03*
X191370000Y-53430000D03*
%TD*%
D13*
%TO.C,R7*%
X178650000Y-73730000D03*
D14*
X168490000Y-73730000D03*
%TD*%
%TO.C,R2*%
X155790000Y-76270000D03*
D13*
X155790000Y-86430000D03*
%TD*%
D11*
%TO.C,J3*%
X186270000Y-66130000D03*
D10*
X186270000Y-68670000D03*
%TD*%
D11*
%TO.C,J2*%
X165950000Y-66130000D03*
D10*
X165950000Y-68670000D03*
%TD*%
D11*
%TO.C,J5*%
X165950000Y-53430000D03*
X165950000Y-55970000D03*
D10*
X165950000Y-58510000D03*
%TD*%
D11*
%TO.C,J6*%
X186270000Y-53430000D03*
D10*
X186270000Y-55970000D03*
%TD*%
D15*
%TO.C,H2*%
X218000000Y-51800000D03*
%TD*%
%TO.C,H1*%
X152000000Y-51800000D03*
%TD*%
D13*
%TO.C,R5*%
X206590000Y-66110000D03*
D14*
X216750000Y-66110000D03*
%TD*%
D11*
%TO.C,J13*%
X181190000Y-78810000D03*
X181190000Y-81350000D03*
X181190000Y-83890000D03*
X181190000Y-86430000D03*
X181190000Y-88970000D03*
X181190000Y-91510000D03*
X181190000Y-94050000D03*
D12*
X181190000Y-96590000D03*
%TD*%
D11*
%TO.C,J12*%
X163410000Y-96590000D03*
X163410000Y-94050000D03*
X163410000Y-91510000D03*
X163410000Y-88970000D03*
X163410000Y-86430000D03*
X163410000Y-83890000D03*
X163410000Y-81350000D03*
D10*
X163410000Y-78810000D03*
%TD*%
D14*
%TO.C,R3*%
X158330000Y-76270000D03*
D13*
X158330000Y-86430000D03*
%TD*%
M02*
